<mxfile host="app.diagrams.net" agent="Mozilla/5.0 (Windows NT 10.0; Win64; x64) AppleWebKit/537.36 (KHTML, like Gecko) Chrome/129.0.0.0 Safari/537.36 Edg/129.0.0.0" version="24.7.16">
  <diagram name="Page-1" id="LLnm0-3yA1dGn2KDn67w">
    <mxGraphModel dx="1970" dy="1070" grid="1" gridSize="10" guides="1" tooltips="1" connect="1" arrows="1" fold="1" page="1" pageScale="1" pageWidth="850" pageHeight="1100" math="0" shadow="0">
      <root>
        <mxCell id="0" />
        <mxCell id="1" parent="0" />
        <mxCell id="bzDGTtf_FaZqw25zYTY--14" value="" style="rounded=1;whiteSpace=wrap;html=1;fillColor=#f0f4ff;" vertex="1" parent="1">
          <mxGeometry x="55" y="560" width="195" height="360" as="geometry" />
        </mxCell>
        <mxCell id="bzDGTtf_FaZqw25zYTY--6" value="" style="shape=image;verticalLabelPosition=bottom;labelBackgroundColor=default;verticalAlign=top;aspect=fixed;imageAspect=0;image=https://www.the-odd-dataguy.com/images/posts/20180226/cover.png;" vertex="1" parent="1">
          <mxGeometry x="60" y="520" width="170" height="170" as="geometry" />
        </mxCell>
        <mxCell id="bzDGTtf_FaZqw25zYTY--15" value="" style="shape=image;verticalLabelPosition=bottom;labelBackgroundColor=default;verticalAlign=top;aspect=fixed;imageAspect=0;image=data:image/png,iVBORw0KGgoAAAANSUhEUgAAAfQAAAH0CAYAAADL1t+KAAAAAXNSR0IArs4c6QAAAARnQU1BAACxjwv8YQUAAAAJcEhZcwAADsMAAA7DAcdvqGQAAKdPSURBVHhe7f0HnG3JWd4Lvyvu1PHECZqghLKQiEIBEAabCza/e30NxiQTjAmX/IGxzbUN9jVgZEw2JgsQFwwm2BeMhU0UQoByztLkmZM77bTi9zy1dnXv09N9wpyZOd2rn/851bXyqlVr7XrqrWhCCCGEEEIIIYQQQgghhBBCCCGEEEIIIYQQQgghhBBCCCGEEEIIIYQQQgghhBBCCCGEEEIIIYQQQgghhBBCCCGEEEIIIYQQQgghhBBCCCGEEEIIIYQQQgghhBBCCCGEEEIIIYQQQgghhBBCCCGEEEIIIYQQQgghhBBCCCGEEEIIIYQQQgghhBBCCCGEEEIIIYQQQgghhBBCCCGEEEIIIYQQQgghhBBCCCGEEEIIIYQQQgghhBBCCCGEEEIIIYQQQgghhBBCCCGEEEIIIYQQQgghhBBCCCGEEEIIIYQQQgghhBBCCCGEEEIIIYQQQgghhBBCCCGEEEIIIYQQQgghhBBCCCGEEEIIIYQQQgghhBBCCCGEEEIIIYQQQgghhBBCCCGEEEIIIYQQQgghhBBCCCGEEEIIIYQQQgghhBBCCCGEEEIIIYQQQgghhBBCCCGEEEIIIYQQQgghhBBCCCGEEEIIIYQQQgghhBBCCCGEEEIIIYQQQgghhBBCCCGEEEIIIYQQQgghhBBCCCGEEEIIIYQQQgghhBBCCCGEEEIIIYQQQgghhBBCCCGEEEIIIYQQQgghhBBCCCGEEEIIIYQQ4sAQzHwhDjxnfuWX6iLLrSxLC4LAulFotjm0qKzNqtoqa/yyrpxf4+uuitL5AXbt9kmA4/zyXhRFMVt6NLxOgZNrhAUhcX4Eh7tv+4uDwWX74zDcXs+jwI597dfhKkIIceMoMRFPCB/+xZ+qp6MxVKykKlqZF1ZMxpZPpjadTi2fZhbkEGYshzNBrmuIclVBYJtlbut0Ok5wuR1/Zn5tIYQxwdfbw+UjCngNiQxwrkXO9+tlgZPn1h/l43xcEA7rj8EPogSXwvqu+3t/MsZzhggD9tMPg3h7vYSgrxdTq+LEogjHh4HLqATIqPD5KPxZlm1vr2e+Xy+D0OKlRauT2JIksQRxxfhKOqnFcWxhHLntUZrY7V/8j/RbF6Ll6EcuHjOP/Pwv1Pe94+1WjydOpCnaMazkCEITVlDKsrIin2Ib5S9wAkw/gkJ7q5jCTUuX252YwcU43y1jPy1k7iPOmsb2CGJHwQtwkVE+wp5GYLm+l7+fINcQ3Jo332c//avtD0M+3ZX37xcOPkuVMw4g1szMIO7ol8y0AAo4BXp7O3xmaCoeOzsmiHh9nA/ncUEGPJ7nUdgZApZsVNhHsXf3xtbCBSWwEBmKEBmDOEVmAC7pdHHtyHoLixbg/Ajr3X7Pjn/l1+zcSAhxoNCPU1wXb/nu764fuuceK6cTW4BYHcO2OIMFDrGI8DklMaxGCHINMa/K3BJYoTEUhvJBXaMoGyxq6AyEB2ID8aBPjav9dldkzrvBQo9TnAQBgxVflQWEDAdgO+THClrC3cBwd2xrhHJegOuaRfOwfGfre/kVwnql/Vc7398vhMVdMTxQTPp+PYZF7tdL/PP76fOx0zqF7yIDljs9XhfrLtMSWI5MkruV+6ky84MVF5HIEGA9YAkEfay7eORWxB8LPXhcgfcQsWoC2/OK1QfIEGGdx1fIdAVhhAwChB7Hu8wCb4P7IhfgfJzutjETgaMZTIaOB1mB60yRoQgh9gUzcLjW0sqy9ZeWLewiU9DrW3dpyYIktbu++Et4ZSHEE4h+ZOKqXPz+763vf+e7rdzcsi4S6iANbQJxKCHYgzqymPo2B0uUGyA0s6WdbfzocAIEjhYyhcELHoWR6/v5/jyo4fb5ToCuct6V/EZAr/34/fxgFp7r8clOvOx/fcbPfvvn4+1Kx9Hnfefj71E+j5xLEVxeZUYTzGaDP4b7S/yZF3nC/Vyn7zIWwK+7cNCb0Uk6FqcJxL9r3cUBMgOLzk+RGYiSxLpfqqoCIa4V/VjEvrzxn35bbQ89bMnapnUziDfrY5PQMgjANIRFDus5yHeKz4XYDYv894OZmTJHZiJEVo2lAREyB3HTtsBltLAtguBnRWnDaWYZzqlZFdDp2PFbb7WlZz3LnvrF/1BpmBAz9GMQj+KRn/rZ+j1/9mc2KKbWr2pLLbdOHLvi8zyf2mQygZ0VwFrvWuEqYYV4bKRR6ur687qyAi43OFf1wvr/WX1/GLsGgIYMZRFENioKS2nN33mXvei7/qXSMCFm6McgLuON3/LP6tFH77HTncRsOrG0Y7CQppYHuWuIxuZV7CaWQtLTOLEprKf5Yloh5mHjuyvBtn2ugR6tdB4asWqg2cZMIyvxa3x3rMtnHX4GkR/nhXWXFm35rrttc2HZXvQd36YvUAigH4LY5g++4qvr3tk1uwVC3YVQ97qBbeQjm0DMiziwKI2sGyQWwiqPpxByHAPTHdbT7AJCXCclModsaVGx3gai7hsVOEGHiKew0Kn0Ob41FgaxEWMJY3355Ek79bRn2Fls3Ox17Xnf+s36CsWRRz8CYe/88R+s733jW+1UFdvyKLNOllsPCWxWTCxe6FiVIsGNQ1ckWo0LWO65xQVbVgdWQ+Ql6EeXq1vgV66SiaOOs8gp6LDFsaUpbqe+c3yBydbYOkmK41ILktgKHEMLvbe4ZMfvuNPKwYKdKTPLVhfthd8oS10cbfQDOOI8+KpX1aP77rWH7rnXurCQbl1dsWo6seH6uvXSxMoqb4SbroRFDmspDmGpJ10LYT1NIPoqcj+6XE3Qr9QojlQ+Nwiru/mOKjfwToR8QIjlXtJzRjvbamQVMpl1CVfbysnjdhss9DPjLasHAxuFoU26sNS/6dv1NYojiz7+I85ffd7/US9XhSX91FlJo3yKRLq2ThpbgiQ1qkpXxF7nSGRZhx6nxgFPWHc+yTNLcZw4utyooLM/PqHnuvPRNAcBxJyiXsPCT9hXHt9iDT/D/VhStHgCgv70u+38cMuiXs+myBisTfGtnjhhz/pGFb+Lo0nTcVQcSX7v735+fTqK7TgSySTPkapmFqVICzuh5VZYjvUaws2hWTtO3JuR28aw1KcREtseB4WZXUwcSZrW6Pu7K0HLmw3fInxEHJSIy9RzOu7jt5WkqStmz5DprPFdZkFhk6i0eLlvW8XEwk5ko9GW2WRiJzjC3fqmvfuHfuTKNxaipUjQjyh/+I3fVK9GocVIKANYPCGSzRA+6y2dzyJPOiSN0Xby2DRIKuAyCDp91Z+LG2FmkDuLnN/ablivTmHnd8ZW7vzmiihyjTQL14gusBjr7FLJHhhJXlp1ac3e859+SqIujhwS9CPIu37wVfXaRz5kXQ4Qk5Q2TCuXUJK0NOvDWO/nofXgEip4zVHIYB1BxDMmqFB6J+b6esSNwlHq6HbBIng6jkRXhWx4ySxnbTlEnZPRVHGzjXP/UMpLiDqPT5LABsgZhOcu2Lv+ww9L1MWRQknyEeQ9f/5n9qxbTlpaZ06kJ3FoeRjCWqLFHloKtaawc0hXbmPCCW13Io7dLuGk1U4rXogb4WpVNk2xPb7NAMLuvrfATXgTBin2YVuNDzhIIPaBTaju+DCXuqkdh+AvTsf29le9SqIujgwS9CPGn37LN9YrZWWDfOosdDZEopjDpsHeRtQjuGas8UbMi13F6wkS1g6uQbdTHC/E9eEbwlVh8x02Y9HPwPfHcerZaA5/m+8Ru6MqthQCnsAFJSxzrFucwkJPbFoVNs1zWO05jptamk1sqcjsPT/2g/pKxZFAgn7EmD5y1u5aWbLhmUdsMYqQ8DUJZ/MpUNgjyyniQWQZhD6nmGPdDb3JI5CoJjCEugVFXVa6uDH4+dAxs0hr3Tt+ba5+HZnGGFZ4BGEP8M1FOLDj/sXYj28V3+AUR9Nqj8LEIp7PwvlygsxAZovQ+/LCBXvHj/0HibpoPRL0I8Qffft31Mc7HTcKXB/rMYfQpDAXgcVIKDliF0V8Egc2TEMbJ4GNscxieZfIQvgp4j2c088rnLt3QyYhrgUv3myLQWvdO49r8V4hiwk/oajjG41xcIpMZ8qidhycI+NZwGdxfBfLHQo7r4FvN+rg2x1t2GqSWG9jZO/54R/V1ypajQT9KHH+nGUXL1qY5zZYGlhWsGiyqSv3HwKLPpnIsvjTtYebT2DhKOC+ZbIQN4rrXz5b9jghh/PfGovc3bKbCx/rbO8RNNs6ncStGzKYnLmtKks3CE1RNvO38+xekiIDG1p58ZK9+yf+Y3MRIVrIXHIt2sxff/M31emDj9gSFDyqc6vqwg3LGXD4GFje3jLyqd28pdQku3OJ7GyZ8LjLjxXi2nGZR/g7lgXnindt21xmk+3c0m7PpnlheRTaVlHYbc94unVXli3DuRm+XU612nyb/J55tSZjyu+SQ8aOpxPXUt7S1LYqfPe9jr3wW79TX61oHTu/I9Fqkq1N6+VTi8vCSloxePN03hpvktUmQaRjf/Qdd7mAs77Tny8xFzcEBLlpw9HghHm2vPNt7ZQaVSxPR66S+/hJcnjYCBlTinkDz4arY+dYFM8R5mjFxzi3g7OS4dDO/JSK30X72PkliVaTj2GlwOfc0xR0Wj9MPL1QC3FQYdc1DjDDYnbv/HZCcfeOW3Z/0r6I3qraYjbuhH/x3Hl7xw/9O339olVI0I8Ab/qX/7yuisKCaFb3iG0x7HDXsEiIA8x8Gw6yW9S9Xb4fPJ8izqOrnL3VzfqdrpvLP5pk9tYfkaUu2oME/Qiwcd9DliBRixK87rBJDEN2V0NqyDpxIW4WFNhGmveHpUoe1wAOGVN8xE6sd7t5a52wNMpnANhmhPMScLKXftqxxSix7tbQ3vXDGvtdtAMJ+hEg4pzSM4umrGuLoghi3nQHmqV7QhxoXPE6v+GZOG9vA16894KCzuOYEeBsgTyUlnoJ67yeTu1YHFl18Zy99Uc1+Iw4/EjQW86ZH/7ReqGoLYaVU1Wl5WXR1CmyDzmsFSEOA75o3VnbsNA5he+8kHurfLfFzm+dgu76s0POWSLFKVnZvS3E76HMtuzEILXBZGTv0ohy4pAjQW85l+5/0PosWkfiVZSZFVXuEsemyxoSSCVh4oBDYd72OcPadRDHzXz9RVE0wo4MAevUOQBNN+3gNzG1NChtoUQG9+K6ffin1E9dHF4k6C3n4gMPWQ+vOYCgJ0liUZo4Kz2KEgi6GsWJg4uzsDmzGvuegdFoZAsLCxbjG57mmRP33cXt3lL3+HMjiDgL3F0GlgPUQMCZwY3jEGKfWaeubDWMLH/4jL3zhzRLmzicSNBbTowErelLDutk1lfXF00KcRBpvtJdzMTbOax6xfWNOq+1cSePmz+Hgl8XJS5YWicKbQGWezqZ2ode/eprvKIQBwcJesuJrLAqLJB4NUXshCmVSxRhtUjYxUFgvzERfMM34lur+0ZxHgozz/Vi7YR6Jv77wV1uuuAgxj0Cm+I+BS7CEvqkmFr+4MNq/S4OHRL0FvPIL/wUEqTaTU9pwc5oWhRxzp7GEd+EOOhQVZ04s/4cYs7v11vq8xmB+eVrhUPD1kFiWVXbpCqsxL8U1vogz6y7tWHv+/Efu84rCnHzkKC3mOGZ80isON95kyZxPjWuu9mt4CjoSq3EzcRb1PvhS5C8Vb6fhb7fNbylzutsZwS4jH01kr/KEvwWYmyLm1EUkekNkSvoRbUtIQMRbazZW37w+64QQiEODhL0FrN55iwSqqqx0JF0+USPaxRzinoFS12IgwwFmCJew3GZOIGuKcnMqDZuXtSvlEnw8FoTWOYV51FPUjefumtEH7Dv+tSCamq9urBgY93e+R9V/C4OPkrNW8z44rpL+HzRukurZskSrXQVuYvDhLfO2QedODHH93wtxew+IzAP25Dk+FUUQYRrhG6gJc5xwKopFr1Pqwl+JBO7Y2XFEvyW3vOjKn4XBxsJeovJp1kzCctsnbhEa5YsuaJHWPBC3Dw4zemVv8Gd2dhm/tzsbL4o/Vrxx/Lb5105aiIHnLGytjrDlpJbcf0otjCMkYGIrJpktgTrPTt/wd7+Yz8uURcHFgl6i2Fi1Udy1YUpzgSssNrS0tw6k7PrSQiFeCJoLGeKKL/HRwu7H4vdtXaH2KYQ2pijv2G5OQub2S6EVUtwzTUaR0t73s3fh4416JxOOIVLcHmO8R4FCY5NLaw4TgN861iWlziytJV+asH6eXv3j/57ibo4kEjQWwz72MZlCCt95zWzbtGN4Q6nVEncfCiyV7CyvTW+20qflTt5C92762M2RgN+J43gE14fbm4+dbYzYaaCc8KkzBxsbNjFn/9J/XzEgcP/OkQLoXUjhLgyrvh95qjS80rth4t1JQRVM586SwfOPvyIvetHXiVRFwcKCXqLmR+UQwjxaK5q1bPrGksD8FviiHKcsa2XdtxQsuVwZG/7cdWpi4ODBF0IcaSZL7Kft9Y9tNDdPOwgxkGsx+8lqZtPPbpwyd73H1X8Lg4GEvQW4xMhIcTe7Bbv3fhSLop6HEUw2ANnqVfT3MJpYbctLdrkoQftbT+hfuri5qMUv6Wc+eVfrtnKXQhxdbywz1vrdPwN+Qlc2KCUjnOp+/nUq2xkpxb6Vj78iL33J39Coi5uKhL0lkLLQha6EDcG51PnbynP852pWC2Yzaee2ObGJUussLuPHTc7e0GDz4ibilL8lnLLl31Z4BMgIQ4rFFRnIc9lUOn77Y83u4vgi6Jw90vjpBmRruJws4Gz1NmLpD/oWlVkVo+GdjxJLVnbtPf+qCx1cXOQoAshjix+zHfvXw1f7O6W4QIIfMC+6cgEcHqXblUazHa795dfI1EXTzoSdCHEgWV310uue8eGao8HFGha316s6XZb6rvhrmYceSahoZupLbcCG0qLs6lN73tAxe/iSUeCLoQ48Hjx9mJOHg9Bb0T50cvXSoAkNAhjiHll07JAmGobJJEt1KV1NtftvT/2w9d5RSEeOxJ0IcShgELOevPHq+6c4j1vle+Ft9R9q/ftdexr5lMPOICsVWHYHBNVlsTNfOqLWM/PnrUPa5hY8SQhQRdCHFi8Ne553C30OTcv6vsJ/DwU9rwOLUc4ODNbM3MbMh3FxIpiZFU+smPdxNY/ep+97+ck6uKJR4IuhDgUeDH37vGqQ7+WYnaK9244n3oRRxB1s7KoLYGJHiNrUFeF5eXEyjqzJCztZC+1yUcftI/87M9L1MUTigS9xdDK8EWFu9lrmxAHgb0SpWbbbM/cfOiPB9fzW/DHNgJfue5zZV1B0AtXFeAyGUFkFieWdHuw1HEMRH6137PNBx+y9/7sqyXq4glDgt5iOE1qiTfM6c8p7lxnauKmQwczT4iDw/Z85jPLuardRChOKLHMmc44/Cq50dkEKc5+LvXHMp86qfOpdRAeju/OOvWijLAvReC7WMaPL+pazvBD47udwLJzD9gHfuY/8smEeNyRoB8BaE1cb+tdIQ4CEcTS15kT3yjOzYD2OEBRn3fXB5vEzWeM2TAODja5m0sdfoWL1nTYmyK17QTIhKxdtEu/9NP6RYrHHQl6S7n06l9GOqg0QxwyZv26PbSDfX05Ha1yX7R90BMvVyoWwjqv6mbsd6xzPvU8y+yRBx+yd/7of9APVDyuSNBbyuqXf2mgsdzFYYfC7QWcVnlVFM1EKYekwogCzpCyqqDGcyQIOceB57OEk6m94ydkqYvHD6X4LUazrYmDD5MgiB5kbXe1EIvAKeTzFrqbJIWCzvUDLIU+bL6UjA3jOJc6rfQ0jKwXJbYQQNbPX7AP/KRav4vHBwl6S1n7xdfUTPyEOGw0zc0aAihgY6FD1LFc5pkVZYZ1JF6QwYMu6kVROGucjeZY/M4wW97Mpx5MM1uJApuefdje9/M/J1EXN4wEvaXQMmBCKMRBhgLnRG5mqe8Fv2VfxM46dBZfUyQPsphv4yZvacTdTeTCVvozv0bmJA4KO9aLbXr//fa+n1Hxu7gxJOgthXXoaZrO1oQ4XLC43QO73BW3U9RZD01hdF3XGpWcHXUw8e1YXGO+onQCH4eRm441jSM8BzIo0y1bwbb63Dl7/8/8rERdPGYk6C2GxX1CHGwut8zZ7Wt3spQkiWsMRyHsJqlNJyMrs6kT+JvNTgnD5TBDMp8pYYmCd85SZ6YE28uygLDHttxJbCWIrDp7wd77Myp+F4+Ny385QgjxJOKLzcO50d+8EDpRnDUqc3BAlxoWLSxdWupsQb6XmB4k/LPsHjrWr0aIgLrMrUAGxYrckjwzW9uY7RXi+pCgCyEOCHPJEQUezndZ2waWbVFkrnFcEt/85MvXj++GAu6dt9YfJeo4L4TNzkxLxowKMiwxcijhcNPe/wM/VL9PY7+L60SCLoS4KTTWNRu37VI64MUPNvlM0HcmZClyWLTTbLt++iAwL+q7hXte2P0+f7gbHoeZlxDxkMbWgetGgUWjLaseecQ++HMSdXHtSNCFEAeAXSo4w4s4LfVtQS8Km06nrh76IMPQzbt5UXfLSH4rPHeNjAnnVyjxj7mcFG4QmS1z25mz9uFX/8LBflBxYJCgCyFuEruSH6rdXF06RY8CTkcxD+GSKHKtxTMI+o1OznKjuCLzmduNF3Dv5re5x4Tj3C0FBL3k+O/YUOWFVdnUTb8aQ9y7uPACJH/znnvsw7/8S3vcRYjLkaALIW4ucyLumFv3gu7HVODoh67OOcsOTS8OivduUfcud9Z53GQOCtjrbljbElFQWl5lyCxM7VinY6OP3G/3v/pXJeriikjQhRA3F9+XfK/WZbTO4bnidvgR/kQ1hC/PrS6akRDnBfJqzB87766XvYK6G2+5e0t+N9wUQNA5Ch73s9V+EseWcCrWcFYqgaeOkHFZxLFr995jH/r5X97jSkI0SNCFEDeFZv7x2rnKKSRrlBvnobDlVWlBTEu9tnw8tqisrAuLfev8eUvTxIoA+9PQQhwzyTksbGAdWLVlXlwmvBRuV9Q957juLegrCTyvM+98wsln2Gsedf8czHy4DMhsnc7Pr+6WS1jheL4QF3UlEbg2x5/BQ+EP1rHM7Uka2SA2mz58v93z0xpRTuyNBF0IcdPwgtiI4aPxjeEIhS1CikWBZF1zNhq6dW4vM1jsEPoYFi6Pp5hz2Z23h/x5IffsXt8PJpi7E829zqPFvZ/zuHWK+uzZL89I4C6u6gF7sT3AM0WIpySfWnDpQnOIELvY/W0KIcSBw4s6u6pRwIuisPFwZOWksE4dW5jjmKxyU5NSwIsscw3odmjEMYBIchCbqGqcx1veV2P/rMfjRRPOedyzQ8zZS4/PPx6P7Z5XfX/9wM9rmFhxOZd/OUIIcYCgeBOKmhd1Nozjdo4YN7ywZilMWE5HyklPIhwScR+OLWfHewvaW8juGDhuvhYRvxLXYtXfCLw+u+expILDxnIYXD5/Np7Yxtmz9tHX/L83+ASiTUjQhRAHFgq3F3Xf0p1WKkWNY7uvnztrcZbbAhuTUfQ5mxmEj8e4mdkCFlk3xdYNjZVOF81M7cci6o+7lc7idThfAuCv7wfP8VUPcRS4wWc4uQufd/jAA3bPL/2KRF04JOhCiAMLxdwXs3srfVvQ4SYbWzaFY5evFALPaUkdFHTWtUPIqXZ083XUvi57fgz5gwifdVvU2e9+lmHh3Oop/F6e2/o997j9QkjQhRAHFlqmFHMKOIXNizodi6ITJGGbFy7aaHPTOjgmggVbVYUFEaxdLLvW7EjlKOZcptyzGHu3uO92u+E5e7kbZmaZ73VtOv/8XtQ5KQ1FPahKi+A6dWGraWRv+3fft0eoxVFDgi6EOLDMF7PPF73TcerRbiexrc11CPrWrBiego5zAoge1tmdjEp3mUi6qxwOXLUBMi9uZjnEgctssJQCmRmKeieJLSyn1kFc/LVE/cgjQW8xPgEU4rDCb5iiVsxGheM6BY6wW1oj4IVdunTBNtfXLE1ji+LQMk5HCjHnvpojr2G5kfJG7CnzLJLf6zfCbXQ+E3Ej7mqEbJUfsJHfjmuSZe+aZ+AMcwbRZsd0CrnroA6ycoL4KK2PeFgNI3v3j/yoRP0II0EXQhxaijKzLkS8zMf20AP32dkzD1s/TWxxoW/FZGJJ3FjtIQScdc8BTFwKLUuwm2J8impj/c6LsPfni/ifCMfMCksU/Drx4aDzYWMDwAhWOsPMtgIpGwEi44KsCjImEPl8ahGeN760Zu//wR+RqB9RJOhCiMMJi9Whuyx25gAzw411Wzt/zg0404N4L6apBRks2zy3gBZ+kVvF4WJh6dKqpZWbTzMrstw5DkbDiV/oWCLgSwUI69z3cldjXpz3cs0x0fb1nEDPuZ3qhbIRf4SJ4SyyqRtMJ+10rNNNkIlJbRnCv1BUFq+t2Ud+SJb6UeQaPklxWPmrL/ySerHKLammllZI2Ng/p25mdyrw42d+zg1LqZ++OKSEsMDZ3xxfseX4linBcb9rqydPwZ204XSCT5516RBM/GksYW95wwL2o8nNCSzh8Vx39fFgP/HeqwHd9dHc3w0f68LUXND7HTwfl/kbddYX684Zfif3ZiPLXf/0Lv52a1jseWlZWdmok9p0qW/P+rbvUBp/hNDLbjESdNF23PjusMDDOLEYVuoYFvfWZGy9xUU7eetpW1hasTqKXat3+vzmS4g0x4cvIY7sp07qeTGHgLKOnT6LuMluQXeCT5G94d/OTNDdX17XLzWJs6svp4/7cMCcZhx4t2nbqkc2xXpVaF0WzeP0AlebhIEN09AerAobPPUue/YXfuWuJxBtRC+5xUjQRbupLOZnzJHUIGosuvbWegHRLvBdrxw/bkGSWtLtwPUs6sCWjVMn8OzGNmGxehhtCypxRdz4XVDQWX/ttu1KKSnoxA9O89hpBH07QzGr498ujmdDOMCR7VwbAISUFjl/szwmgSXOKoJoymqFqatimMIfl6WNEPQPrl205NZb7NO/94d3PYFoI3rJLUaCLtoMx1WLIIBsMMZhYEv2z44jS+KO5VgejibmpiFldzYKOVwMYQ9TuE4ClYwt6vca3zWQw28CzhW1uwJtc/OuEy/oXsg9VxN0L8z7s9tCny3MtrCBnytyZ70/nsn3Q2+K3msbboysZt3/dGzldIQAT6wscpuWUxvh2KzXsVG3b3/rF/+z0vojgF5yi5GgizZDQa8hdNBsWK0zS5qCV4cWwiqPktiyHEIPcS4ggk0dO75/HsqGaFFgcb8PAz2xNE2diyCg7A7XzFMeWB/7Pbut9GvhyoIeWMq5z1mqgGAXdQExxjJ8X3dfIkNBEWe3tWKaWY51NuCrIOJs12c5n7dqpmDFbx35GUtgzvO+OR2ufxbX/Izf+G2l9UcAveQW88Yv+rJ6UEwl6KK1NKOf72JuONcdEWbHtZ11bwnD0N1uTU5hJRRD341tMBg4322DWvpuZH5/3IWFf400wr3Tat1Z3gUFuXTdyos6d4JeQph9eNgK34eLPuvPeV/CIvgImRH+fvk75hNWAYQeu5ufOkfL69gZZGZe/l9+czsmRHvRS24xf/n3v7heQm5fgi7E/lAovSNewOnY4G4/KJxsaHe1n48XYHLZveCcZT1Lhn0mwTvifR82z/Z2V6NeW0xrHWJeuNIHNpxjVgcSH/bsDDIML/0v/2UnEKK17GRlRevwxXZCiL2Zt7j3ct1u1zrs6w3HInlOX8oieda5u3p3yGkIcb2a42QqdAnOTXENuk7SFPN756/tr09/rzDNu93s3qI04GghQW8xPhcvhLgy3ir2zuOLvgm3U0S92M67BJb6fr4T/2B2Hkd8g+/303HdizPvVxSFKxlggzze24eB/vzybqt9L67lGNEeJOgtZj5hEkI8Gi+M88Ln17mP4uoFlv72iG08r4TA5s3Ibfv5rvX9bN2NSMeGbRydzjts89fmNQl/ty4TAOfDslf45rftByd1YSZi7VdeLWU/AkjQW8y1/OCFOMrMi+NejsXg3nlr2lvUdJyTPYFg7uezaL3LonX4bNHut7PonY7XmrfU55fpfInBXs7YvJ/P4P7ujQsjrneltgCiPUjQhRBHnkeJ5Qxazd5569xb7d6q9n3D9/MrtmjnGPHwuY6cQrN/lmmYvy6L2afTqXOTycSFYT48nr227YYt4nl9wtIA0X4k6C3mWn70QhxlvIBfi9uz/pxF2nDOEt7Dp6AGHGIWvh+ylb7f79axTMdrsySADeTYCI8N8rzo7+f2w/dcYSaBmQU/QI5oNxJ0IcSRZz+h3L193mJ31vmu/Xs5Mp8xIDyXQkvmj/XX9Va7Z/58f41rgS3sWRowHo1mW0SbkaALIcQhp76Kxs9nDkR7kaALIUQL2EvUnTUPy5+t6UX7kaALIcRjhEPJ+uFkH6t/I+x1DV9Xz11+mY3sRPuRoAshxA1AzaSwXq//ZODr2yXoRwMJuhBCPEYozo/V98s3ypUyBxR0NrbLJxL0o4AEXQghWoq30DWwzNFAgi6EEIeWpn970yAunPU/D906Z1Ws3MxrOKZQK/ejgAS9xfg+sEKIJ4bAqhtyNwLF280HD9F2xe51aFFFUQ8th5jnSN2zOrc0Cm2hurF7icOBBF0IIQ4tFOpGrGmVU8wDiHoFQS+RujNLH0H5Ywn6kUCCLoQQLUeldUcDCboQQrQY1zBOFvqRQIIuhBAtRxb60UCCLoQQLYSN5thWLsRfCfrRQIIuhBAtg0I+T8152EXrkaALIYQQLUCC3mI4r7IQ4ujCovYI9no37djmL/+Syt1bjgS9xURRNFsSQrQNP12qn/CFzE+h6mZaKys3FzpdnmXNDtFaJOgtJgz1eoU4yvj50Cnsk8lktlW0FaX4LUZF7kIcbVhKR1Fn5r7Ki9lW0VYk6C1GXVWEOJo0k7TslNJR1ItCgt52JOhCCNFSKOwsqWPmPlMdeuuRoLcYPxeyEOLoQjFnSlBkmhO97UjQhRDiELJdrM4Z1ppFN+8aW7pzWtWwrixACh9wtjVsD0oVubcdCXqLUaM4IdoO5z+nqM+K18MKgl5ZBDFP6sKKYmJxZBaVuU0212fniLYiQRdCiEOOt9bZJ72CoAe0ztk7Hcu02ynwYVk2B4nWIkEXQoiW4nu60FeJXfuRoAshRIuJgqCx4CXorUeCLoQQLcUN/zqDw7+KdiNBF0KIFsPuqypyPxpI0IUQ4hAzPyHLbnwdOpGgtx8JuhBCHEKuJOTzuG5tXKjmyt9FK5GgCyFEy6DWU8jTOHGzrHW7XQ39egSQoAshREthkXtEeYd17vuqi/YiQRdCiEMOi9/3K4L3czpobof2I0EXQoiWQgvdTaFaVkrsjwB6x0II0VK8oM+3dhftRYIuhBBtBUIeR5ETdNWhtx8JuhBCtBg/sIxoPxJ0ceDxjX18w5/dToijyLzFzVnWCId6ZaLezLpmVroZ15qd88PAinYiQRc3GX6Cj3b1nGNzHu8/2l2byLuEbg8njjZ7fRPX4242nBaVU6WWAVyIXwTDhR9Fid9AFgVWJYmNi8xZ6ey+du8v/dwBCLV4omDqKVpKFEWzpcOPt0DIbsF+LANa7qH5Qhw6dteL+4xGGYRO1GmduyL3MIKg19bBX9FeJOgtpiiK2dLhY15wfSLlHROx7XXuh+O2ebcbXwTp3R6HCNE6fN05RZ3OdWETrUVvt8Uc9ukSKep0ZN53ot6s7ivgV8MLuxBtxk/I4oX91Jd8mb76FiNBbzFxHM+WDjfzIr6XP++uxpXq2YVoGxR012Wtqq1CBv/ca37pGn4l4rAiQW8xbahDnxfq/fzHikRdHHb8N3ylb5lF7YTifthL7cSVkaC3mMM8//G8kJP5+vF5t5vd53lklYu9mG9X8VjcQYVBY+IehSH8WcO4maUu2osEvcX4nLkQ4mjCRnB0Pi3QADPtRoLeYg7Dj5eJja/nY51/kiRue8G+tXNt0b2FvdvxXH8+Ha2mOtxp0UvfLcNK8ZbKfOLm1+e3P5n4+/qEdz7xvRb8+fs5Hy9XOpb4Y3h/VtXQcflmMx/2eXw4/fPt52428+HYHeePN3uVx/lidleiBes8m0xne0QbkaCLm4oXDyZ6WZbZeDy26XTqEiK3HeJ8JRd30sYhMxDEkUsseS2fkE0mE3e9PM/dNpew4Zg4jCyJYredrigKd/y8CDxRCe9e+ITf398n/AzzjTifSSBc5zPS8XnpiL+v38/tPl5uNu69zuJhPo4YRn4vPp4Og5tnr22PlfoaL8P78f2K9iJBFzcVCjgTGYp3p9OxbrdrvV7POvCTNHU2+pVcVuSNKyFQFcQKlj2S/u2Ef3Fx0RYWFmzQxTXjxNWvVwVEa5o5oWeJAB2Fwwsfz/Pi9mThw0vnYQLMcF3JecG+kuN16DOOeQ6f18e137efu9nwHdDxfRA+Q4rvguGnm4+3vRzPu5Lj93Ijbq9rzrvd8cgwPZlstymBdR5xsJkDkEkTTxwSdHFT8aJEfOJN64tCv7Gx4dZzCDVdVj/a4WTn6minqHheuIbDoY1GI2ep06JjIhshgWNjoQRWOgWNjvjlefdk4BP53T7xcfJYHePS+355fp8Xnvl78rkPiqAzDP6dMowsNeC3Qcd36sO5n9v9Ph9vt9c95x2P2Y8r7bte6n0u5e/BuOMyfwOivTw5KZa4KbzhC76oXrbSkmpqaYUfMsub8cvnsJAFEhvm55qxoJvjbwZplG6LCxOdMJnVoyPxYR26246v1Adxd8viGI/hHosJ1sxvlpt1l7DSx/V84rZ9HFanSOBYdE98AuwdodjdLObDsR9X289nIl605x3h+fPr/ni/za/fLBgGivl8uAgzbNzODNuV8MfvB7+BGwFfzGxpb3xGZD+uFr6rg/eKIPD3zDHce64WpbJpjMwgNsQlf+NwZcfWOokVz32Wvei7/9UNPrU4qOjFtpjDIOgI3raQEieuWJ7OitJdsSq2u8Zus6/Vi7orPi9z5/N8Jq7ej2bXC4pGkJ2gz57Td91hhoH17v56uxPXG09sr53t55/dkz6d374fVwujz5DMx/E8FEZewx83Hw5uOwiCzjDRMTw+Y8Jw7fdM18ONCvrVfjvMrPrw7w7r1d7dtXFtgh4WqW32u7b51Dvtk7/ve2/wqcVBRS+2xRwGQQ+gpmmcuESJddqj6cQKFglDbFlHmbNYGPu4f1t4G899vDH+zDY3ljhFHb4X9LBsBCGGpeQawsHRd4krG9YlO4JOdieyuxPhxxsvWF44ue6Fi67A818JHnMleD6v7a1cOt7DO9ZH0yd+v39mv/1mwgwdi9n5bfBZ+LwUSRYdczv33wj8rm6Iq/TrXlpacvHp45/L8/F/49/XlQU9qXBffOAU9OFC387fdtpe/u9f9cR+1OKmoRfbYg66oDsLO6ssShIbR4FtwCLPk9hWbr3FnnLHnbZ08oSVkxxWO8QNxzPhmhdfUuP8qmLdMOtXp1ZmJTIEmZU5UrYSgpjlbsjLEn6GzALrXV3LdwiCq0suMktwzTSIrBOF1osS51P0XUk8rs0EksBGdD7DjTs3Px4EyoeLU7w2IOHGMc1xs308xu1pXoMrVeA+iibux4S9SewDm0K0hjh6jAOWTiAO8L4CXgDMLolzm6Uoaob39ffaIcR9cUdYZwF2eiEpy6YFO+ODz7926YKbVpOuh2/CP3+E+0UIKM5uAuxopudELsxtYpAYNj4X2yWQ+Wcmft37PIeLMBwd/tLN/lmYHT6uQ9tCfGzgG0mWl2x15Zhr5Mh3U7A6xsWij/fmnFlUOa4mmP45Atynds+14zfXu7Jf+wyVO34Hxgrf0Qff917rYHkJ+9OIh82EvEKW1ZVO3ejwzI2g4824ECWzdpx5hN8FniOuG0Gvi8imi0t29vQxe8V/+KErR4o4tOjFtpiDLugUgXBcWg+i9aYzD9nG6pJ93td8jXWe82wo2SpSJYhpyH7pSDR9eum/2JkA7OyA78SA6/D9M0HAGj83KLrZZGwbwy3bGm8hszC26bmzVl1as61Hztvw4UesOHfe6s2hxRD8COccWx1Ab3k9ZhCKRvyR6YhxgxoZhgAZgRKisY5MQg3RGQyWbDLEfcaFHV8+biPcg+KVw1HkmNDHuFynYIKPIGHdtZbGcqfTQ6LfsY+srVt59232iq/8CrO77sQeKEGOo/HeXKRRpCgkyMQYMh5OTHYJynZ8UDAYft6BLxpC4uJhPDZDBucSnr8YjmzzobN28cMftY2P3m/1pXUb4BaLsN4X+h2IJ85BxqYopliGVQ81pdDnWL6YTVy1xXLaw23Yzzl31mjUadpGBIgjaIsTGoawQFgyBHnKYOMejAv3HZQUtsAKlzNgWFmVElgS9u0tD5+1p37xF9hTX/4K6z/16c2FttbwIno4mRb6TBTd+9/FXtuIjy/ezvmz+Jr33Vu5io931zALAx+KF+X3YvjmPvRee92v/b+29oY324ufdpetjS9at5fYdHPTlvtLluNn2VzrseFuB5gB8ZkmhovWOYnxnQR1jM8lts1O19ZPHreX/8SPzc4SbUMvtsUcdEFnYp5C6cZxbO8PC7vjM19pz/2Cv2dZ2rE6HlgA65NF5oQJlJvfeQYtt8aKajZyHxO3ecuQFlKXRZ3c5hyFE5Y8nhnyZEFRWt+JIw5mXfsWRO7hM2b3ftQu3nuvDc+fg4X1TquzsSU4ZwEmVh8XiiBaMcSK4s5SgbCbWv/EcdtCJuDs+Ut26vgpW+4s2AMfvs+Or666sBUIamOVNq3sm4QW4YzxPnDtEoGntRbVqd2LTED44ufap3zLN5rBIi2RaYiKBG8ysCyhTQpRxf35jDX21XifLv3G+mXgvowiLzm01GF/uoxJTYfnD9mqkNCyG0GAHjlr9r4P2H3veJudvecee+S+e6yPB13u92yl17Eei4qReYlzhDmC4J5etbXNDehvCcseooYX4EoDcDkWi6d8h1jhuyZ8j4wLijqPifHsUYXvsEzcu8MijkGmgOYrj59Edm551Z7z7d9snec/z6KkCwsX5042LO10bJrFLn74lI248aouGDtsC3TzXezQVM9ciVns7ANODiDcuDaeAuuNqNIldY5rI+MUFfbg7/5/9tFf+227u9e1C6Nz1usmFk6mrvrHatrvV77LleAzu+9o9nzEiznjJOF3hrAVVWJbiK+NY8ftZT/54/OxI1qEXmyLOQwWeieP7EKR26XTx+xl3/j1Zs97DhKf2ramEC1YrCw2JywG3S3oLuGcWUZezP2j8NCQz0YrGr7bxhMgNkxHWczN5Qkb1eHoDhNkWsA8ltYvLVlaWaOxTd72VnvfX73J1j5ynwUXN60/zu1k3LXjS30o0sQ2800b0tRKIchx6or0AwR2pTewagJLn7eFY/idtY5bUdSY4FLYY9yfiTpvCxPV7ocF3f+Uj7NP/PZvxfOENpoJeoXwUdB5XgfPVUP0CmRY+NxNBscn7O7ijajhGZl5YTEvz2MmpGl3wPVZRiMv8H1U1oOlDXMbG/DcW1tmm+u28Z532wff/Ca7/53vwXNndkenbyuIq0WcGOP4jXpia/kQQhtbp9dzVR8szo+ZycAtKO58Zt6Hj8f3yPjwceKLt/cT9K1LyBQ89/n2zO/+LquPH7dRxpNKxMfI9YbIcHF+z4T325M5QWeUeHi4+2a4fx+u9NugcFZhifvzqog3WMKsGonx/Sb4djr43bkChLe/0/7qVT9hJxHPw2LL+p0YGUP8BqeZ1REyarPwPxauR9A309QJ+sv/00/MR4NoEY/9SxLicYCDwRiEobe0YHbyuEtxKQ5JJ3V1pBSEKzmXWLsEeebcOos7m+UA6uUaI2GdReQVhLec5lZBnAoIM7IUEMWOTSBkHBQzRwqZsegYCSGMTiSOsXVf9mn2om/9Tvv0f/sq+7Sv+npbeuFL7N5wYG986JK979y6VZ1FC5OBTYYQmhpWfHfgwsaGfYQZixTXYoOlhMHC5qbYObQprGQ29OLxDCdhUbUbpW1uu3/e3a6O8FxwZQxhiWsrnIPQw6+gmnQBz2cmJqS414anh9+U4oeweJM+4r7fR8YhtHE+hkgiJhZSs9tP2tLLP8k+/ju+xf737/w2W3zBs+29Wxv2AMK8hczKJfis80+RjMQhBBnP5t4Zrs02CS7WsUIxZxH7OGmemxkbBNFZ7bsFE5sanxcBfEYH4iNHxo+N4wi3F6w6wLuGNDrHp6Pz64x3lgDwPs6HY/E/7+mc+0YQE1dwddg4vzzvI9eG76NoRJ0+tpVYLvg+8O25DOhohJfesfFoioxTZV1kBHlqFxmAqMmzPCn4eGwydqKtSNDFTYNJC7upUfgqlovTah4PIaYQRlhfrJulCHnxmne+XzkTTtbLNtbSLCGFz210ORLdDCl6xRZJsKDjDpLSFPY4LOkYbsqEdoJEGolrFHacwIWdBSfS0+4iMhmnbRJ3YFkhFR4MzD7rlfas7/wW+9hv+Xo7+XmfbQ8vDOydD521URHbsdXTVo1ga08rW+oPbGNjDU9IiWJjspnDKi1JWt60uGM8pxds+rQ66Zy4UyHn9j3acTsOYTRxmeINMXHbvINyMVr9ULd+MJ3Gsgvt4iPnbbIxgdgl1u0MLO7i2dO+TZPUSraAX0Qc8N286GPtU/7ld9lnQ9zP33XK/nB41j7AXMrKkvV7C7gHBB2CFULFOhCtGDdnpmRb0GHANiUTbHSGZ6JVzqgBDIsX8N0wLpwIMYMDfGtxt8yiBtYVBDnEGQ5+hHVa9yx5onXqSkDgopmblYU4x2UeF+H6u10zjsGOY1XFbp/XYCahuQ/Pa67H97ydyYzx4IxHZCZZ/dCFuDOeyinPx7uYs6yfKPi+PVfrFSEON0/81yTEFQhgjY/yKUQcgpnChEMCOIUVTcudlroTfaRHdMT7HooDt9EaYlLljnV+YyGNy9wmuDYd2x9lSIxpgbNYn8PFrhxbtE6f9ZilG6RkY2PThmNYqUj4aojHxeHYig5s0NVFW+tGsGIRzhNdW/n0j7cXfN2X22f+46+2Wz7u4+1+HPcgrXVYXlVWI6MwtmWIYZO5oJjBh/NFzDEUzFmOuAeh+BWzblkULAoX46LCNm7nfu/m1yu2Vp+y1frUtegvsK10rf2n2IdtY/jYz+IG9slnxoWFInSszbjt9K22AEGeTkrbWB/Z1nBq06y0CU5h2761UWaTAKLKtgwQhv6nvtz+t+/5V/bSr/gyO7vYs7c9/IA9sLnurP1ut2cJJXWa4XYQPmSg2BjQWaqAGZmdovbGzSdBzfrl5Kzr50KnYwmH7p1lFBgHDi+c3neuudfll2syULyHP4rXZVhcJmuXYzjnHY/b7bOUoYOX27jA0pLvlQ7HwHdiDTG3ssT92LodWQi8X2oqMylxhH1PEi4Th3vKQm83EnRx03BWGaw/JtlI47CBKWTqttNq53CvPhHa7diQzfkECaerU8ciE9rG6plZwL2ehd2uEwS2Qq/Z5x2WUgVLlcPFntm4YBvTNcvjzJJBaAuLKSxOWFJItdMqty4twHwCAYEwBhC3cGrr1cjW4DaLDet/+kvtxd/yDfbiz/0cO4fwXtqaOIuVRasMI+uPp3FtoxQO+RWKO8PYhWD2s8AiiKy3mprEHlkLCIB/tnBmsbO/OJ234Lncg7U3CDu2EDT+IEzhEuthuRfBeX/mutifYD+LxxOcm6ZdG0Pop3nhGsxz28JgxZbgBp1lWJMDiP0xq6sUmR0cN4KI4hq2sGxPfeVn2N/9hm+w3nOeYZuLA7sEES8parg2XpzLkDHeWSfO98lW7h2cTkdBZLy4hnGXq+6joHA7i5xtBbDOTBjFkcscrwBX52EzcNwsSXPfkHOhKxXI4egXfh3vvqm75rcTPMpFuAAd68T3c3EVWTdLrD+Fy1K809h6eYRnjZ2wU9StwHeKDCKfgSVPY/bc6OAb5PgH2I3LPKls/2ZEK2m+fiFuEkz4Y1jmdDYaIiWGZY7Em9Y5+4q74kI4+ns6WIQsunT/aiSmziGxdXtglcAMpUAWUCyKQcZ1aADFnmXV/UHXEljeLLIua45ON7UsH8EK5EAmGdLeGBYbBBaiHs+KdwvWMSe5pSsDm3D5xDG79Uu+yD73H321VcdW7YMPP2LjDAl3wC5tFJDAJjFdI2KE9ekdXI7h4/NSoDlZCkduI07kKVi07mYiTzcv+nQUzxCOPaQqiMeOQ5ix3zUKhKshJGyElU2nNoElP4abQsxLCCYH4ekgk8A+7TmO2xxnNoKJPs1r20QGJYr7tnDslKX9VVc8X2xOYHn2LXru8+1T/8V32e0v/UR7YDK2+9bWrITV2R8sux4KGSxpZrYo4Cyd5/PSZ1E7xZaZm3k5JrsFjpkXFyd45ilLHvBMfmIWwm6D/jtgfLPEpoJ4VkHiMm3esUU+XYH3UMFnFU/FUhB3frKnq+nbo51dth3hqDvIBKSu2iKs2VOBLfuxj98Yvju+r06/50qjmHnl7IAFbj3Kplh74mH8iKOBBL3F+LrGgwwTdFpTHOqVVrSD4oqEmyK3G1q3/qlolbuiYFi5HQh5J0CiOoVlOMa5EKMUF2YjNAoIkzSXsME50eAfWNAsjg6yurHKIEIGC76EAFBsnBUJkWcoY4SJXdd6cH0Ie4eN67KRlQjzkMJVZmZ/69Ptk776y626/RY7S6s3gYWK6zIz0V1atvNbW846DGNkIBDmhQhihf1M8ItZMTotKJ9ZYVid82HfBUWsYjEvu/hBXHI8B4v8wyR1ghpwkBiEz9XZ47r8HlydPYTFcAwzUQtpxwLEQQYrksdQ6KbwObDNFIIXDAY2xvmjKcKH+E66A5zXa14aWw1CHJ/xj7/KPunv/V07C5E6g0zYOsUXmYpO0nPPmSBqujg+zErr4X5dhIn981m5714DnoX+XjBMjBt8DC78zPT4CUYYJzWs5BrvvkLY6JAd3HY5M1TIDOR4jvXhyJXMMFPH0p/xdITwpXhedgdkVg1ii+vkMJsz5DYmeDQEF9tCxAfjBNsQUPquph5xW+H9FhD3KsS5CMsUz8BG+E3DyqqZPIj98XE/ZmBG+RjnIgPVjRGeDUv6T3yRO+OI35f/fvb6jkR7kKC3mLbMrLRfEkRNqSEoLL6cVoWNIZjRoGcJXARhYl9x13gJuYCarZNdvXqOBJZ1mvxXuyJopMg2gVW6NYJlCiuWiXgUsc6WYsiuSBBh3IyWJjMHrg6VAcB25Bsg6n0rVhawAcL+ic+3l37p59twsWv3r69bf/GYE9uLF9fs9OlbnSjlxRTXh1CMYeneIBRwGujsix1AKAOIFFuxs3iXI+itr19yrcFjCGOMuEoRVx1mKCAsk+mWrV86D5GNbGmpD2FkS+3aBgsdWxxArBB/rt4ZR7NrVoGMTg7xyiCMJR0bLa6supbct3zB59sr/sEX2oO47iXEc5V2kceBgEPwFmi1R12XsViDFc+SF05r60oY9sC9V7h5f2+YfPEghAPx4Ju7OYFGeOnWNjddnC8vL1uCOA+QaerwGSH0JQS2ZsaMzwnRc1fEsSwx8dUaETI981Ud7DHAY1n6MJpMbILYGSEIdPy1sS0BxZtBonZm6xctXcD3GDOThu+tkyCzM7Wwg0yBi2932ycMl0mbezY60V70dluM/yEfZPgBMqGn89AK34vdHysTwy22Yu9GlnVC2yohkOXUpluXINCbSDCxDgHn4B507N9cR5DzCIk4HAV+DIs+TRZsZemYLS+uINFfQCKPRBsuZjFq0UHGAAl7BWvKDQKSwBqDaCIjQHHrhF3b2hzZFsRtvY/MwQoS7894mT3ncz7LzsGaP781tEEP4rWZubpuSIoTSmerJUhsbyBBd8XLaWwjqB67wFXd1LUmH1awuGs8K55veZFzy7MIGDI/2rRia93qbIRng7AhZ7KyOkBIJjYcrUOKES9wEwjuGBmbBNd3pRvufVDUm+5nbAuwiejYTENbn0zNTt0Ciz+yY//n59nL/+EX2QN4J5ts6c3MEHaXw6nLXCa9PixtZAhgubLFfT66vgwNg/EogUemimGjkCPLgjBCKFnCw4wIjqOQs46lmgwtmIysCwu9jx2LyOwEyHB1kPGhjR4hzkKWsrAKBa7MxlbAii9wXoXlAPtwdesmgfUhxnSM17JT4/urDZ8JPw9kqhCctIKA186lPUQU3k0O8edQul0IOqd+JU+GuFLQ6Tzzy6J9SNBbjK+PPehsC7hLsZtFbrua1nGsamiujesprOqpHTu+hMQYQtVPrdtn3XhsXQhXH24AuVqAo7+ECy9CdAb4+pfZwh0W7KVLG7axtuW6Wy0tdCHUsU02YdnCeo/LBC6Ci52wBxWt+gRWOxxUrt/p2ToS6UkS2sPToSHVt9v+9ufYs17xMvsQR16LerbUXbKtC2u4RuAS8hEEIoIlzK52jxWeyaL1ApHF6gFGWMHiaYgW9KYZKAZWtYtU7Iu7HevCDSB4i9i2iPAGFcKdb1pWjlgKD2sd4o+4CRGPWHUDztC5ltu4jM948X4UzQxxMppUNqR6Mj4/+zPtFX//8+2+rS27gHiNOl1YtTEyDE3DsMXlJWS0atef3LXkd0/R8Cixnme/7bypF/X5Y/Bt8BsKYYHnG2uWIuPRQXgHFFEOmlOU1kMGI4blnEKkO3juDjIo3QTfDPwBhHeAjOIC4qqP+OgiE5JC6JNsYslky9Lx0DqTTUvzoSUFlgtkkiD86WRsXexLR1sWsQ86zs/uu9eKjXXrMoPE+MO9kTfA8+M7eoJhnPtidmbwWa0j2gt/UaKl/OMXfOx306Zs+uUiBXG/a9YhB0j8uAJxQcK+b1r5BENxYHH2EFZSubJkd778pVCUHiSXIWpG3XLH8OCZ6vMvHZtBUQxriNI4Q8IKIRsgUbbz550V6MYr39rEgWwUVlgE1/RJhlix5KJqrhfCekpx/ACWVIRjc1iSFevf6wiCiDAw2nB4AAXjzHBu0hLEmm8NbdPKFiDMIwjHFCKdsmU3MxVp107ecbc98Ja32+TCJTvWheXPEeT4MNQgiIXrxoawcFPzFvg+YOnjWaLbT9tTXvopDKBrmR2yrhj7ka9w14hc+PkuWe+LPU4pYI3lE+tHEGy2P8D97Ow5s3s+atVH77XgHDIXjJ9z2AbxsV4XwgKhgxXfQ7in2LaFOOtC2ReSngUZRztr2iGwlTr7WvN9sJ82+1pzWs5u2LW8QLghgLTsKYy9u++2Vex/x1vebCsLA1sYDBDdBa4/hbizfUSOOEIGawFZLPh8IMYqcaLMdzaLkRzxG544ZSc+49OsSGFL4541rp0wIIi7miPbuXhgtQrPcKuuZMENJFNkuM/AVTfY5paV736PXXjLWy2+7z6LEQ/1Qw9Z+dADZg8/jLh6uImjC3SIp4uMJ1jtww3kGiHOsNjd4Ouw7l2Y8R4Tw7vGF5siOCnCHCMcEX5z7n0wjGcesnf/f79r6QNn7XS3j291igxEx31HeKuIFxxzI+Cx+NSMQQ/jYraE8CBu+P2GeD9Y3kQm6jXveNv3zA4QLWPnKxCt4y8+/x/UK0gcD/JsaxSqs0h0p097ir30n3y72fFjBlsOCTuEEZ8nLcMG1n/PFgHFhEXKecIJUyrrsxXT2qa98bf/m/WRCKcQjQyCViNhbfqCzywVnMdhSVNY3iXEoH/6tJ1++t3Wf8bTYV6u4MKwmhgfrASFiNcF44cKzLtCQLiICPNhYdHxBqyx7vFF28hHrqh7KY2ss77p6uCnv/fH9rs//pP23JVjdqrftdFowyo8VHKsZ+cuXLBFHMO0n0XGzftoxnJPP/GF9snf/q1QpdTGEO3LxnLH/VNYeWwUyALjaYmMCqzKqs5csfFCrwMRguX9gffb637zv1r28BmrNrasxwZxsEgZH31koBZuu8VW8dwnn/5063ESGGSm2CqbjQLrAPLEqTdxD34fIeKL8Q3Pnc8BfFjEHVQdDoRml0YTG/Rx7GSI+7Dcf2zv+cn/ZB/54z+1Zyyv2olBzzYhknWMuO83jeK6gz70cuLuEbHUA7Dfej0bIIaM15ERe/bz7Fn/5l/amMcjTMww9cPS+RynjvX8rsgd78Rb6RxEhiULNUS8s9A3u/de+4vf/m17+F3vsvLSmi3he2ATwqA/sBJx4oq/4ZxFy7p2fivIfBQs8ZhtZyNCV5/Okg5ketjPvrvQc7+nGN9SCNGM4LthbxFpYVDY+bMP2sNveYd9bLBoCwjjg9MNWzxxwo0XwGoI3vZG4DO798MPcwbfTwPiABmGskBY4oGtI4P6SLdnn/WLPz+LJdE29GJbzOv/3hfWq1DNgy7o52jdQtA/hYJ+YkfQORCHMzwdjxb0GJZSnW1BIAZmD52xd0C83v8nf27x2rotsziX3c66bLWOc13yzedtBCrBxditjfWr8fLA0jtus2PPf47d9smfYMFzPsZZ+ecgSmkfljXiqxkopAmzh8HpQvjOnoX1ddtphK+2ixuXbLGfWgyhilm0upnZX33/qyz/4D32McdPwPrftGkNS3UpwbEQlqjrnvGxCLqr3y4TxBPOTPFeWfzL99mBGEPMX/9fftseesvb7DhU7mTSRUajg3itIKZD25iMbIJr5Floy6dvsbs+/sV26ys+xYzPDosdAbIR7sjuXxQN16ca5zbfiheMGJmpjp2/MLJTt8L6HOEbw1kDtiU4dwbHB/Yn3/Nvbfj+D9mLT93qir1Ho5EtnFyxs5NN130sQeDd5CyPWdDjywSdBFjjd92FkAUJvoOstOGf/on99194ta3mpd2KjMsSjssQByUyGMwEsG6Z3whx9c7YxqdktQCzLmw45ybRgV+4Eh7urV1bDRcn+A7Y+NF1owsZJmxDGGm6r5aRPTtYwA0Lu9hBpgiZGxZMcCz+5mQfn9cPw8lLXEnQixzxkSy4KWgp6J/56p+bxZRoG005l2glX/38F343ZBGJ28EscnchQIo0QuJYrq7YHS97GazEvhVIFFmU3ISPNAlU4KzCJrSQV2e9J86Ciq14y9vtta9+td0Nc/Hpq8v2zJOnbAWZltODRTve7doxJGTHYVkdg6idgLidSHtwiZ3uJLaAhHrj/Bl73zvfZu+Fy85DoJdWbHDrSdw6MzelJ1JNV5TJMLggMCSBbW5t2MlbTkJ4Ni2bjm11dRWJPLIkOIh96Q1W0TKOf/+b3uKK/Zf6nMAks43hui1CoAJYxLxO81x83msvcmfmwhX/cx3HlLD4YrcxsPU3vsn+8JdfYy+AWD8F91xgwr65aTad2nIP8YF7r0aJPXXxuNWw3t//jnfa+9/8ZovX12wVcWdLS8j0FO5+fjIZp+mMAvxxUYB7V1kEwz41DkbH/vwFMjLT4dA6x1naEdldt9xib3rDX0NAUzfF6mgLFjOOH7NNeILnxTtsqi+apMgJIeKY3yUpLity70BUEVd4X5xkhoLIGOP3zBjk++F3zXMTxI8r3WHVCzJIw3e+2x5627vtzm7fliDKCeKqi/tQ+F07AVyvi8PperhGF66HiGUcdBF3XB/gXbB1/CLcAt8rLPlbBgM71RvYSbhjuPZqp2vL+KaW8O4XkbHqw5K/Y/W4ZRc3EEe5dfGdX9zatBxh6LMqgso+e9bHQvMeKOz8XfuvEgt8Rwg3NiOe+BlFluEbGcH/xberyL2t7GTrhLhJNAkRP0W4mkXerBflsK9znyeHXKWwu8Se6RWtMhyXwtYqIHTDLTvWCe0YDKGw3rKN8QWbwkIawQplkXQBaz6HiGRRZtMkt2lcwMFa7Rd2yTZscTm2j3/6nfaU0dQ+8qu/ZW/7/h+3/Nf/u+s/vYLEvzPaskUk/hHEdqHTsxyWXoH1AaytDBZvjHunyDCMIOpunHiOqEZBgcgtvvBZFt92ykZQL9ahckrY1bhrfVqms7Tctz521uHMOStwVibLBk0sBqbjstsP8S7wPBlM9Sn3dxdsAkGhPpRnz9vT+n1brEZWTdf55JzgHK5rowBxUrBfdgFh3bRoUNrTnn7Cbu0H9t7/+jv2F//635q99n9BDGvr4bq0+jfGsP6THt5VaMPNiXUhYBxq1mUg8E7ytLBRPbVOjAxSZ4GD6yGcsFaf97H2KV/0pfb2hy9Y0VmEFZy4hlmunhkH4c01mQS4/XFvvFmkT2vUu8ugtd1UpXAOcNZm1xBeW8B9OXtfVrk4TxD/rgsjMj4caCaDFc+R47zLIOQ54jlj6NjoEELuSrW4jo+1KQ3AtbkP6zyOZROcN4DWMYMV4NocrIg9BS5tbtkI8Z6tDpBZQxwhQ9X0p7++Vv574caOR4hYesVuenw//EG5EhVQ4DkrztCHb4Td9Do4XrSX3b8IIZ5UKObOKnNggQkSE0wuO0dmidCuVL8paaDJCisV65yyMoaohAGHaUUCBrFpMgvNfZiIsyFaASFjescicmiORX1YLxD88da63dLp2MedutUG5y7am371N+yjv/QrODuybgorFKLWhVW/BUuX9aSsR6WYMXzuOdxSE36m6hQUY7elW07Yyh23G5NvioAbGY711BwG9AbhM7JxIOQRwkMHAUO80ELtlsiIwAIMg6YLW8EMAJ97Fi9Ni7/Cenj+IhtaHxmc595+2uqHH7Q3vuZXbfTbv2O2NbIBnvU0LPbza+fcoDDsQ37p4pr1kWHgNWo49l9nnDdJCkUVcco+/hD+p77kJXbrc59r962tW39lBRmCkS0P+hA7WuYMx47IuPV5dou2W2++C7+HEruzBt8dQ9FlyQKW+Z+aBtdcnwLI+GC8UQ4bdvtk7qp7+DzXO9zWfWN0WHPP1FRR8PueIuMwZvuFJuiPCzshb+7rfkezZ+d9ucR34nqDwDGeWE0j2ov/PoU4crikb1JaPxlYAOHdqnPj+PE9WFBJB9bX1pa97Xd+3+yv3oIjIYIpB5KBGJS0MJt/Td2ld5fDRHbCIl9c77an3G7j6cRZ9ayLZT3sZDYV6M2C4saR3MpRbj1Y9h1YjTkyNoMlWN/IvPzRb/2OPfI//tBZ6nZpzRUnFxyIhVY7npdd9hqr0FzxNod1pV5QtNy14Tj8rN16q33cZ73SzkxHyHwg1nBONp2N0X6D8B4UL+924wQUrrFgWX1QWY6T3BSnuD3PT5C7i7FyvT7Fcf7t7w6D2471ebfDk6esvvTHd18T7YXfnBBHEygRmxYUWeGEKXJ1tIVtjTctSQN7JqzqUxDs3//ZX7Ty3vudRTqdjiH4PWehcyazBv8zapL27eoDuPGEhbGhq5fmqHIsEmYVAEdzc9PD3kTcBCOsu8bzs/sci8LHxcSOHV+xu289bQt5YW/8rf9q9ua3WzcvbSmJrCoy1zp7ERY7+5JD25xlyHpodm2jZQqtm8FR8bBxvGUrn/GpdvLZz7Bz62u2uLxqw40hBG77wBuC1/FCGrBIeWYdb1vKLkywVOmwTDGnqLsSmhvSOIR/7hm4RNHeLez7c00HPW5I0NvP4/OLEuKwwq5lGRL5cWlJELm6TRqOk+nQss11+5jVk3b2He+yj/z1m6D8hWs8RTgkaMbx532C7vydnxOtVibXEft0QcQXT52E5bvozmMrNlYpdPsD599MWNe61F+08cbIhltbtnhsxcZ49rVzj9hzKOprG/b7P/wjMG0hzGvr1sEjdnup1dMSAsGi9do9p2ugSB0FjUyFTiw5w90lZIJssWOf+Ll/0y5x0hvsS5LUTSJzo0kQY8+L5/yVGP/u/jNBp99Uw8yJO5dxTO6qKoLr9p31D9ieY9th3VvjTti53zm+6VlAwY1lJK4PWehHhxv7NQlxiKG1nCHl54Qjg6hrwaRs+kXHzehhFZYDiNHznnKn3fPXbzZ75OJsYpGhRTHOR6LumIk5k00m201tJQUNwoXj3Y6VYxD0ZcsgjNzvxoA/AOkrqxjw35b7SzbgdKrjIbbleH5Y11vr9uxjq1Y+8IDd959/HRma0qLpxHqd1E2mw+lnaY1TGDnQjBcyD0sqOG1pMOhjrTD7xBfbyp132v1nz9rCwpLlk3xbjB8zLu53J2RNziKcCVkDtzXivuM3+OOu19/v9XE73e742E0j6jvheDLw4i7aiQRdHFmYoI74C0hTWw461ptUNp2wnpv16qmtLPVta7plt546ZtlHHzR76JxTYQ6pO+KAMxA2ivYOLhlvFgGtRNe3mV2T+j1Le13bGG652da4b5rls0T95sAwsNHYmKOpdXs26HRta2PT0k5sq8eXbLy15obN/USI8Bt+87fM3vcBC/DcBjHnoCoZxIjX8BJBcXZ9yiGyzNAwwzKpCgh6zzbYohvm/cd+xivsEnIQU2Se4lnXxBuFYZjJ9DbOOp45BpAN4uhiZF5YkkCfIweyqqBT0tXX7fP83aHfvi/iobHad4s6V7x7cpGF3n4k6OLI4opkIebDaWb5cGzdMLalwYJrrDWZjmzEMbm7CURu3ZIJRHkMNxpbH8dsjUeuDnwnWd5JLCkwbh0J+vaMYilnb0tdIzmONBbDGr7Zk+e4zEQ3tajbtfVLa7DIp3b6+AlXN/7g2Ydt9dSqZVsbNoBU3hZF9pcUdQ4pCyvdFV/HTftyWrsuLuEoXhRLUiIeWRJBK53Tx9p4YvGnf6qlp07Ypc2hLfVXrmjBXgtNXO/4xFvG3OSuP1tnIzYn6hT0mWuegI49Dh6L7y6//R3Mh8NlJmb+jT7nY0UifrSQoItDzXz9oE+8uO1aixZpbftz2Z2Mvp9Ok+ucT3wCq51dtdzY6LjuNJ/a8tKCEz5Pk7Q/Ghcmujx390ogiGNcx/XFxvUJw+rDTrh8vUWj/nyXSZide7VW5BThSZDbyBi2xPWZLoaZG8Y07ndhVQ8t6cU2gaX+zFtO28PveIdtvO51TtRZDz2Fo5hTsNzAM1zGJm6msLH0og45Hl8C+cMGDrSzOrC7P+FFdnZjC2FlKK4cRr4LNy8+4mp3X3zn47JXrLpgozzeOy9tkeMHIOPGlv2dILI04Sh4TYv3x+rCNHHPyfH0Ofd9FCYWziZdKQo89fZr5MM28eWcX3+C4XfEaV8ZFsbl9X5X4nAhQRdHFlpN1RiWOSztoJPYqMgayxtC0e8tWBcCsHZx3U6cOm0XspHZQgcO9mpeWJGVlkCstkHKPW+dISmdJdxcxDLELMf1QwqS2zszY28iFEMKMR2JsKEZGpfF5Wz4ZZaFpWtTEGUTO5F27dwHP2S2NXSWbcyx4fFodK6hWfNgcDgRzj0969n5tAWEk8lNEtrgztstWVhExgjn8JgborkC49677WoQrKQcnx5wYh1mIDhFbiftWY3wjPkcyPTUeL7H4njuKJu6DAXjgs/KhpLsBcBwsIGluzc/BfiMJy/wDOEslEI8buibEkcWJrB9JPI1LO31emqjDgQAFnkKC4uzp11aH1o/6dv61sQmx2Gh33ELUuTSWdbVJLOusz5nQuZgan25RPEeDpyTjSf4wQXN5B3cvmO+3TR8q28/Q5cTdfZFQ0hZVM751YsY+8rCTvR7dv873+1mJktDHMej6sZCJxQxp1xwbhkLKaz9CsJNAeVoa5w3/cSznm6948dsayZ8TyR5Vrhuebz32vqmjSeFDTnmPCzp3mDZMjxXwVH/HoPLygoZhj4uxRIIlhRA5JFxi7qpu7cbg2DbIr95eKvcl+KI9iJBF0cWilE3QiJXZjbl0LK92OI4tXxaWJbXFsIi7a0et3fed4/d+QkvNrvthG1wLPKEw6tyjPzZhZyIN4k2R0yjsLvuUm4b1pmg5lPXhz3GL46N45kR4KHbgn9TqBGGpoV6E1pkNyrOoIaMCq1shLKOE5uysz7iqZdGtv7AQ7Z13wMwtEOLq8zVSzv598+BZ/MizW0pzNcoY/E4MkEs0WBcPOUON8vdOjJNvOeNwHs0cdnEP2FQKOC01MccjQ+ZqeWTJy3sD1yL+5I9FXDW+c0tS+KudeMOvoPedfsd+JujoW3h3U7qwvUYYKt/Wu5s+Mgqj/kMCxddeBlAIZ4AbuzXJMQhp8rG1u1Elg4SyyFcw+HQyrK2fm/RBsdO2PsvnrXo9lvtOa94GSvc3aBprDvvceYyVwk8a+m9LeC7cBYaTjp33jKcRwudibpr302hdPJzc2CGJHWTmEDQkRKwxXszs1xsaZFYUsYQpsQmDGMKUx3ERWYbEHWDUMYTCPosQ+AamOEwChonc2GpheubjgjrlBA3WOoUVo6BbwsLtnTbaRsyI3GDKRDnZudzUCx3hJJVBk0JQ8ypUznmeq9rmzj23HRieb9nwfEVCxcWrcphVU8em6vxbAGs8xT3WFhZtpizqCE+J3kz4qAX88tKIba/E++eeOYtdNWhtxsJuji6QAE4MlwIs5nCUCCxT6LUlhdWjGPGvP/e++1Dm2v28r//d23xWc9sRkhbXHaiH8Fa5TCuTWI9S5ideDfOWY10tBzxK9uAlV/homwXz+0xxK0un5wEfT8ogAnCEOPZKcAUY44/z5nPYoh5DCF2TwHLuoBI54irPjIym2ce4Yp1IeoUdELxprBmOI6u2RZaCsFMcXFaq85q5uEQvdXbb7MM8X7FBm1XgeGn48xzvqSANBks3Ab3c2O5p4kN7rzDjj/tLrt/Y93e98iD9tG1S3YJGaqLOO8irnER512vv4ZzhxDvi5vr9tDZM3b+4gWblLmrT6eVPsmzPbNrDOdO5uPJQ0Xu7cf/BoQ4clBb6l5soxxW+XBiC0Fi/Q5nwcpttDW2YVna8z73M+2Wv/lKKF9q5Shzs4klScfNmgZDFsKBq2xbXY/GJaJI3O/96D1IxGvXKI6CFkMkKeg3M4mlGLNPNcdgp75wmlaKLovbU6h7AldnEHy2zIdQ1VGADE9kk7V1s/UtiBbnAMfj4eQQSs3W7RRz1rtTUdl9zZUCGGclQ4YJKsZWB1ZUtnDbbVYhU8SMxI3g7j1zXuCJz6BscmQ63uNpd9tn/MMvtU/8G59utzznWWYrizZaHtjmLct28bbVx+S2Ti9bevKYLa6sWgdWOgfa4Rj9HKufXRp9o7j9eLJFXYLefvSGW8wbvuCL6mVOWFlNYSVlTQqChJaJtrNckJ9jov5kJyyeJhEO7Qws1/zuu+2l/+Q7zI6fsjHCVYaxKx6MXbF0gQObhluVsyBDiEfsrLKmyLew6R++1l77s//Jnrk4sI7rEpYYNuOYZHYu6zcLPr67J61PWuWsDl8bbljU6dhg6ZidXx/aA2cv2uKJW+y2T/o4u/ubvsrNmMZ69YLmJBtT9Rfs/IV1W1pawLYM12vEnMXVPITxyQFL4jqHljf73vCvvs+K93/QTmL/gKXPSW3DydDSKHXVys3873yuxO5jScHHPd9e8h3fatbpGycZdUoZxZbhvKoqnBDH2MzpMZ1VXXac4CImbQnveuMXX2Nv/41ftTuPLSFAeHbrOMHGRXC1EuErYEGXzrJmmcE4hugiQxNVKRznmqfVXtgkHFl3kCKDs464WrQzG1PrPe1Z9qJv+iazO+6wssgQr8gAQKRZfL6ZNkX3aRFbF0qaMNeD+2ymCGeY2wDvMhqPzO47Y//tX3+3PR3HL8CStbrjskQUYQvw/tx7x7tZw/O8+BPs6f/qn9sQGYsKx9XIXCSWuW8jRoTzffLeGe47hdXPz5kZCTduexra5tlH7O7BcZeRsIvnDSfiRhP4iEBOt+fiBc69Ry5fxXcZOPgcMGg0dj0fbLhlxZvfaG/589fb5n0P2amoY6cXFy3HszJzwe+Os7v5EgmWXvD7v5EMjfv9IEwckY+fB/0YF3RVEHBuFryI757zvvMT6trFoGvP/pzPtWNf9iU3cGdxUOFXKlpK2+vL2DGqzrZcAr2J9UsQkLU8sTBdReoFwcd6CDFxw5LiXwJbMS3xN0fCN0XyN66sOwrsRLxs1TSxd9/3sL1vNLLOSz7eXvCNX2V3f+vX2QRW1yWk3xuwyjnXeBHCOh9BZLpIxGG9pjGEEul6hQSaVndVlG5QmpKdtDoQM6Tg9Rvfbmff9T471Vt006ZOIQQbEN66j4wCfoG1H0J2RgAxZWLtlJ7r8HanvtxzI2JA2Cp7FCcQc4g4LphWOW40tjweI/oK+MjsJbGN2ZgPmYUIYe4hMFOO+sYwQzwr1o1DUFl8PoWoJMjIMLNgQYbzcT0ISoXr9ooaIl+7ecaNw+Ei3mJkVsoJjsHzshSDFjz7SvP5GR7GAbJgVuLarjUhCJCRcYKF6+Au7v50nAOd+Ewez8RevKOJLcOCnkRYR6bCTuPbOAlxv/UpZqfuMLvtLizT3Tlbhs/1W+DfMuf77fP+U54Ky/9jsB/Xuusui//O37ZP+s7vsNGp4670olgbuglrGCcsyaHoDpGBGSXMdDQlITc8QU3N5+Y18Gxs2AkRd18Hrhtw4h1kWGpkZPhbiREHKX4rkxF+M6KV3ODXJA4yTaOt9kJBm7LkAWna8ac/1U4+7/n2wDi3ByAS47Rna5DB8xCXM7AiHy6m9nA2tTN5YechCq4uNI7sbRcv2hsvnLd7oBKnP/mT7XO+8f+yT//Gr7fFT/p4XLuESCVICjlQSIwEEg5LFBRasLRu81FmKcx8Tim6yUZvsOa7/Y6VOSy39XVX13zv6//aFiD+SV5aj4OrAMpNGSHB3SXVFO9t5pdnOKF/nGCJQhFEcLRymehTEFiKAasOAkRrkpYlYaaoKQ1pWsZTgI2lCk6QeB2WqjRPw7ihFdtMhoLrIdBsOxDjYhRoZxEnyFyl/SbTCefuw3BQ8LnoNjfbndUO+L6dmMMRt4/3hWs2Mds2V+KE+0cQNV5xirhex/veShIbsVtiiIxKmNgGwr8Ot4GLbyBTtgV/CH8MfzznD+Fvwd/ATXnc+szfRCZxCmt8E9cr+z1kFo7ZXZ/0CXZhOLJuD5m+XUksSy+a0jHGefOsj53mOts4Medvng77+L3iHbmxDxivzFggq1nPSj9E+7j8axOtgiOTtRkKTu/kSTwoEu2n3mWf9kV/305+wsfapZVFe2ihY+ePL9nWnbfY5p2nbf32k3bx9hO2dscpW7/zVtt82lPswrPusONf/r/bx3zn19grvuc77Xnf9NXW+9SXwnLDNWGJd+rUFiexrUxCW5qaDfIKliaLqjnuWQZXwACtrZPi/hByFodnEK8CVilnJTPWob73A/b+1/+l3TIYWMSiZYgdE9cOqxSyg52wUhgvy2DMaEoP5pbnmD+ei5QQp1s4kALvBJzWfRJZr9f0FPAlSYyXeXctNJkGZh4agfc46xeC6+ash8+52+loxLJfPF2O+HeZBgicEzrvuL6X23WMK0nJcP6ksgJWcMlueQt9e8ErXmprENdJHO60+MerZlsFWuzMCO4Vr08E83HZPOuTdGNxU5Cgt5irDf152GEr5ouwih9Y37AK4jl44cfap3/919nf+b//mX3Gv/in9sp/+z32su/6J/ZpWP/Mf/HP7G/B/xvf9U/tU7H8kv/7n9or4J77xX/f7v7c/806H/sCs9OnkOImViCRzqewUqe0SNmNq0mQI4iPq7OE1enn1uYgM2wRzy5tYRdWH6sAMraWR0oOq/w9v/M7Vly8aLesHsOPrbLxeOQGlumGKfYXjxLEm0UjhjNhhccvx389TthnfhPeq31XONpZ7sh04cLOwoaI8x7uPrwQ4ovD6s4LOrkeMedZ/pruujN82DnqnZsspsK7mTkWQbOkxflQWpYasNzF+TNHm55WLZ1fpj9/jDsHrgsL2N0D1j4/A9rGwdPutv4tp+zcZARrHM+N0DSlOo2os5tgU6ZAxzOeWHbHqR9yWLSPq/0yxSGmYOVui6G8FlFivdUTdhHiOM1zmzLdesqtjZXdTcyOr5qdOObqTetTEGxuP75idmzZbHHFptHA1keBXVrPbGMD51cdGOeLcAuwrpBIw+pif2ZaWqwDnSBVHse1jWFqjRNYZklom+OhTYvMaljuCazwlU7PbGNok//xWrv3LW+1p6ysWlVMXHUntKARCFh1vYIN85pnuVkwPPN4y9GJ+MwxkXDLzoc48JiZo/Xpmc+ccLu3mrmZos4SlYAHUVxwEWZwbjRDw7rpeUfLfN4xEJdtc9IMF8YWBRB5WNYR+9Sz5AUumrlw5vyy3759HLvswcpnpoGZvjju4huobZ2jw6Wx3foxz7Czoy3XUI/yzXtT0Ok425uP1yea3RY5M/lubHzRSiToLWZ7pq8WU5Vso83uT7FtIXGuOXY3E1GkY2V/YGMI8mYU23qc2HqS2gb8jSi1IT79LUTPJI8tiRdsYemE9forOC+2ESzrHEoUw+pv6jwbKxOG2I5IeZew4B0pNIR8AMv+NBJ2G8NWe+/77Y/+86/bKhL30yeW7MzFR6yKA0sHHVyktno0tcW45xL6mwetQwosE30uA4giQ+SFlstu9wy37peahV3sPA/jh+LNuGPdOdcbSxEXLHIrsgyv6nLr8fEqFt4RcLfWOLxLuoAWKr6LIGrC6v6647fXnEg3XL7u35df5y/MDSIDv8YDliXiEZnL1RMnLMcysy3uuXFA02CvWZ6P0yeS+XY0jFfGddur4o4y/qsVLaTtRWtMHBeijhVbI1uIO3Zsacm6/SXbWB/aEBZUVkc2hlk4LQwugHjDzwPL4PI8tLIIrQdR5Yhfo/WRjYecPS20ZDaD1ggnMt11wuQS/Kb4ll3eElrXSCspVp1uYgtIvBep+BsTs798i334v/9PCy9esuOLfRxT2ijIbBqxvDVyCStb4Ceu+JdPcvPhI1LE5y1mZ0zPh28mYrvZz0onLiOE56W0BbgYncs84P3k06lFFNiZoHsx9+5aYSM9XnY7rAgns3k7rmk4x6wKSwn4VtminuVXdZK44W2dP7dczdZ3+26/PwaZtSke2LWbgNWe4vpL+B6Z8xtf2nCD8MzDRohPNvPx6ON16Uu+bO6NiTbx5H9h4knjehLFwwgTcDd0KRurIfMy3hjaxtqaE4jFlWMwlDiRSmIcdpSd1uKaLraOwYUdNyZ3NmmGY+13e9brNEWRBcSGVnQKS4Yp37xQND+ZptsR/XwytLTOrYswsEW73X/O3v6ff8fe9Ud/Zi946lOtKic2HG/YwvICBKR0s3GxdXgEQShg2R0MvBXX+F4gPSFyNN4i5REUSRcxXHY+tsKyb9g5l3HEd+EFn74Tb7aShwBWk4lb3y3oHr99X3Ajl+loFhvmMh0ubIhrdgtkcXyF+G+atGEZcV/UWML9SlyB29nUsRH6nfXdvutat73OKhdkWliGjve6iOdNA3xDVWIb9z9ii/i+GD6GgxlExpCPJbdttvxkwHiltU638Zpf2olk0Sp2vn7ROq6aIB5ynB02zW0hia0cTawThTboQqi7qWVjCC2s4RQpJy2nHqymHhJ7+l0oSwdaGrHPM34BHEClrGi3VW4WsQ7iLWF1BcS+CwuS84QjRcReJOJYzHHdLGHdOutDS+tiu+vC9fq/tjf8wA/a2be/05575+3Gftss5WXjOY7bzm5frGdnYp7FgU24D454YZsXN97zZkKRLDlNLDIfHjxJM4sY4pmhcy3XZ58Zj+fivJVO4XMFz8wcYeeUg8qwNfjGmtV5Zp0kdc9MoaHPUiUfBx5fRMxjIrxj7md1UoT3wnuxpITRuC3qwAtmURfIPEFMXbF4gfuxaxtLB4bWTbG9zLEP0gxXYtk5nOPeGYLJ87nusgK+tfvMFfg3xr9+D19YMTYb4tkmhW393mttcu+Ddktnwb1z4qodeD04Lvs4e6JhfPpMkm8kWyAzJdrJLDkR4nAShEjYaTMhNWci7AXGW4NOKMrGsQFUCKs9pDVdwt6CKAx6iaUJj8tsikR+PN6yvJxaAKuru5BAvCaWYd3Jg+vzhMQc1ljJRlHTzAZsYJTltvm7v2ev/emfsvDSmn3ccz7GFhd6du7cGZzDhlOcoISuER+GbQSNpGMR8MHA2d1wTdnDtsUNAc3z3A1lyhIF1j9HnS7rGazAMzXCNDt2G16hcTUeloJMUYkhKBwiFpFttsXeABmO2H3u9cAGb7gLXCPmTXLWvP/ZRrgIB/Qg3uxuGBUTG2CdbRvSEu8P77/bwzLWI+ZbsK/E+86KqY2zIa6F76luRL6ss0b8Zz63x0Fu2WQd1jgyHcic2AMP29p7P2jR+tDy9Y3t982udcwMMph03PZkibo4OjS/ACEOKRUsas7XTVfOfA6xycSTxaMU+NmRSKux7ASfQuSSVSunIwh7bkkM67wDC7GHxBfKO40zG4cTK1IIf7e2tAfLHWk2i9cXIGzHkIAvpBC2D3zQ3vEjP26v+43fsGWI1sqgY5fWL9rWZGi9RVhouGWnCKyfBdbLm25LFHGK+TBFmG9yos5ueIwKiuJe0MLjnOGcbKSCAhU4rr+0iIdKDbZtI1B4Bh/L7PM9fz1nSeMaOQTSVVQg7lidUZ07bzZGxmmf+14fTeaBNGLuFgFH8jObbq1bMdy0Lt5ziufgsLIJhwfGttH6OdsaXoJ4b0KwJ3hOiD4Hsuviffc55SvHsEdGLkZGEO8rxr4E+/it9LF8LI1sMcUN+cBveau9/ad/1j76V2+02xcGdhrvn4Xz7jubxZEreodrsk9CPL5I0MWhpbFyaJWb5UEJBzGHYxczV4DOokZY6TUcrXWOWMb1KoKQRkhqIf4chjWjBYbruAxBVGIdYl6MXSI/QOJdbEKgH7rf4rVL1jFYqFS193/E1v/gD+31P/nTdu/r/9xWIBK3rgyc9cbx1NN+11m27NbUdFeiT7HjT46DkCAMWDwQVprL9Hi3gwsb4w4iyPrjOg5tczKyZXYDZEYK4Wfcu7O2M06eRth9UXoxZbc+Vmng5SBjtX7mnGsNvl9G4nrhZbyY85tgqGj9B8hAJEVhA2RAIleaMjW7eAk5DeSuYJIvpj1bhUqvIFxLNcQZF1qCBi/mhS1MC7xXsxW882X4i9D1flFab5xbdzi0DieoOX/O1t/4Rvvoa15jr/vlX7YH3/l2O4l3f+uxFcvyMb65Rsw9fF73GcLhL7dwQYjHhblPTbSNv/j8f1CvIHFr6+QspAwaMW4ScrfJ+b57ES3kna5GznPHEib8SZcF9sgMsJFWjWwADmrq0SPrMEPAetEQ5jQ1IsOfB89b/aa32Fv//C/tnve8y1ZhuT/t9lsR1srW1tZglfes3+/bdDS2HBboAs7lWN5u5jLcl+OdjxF0julN+jknccE7wHO591Emdu945CZn+eRv/xYcsGBTnohcSs15vZnpQDjTEjFBQcW/xzo5C89mP2lGRw/vgNZ6wXjnMVUCH5LICIwL6N8EFmrHPnj/RXv5P/rHNvg//56tD/oIV4Y4ZiQjPPBYrcBodpO94HZ8fb1OYpuXzrvSiyTEdzia2v3//mfs4Tf8pd2y0sV9C2TGOk74GJYQz8C2CXxPZzYyW33py+yZ/+yf2DrC36t7sPr5rsYWxRz9jT0FmtbrPJ6ZJMKGfYzXLt9hgrgdjezB173OHnz3u+3Mhz5kJwcDW0Hc9vuLlkDQe72edfE8XXZ77LFKgWY6XtQsU+iAmNsUGYLxBO92bKNyYh88e589eM9HLb//jJ1Ku3b76jE3OVC6SWu/ts0uS4wQBH7GfDL3u2M8NdUF7ptG3D0W+DvguAC8Rhbx2+VkNex9ge1V08K+wrur6onFCMsE6+vpgj3jsz7Hjn35V84eSrQJvdQWc1QE3dWbu3OY9rIWuPmweW0Ozzn/fNRGJ/5umcN/cjhWNrCq3ehurGtlCaqz5CZwrBe9uG72gQ/bQ298k93z1nfY8Mx5O9bp2enlRUtjTsYyREINcYFwZbgf501PLLY+Jz3J2BiOYWFY8STQlgzhpE9B5ahhbv8BEXTXvStItgU9jyASHTyTm3AmsLPD2j7t277T7KWfYhdgiUYZSyGYIWkEvYvLMrgjiCHfB8dSTyGo4801G7AeG9eyex6wd37/T1r8wIO2AMFj24THKugGAeMZPNYLuh93nnFbba5DqBetgJD/5k//jOtKuIhnv6W3aPnmphVTtr9AHPC74fl4apYqeBHnaHbcx8GA+D1WsNynEPV8mtmEJTs9WO9LC7aK9z1IE0vTyEYb6xaNJrZy/JhdsClihvFL8Q1dfPMpU6q8/6bhPxYk6GI3/LqEOJQwQ8A62xiiQUcRdQ5WcQpR6oSp87lOxy5sAbuxsfUTRIbrpxZW7PTCcTvRPWbL0YKlGQT8LIT8fQ+Zvel99pEf/hl72/f/B/ujH/0Je9cf/U8Lh2t2x61LtnIihQgNIQgblo3WbTDA/TqxbaxdRFgCO720avnG2CXiOQSDM2zRUcwp4ANY+4vMLzy2tPxxg6k643E/KG5FUSDOItsYbtntT3mK2S2nXR16BnGjCO6FvybPp6MwYsHlpIYPPmQXz55x/bSvdO+rwVN5/0bMaaVfnpyxMWJ3ERkaHDl65IxtfvQeOw1hfibE/BYEZWE0tpMLXVtd6tjKYtq4hdSOLXXt+ErPTqz2XT15L60RVhzfDd2xt55YsrtuO2HPespp+7jTt9gLV47Zbeybvr5mk9GGDVYG1j+xaOdGl5DRQxYBgutKDJA35ft2I8UhVPw2hHg80RclDjW0njqwivuwMBcmuQ0mYyTUQ+tPRtadbFo3G8/c1Ppwi3BL+dhWp2NbhgsegHC/+z22/mevs0f+6+/ava9+jb3jx3/S/vhVP2y/830/YA/8xV9afv9DdgoW51OPnbCTi31kGUoryqmVsIRLJNSDxQUbjUY23NqyUydOOqHauLTminEpOHS+SNgLIBN1b7l7rkXceI15fOOqgu0CcDHObsYLuXu5n3djGbpqiRA3pZ2N+zSN11wzNVck3IyIR59WLix6uAqO9dAFu65FeKZRact33Gm2uorAhzYpc9yqsYYZdArqFNuzkFOashQF92UXqaK0LrZXLA3JM7tw5hHbvHDBWOtAy/5a8fEzH2fNMzJeWWfOOvmmxInPVtHKzqGiOccJKO0U3sutfCejLQvxHdx++qT1kLHrxqFzyG/B1Y3DRehSboMfVLnVBaztfIrnKpzF2wsDC2CJbzx8xvWpXxr0ra5KG45H7n1HXT5hY0XTJz7s9Jq6fiEeP5rUQLSSo1DkHkR4vtGmhQEs5j/+Q7vvnW+ztTP328nTJ1wL66XuskWw0tmpmNOEjiDEUwh5BcGvs8JGm0PLxhOI8aZlw7GLDwryYr/nuqSxr3TzI6F0+AS48RlvftuOgDbP5MXH4+t2Cc+jmPM6TNT5nC7hd8+W2v3IlIQveq695Nu+yWxx2RW512zpF8VuRjd2odoucnfvsxHkmnOP11M7gSg784u/bu/8z//Fnrm8hCtntgUrkwLHot60jF3Le/ajZ10+h6QNIFYRwhKlkdUQas7r3oWIl+McxnjfcsjvBy9u2Gf+839u9gkvtrM4r+z0bAVxx7pqzhufIXzsRMj308wDjmMgnEkNQe2waHyKZ8js97/3B2z5L95nz+4OcM4EjkX/Tb/2Rvp2itwfXpvY7a/8G3bHN329TQaLVo0D7OezTFy/6ppVAziuCjPclz0ZcAEeUeN6jOigsD7iefQrv25v/LVfs9tgdSf4pjgxi3t7c6LqdPcamP+9NO+x2cZ3yXfB6zTrzXdB2IaCizzcZXZm5z3W4naiInexm7lkRojDB/ufh4OB2Uc+Yn/x679h9//pH1n2vnfbhTe+wc684XX24T/4ffvQa3/fPvgHr7WP/uEf2EN/+qd2/i//wjbe/EYbvv1N1nv4QVvduGR34TrPXh7Yx6wu2W29xAZlZtVww2Uo2M3JZ3wax4SUPx3KOaxROOPc09vbm4R83u2c63a7hJ9u90/QbdqH2akOJxS4l6tygGvErHbhZCvy5rpsMIYDcRwzFAUSdba6pogwU4fskptGNE0S6/U5kh0EfjhERgjyHUMYcJ0aGYc6Su3tH77HXvDKzzB79nPMkOEZT5DRqVh3TmFp4oRweFPXLQuOLA5gESPD1jx4adMPfMTWPnKfHVvgXOGXi9legurjy+PXdx/K52dbARazsy6fz18iEzdFJoM5H4YxLYsmfvD8zMzQzd/Tv5+ruXn8e3QlG+6Zd74N+s1sb4yT5jj33vDcfAc3IuZC7AW/PCEOLVscoARUZ8/agw8+aMvLy3bbLbdar9OFmCy4IvDjx4/b8dVVW15ccvuPrazayWPH7TT2ceYpjoTGwU9o8dFxmdsO+qxUtA47UJJeFls/j60HK76PZeOEM1BwZ6lBVCiuLJqnqLMOf4pD2A++gPINIHjR1hiW79i6yAAMwsT6sG47k8DGF0e2sHTcHtwaWn4a8fU3XgGFhuUHVWNr9kENax7hoDAyIWFY2DagV1CodgQrithVECcEgd33R39piw+t2wDvZ4IHaAROCPF4IEEXhxZaXX12MypKNyb70sIiBPyEE+OiKFxDLCfQEDRnWVW1G+GN/cOLLHet0VnPzePZcIvrk8nE7Wcx+OGY3IY/4cBZ6t4apEXul+k4mA2LwOmn0Fg/JzfdIp6xHo6c61PQq8SSjMXlKaz2ZbuU1/bRzQ17xZd8vtmznmp1tmXrm2u2Oli0DtSYVqmvL+/AxO/B0ee1GenD0YalC32EEi/g7EV78PVvsqd1lvDO2N2QA/zIShXi8UKCLg413S4EfTwxKyFQEJb19XXXII2GX0yxKksn1mw8R4HuwurupR3ncxxx9hen+FP4aZHT8VhuG8NqPcg0jdBgSSfwYw70QnHFk9dNH2cOaENx7cKEXoRIL03NVvBIy5PKVqY1tuGg8dAWk9hWwo4l48KiYWnhFAIddCxaWLX3nD1npz7+xXbqcz8HF+jZtN9zM4114HJkomj1s281SwuYaWBxN/vd94raifoowE1T7MxLO/vHr7fwoXN2W29gVY53JgtdiMcVCbo41OSwqEm333cCTku91+3asWPHLAkj1zCOljn7oztbFtoC89uJPPd5v2mYhh8ExQnXoTvo80az/pdt5ViMzmLv7Xp5uKYbF9bdL7yp/6fYslSDzm2Fdcyx6llK4UZwm5Q26Cwi/pbska2pvfX+B2zhY55pr/zqr2ZRiI3ZTQ2ZoSjpWJVhuWCvbdreuMmsDh0LuBfr8pE5sMx6C11swzv4yAP2/j/4EzuO86tsbAlb9O2qQxdC3Bj+VyjEoYRF6FAkmIVNMTuHTaFgDTc27eL5C7DEO5bGicUQLM7O5YC4OwfhoUVO4aaws6idjssU9INeh05BZnc1DlfLls6uxTwFHY/p68nHcGzJ3owdX7nx4zc7la11K9uAP8R2jl43gUCzYV+S9mwD+nsW24Kn3WUv/9IvMrv7TmScMptmiCNY92xdPeKAMp0U4t3U07NRGDMXrgg9KKxi9zkIObt22bmzdv9//wNLHjlvywsDG5ZsoY5gIsxsyCeEeHyQoItDjbOsIc7ZxoaNNrecgFOgaZGurq667lcUevaH5ihfXOc5vgjeW+a+IRy3EZ7DEcEOOhw2lW3tnUVcs9U51BhWciP2sN7hKLasWmfxdtPavRHfaczBbgLbQqZgguefdhJ7EM/8jnOPWH37bfbZ3/D11vuEj7cLFy5aBaFfGCy77l4JjuUc41ESu6J2ZqDcdaOmrzvFnJkMCyD6sMbtzAV71//8I7t9aRmZgMAqDrBTs+U7cx9CiMcL/AxFW6FotR1XLI7nZP35wsKC20Yh5nbfuI0wLrxzRc600NklC/vpaJXTzR/P4vcnmvlw0REfhqvBrlp9iHIw3rK0yK2H03osxd7ctH7a1HHzOSM8RwIhjjnbGxznhWeLdldM3l2wS4i74eLA7kWm4F3jTbvrlZ9qr/yGrzN79rOtRsamf+y4VVDsfFo11RgFMkRx4GZhq2C5c9z7AJmBqRuQprAcbhhNLenB/F+f2J//xM/ZKjJKnH50AoFP+2kzIU7d9DW/EowLFy9w/l1xne/mWuMJB7oM2va1ZjwZ7/dmMx9H/hubjwPRLiToQhxitrY2LYWYdtLUjWLmiiaWl2ywuuoaq1VJB+IJOx4mesi+8hVcjkxQiYQ97Ng4jO1DFy7Zm88+ZJM7b7VP+5p/aM/95q81+5inWT0ewZqn8HPCliap8D5hhmIJGYHRxqYbgCdJIstglVvHkNGAaAyH9siv/aaF9z1kx7pdS9JmrPlplSGfwUwBrv0kcc3i3zLmBdxnWpm5Ee1Egt5ijlJO/GqW3jw8Fhp3XeccRCqIdwUjuErYx7y0rWxiIw7iAqs9ft5z7FM+57Ptbfd8xN730Fk7szmG2KbGSVoubmV270OX7EP3n7GNPLRnvORl9re+/mvtld/0tbb4t/+m2eoCPh5zI9RxRD7XFQ6wVT2L1ul8UfsY1105vmzh5sjCycTKTg3BHlunKG3y5rfbu/7HH1q6MbTFHu6NEyqEgDPasXCgQvaA7+HJwov6URN3Pu9uS120Ewl6izkyOfFZ+uSFei+YnF1p/2GFfe0ziPgUAhrCCh5RKDlc7m2n7Cn/4PPt077yy+zpf+tvWPSsZ9rF46u2duq4Jc97tn3M5/0d+8yv/Vr7m1/xj+1FX/qVduJvfrbZ055qHFF3bTKyDQ40s7zs7uGjjHHoZYEFART0Tq9rm+cvuSlje3Fiw0trtpTARH/wnP3Zq3/NFrLSji30LcLBHHKXbRTYVoEznLF3Aa/zhLOHgO8WubYy/5wUct+LQ7QTCXqLcV22Ws5eAu2F27vdbO+brR9WQjxEVdRu8hQ2h0sGS1YNFu2BIrNNNjq7ZdVu+dK/Z8/6hq+0T/nX32kv/ZF/Zy/84e+1Z2L59Dd9hXW+4PPMXvZSs5O3GOd6v7A5tM0gsmiwYHUXGYXSdyvj1RvHYVO5TjEnQYqtrmU7kpJLG3bb6nHkCEb2+h/5GSs/fL+dgvU+WFmwEmEKOPRqFDRCjmsnrMd/gvFitts/KsyL+XzRu2gnEvQWc9C7XT2eMNmi26sYfVvAZ64t8FHiwqwfdi3MQ8snWAkSC/vLtgUr+Ow0swzfwGRxwSYLixDprlm3Z3mnb+dgTa+FkY05KE+OTEEKC3vxhMVRDxZ+5IrXs4oN3Jo4oyXNVvQcrIbF7YRxvba+YcsnVs3GW2aLixD1sb3hR3/azrzxnfbMYyctrEorcJ1mfHhIOM7NcU92fWNXwuYpnhyOoqjTIqejmPO5mZniiIiinUjQW8xRKFrbU8DhuN1b6rtpS3JOke2WiS1Y343lHmzmFmahDSy1XrQIAR3gYXsc0NWs6Fo2NCs3cWKWQpj7llfwj6/aMObc5jh0Wlu1kVvEdm2djpVpZFMoeBFyatLKOMMbHUeAYz064zftxMgUbFnGyb5hgb/lh37GPvSb/9Ne+fwX4565VdnU8hyuLi2MOZ9c0AxBG8auK6G39J9Q9hBwittREHb/jN5C96Iu2okEvcXknAt6m4P3qr3gbierXIBYuP7UWPb1q83gJfTZ5awp8nX9rCE0Tatr7MdfnsfR0GIkWlymWPBoio+zMNnSGxu4naOouf7Zrgj55sF5yglFkkOnNs/nQSDxn6O++YzLzjzmjC5Y5WzZzqdMYut1O9bFjmI0sXw4cnEx4dC2Obvj8QKNpebqsXHhAAn7VlHZ0DKL+10bLMDSZ8t4hIXTsk45GhzvzfPcO2jGbG+m7eQQr4UNJiODTQ+Rntpr//0P2D2vfz3E/AW2duZB66bNELGEIsIgRLD+06TrSo8m42znunhnvCZ9VwoAF+OheU7zjkqEmP3b82YgHXdVvtvmW3BPh7DhKq50oRkjntsLRFSz7L43ti/AUXWIZwsPu6XK5/IxARC3fMeNw76AXfWaNIDvPeTgSmEC/2CPgCgeO3zzoqXwR3wZLlE/ODA4m9nEgpTdqJDwst800icO/Q2lsgTCw/QogIsLCFHJkcWaBH6KhJ0OSRa+4tjNa96JE6u3tux4r2sB+6BDcDjYCcU7gmhwBjJOHsJ5ujkH9zSGtXITfwF8/gLPUuIpelhJJxmePcBzxzbJITYxR2CrbQqX4V0y+XYZEjxQjnXOVmb9GNeYWBWOrYynBnvZFqLCFhCJCUSrkyIhhwCGSNwRgValhZXRGMeNrBtNIe5wMJnXsnU7P9qApQ3xx31ZzdqNIfBFbHHAGdZgxUMw84qSGVkX6wlnVatgzv/J/7I3/Kt/Yfnb3mR3rHRwzCauiTCXEyuxP0RY07jjromjbQrRnuSFpd0enoczw8VOkDn1KedWpwXPmeMS3NtZlk6n8G2EI8u6Y8s7eK/4KFxjwLiwHI6ZgLSMEEcx4gb3xrOXiJckxB3x7OMp4gfvOkTGp0IoIsRDEXLYYMTLYYbvtfky8EHhd+REHbHJDA3iKMR3zmSAmboiR8aJ7xK/BdFO9GbbjvvxMrk8eNDySxcGsA+R4NCKWugjVcdymTlBq0KKUQQHqwI7YiRWFDM6WnPzdGBhNiO9BTbc3LACiX2cIkOAR6cjTPTd3OHwuY0J/K7LPKnQYmQpgS9BmH8mF2a4AJkVOmddBbF1IIBdvNMYy7S0GEclnjmPIfiIO2eJ4TyKKBPyEiJZIm69j1iFnEHY6wLxCDfNIKiV9WJc1/UVT13/cHcs4jBHpmhztIX3McX+BNY1LOrR0BDJLoDj3/wN++B//S3LP/BBux0ZgeOLHcvyoY2zIY7f1YYD4eYj8rl93NNnPT3jocl8NZY0rXZ+DCWes3l/nL0dWR98G1OEJUI8LPQXndhzTnz3bcAFHOQGGSJui+jwnE2pD+IF13Qz0OHGLAlhBuJQ40ohvM/4QkQ5Ueeyi2k4Wuj0uY8RyX10oo3ozYqbyhRiMoK1NmQXO07YMR05y3OSNBYoZxHj8KVliH0UMiTIXVhigyKCtY1EnBepc6sgJhPaf92OjUsk/FC1AonYLMlzsBg2QELOc7yAOq24STDJzSDUU2Ra6HIIdOGK15n4Ns/rSiVgCccFLO4MIgRLK8lq68BgjZETqmHJFlDFAnGxl1/XKe6T7Ok7Uax6tpSl1hsjNBtTmw5hBWcZrH3ETR9hwk0WV7vW6ULgN84yxNiOnefP2L2//qv2J//99+3cQ49Yv4PMAJ6FE7ZwFjs6TkVLGM97QTEfI5c17OAbSCq3PHFjy3P2uNANjDPB9XLOCseSgqoDK7xjyRQZtzGEe1hbkCOu8Ok4Q9U5CFheunU6Wvl8mBguQZykcJ08sU6BzAmWKe5CtAWXHgpxM2DxeQef4FK3bwucBhViRgaDBesu9iyDEkwgybQqG8uSdeYNtFATHE+BtmqKfYVtTcZWJxB5WIYxhR1WPo0SnjMv7IQJ+c1PzGktssSAVhUcshess+Z2Z6EyfLNw0l1ehdI8katfh+0Kqd/Tr52FCwHfww8g7DZh/EUWJz1b6PVt0ElhhUMsYQnnk00bJLXV43VL85GlAxy/ccHy1/2xve5nftL+1y//gg1g5R5fWbUTq8dwN2S+RhOXqKSwkpFr2FfMCZ+gmVDGu2abb9/A6WA7sMLT7gAPz6IbhLjuIPOwgDAiY8LiZcSTO4/vGTdzg9/AufeO+zujFCFybS1cHCOU8CMIPOvclQSKNqGvWdw0KFJ9WJ4L09IGU6xMkZxHHVhWJYRhaOPp0CrWH0cQdAhLBmuds4ixTnkCAaDIwySkeiDRh0XKbVUJax2JdYoEf5bQO7DP4yxzOPbjZqbiZsHn70C5+jmEC2IVw2SlY5UAqwdcaSl+ouzeFUQQe+pRGljRgQXeCayEC7AvhNix+H0vn43hmOfZy6dBW3KIVtyQjes2x5s2Hg9h9U4g1KUdQ/wucjpaphJlbva2t9k7f+zH7He+//tt801/ZZ925112x/KK1Xlhk62ha7ne40A3OCeHlT9ABuFKMCuSVpV1i8o67JeOZbZvcIkSwseylKxqRJp1wznuM8K1xznCy88FGRyWzNDlCeIE30HegUuxjHW20mfpDvI2zuqf4LgpMhosDeGQthXih9EsRFuQoIubCucpryYTy7e2zC6exwZshKDEEOqFTmJRWFgUw76CqxOIdVS6utYccl7CMk/KKcSmsA4S9y6stmmBPRCIoigsTbsQguYTp27PW4IU8itZj08WEXIcbL1P6LEYmmFsMiBwVQYBnlpRw2LGv2kwtSyYwHEd+1ixAIUOEF97+ZA1ONqnj/broLS8i4wSC0fg9yGEq0liixRmmMnpGDmKS5tW/a/X2Vu+99/Z7/3Aq2ztXW+3F995m33s3bdbON2yfDi0mlOvugZylZuitsc50+H7Ivf9YPw3jdmYsWl8vhe83m2m2dhl7njtpNOzE4sD6+HEgBkBHBwhAxexG5aLJ2TxEE81YqZmNQyc6zWAuGRreFr9GatiYPkXAUsxmENSEijag75mcdNga/Wwl1h3dcGN/73xzjebrV9wifPJQdeWkDQn1QSiPYFAZJZAzOMOEnym/AnEACk/DDE3CcjGQ2echUerl63jOciKayjV3Aq63jS4omA23aCarlc3E4aCIsP5yDlfOeuRRwms3QSSxM7groU2HUQqnCIz07iSPlt9Q9xD7AuxvJ+L43xfZ2lha+GWTeHHyPtEEHSDQNr9j5j96V+b/erv2v3/5kfszT/2CzZ6w1vtaWFidywuIrov2INrD9skKiwvYYl3uk2VSY4MV5a7unTOdleyc/sV8I3UXMnEzHcWOt5L4DIdlZ1eWbHNM2fM3vNuZC4uOAHvQqhjZOTCKLDlPLMlZN46yNSlVWE9fDtdiHqvzJ1LOGIetrNCnaLO8eRZpN8U0c8CIkRLYIGUaClf9bwXfncXCWMEK479spGEue01iypdfWyARJPdkG4eeT62DsT7wbNn7Z4H77dlWIgDFjHDwqvOnbFBWVsXFmAKsWA/7RgWfYIUueNEABco8efBR+zBP32dXbrnHrulP7AlCMxoOIKg4ToUbhzGVs6Ej81ifE5swnjw+28GLiwMQ41nQnhKWtVxaENkYLrLi3b7S16C3EmCjAmsZShQwuPwClk83cf75HSpKYUQ+xkXroZ4t18gE4SMToxzdvspxHEB9+tsrdvow/fY2Te+2c4jHs/92evto3/0p/a+P3udJVtDO9nt2KmlRVevzm5ofbyvHlyJ85f7y1YMkcnIC+t2Oi6TtLW15UpeOB/9lN3vyFwku1cB1wh38y3SNe+D9e6sCuF6jXv17T0ffK+dgahPzp21RdwnWluzYGuEiEhcVQTjr6meQDwgRevg2imeH3kkCzkqGsKSv+kddu4DH7Dj/T6eAxkYWOocfta9hEOKi6tmoamWwAIzSc1vmpFbuYysOwTxiZizLOna4p132Q/+3n/7HrdDtIrD+zWLq/IXn//F9QqsnKSeIIGjtdT8uPnjZ7Ejkjsn9DfLUqUFluD+tWvlHds6DKm1orI8ZKO2rutGNYBIsA65n3as1+u5vsuu/3LSc3XKW/mWPfSRD9rogYdtFQ+yGiVWFxM337alMQukaZ47y52O0Mtn5bp+kJSbBUUtQoi6EJ0QbgqxmXIwlhPHLTlxym5/3vMhbFCpCpkT7Ifq4yxYwniyAgFvku4mU8I9u32j2EG02I2N61VZWg6LlqO0cTjW8488YsOtDVs7d8G21i65aVD7aWqrg4EtdhGXyExFNQd1wXcC14gw4665SxN//Jaw5m64NxRxv3veOmbjPW6n5UyY2eB7YiEMCZLUNvDtnke8bOJZqiC2TqdnK51F1/DxxDOeaumgh/AuWrKyajDpzY4tmy0smbHbHEtl/vjP7H2/81qrHjlvy8yMpIhPtuTHt+d6UMzCctjg74dxzrjMwhjxyHYYcfObZg7HlUqw+gEZQfymJnVil+KB3fnpr7Rbv/arDulTiyuhl9piDoOgB1XmRi5jI6WshLAjmGy9HEOYUwr9xhZEA+GGNcW+6gUELcMqG0VlEIH+yUXsKmwFz3Si27cOjhmPtoyt3tnanY3kmOB50SFcb4rdb76gu77SEFlalFzmiGrsdjeKEyuRmTm7PkJCHVmIuKGgs1qBo+3UsOZZfcD3SEFyE7Xg/N2+ywDAinWVD/C5veBoPdjOeuhbl1dgyWMZwkYLmYPZMG5oHe9AgcDpDCM2c5fPHHkuO3wXjG/nNx6u3/iuNTpCxvDzGGYU3OAyCBeHmHWlSlE4awCH9w3fd+lL2MIdgb7n0gVkCLHO8ghkQPJlCPbyoh1fXLZ+v4tzK9tCpqX78Jqt4A5pmlhVQMyzqQtPiW9Egi7agl5qiznogu4SnHrqEu0ACU7N7lvsSoS0iOJBIe8i0Z7Zli7cJRL0EmJfIQNAYVhbuwiLK7GlpGt9PFOV567FdgjrnPXzo2ziEmyf8BEnKDOB59+b9fwMjxPPIqesWRpHLnPj+ubDgh4jjGlvgCePIb4QY8SJF3SKH0XXDSyDh9hP0JlvoR8jHvnIFHb63B4hg1BvDa3DrbN7c+jXEv8oAriD81kC0Ijw5RU0uOxsCy52Dfho9oLenM2cRJOJcALFLcisUNS5l87wjP59M0xVwTjjpC8Q8v6S+y6Y4RsFpa0FOYSrtIQN9cBGNraFJLHbgq4tRR3EFRtMZoxRi7F9gvvshOdwIUEXu2F6JsRNA1kKZ3myPpMJUQLB7kJUUqRUCS1J12p5iuQJrhrDupwgIZ/A8hpbVU7t9hPH7ES/bzGOnYxHbnSzKElx4dimNPeBT/ScIMySMX74dNx3s+C9Y4gR+5ezkXheMoMD+U4jZ10u9Sm1lPMSeR4IHHM5MeIJ+Z4IfgwzOQ1rZHpq60AQ9/J70Ms+LHPYoZYijmJk7OISjj6Ec3GBg8ZAyCGGJasqpkNX7M5Z0jjOW3NL1rnjTXHZ+XTIMM0yRT4Kr+T7ZTIrXXc+20XQdWY+53hhvLj3hWOcz0ZteK90ATI6MQ5IktD63dgqhDeEaKcI/wK2LcNKP44M3moS2RKCd9ep43bLyrLL9LEB36TKrOggVnFcgbg5rGIuxF5I0MVNg8LQh9UwKBLrZBBxGOtJwWE8A2O3JxpvQQobLYEBlsBCT2vLIWQlUn1X5wqRm442rUCizvpgFr1GndSCDhJvCONoMnb3acSc8tA4nkrRoEDdTBgON+odHrDPwU4QB+V4ahVcgMxInEGAc4QX1igbcrG1NuxJ4zjmJRxiohG5nEK3t89W4SFEkMO8st7Y2Eht5nOO8tEUDsewn3aJuKv7qVXsv43AjWfF+hQ9JhRsaMeqgS4uRcc+9IxH7oe3r78Xs9fn6sp7yM34bmssyuc+nkvBncI6p5tgnc3rOIY9R5GbprFlEOagB8sUGZwpMnnjnN/BFJa3ITPUsxNLSy4zwpb7/Oe6O+K8PIltiNi7NB67b0OItiBBFzcVN/52BQsR1p4f9MTVlePL5Bjl6xDrrXxkYwh2zlbgSO2hPc6K78UR9AyWOhJrCr91kNBDuMe0dKE0nW4f+/iJ46IOFkXPxJw+tnD9ZsH751MILqzdOOpalLDffTN5RsB6gpxdtELnOnApXII44mxyCRQPWRdY75Fz/LeXz6J6Nxodzw040UoMq57tE1LnWJLB4myY/66RXYmoYmaIk95wTjMGw9WCQH19xog+o63JJDVQgPfz/fLeIIvirk2H+2GZ1UEc9rWAeGd41oLVLghfFHcsQJgrZIAyBGyCuHOTt+C8prieH09u5Whk2dq6jS9ctHprYuGUDfvwzvHsLH4uyxrXYJE74lqIFsHUToibApNhGOWu/i+LaTklNoKIj/BVjpCwj7GcLA0sWehDnLvWhenVgTp0JqUlW5nVG2Nb7Pct7MTO+uIwsSOI/hDiz7p2toJuRAj3mhMVfvS0zllCcDPh87Oh1zSYjV0eRVbCgow5LnoCwQ0SN8tcmsN6zZFBocMJ/Wlgffjdae2KwANkCPZzdZMz2l4PIYb0uY2mbbeD+GUndGSs6jywIoPlX9TI9ITIXLDjFw5F3Pn+8pO4ti2Y6XTsO8/tTuCv4nYLOxcp5OxzP4YbpXScRQ/3ocWNXBt7PlQxMx2phUEXYU/xvB3ECbIqObaVsU03x65Ug6UHCxD71d7AjncX7HjSt2PIHB1HRmkRGUaOxsfSkBTPGE0rfEeJLaQ995xCtAV9zW3HWVE30Qy9AkzgoR3OAmRxORt41RBxFinTSqeFOMkym2ZYhlVFCx4y47qxpXQcvITHTKc2nkDgcb1Op2MJu6vh/HHG7AJpioYbGWlwAjNbvlkwDHGvY1XCIU4R3rywDFZ5jmW25i+Kwh3HULuShQpZALY3gJXJGed4AcYJbFv4fJ5H+zyb8eJ9bnezr8EUL4rSxhBDzpvP+EmRoWJXQY6wx8ZxrkGcO5fXaqz0pgiejfEay3pepK8Hhozwmjmvi+/UlwbMX5OZCs6gVuG5OQUoewFQhBO8e04As7K4agMOaoNtHHI225zAQodj635sY5yVsNCn+EY4z3sHmUfOAcDhagtO13sE8O/Q+6K9SNBbDBO/y2hU7WABi8wV41ZMqNm6mY2xWJzMFt3wYUXGrCSFNVbAwiqQKrEu1c3EBpXL2P2Kxcdxx4mdb9AVw0L3rYBZ3OwdxYDF8BSNGxGkxwfcv87x7GzljswIBDWGgCH4rkgYyupKHjgneoHnRRTAsR1BAMs2sozTnGJ7TbVnpmgfvykmhwjPfG7ngCyuGxvOD7kdYWE7hML1T2crd0ZME190TChcsTUyA5yznAP80Pk4vprzuHifc9zHa/vr09JmwzjfWI5tAVzbAR6IuKjpQg7rykaSmY2ykWupXrKFfpy4YnW+3wkyhyNklFj3XnWQ8eunbj4ADt6DXa5hIR6LIeKfQ8t8HDs32+7ha2TvBWZm+F65XDMCRCtxn7RoJzCy5jjoCVdTB0pH0WjEg4lUIyg+2Wdi3XRfg7jBNXXkzYNenrA1QrOzff46OI/nHoh0je9l9uyz8LrnnIXPPafLeDTOPzeLuun8M3Df9fu73f5sx6t3DC/ddpgfO7uv7d998/4bx/AxzN75MPt4cm72bhl/Pn7m44t+E1/X9syHmSbOIOgsZYHz3wnF/PJZ+0Sb8L8A0UL0wxXiaEMx9/j0QOlCe5GgCyHEEWJe5EW7kKALIcQRwBe/S9DbiwS9xahoTYijDdOA+XSAy+zBINqJ3myLUU5ciKPNXmKeJM34AqJ9SNBbzKO6rQkhjiwUdHZbO/4Pv1hFdy1Fgt5i+OMVQhxdKOIsqfPF7Jubm84X7USCLoQQR4T5InjRPiToQgjRcmilU8wl6O1Ggi6EEC1mvnGsBL3dSNCFEKLleFGXoLcbCboQQrSYeTFXH/R2o7crhBBHBFno7UaCLoQQh5E6dNOj0nGm3EaqKyxwillOlcvZ8GbT385mGtRQU+1Ggi6EEIcQTonqp4Vtph2mqpfYXmJbM7VsUFbWDROLqgRHxDYqitnZoo1I0IUQ4hBCy9zNAw9HwrqZ452WeTlL2TkvOq33kAeDOlCS32b0doUQouWwYZzviy7aiwRdCCFagLfU98Lvk6C3Gwm6EEK0HFrnlcFCj5Tktxm9XSGEOCLIQm83EnQhhDjEsNHbfjjLHBrONnElW8HLQm81ertCCHFIuaKY08kgP1JI0FuMiteEONr4NIB+kiSWFblbF+1Egi6EEC1id2t332WNKJPfbiToLcb/iIUQRxM3GQtE3A1CY2zpLtqMBL3FaGYlIY4Ou+vTaakHszTAW+nK5LcbpfgtJoqi2ZIQos3s1zjOibizzkEYqB96y9HbbTFZls2WhBBHkaqqnKOws8QujuPZHtFGJOgthj9kIcTRRsXsRwcJeovpdDqzJSFEG9lr/HZf/E4/CEIk8k3VW1WalSX+iNYiQW8x+vEK0X4o6l7YnYjDOR/rQYUF7OwmXZuOp8jk95oDRSuRoAshRFupYaFD05nUsw96MLPWRTuRoAshxCHHF7PvBa13X4+ugWXajQRdCCGOAuq21nr0doUQ4hBzJeuc0Dr3deyy0NuNBF0IIQ4pVxNzCrifca2Gha7RI9uN3q4QQrQQav389KlO3CHqor1I0IUQokXsNQe6E3cuqMi91UjQhRCipRRF4YZ75aiRHAp6aWlptke0EQm6EEK0GFrmJf6yuF1F7u1Ggi6EEG1lTsBZh65Gce1Gb1cIIQ4hHOJ1P+a7qflBZSjmmlK53UjQhRDiELOfsFPU5/udc1CZMJagtxkJuhBCtBQKOuvPKzha6Cpybzd6u0II0VKqmU8k6O1Hb7fVhK44LnJFcjuvmktXqn8TQhwOdv+Ofd05pZyjyEWw0DmFalRXODa0PN4pghftQ4LeYpg7j/En9tOi14ET9xDbJOpCHH5CNz0qM+78RYdWQq/pnJhzDPcit8gC6+LvZDKxeHW5OVG0Egl6y2l+8DvjOVPE+WOXmAtx+OHP2tvcbprUmfPb6LOVe4RMPOvTC7VybzUS9COEF3UhxNHAt3KnqHP5mV/4JUoFWowEXQghWgpFnGLurPaZuIv2IkFvMfwRz7dyFUIcLXZb6KLdSNBbjG/xSn9e2PWzFuKI4C10OC6LdiNBbzFs9+YbyZCdLi1CiKMArXIOKsPBZWShtx8Jesvxgu5FfTdq7S5E+9jrZ71fGiDagwS9xXDsZl/Uztz5vBNCtAffHXUelshNsqklaWpF6QejEG1Ggn4EoKi7PqrwlUsXoh3sFvC94FCvzMC7IV+RwRftRm+4xTgR30PAryEdEEIcEq5UbUYxZ4M4jeN+NNAbbjHzRev8ze9uFHctOXwhxOGFaUBVVRLzI4Lecouhdb6flS4xF6L98PefV2WTFqhsrvVI0FvMXrny3Va6EKK9eAvdF72LdiNBbzFpt3tFK10I0W58pn6++k20Fwl6i4n7A6fknGmJ06iymJ159DJEjh1+M0+6EOIww8y6z7izgRynUnWZePzKOXWqq16LYhzDX71oMxL0FnPL05+FnHliaYkf89bEBmlqGVS8TiIrJ5l1+YOXqAtxqGky6Y3fzI3O5RiiHlo5La0TdWyUTc3w+xftRoLeYp7yf311cHE0tqTXx1po4/HYDTYzyvHjjvCjV52aEIeWxgpv8D5tcIq6s9rxm+cyt1bYUMdK7tuO3nDLGSdmo05gRSdCLj1zdWpFUSC3HsNaL61UKZwQh5r5hq4sXudqU/TebPMkCRID0Wok6C1n8e6n2EPToVm/ZxZHVpeVJRH8FCIfIdcuQReiVezVJZVd1tKkO1sTbUWC3nLu+Ljn2QOTTZumkSXdnpXT3LpxAiGvLbMCufv5iVWFEIeJeevcW+bzlMix+xbuqerQW48EveXc8SVfFdjxZdusagsg5EFeWoIfeVmWzgkh2oErbp9zHtalU9g7nc5si2grEvQjwF0veqGtZ7mVyM73w55Fk0bUI2Tc9yqeE0IcDuqgctVm3lBngn6ZmGMHXYGNQRrPtoq2IkE/ArzkG78rGJWV5VVs/XRglteWBpHFev1CtICm2sxb5vxV+182xbzp0hZYGEnQ245S9CPC05/3Qru0NbHROLfF/rJFBV59UV2WmxdCHG58sbu5rmuhRUlqOavX8HPvLiw2B4nWIkE/Irz4u/+fIFhctjzt2ghCfunSuh1bPoYEQJ+AEIedsG4y577o3UMLfTiZWgBh7y0tzLaKtqLU/Ahxy3Oebw9MJraGn/3pO+60C+cvzfYIIQ47oTWi7tvF0BvnmaVLA2OB3LhQI9i2I0E/QjzjX35HMFpdso1+1zbxa6/CZnhIIcThg9b3lWCXtglEfPnYcducjp0T7eYqn4RoI7/6f/zd+jbk5p+ysGDVeMuiWn3RhThsNILe/HbjKrQYBnhahq6+fDM1yyP2Qw8tT1J7cDSyv/Pb/03pfcuReXYE+Qe//VtBtjCwh9YuIRev37gQh5GrNWilhd7t9+zhs2fsjqfdPdsq2oxS8yPMG774C+uVfGodDTAjxKGE/dAp7LTQExjr8ZyFPolZjx5ZNRjYi37ul5TWHwFkoR9hPuVXfi0YJqlNw8TyMLIiiKyE48hS/tNgA5vd7nKaY5vW8tfrmmLDG3E7NNe7Vn++db+/zvX6jxdMlB+L74tb5R9W/8ZgIzhWl9GxlTuhmPN3nOM3PY069sBoYs/7tE93+0T7eZyTJnEYueebv7X+wHvfY6eOHbNV5OaHl85bOR7bUr9vIbP/VW11XboxoQMOTgG/qio4swjrbhpWHMMJIOanZPVjSJO9kjCOJ+/Gkt8WqOsEohzhH+/i0jNcjz5DEkJ1a6x0Ol3nuyBWpfN5RMD9OL4M8RzYQnmvEV76fr25JK65a7tfJ5zs5tGZnL3x8eF9Nw43Ti7xL8AK44IZDfp8rhr76qKJI7993meIGANM2HdCfLnPdxTgOQMk8qELdLO9drmSHX+/86/mMwQBIwDh4ZPUeA76XOf2AOFz75fh3cO/lv3z1/P+9nmucAn+PuErS76c/feHIb9fXgTXRTxxndsZL9x+tfhhvF5pv/f3ug7/Eu7CrfcGL5DfC2dJJP73xW0c6bHMhtZNOxYHqU0yDuccWZYO7FIU2iNVYS/523/bTn75l/Dm4gigFy0cD/7QD9dv/6u/tHQysRMQ8gESjh4SjWI0ggXQJIoUcSRxTQKEBIaJDBMqJ444xglViIQmongwgQwsz/PmBuBRyRwF2PmP2nNNPtP3alZdQFmveW/4vK8LC+D9/TodQuW2Ez4HxZT+bvz5RVFsL3vm15kQMxz7sV8Gx+OeHW7+OOKP3euceZrszP7sdb6/F30vFPvBd34lCmSWeI/mW7j8Wemuej6n8r0Cu4WMXHYfZCSvRBxfeXQ0hpHX89f08eW3XS1+5sNyrfhzmKFzGRb6+1ym2+02cQiXIa4qOJ7PcFLQ+0lg0+nUQljjYX/RtmCiX+KFT99qC0+9257///vm5oHEkUAvW1zGH37zN9bTh8/a6Ti1cGPL+khpFpDbT5MYiUhtU+T6syqzAgkME6KBs4BhRWKdzidWPkGnBevxCde278QZFg6tsT0E+6p+QDGAoNOS420h6M6fAyHaDovHh9cljLi/s5Rn+PB7mDkh8+d7uO1qguXP231dwoxA4sLQsNexV7o+j8pxkSuHoMFf0/v+Xns91/XA6/Eau8Put80/y15cTXDJ7jDymle7rudq74f35zH+uPnnoLuaoO8O2254DX/M/LV3/L2vz98IybLMhSEKkBXF75Dft1vHdxnj1AgZ2tF0YlkCCx2W+iPT3EaDBXvxZ32W3fnFX3blwInWoRcu9uTPvv7r6s5w4iz2FFZBWGRITGgN1xYnocVp6vzNtUsuoQrh6M87cmULCglUleCSV04094VCzr46M0nzCaWHpQlJkly2ncsVHEPH4uE4oKDs3H/3NZjQ+2fxzK/zHldit4U5f30KelCVjypV4DHe+QzFXjAjwoT/SiHY6768D8NF/2oz7l1N0IgvGXFxgQwcfV9iwvfPcLrSlD38YppdcT99f33689uvFvfkauHnfr5jH9/z74FcLUNwtev7a5L56+68j+b83c9NeATvz3v474DrBX6PfG/NcmlLp07ZJfwG7h1u2InnPdde8W9etXMjcaTQixdX5C++41vrcDS0YDiyCJZAjIQkgghZjkSlym15qe/SJG8ZM6FiQuMTnDhsEiKf7O22oFnXvXvbtUIxK2bprU+Iuc35SPwJi9wp4D4BdcfB0qHFw/rnAI8S+RR0D/gMnvkE2YF7sD6d99yP+XN8GHYSc15/J+z+WO737lH3nMNZa3BXij+Kgb+WZ/5e88+3F/Pn7YW7DoUWSQlLQ3xbCq67+IHAu3eCXXv5CdtgXGG/93m9vbZfU/iuAJ/fx4+PF3+O334lrmW/v95eYWnq7B/9XISfJcPnMg2zcDET48NYQuRH2HUOv8v+XU+xl7zqhx59A3Gk0AcgrokP/+QP1ec+9GGbXLpoSVZYB0lsguTFsik+oqae2Yt204iuSeiSmaAzoXJ+4zmcGDnrGgKA5XkL5dp8JPIW4woULaxTSnA5NnZz6/B7vT6WmWjP9sN3BQJINSOcn2fYQLlwHhJK7uf1ZwLingX+7v3eL3nMFdid4M+vu+vHiVV7XJc+QnvZ/Xf7fIyIGQJ3tb3he+E9vdsN998QON8LzDx7bduL+TYWe+EtYC+8u/EZt/0orlJHT/x1eS8fZh9f1/IMV2L+esTHi3e1z5HOwe+b8Ixer2c5MtAses+K3F0njCPXEK7q9uyOFzzPbvmWb72xQIrWoA9BPCbe8/3/Tz185IzVF85ZWjTWuC9ep1XuG8YVswSbAkwoRMSts8jcuJ9+k4Bdnx/jHn0sscUwhYuJI7MIMx83m0ym3A0thjUeMRENkQ1phD3H/jyJrWBCzotCHCjk3qdwVng2L6B7CjpCwV374RP0efw2JtxVmiA7tHO9eZ/36yTpo7bP+17w9sNb4LznvGARv+1KXG0/LrJ9TYoN7+e+hdm2+fvtxdXq0Hl/f13iw+y/L8Yh42E/rlRlQfzz8bre8V4sYaK7WvivFj/z4afvw0/n6sXxAP5dEi/mhJ8ACSDgSSd1g8Tc+RVfc+UAiSONPg7xuJD90qvr8+fO2KWL67a1uW7TKawJWBRxnDqJpVnsu1cFTniZENK2Lpzwsuj9un2ePUWyF8ZOGCKIM+vMI4gkE3K2xF9aWnLrtHSYIKZfroZCQgghhBBCCCGEEEIIIYQQQgghhBBCCCGEEEIIIYQQQgghhBBCCCGEEEIIIYQQQgghhBBCCCGEEEIIIYQQQgghhBBCCCGEEEIIIYQQQgghhBBCCCGEEEIIIYQQQgghhBBCCCGEEEIIIYQQQgghhBBCCCGEEEIIIYQQQgghhBBCCCGEEEIIIYQQQgghhBBCCCGEEEIIIYQQQgghhBBCCCGEEEIIIYQQQgghhBBCCCGEEEIIIYQQQgghhBBCCCGEEEIIIYQQQgghhBBCCCGEEEIIIYQQQgghhBBCCCGEEEIIIYQQQgghhBBCCCGEEEIIIYQQQgghhBBCCCGEEEIIIYQQQgghhBBCCCGEEEIIIYQQQgghhBBCCCGEEEIIIYQQQgghhBBCCCGEEEIIIYQQQgghhBBCCCGEEEIIIYQQQgghhBBCCCGEEEIIIYQQQgghhBBCCCGEEEIIIYQQQgghhBBCCCGEEEIIIYQQQgghhBBCCCGEEEIIIYQQQgghhBBCCCGEEEIIIYQQQgghhBBCCCGEEEIIIYQQQgghhBBCCCGEEEIIIYQQQgghhBBCCCGEEEIIIYQQQgghhBBCCCGEEEIIIZ5IzP7/cnYPWvpw43EAAAAASUVORK5CYII=;" vertex="1" parent="1">
          <mxGeometry x="90" y="650" width="50" height="50" as="geometry" />
        </mxCell>
        <mxCell id="bzDGTtf_FaZqw25zYTY--18" value="&lt;font style=&quot;font-size: 9px;&quot;&gt;Upload your Bank Statement files&lt;/font&gt;" style="text;html=1;align=center;verticalAlign=middle;whiteSpace=wrap;rounded=0;fontStyle=1" vertex="1" parent="1">
          <mxGeometry x="76.25" y="690" width="152.5" height="30" as="geometry" />
        </mxCell>
        <mxCell id="bzDGTtf_FaZqw25zYTY--19" value="" style="rounded=1;whiteSpace=wrap;html=1;" vertex="1" parent="1">
          <mxGeometry x="290" y="560" width="140" height="360" as="geometry" />
        </mxCell>
        <mxCell id="bzDGTtf_FaZqw25zYTY--20" value="" style="shape=image;verticalLabelPosition=bottom;labelBackgroundColor=default;verticalAlign=top;aspect=fixed;imageAspect=0;image=https://cdn.icon-icons.com/icons2/2415/PNG/512/postgresql_plain_wordmark_logo_icon_146390.png;" vertex="1" parent="1">
          <mxGeometry x="300" y="575" width="60" height="60" as="geometry" />
        </mxCell>
        <mxCell id="bzDGTtf_FaZqw25zYTY--21" value="&lt;div&gt;&lt;br&gt;&lt;/div&gt;&lt;div&gt;&lt;br&gt;&lt;/div&gt;File text content" style="shape=note;size=20;whiteSpace=wrap;html=1;sketch=1;curveFitting=1;jiggle=2;fillColor=#F0F4FF;" vertex="1" parent="1">
          <mxGeometry x="310" y="650" width="50" height="60" as="geometry" />
        </mxCell>
        <mxCell id="bzDGTtf_FaZqw25zYTY--22" value="" style="rounded=1;whiteSpace=wrap;html=1;fillColor=#ECDFF2;strokeColor=#9673a6;" vertex="1" parent="1">
          <mxGeometry x="470" y="570" width="350" height="220" as="geometry" />
        </mxCell>
        <mxCell id="bzDGTtf_FaZqw25zYTY--23" value="" style="shape=image;verticalLabelPosition=bottom;labelBackgroundColor=default;verticalAlign=top;aspect=fixed;imageAspect=0;image=https://www.myqnap.org/wp-content/uploads/Mage-logo.png;" vertex="1" parent="1">
          <mxGeometry x="750" y="580" width="50" height="50" as="geometry" />
        </mxCell>
        <mxCell id="bzDGTtf_FaZqw25zYTY--28" value="" style="rounded=1;whiteSpace=wrap;html=1;fillColor=#fff2cc;strokeColor=#d6b656;" vertex="1" parent="1">
          <mxGeometry x="470" y="840" width="350" height="70" as="geometry" />
        </mxCell>
        <mxCell id="bzDGTtf_FaZqw25zYTY--29" value="" style="shape=image;verticalLabelPosition=bottom;labelBackgroundColor=default;verticalAlign=top;aspect=fixed;imageAspect=0;image=https://antaresnet.com/wp-content/uploads/2018/07/Elasticsearch-Logo-Color-V.png;" vertex="1" parent="1">
          <mxGeometry x="470" y="844.48" width="117.2" height="61.04" as="geometry" />
        </mxCell>
        <mxCell id="bzDGTtf_FaZqw25zYTY--30" value="" style="strokeColor=none;shadow=1;strokeWidth=1;rounded=1;absoluteArcSize=1;arcSize=2;fillColor=none;" vertex="1" parent="1">
          <mxGeometry x="480" y="700" width="140" height="50" as="geometry" />
        </mxCell>
        <mxCell id="bzDGTtf_FaZqw25zYTY--31" value="&lt;span style=&quot;text-wrap: wrap;&quot;&gt;Extract Transactions&amp;nbsp;&lt;/span&gt;&lt;span style=&quot;text-wrap: wrap; background-color: initial;&quot;&gt;and&lt;/span&gt;&lt;div style=&quot;text-wrap: wrap;&quot;&gt;Categories&lt;/div&gt;" style="sketch=0;dashed=0;connectable=0;html=1;fillColor=#A9C4EB;strokeColor=none;shape=mxgraph.gcp2.scheduled_tasks;part=1;labelPosition=right;verticalLabelPosition=middle;align=left;verticalAlign=middle;spacingLeft=5;fontSize=12;" vertex="1" parent="bzDGTtf_FaZqw25zYTY--30">
          <mxGeometry y="0.5" width="32" height="32" relative="1" as="geometry">
            <mxPoint x="5" y="-16" as="offset" />
          </mxGeometry>
        </mxCell>
        <mxCell id="bzDGTtf_FaZqw25zYTY--34" value="" style="endArrow=classic;html=1;rounded=1;exitX=1.001;exitY=0.375;exitDx=0;exitDy=0;entryX=-0.007;entryY=0.377;entryDx=0;entryDy=0;jumpStyle=none;flowAnimation=1;exitPerimeter=0;entryPerimeter=0;curved=0;strokeColor=#FF0000;" edge="1" parent="1" source="bzDGTtf_FaZqw25zYTY--14" target="bzDGTtf_FaZqw25zYTY--19">
          <mxGeometry width="50" height="50" relative="1" as="geometry">
            <mxPoint x="520" y="690" as="sourcePoint" />
            <mxPoint x="570" y="640" as="targetPoint" />
          </mxGeometry>
        </mxCell>
        <mxCell id="bzDGTtf_FaZqw25zYTY--35" value="&lt;div&gt;&lt;br&gt;&lt;/div&gt;&lt;div&gt;&lt;br&gt;&lt;/div&gt;Transac-tions" style="shape=note;size=20;whiteSpace=wrap;html=1;sketch=1;curveFitting=1;jiggle=2;fillColor=#F0F4FF;" vertex="1" parent="1">
          <mxGeometry x="370" y="650" width="50" height="60" as="geometry" />
        </mxCell>
        <mxCell id="bzDGTtf_FaZqw25zYTY--36" value="&lt;div&gt;&lt;br&gt;&lt;/div&gt;&lt;div&gt;&lt;br&gt;&lt;/div&gt;Catego-ries" style="shape=note;size=20;whiteSpace=wrap;html=1;sketch=1;curveFitting=1;jiggle=2;fillColor=#F0F4FF;" vertex="1" parent="1">
          <mxGeometry x="305" y="738.5" width="50" height="60" as="geometry" />
        </mxCell>
        <mxCell id="bzDGTtf_FaZqw25zYTY--37" value="&lt;div&gt;&lt;br&gt;&lt;/div&gt;&lt;div&gt;&lt;br&gt;&lt;/div&gt;Evalua-tions&lt;div&gt;&lt;/div&gt;" style="shape=note;size=20;whiteSpace=wrap;html=1;sketch=1;curveFitting=1;jiggle=2;fillColor=#F0F4FF;" vertex="1" parent="1">
          <mxGeometry x="370" y="738.5" width="50" height="60" as="geometry" />
        </mxCell>
        <mxCell id="bzDGTtf_FaZqw25zYTY--39" value="" style="sketch=0;outlineConnect=0;fontColor=#232F3E;gradientColor=none;fillColor=#B3B3B3;strokeColor=none;dashed=0;verticalLabelPosition=bottom;verticalAlign=top;align=center;html=1;fontSize=12;fontStyle=0;aspect=fixed;pointerEvents=1;shape=mxgraph.aws4.opensearch_service_index;" vertex="1" parent="1">
          <mxGeometry x="643" y="853" width="44" height="44" as="geometry" />
        </mxCell>
        <mxCell id="bzDGTtf_FaZqw25zYTY--40" style="edgeStyle=orthogonalEdgeStyle;rounded=1;orthogonalLoop=1;jettySize=auto;html=1;entryX=1;entryY=0.334;entryDx=0;entryDy=0;entryPerimeter=0;flowAnimation=1;curved=0;strokeColor=#FF0000;" edge="1" parent="1" source="bzDGTtf_FaZqw25zYTY--22" target="bzDGTtf_FaZqw25zYTY--19">
          <mxGeometry relative="1" as="geometry" />
        </mxCell>
        <mxCell id="bzDGTtf_FaZqw25zYTY--41" style="edgeStyle=orthogonalEdgeStyle;rounded=1;orthogonalLoop=1;jettySize=auto;html=1;flowAnimation=1;exitX=1;exitY=0.265;exitDx=0;exitDy=0;exitPerimeter=0;curved=0;strokeColor=#FF0000;" edge="1" parent="1" source="bzDGTtf_FaZqw25zYTY--19">
          <mxGeometry relative="1" as="geometry">
            <mxPoint x="470" y="655" as="targetPoint" />
          </mxGeometry>
        </mxCell>
        <mxCell id="bzDGTtf_FaZqw25zYTY--42" value="" style="strokeColor=none;shadow=1;strokeWidth=1;rounded=1;absoluteArcSize=1;arcSize=2;fillColor=none;" vertex="1" parent="1">
          <mxGeometry x="620" y="700" width="140" height="50" as="geometry" />
        </mxCell>
        <mxCell id="bzDGTtf_FaZqw25zYTY--43" value="&lt;span style=&quot;text-wrap: wrap;&quot;&gt;Index new&amp;nbsp;&lt;/span&gt;&lt;div&gt;&lt;span style=&quot;text-wrap: wrap;&quot;&gt;Categories&lt;/span&gt;&lt;/div&gt;" style="sketch=0;dashed=0;connectable=0;html=1;fillColor=#A9C4EB;strokeColor=none;shape=mxgraph.gcp2.scheduled_tasks;part=1;labelPosition=right;verticalLabelPosition=middle;align=left;verticalAlign=middle;spacingLeft=5;fontSize=12;" vertex="1" parent="bzDGTtf_FaZqw25zYTY--42">
          <mxGeometry y="0.5" width="32" height="32" relative="1" as="geometry">
            <mxPoint x="5" y="-16" as="offset" />
          </mxGeometry>
        </mxCell>
        <mxCell id="bzDGTtf_FaZqw25zYTY--44" value="" style="strokeColor=none;shadow=1;strokeWidth=1;rounded=1;absoluteArcSize=1;arcSize=2;fillColor=none;" vertex="1" parent="1">
          <mxGeometry x="620" y="620" width="140" height="50" as="geometry" />
        </mxCell>
        <mxCell id="bzDGTtf_FaZqw25zYTY--45" value="&lt;span style=&quot;text-wrap: wrap;&quot;&gt;Do evaluations&lt;/span&gt;" style="sketch=0;dashed=0;connectable=0;html=1;fillColor=#A9C4EB;strokeColor=none;shape=mxgraph.gcp2.scheduled_tasks;part=1;labelPosition=right;verticalLabelPosition=middle;align=left;verticalAlign=middle;spacingLeft=5;fontSize=12;" vertex="1" parent="bzDGTtf_FaZqw25zYTY--44">
          <mxGeometry y="0.5" width="32" height="32" relative="1" as="geometry">
            <mxPoint x="5" y="-16" as="offset" />
          </mxGeometry>
        </mxCell>
        <mxCell id="bzDGTtf_FaZqw25zYTY--46" value="" style="strokeColor=none;shadow=1;strokeWidth=1;rounded=1;absoluteArcSize=1;arcSize=2;fillColor=none;" vertex="1" parent="1">
          <mxGeometry x="480" y="620" width="140" height="50" as="geometry" />
        </mxCell>
        <mxCell id="bzDGTtf_FaZqw25zYTY--47" value="&lt;span style=&quot;text-wrap: wrap;&quot;&gt;Predict categories&lt;/span&gt;&lt;div&gt;&lt;span style=&quot;text-wrap: wrap;&quot;&gt;with no feedback&lt;/span&gt;&lt;/div&gt;" style="sketch=0;dashed=0;connectable=0;html=1;fillColor=#A9C4EB;strokeColor=none;shape=mxgraph.gcp2.scheduled_tasks;part=1;labelPosition=right;verticalLabelPosition=middle;align=left;verticalAlign=middle;spacingLeft=5;fontSize=12;" vertex="1" parent="bzDGTtf_FaZqw25zYTY--46">
          <mxGeometry y="0.5" width="32" height="32" relative="1" as="geometry">
            <mxPoint x="5" y="-16" as="offset" />
          </mxGeometry>
        </mxCell>
        <mxCell id="bzDGTtf_FaZqw25zYTY--48" value="categories index" style="text;html=1;align=center;verticalAlign=middle;whiteSpace=wrap;rounded=0;" vertex="1" parent="1">
          <mxGeometry x="687" y="867" width="60" height="30" as="geometry" />
        </mxCell>
        <mxCell id="bzDGTtf_FaZqw25zYTY--49" style="edgeStyle=orthogonalEdgeStyle;rounded=1;orthogonalLoop=1;jettySize=auto;html=1;flowAnimation=1;curved=0;strokeColor=#FF0000;" edge="1" parent="1" source="bzDGTtf_FaZqw25zYTY--22" target="bzDGTtf_FaZqw25zYTY--28">
          <mxGeometry relative="1" as="geometry" />
        </mxCell>
        <mxCell id="bzDGTtf_FaZqw25zYTY--52" value="" style="shape=image;verticalLabelPosition=bottom;labelBackgroundColor=default;verticalAlign=top;aspect=fixed;imageAspect=0;image=data:image/png,iVBORw0KGgoAAAANSUhEUgAAAfQAAAH0CAYAAADL1t+KAAAAAXNSR0IArs4c6QAAAARnQU1BAACxjwv8YQUAAAAJcEhZcwAADsMAAA7DAcdvqGQAAKdPSURBVHhe7f0HnG3JWd4Lvyvu1PHECZqghLKQiEIBEAabCza/e30NxiQTjAmX/IGxzbUN9jVgZEw2JgsQFwwm2BeMhU0UQoByztLkmZM77bTi9zy1dnXv09N9wpyZOd2rn/851bXyqlVr7XrqrWhCCCGEEEIIIYQQQgghhBBCCCGEEEIIIYQQQgghhBBCCCGEEEIIIYQQQgghhBBCCCGEEEIIIYQQQgghhBBCCCGEEEIIIYQQQgghhBBCCCGEEEIIIYQQQgghhBBCCCGEEEIIIYQQQgghhBBCCCGEEEIIIYQQQgghhBBCCCGEEEIIIYQQQgghhBBCCCGEEEIIIYQQQgghhBBCCCGEEEIIIYQQQgghhBBCCCGEEEIIIYQQQgghhBBCCCGEEEIIIYQQQgghhBBCCCGEEEIIIYQQQgghhBBCCCGEEEIIIYQQQgghhBBCCCGEEEIIIYQQQgghhBBCCCGEEEIIIYQQQgghhBBCCCGEEEIIIYQQQgghhBBCCCGEEEIIIYQQQgghhBBCCCGEEEIIIYQQQgghhBBCCCGEEEIIIYQQQgghhBBCCCGEEEIIIYQQQgghhBBCCCGEEEIIIYQQQgghhBBCCCGEEEIIIYQQQgghhBBCCCGEEEIIIYQQQgghhBBCCCGEEEIIIYQQQgghhBBCCCGEEEIIIYQQQgghhBBCCCGEEEIIIYQQQgghhBBCCCGEEEIIIYQQQgghhBBCCCGEEEIIIYQQ4sAQzHwhDjxnfuWX6iLLrSxLC4LAulFotjm0qKzNqtoqa/yyrpxf4+uuitL5AXbt9kmA4/zyXhRFMVt6NLxOgZNrhAUhcX4Eh7tv+4uDwWX74zDcXs+jwI597dfhKkIIceMoMRFPCB/+xZ+qp6MxVKykKlqZF1ZMxpZPpjadTi2fZhbkEGYshzNBrmuIclVBYJtlbut0Ok5wuR1/Zn5tIYQxwdfbw+UjCngNiQxwrkXO9+tlgZPn1h/l43xcEA7rj8EPogSXwvqu+3t/MsZzhggD9tMPg3h7vYSgrxdTq+LEogjHh4HLqATIqPD5KPxZlm1vr2e+Xy+D0OKlRauT2JIksQRxxfhKOqnFcWxhHLntUZrY7V/8j/RbF6Ll6EcuHjOP/Pwv1Pe94+1WjydOpCnaMazkCEITVlDKsrIin2Ib5S9wAkw/gkJ7q5jCTUuX252YwcU43y1jPy1k7iPOmsb2CGJHwQtwkVE+wp5GYLm+l7+fINcQ3Jo332c//avtD0M+3ZX37xcOPkuVMw4g1szMIO7ol8y0AAo4BXp7O3xmaCoeOzsmiHh9nA/ncUEGPJ7nUdgZApZsVNhHsXf3xtbCBSWwEBmKEBmDOEVmAC7pdHHtyHoLixbg/Ajr3X7Pjn/l1+zcSAhxoNCPU1wXb/nu764fuuceK6cTW4BYHcO2OIMFDrGI8DklMaxGCHINMa/K3BJYoTEUhvJBXaMoGyxq6AyEB2ID8aBPjav9dldkzrvBQo9TnAQBgxVflQWEDAdgO+THClrC3cBwd2xrhHJegOuaRfOwfGfre/kVwnql/Vc7398vhMVdMTxQTPp+PYZF7tdL/PP76fOx0zqF7yIDljs9XhfrLtMSWI5MkruV+6ky84MVF5HIEGA9YAkEfay7eORWxB8LPXhcgfcQsWoC2/OK1QfIEGGdx1fIdAVhhAwChB7Hu8wCb4P7IhfgfJzutjETgaMZTIaOB1mB60yRoQgh9gUzcLjW0sqy9ZeWLewiU9DrW3dpyYIktbu++Et4ZSHEE4h+ZOKqXPz+763vf+e7rdzcsi4S6iANbQJxKCHYgzqymPo2B0uUGyA0s6WdbfzocAIEjhYyhcELHoWR6/v5/jyo4fb5ToCuct6V/EZAr/34/fxgFp7r8clOvOx/fcbPfvvn4+1Kx9Hnfefj71E+j5xLEVxeZUYTzGaDP4b7S/yZF3nC/Vyn7zIWwK+7cNCb0Uk6FqcJxL9r3cUBMgOLzk+RGYiSxLpfqqoCIa4V/VjEvrzxn35bbQ89bMnapnUziDfrY5PQMgjANIRFDus5yHeKz4XYDYv894OZmTJHZiJEVo2lAREyB3HTtsBltLAtguBnRWnDaWYZzqlZFdDp2PFbb7WlZz3LnvrF/1BpmBAz9GMQj+KRn/rZ+j1/9mc2KKbWr2pLLbdOHLvi8zyf2mQygZ0VwFrvWuEqYYV4bKRR6ur687qyAi43OFf1wvr/WX1/GLsGgIYMZRFENioKS2nN33mXvei7/qXSMCFm6McgLuON3/LP6tFH77HTncRsOrG0Y7CQppYHuWuIxuZV7CaWQtLTOLEprKf5Yloh5mHjuyvBtn2ugR6tdB4asWqg2cZMIyvxa3x3rMtnHX4GkR/nhXWXFm35rrttc2HZXvQd36YvUAigH4LY5g++4qvr3tk1uwVC3YVQ97qBbeQjm0DMiziwKI2sGyQWwiqPpxByHAPTHdbT7AJCXCclModsaVGx3gai7hsVOEGHiKew0Kn0Ob41FgaxEWMJY3355Ek79bRn2Fls3Ox17Xnf+s36CsWRRz8CYe/88R+s733jW+1UFdvyKLNOllsPCWxWTCxe6FiVIsGNQ1ckWo0LWO65xQVbVgdWQ+Ql6EeXq1vgV66SiaOOs8gp6LDFsaUpbqe+c3yBydbYOkmK41ILktgKHEMLvbe4ZMfvuNPKwYKdKTPLVhfthd8oS10cbfQDOOI8+KpX1aP77rWH7rnXurCQbl1dsWo6seH6uvXSxMoqb4SbroRFDmspDmGpJ10LYT1NIPoqcj+6XE3Qr9QojlQ+Nwiru/mOKjfwToR8QIjlXtJzRjvbamQVMpl1CVfbysnjdhss9DPjLasHAxuFoU26sNS/6dv1NYojiz7+I85ffd7/US9XhSX91FlJo3yKRLq2ThpbgiQ1qkpXxF7nSGRZhx6nxgFPWHc+yTNLcZw4utyooLM/PqHnuvPRNAcBxJyiXsPCT9hXHt9iDT/D/VhStHgCgv70u+38cMuiXs+myBisTfGtnjhhz/pGFb+Lo0nTcVQcSX7v735+fTqK7TgSySTPkapmFqVICzuh5VZYjvUaws2hWTtO3JuR28aw1KcREtseB4WZXUwcSZrW6Pu7K0HLmw3fInxEHJSIy9RzOu7jt5WkqStmz5DprPFdZkFhk6i0eLlvW8XEwk5ko9GW2WRiJzjC3fqmvfuHfuTKNxaipUjQjyh/+I3fVK9GocVIKANYPCGSzRA+6y2dzyJPOiSN0Xby2DRIKuAyCDp91Z+LG2FmkDuLnN/ablivTmHnd8ZW7vzmiihyjTQL14gusBjr7FLJHhhJXlp1ac3e859+SqIujhwS9CPIu37wVfXaRz5kXQ4Qk5Q2TCuXUJK0NOvDWO/nofXgEip4zVHIYB1BxDMmqFB6J+b6esSNwlHq6HbBIng6jkRXhWx4ySxnbTlEnZPRVHGzjXP/UMpLiDqPT5LABsgZhOcu2Lv+ww9L1MWRQknyEeQ9f/5n9qxbTlpaZ06kJ3FoeRjCWqLFHloKtaawc0hXbmPCCW13Io7dLuGk1U4rXogb4WpVNk2xPb7NAMLuvrfATXgTBin2YVuNDzhIIPaBTaju+DCXuqkdh+AvTsf29le9SqIujgwS9CPGn37LN9YrZWWDfOosdDZEopjDpsHeRtQjuGas8UbMi13F6wkS1g6uQbdTHC/E9eEbwlVh8x02Y9HPwPfHcerZaA5/m+8Ru6MqthQCnsAFJSxzrFucwkJPbFoVNs1zWO05jptamk1sqcjsPT/2g/pKxZFAgn7EmD5y1u5aWbLhmUdsMYqQ8DUJZ/MpUNgjyyniQWQZhD6nmGPdDb3JI5CoJjCEugVFXVa6uDH4+dAxs0hr3Tt+ba5+HZnGGFZ4BGEP8M1FOLDj/sXYj28V3+AUR9Nqj8LEIp7PwvlygsxAZovQ+/LCBXvHj/0HibpoPRL0I8Qffft31Mc7HTcKXB/rMYfQpDAXgcVIKDliF0V8Egc2TEMbJ4GNscxieZfIQvgp4j2c088rnLt3QyYhrgUv3myLQWvdO49r8V4hiwk/oajjG41xcIpMZ8qidhycI+NZwGdxfBfLHQo7r4FvN+rg2x1t2GqSWG9jZO/54R/V1ypajQT9KHH+nGUXL1qY5zZYGlhWsGiyqSv3HwKLPpnIsvjTtYebT2DhKOC+ZbIQN4rrXz5b9jghh/PfGovc3bKbCx/rbO8RNNs6ncStGzKYnLmtKks3CE1RNvO38+xekiIDG1p58ZK9+yf+Y3MRIVrIXHIt2sxff/M31emDj9gSFDyqc6vqwg3LGXD4GFje3jLyqd28pdQku3OJ7GyZ8LjLjxXi2nGZR/g7lgXnindt21xmk+3c0m7PpnlheRTaVlHYbc94unVXli3DuRm+XU612nyb/J55tSZjyu+SQ8aOpxPXUt7S1LYqfPe9jr3wW79TX61oHTu/I9Fqkq1N6+VTi8vCSloxePN03hpvktUmQaRjf/Qdd7mAs77Tny8xFzcEBLlpw9HghHm2vPNt7ZQaVSxPR66S+/hJcnjYCBlTinkDz4arY+dYFM8R5mjFxzi3g7OS4dDO/JSK30X72PkliVaTj2GlwOfc0xR0Wj9MPL1QC3FQYdc1DjDDYnbv/HZCcfeOW3Z/0r6I3qraYjbuhH/x3Hl7xw/9O339olVI0I8Ab/qX/7yuisKCaFb3iG0x7HDXsEiIA8x8Gw6yW9S9Xb4fPJ8izqOrnL3VzfqdrpvLP5pk9tYfkaUu2oME/Qiwcd9DliBRixK87rBJDEN2V0NqyDpxIW4WFNhGmveHpUoe1wAOGVN8xE6sd7t5a52wNMpnANhmhPMScLKXftqxxSix7tbQ3vXDGvtdtAMJ+hEg4pzSM4umrGuLoghi3nQHmqV7QhxoXPE6v+GZOG9vA16894KCzuOYEeBsgTyUlnoJ67yeTu1YHFl18Zy99Uc1+Iw4/EjQW86ZH/7ReqGoLYaVU1Wl5WXR1CmyDzmsFSEOA75o3VnbsNA5he+8kHurfLfFzm+dgu76s0POWSLFKVnZvS3E76HMtuzEILXBZGTv0ohy4pAjQW85l+5/0PosWkfiVZSZFVXuEsemyxoSSCVh4oBDYd72OcPadRDHzXz9RVE0wo4MAevUOQBNN+3gNzG1NChtoUQG9+K6ffin1E9dHF4k6C3n4gMPWQ+vOYCgJ0liUZo4Kz2KEgi6GsWJg4uzsDmzGvuegdFoZAsLCxbjG57mmRP33cXt3lL3+HMjiDgL3F0GlgPUQMCZwY3jEGKfWaeubDWMLH/4jL3zhzRLmzicSNBbTowErelLDutk1lfXF00KcRBpvtJdzMTbOax6xfWNOq+1cSePmz+Hgl8XJS5YWicKbQGWezqZ2ode/eprvKIQBwcJesuJrLAqLJB4NUXshCmVSxRhtUjYxUFgvzERfMM34lur+0ZxHgozz/Vi7YR6Jv77wV1uuuAgxj0Cm+I+BS7CEvqkmFr+4MNq/S4OHRL0FvPIL/wUEqTaTU9pwc5oWhRxzp7GEd+EOOhQVZ04s/4cYs7v11vq8xmB+eVrhUPD1kFiWVXbpCqsxL8U1vogz6y7tWHv+/Efu84rCnHzkKC3mOGZ80isON95kyZxPjWuu9mt4CjoSq3EzcRb1PvhS5C8Vb6fhb7fNbylzutsZwS4jH01kr/KEvwWYmyLm1EUkekNkSvoRbUtIQMRbazZW37w+64QQiEODhL0FrN55iwSqqqx0JF0+USPaxRzinoFS12IgwwFmCJew3GZOIGuKcnMqDZuXtSvlEnw8FoTWOYV51FPUjefumtEH7Dv+tSCamq9urBgY93e+R9V/C4OPkrNW8z44rpL+HzRukurZskSrXQVuYvDhLfO2QedODHH93wtxew+IzAP25Dk+FUUQYRrhG6gJc5xwKopFr1Pqwl+JBO7Y2XFEvyW3vOjKn4XBxsJeovJp1kzCctsnbhEa5YsuaJHWPBC3Dw4zemVv8Gd2dhm/tzsbL4o/Vrxx/Lb5105aiIHnLGytjrDlpJbcf0otjCMkYGIrJpktgTrPTt/wd7+Yz8uURcHFgl6i2Fi1Udy1YUpzgSssNrS0tw6k7PrSQiFeCJoLGeKKL/HRwu7H4vdtXaH2KYQ2pijv2G5OQub2S6EVUtwzTUaR0t73s3fh4416JxOOIVLcHmO8R4FCY5NLaw4TgN861iWlziytJV+asH6eXv3j/57ibo4kEjQWwz72MZlCCt95zWzbtGN4Q6nVEncfCiyV7CyvTW+20qflTt5C92762M2RgN+J43gE14fbm4+dbYzYaaCc8KkzBxsbNjFn/9J/XzEgcP/OkQLoXUjhLgyrvh95qjS80rth4t1JQRVM586SwfOPvyIvetHXiVRFwcKCXqLmR+UQwjxaK5q1bPrGksD8FviiHKcsa2XdtxQsuVwZG/7cdWpi4ODBF0IcaSZL7Kft9Y9tNDdPOwgxkGsx+8lqZtPPbpwyd73H1X8Lg4GEvQW4xMhIcTe7Bbv3fhSLop6HEUw2ANnqVfT3MJpYbctLdrkoQftbT+hfuri5qMUv6Wc+eVfrtnKXQhxdbywz1vrdPwN+Qlc2KCUjnOp+/nUq2xkpxb6Vj78iL33J39Coi5uKhL0lkLLQha6EDcG51PnbynP852pWC2Yzaee2ObGJUussLuPHTc7e0GDz4ibilL8lnLLl31Z4BMgIQ4rFFRnIc9lUOn77Y83u4vgi6Jw90vjpBmRruJws4Gz1NmLpD/oWlVkVo+GdjxJLVnbtPf+qCx1cXOQoAshjix+zHfvXw1f7O6W4QIIfMC+6cgEcHqXblUazHa795dfI1EXTzoSdCHEgWV310uue8eGao8HFGha316s6XZb6rvhrmYceSahoZupLbcCG0qLs6lN73tAxe/iSUeCLoQ48Hjx9mJOHg9Bb0T50cvXSoAkNAhjiHll07JAmGobJJEt1KV1NtftvT/2w9d5RSEeOxJ0IcShgELOevPHq+6c4j1vle+Ft9R9q/ftdexr5lMPOICsVWHYHBNVlsTNfOqLWM/PnrUPa5hY8SQhQRdCHFi8Ne553C30OTcv6vsJ/DwU9rwOLUc4ODNbM3MbMh3FxIpiZFU+smPdxNY/ep+97+ck6uKJR4IuhDgUeDH37vGqQ7+WYnaK9244n3oRRxB1s7KoLYGJHiNrUFeF5eXEyjqzJCztZC+1yUcftI/87M9L1MUTigS9xdDK8EWFu9lrmxAHgb0SpWbbbM/cfOiPB9fzW/DHNgJfue5zZV1B0AtXFeAyGUFkFieWdHuw1HEMRH6137PNBx+y9/7sqyXq4glDgt5iOE1qiTfM6c8p7lxnauKmQwczT4iDw/Z85jPLuardRChOKLHMmc44/Cq50dkEKc5+LvXHMp86qfOpdRAeju/OOvWijLAvReC7WMaPL+pazvBD47udwLJzD9gHfuY/8smEeNyRoB8BaE1cb+tdIQ4CEcTS15kT3yjOzYD2OEBRn3fXB5vEzWeM2TAODja5m0sdfoWL1nTYmyK17QTIhKxdtEu/9NP6RYrHHQl6S7n06l9GOqg0QxwyZv26PbSDfX05Ha1yX7R90BMvVyoWwjqv6mbsd6xzPvU8y+yRBx+yd/7of9APVDyuSNBbyuqXf2mgsdzFYYfC7QWcVnlVFM1EKYekwogCzpCyqqDGcyQIOceB57OEk6m94ydkqYvHD6X4LUazrYmDD5MgiB5kbXe1EIvAKeTzFrqbJIWCzvUDLIU+bL6UjA3jOJc6rfQ0jKwXJbYQQNbPX7AP/KRav4vHBwl6S1n7xdfUTPyEOGw0zc0aAihgY6FD1LFc5pkVZYZ1JF6QwYMu6kVROGucjeZY/M4wW97Mpx5MM1uJApuefdje9/M/J1EXN4wEvaXQMmBCKMRBhgLnRG5mqe8Fv2VfxM46dBZfUyQPsphv4yZvacTdTeTCVvozv0bmJA4KO9aLbXr//fa+n1Hxu7gxJOgthXXoaZrO1oQ4XLC43QO73BW3U9RZD01hdF3XGpWcHXUw8e1YXGO+onQCH4eRm441jSM8BzIo0y1bwbb63Dl7/8/8rERdPGYk6C2GxX1CHGwut8zZ7Wt3spQkiWsMRyHsJqlNJyMrs6kT+JvNTgnD5TBDMp8pYYmCd85SZ6YE28uygLDHttxJbCWIrDp7wd77Myp+F4+Ny385QgjxJOKLzcO50d+8EDpRnDUqc3BAlxoWLSxdWupsQb6XmB4k/LPsHjrWr0aIgLrMrUAGxYrckjwzW9uY7RXi+pCgCyEOCHPJEQUezndZ2waWbVFkrnFcEt/85MvXj++GAu6dt9YfJeo4L4TNzkxLxowKMiwxcijhcNPe/wM/VL9PY7+L60SCLoS4KTTWNRu37VI64MUPNvlM0HcmZClyWLTTbLt++iAwL+q7hXte2P0+f7gbHoeZlxDxkMbWgetGgUWjLaseecQ++HMSdXHtSNCFEAeAXSo4w4s4LfVtQS8Km06nrh76IMPQzbt5UXfLSH4rPHeNjAnnVyjxj7mcFG4QmS1z25mz9uFX/8LBflBxYJCgCyFuEruSH6rdXF06RY8CTkcxD+GSKHKtxTMI+o1OznKjuCLzmduNF3Dv5re5x4Tj3C0FBL3k+O/YUOWFVdnUTb8aQ9y7uPACJH/znnvsw7/8S3vcRYjLkaALIW4ucyLumFv3gu7HVODoh67OOcsOTS8OivduUfcud9Z53GQOCtjrbljbElFQWl5lyCxM7VinY6OP3G/3v/pXJeriikjQhRA3F9+XfK/WZbTO4bnidvgR/kQ1hC/PrS6akRDnBfJqzB87766XvYK6G2+5e0t+N9wUQNA5Ch73s9V+EseWcCrWcFYqgaeOkHFZxLFr995jH/r5X97jSkI0SNCFEDeFZv7x2rnKKSRrlBvnobDlVWlBTEu9tnw8tqisrAuLfev8eUvTxIoA+9PQQhwzyTksbGAdWLVlXlwmvBRuV9Q957juLegrCTyvM+98wsln2Gsedf8czHy4DMhsnc7Pr+6WS1jheL4QF3UlEbg2x5/BQ+EP1rHM7Uka2SA2mz58v93z0xpRTuyNBF0IcdPwgtiI4aPxjeEIhS1CikWBZF1zNhq6dW4vM1jsEPoYFi6Pp5hz2Z23h/x5IffsXt8PJpi7E829zqPFvZ/zuHWK+uzZL89I4C6u6gF7sT3AM0WIpySfWnDpQnOIELvY/W0KIcSBw4s6u6pRwIuisPFwZOWksE4dW5jjmKxyU5NSwIsscw3odmjEMYBIchCbqGqcx1veV2P/rMfjRRPOedyzQ8zZS4/PPx6P7Z5XfX/9wM9rmFhxOZd/OUIIcYCgeBOKmhd1Nozjdo4YN7ywZilMWE5HyklPIhwScR+OLWfHewvaW8juGDhuvhYRvxLXYtXfCLw+u+expILDxnIYXD5/Np7Yxtmz9tHX/L83+ASiTUjQhRAHFgq3F3Xf0p1WKkWNY7uvnztrcZbbAhuTUfQ5mxmEj8e4mdkCFlk3xdYNjZVOF81M7cci6o+7lc7idThfAuCv7wfP8VUPcRS4wWc4uQufd/jAA3bPL/2KRF04JOhCiAMLxdwXs3srfVvQ4SYbWzaFY5evFALPaUkdFHTWtUPIqXZ083XUvi57fgz5gwifdVvU2e9+lmHh3Oop/F6e2/o997j9QkjQhRAHFlqmFHMKOIXNizodi6ITJGGbFy7aaHPTOjgmggVbVYUFEaxdLLvW7EjlKOZcptyzGHu3uO92u+E5e7kbZmaZ73VtOv/8XtQ5KQ1FPahKi+A6dWGraWRv+3fft0eoxVFDgi6EOLDMF7PPF73TcerRbiexrc11CPrWrBiego5zAoge1tmdjEp3mUi6qxwOXLUBMi9uZjnEgctssJQCmRmKeieJLSyn1kFc/LVE/cgjQW8xPgEU4rDCb5iiVsxGheM6BY6wW1oj4IVdunTBNtfXLE1ji+LQMk5HCjHnvpojr2G5kfJG7CnzLJLf6zfCbXQ+E3Ej7mqEbJUfsJHfjmuSZe+aZ+AMcwbRZsd0CrnroA6ycoL4KK2PeFgNI3v3j/yoRP0II0EXQhxaijKzLkS8zMf20AP32dkzD1s/TWxxoW/FZGJJ3FjtIQScdc8BTFwKLUuwm2J8impj/c6LsPfni/ifCMfMCksU/Drx4aDzYWMDwAhWOsPMtgIpGwEi44KsCjImEPl8ahGeN760Zu//wR+RqB9RJOhCiMMJi9Whuyx25gAzw411Wzt/zg0404N4L6apBRks2zy3gBZ+kVvF4WJh6dKqpZWbTzMrstw5DkbDiV/oWCLgSwUI69z3cldjXpz3cs0x0fb1nEDPuZ3qhbIRf4SJ4SyyqRtMJ+10rNNNkIlJbRnCv1BUFq+t2Ud+SJb6UeQaPklxWPmrL/ySerHKLammllZI2Ng/p25mdyrw42d+zg1LqZ++OKSEsMDZ3xxfseX4linBcb9rqydPwZ204XSCT5516RBM/GksYW95wwL2o8nNCSzh8Vx39fFgP/HeqwHd9dHc3w0f68LUXND7HTwfl/kbddYX684Zfif3ZiPLXf/0Lv52a1jseWlZWdmok9p0qW/P+rbvUBp/hNDLbjESdNF23PjusMDDOLEYVuoYFvfWZGy9xUU7eetpW1hasTqKXat3+vzmS4g0x4cvIY7sp07qeTGHgLKOnT6LuMluQXeCT5G94d/OTNDdX17XLzWJs6svp4/7cMCcZhx4t2nbqkc2xXpVaF0WzeP0AlebhIEN09AerAobPPUue/YXfuWuJxBtRC+5xUjQRbupLOZnzJHUIGosuvbWegHRLvBdrxw/bkGSWtLtwPUs6sCWjVMn8OzGNmGxehhtCypxRdz4XVDQWX/ttu1KKSnoxA9O89hpBH07QzGr498ujmdDOMCR7VwbAISUFjl/szwmgSXOKoJoymqFqatimMIfl6WNEPQPrl205NZb7NO/94d3PYFoI3rJLUaCLtoMx1WLIIBsMMZhYEv2z44jS+KO5VgejibmpiFldzYKOVwMYQ9TuE4ClYwt6vca3zWQw28CzhW1uwJtc/OuEy/oXsg9VxN0L8z7s9tCny3MtrCBnytyZ70/nsn3Q2+K3msbboysZt3/dGzldIQAT6wscpuWUxvh2KzXsVG3b3/rF/+z0vojgF5yi5GgizZDQa8hdNBsWK0zS5qCV4cWwiqPktiyHEIPcS4ggk0dO75/HsqGaFFgcb8PAz2xNE2diyCg7A7XzFMeWB/7Pbut9GvhyoIeWMq5z1mqgGAXdQExxjJ8X3dfIkNBEWe3tWKaWY51NuCrIOJs12c5n7dqpmDFbx35GUtgzvO+OR2ufxbX/Izf+G2l9UcAveQW88Yv+rJ6UEwl6KK1NKOf72JuONcdEWbHtZ11bwnD0N1uTU5hJRRD341tMBg4322DWvpuZH5/3IWFf400wr3Tat1Z3gUFuXTdyos6d4JeQph9eNgK34eLPuvPeV/CIvgImRH+fvk75hNWAYQeu5ufOkfL69gZZGZe/l9+czsmRHvRS24xf/n3v7heQm5fgi7E/lAovSNewOnY4G4/KJxsaHe1n48XYHLZveCcZT1Lhn0mwTvifR82z/Z2V6NeW0xrHWJeuNIHNpxjVgcSH/bsDDIML/0v/2UnEKK17GRlRevwxXZCiL2Zt7j3ct1u1zrs6w3HInlOX8oieda5u3p3yGkIcb2a42QqdAnOTXENuk7SFPN756/tr09/rzDNu93s3qI04GghQW8xPhcvhLgy3ir2zuOLvgm3U0S92M67BJb6fr4T/2B2Hkd8g+/303HdizPvVxSFKxlggzze24eB/vzybqt9L67lGNEeJOgtZj5hEkI8Gi+M88Ln17mP4uoFlv72iG08r4TA5s3Ibfv5rvX9bN2NSMeGbRydzjts89fmNQl/ty4TAOfDslf45rftByd1YSZi7VdeLWU/AkjQW8y1/OCFOMrMi+NejsXg3nlr2lvUdJyTPYFg7uezaL3LonX4bNHut7PonY7XmrfU55fpfInBXs7YvJ/P4P7ujQsjrneltgCiPUjQhRBHnkeJ5Qxazd5569xb7d6q9n3D9/MrtmjnGPHwuY6cQrN/lmmYvy6L2afTqXOTycSFYT48nr227YYt4nl9wtIA0X4k6C3mWn70QhxlvIBfi9uz/pxF2nDOEt7Dp6AGHGIWvh+ylb7f79axTMdrsySADeTYCI8N8rzo7+f2w/dcYSaBmQU/QI5oNxJ0IcSRZz+h3L193mJ31vmu/Xs5Mp8xIDyXQkvmj/XX9Va7Z/58f41rgS3sWRowHo1mW0SbkaALIcQhp76Kxs9nDkR7kaALIUQL2EvUnTUPy5+t6UX7kaALIcRjhEPJ+uFkH6t/I+x1DV9Xz11+mY3sRPuRoAshxA1AzaSwXq//ZODr2yXoRwMJuhBCPEYozo/V98s3ypUyBxR0NrbLJxL0o4AEXQghWoq30DWwzNFAgi6EEIeWpn970yAunPU/D906Z1Ws3MxrOKZQK/ejgAS9xfg+sEKIJ4bAqhtyNwLF280HD9F2xe51aFFFUQ8th5jnSN2zOrc0Cm2hurF7icOBBF0IIQ4tFOpGrGmVU8wDiHoFQS+RujNLH0H5Ywn6kUCCLoQQLUeldUcDCboQQrQY1zBOFvqRQIIuhBAtRxb60UCCLoQQLYSN5thWLsRfCfrRQIIuhBAtg0I+T8152EXrkaALIYQQLUCC3mI4r7IQ4ujCovYI9no37djmL/+Syt1bjgS9xURRNFsSQrQNP12qn/CFzE+h6mZaKys3FzpdnmXNDtFaJOgtJgz1eoU4yvj50Cnsk8lktlW0FaX4LUZF7kIcbVhKR1Fn5r7Ki9lW0VYk6C1GXVWEOJo0k7TslNJR1ItCgt52JOhCCNFSKOwsqWPmPlMdeuuRoLcYPxeyEOLoQjFnSlBkmhO97UjQhRDiELJdrM4Z1ppFN+8aW7pzWtWwrixACh9wtjVsD0oVubcdCXqLUaM4IdoO5z+nqM+K18MKgl5ZBDFP6sKKYmJxZBaVuU0212fniLYiQRdCiEOOt9bZJ72CoAe0ztk7Hcu02ynwYVk2B4nWIkEXQoiW4nu60FeJXfuRoAshRIuJgqCx4CXorUeCLoQQLcUN/zqDw7+KdiNBF0KIFsPuqypyPxpI0IUQ4hAzPyHLbnwdOpGgtx8JuhBCHEKuJOTzuG5tXKjmyt9FK5GgCyFEy6DWU8jTOHGzrHW7XQ39egSQoAshREthkXtEeYd17vuqi/YiQRdCiEMOi9/3K4L3czpobof2I0EXQoiWQgvdTaFaVkrsjwB6x0II0VK8oM+3dhftRYIuhBBtBUIeR5ETdNWhtx8JuhBCtBg/sIxoPxJ0ceDxjX18w5/dToijyLzFzVnWCId6ZaLezLpmVroZ15qd88PAinYiQRc3GX6Cj3b1nGNzHu8/2l2byLuEbg8njjZ7fRPX4242nBaVU6WWAVyIXwTDhR9Fid9AFgVWJYmNi8xZ6ey+du8v/dwBCLV4omDqKVpKFEWzpcOPt0DIbsF+LANa7qH5Qhw6dteL+4xGGYRO1GmduyL3MIKg19bBX9FeJOgtpiiK2dLhY15wfSLlHROx7XXuh+O2ebcbXwTp3R6HCNE6fN05RZ3OdWETrUVvt8Uc9ukSKep0ZN53ot6s7ivgV8MLuxBtxk/I4oX91Jd8mb76FiNBbzFxHM+WDjfzIr6XP++uxpXq2YVoGxR012Wtqq1CBv/ca37pGn4l4rAiQW8xbahDnxfq/fzHikRdHHb8N3ylb5lF7YTifthL7cSVkaC3mMM8//G8kJP5+vF5t5vd53lklYu9mG9X8VjcQYVBY+IehSH8WcO4maUu2osEvcX4nLkQ4mjCRnB0Pi3QADPtRoLeYg7Dj5eJja/nY51/kiRue8G+tXNt0b2FvdvxXH8+Ha2mOtxp0UvfLcNK8ZbKfOLm1+e3P5n4+/qEdz7xvRb8+fs5Hy9XOpb4Y3h/VtXQcflmMx/2eXw4/fPt52428+HYHeePN3uVx/lidleiBes8m0xne0QbkaCLm4oXDyZ6WZbZeDy26XTqEiK3HeJ8JRd30sYhMxDEkUsseS2fkE0mE3e9PM/dNpew4Zg4jCyJYredrigKd/y8CDxRCe9e+ITf398n/AzzjTifSSBc5zPS8XnpiL+v38/tPl5uNu69zuJhPo4YRn4vPp4Og5tnr22PlfoaL8P78f2K9iJBFzcVCjgTGYp3p9OxbrdrvV7POvCTNHU2+pVcVuSNKyFQFcQKlj2S/u2Ef3Fx0RYWFmzQxTXjxNWvVwVEa5o5oWeJAB2Fwwsfz/Pi9mThw0vnYQLMcF3JecG+kuN16DOOeQ6f18e137efu9nwHdDxfRA+Q4rvguGnm4+3vRzPu5Lj93Ijbq9rzrvd8cgwPZlstymBdR5xsJkDkEkTTxwSdHFT8aJEfOJN64tCv7Gx4dZzCDVdVj/a4WTn6minqHheuIbDoY1GI2ep06JjIhshgWNjoQRWOgWNjvjlefdk4BP53T7xcfJYHePS+355fp8Xnvl78rkPiqAzDP6dMowsNeC3Qcd36sO5n9v9Ph9vt9c95x2P2Y8r7bte6n0u5e/BuOMyfwOivTw5KZa4KbzhC76oXrbSkmpqaYUfMsub8cvnsJAFEhvm55qxoJvjbwZplG6LCxOdMJnVoyPxYR26246v1Adxd8viGI/hHosJ1sxvlpt1l7DSx/V84rZ9HFanSOBYdE98AuwdodjdLObDsR9X289nIl605x3h+fPr/ni/za/fLBgGivl8uAgzbNzODNuV8MfvB7+BGwFfzGxpb3xGZD+uFr6rg/eKIPD3zDHce64WpbJpjMwgNsQlf+NwZcfWOokVz32Wvei7/9UNPrU4qOjFtpjDIOgI3raQEieuWJ7OitJdsSq2u8Zus6/Vi7orPi9z5/N8Jq7ej2bXC4pGkJ2gz57Td91hhoH17v56uxPXG09sr53t55/dkz6d374fVwujz5DMx/E8FEZewx83Hw5uOwiCzjDRMTw+Y8Jw7fdM18ONCvrVfjvMrPrw7w7r1d7dtXFtgh4WqW32u7b51Dvtk7/ve2/wqcVBRS+2xRwGQQ+gpmmcuESJddqj6cQKFglDbFlHmbNYGPu4f1t4G899vDH+zDY3ljhFHb4X9LBsBCGGpeQawsHRd4krG9YlO4JOdieyuxPhxxsvWF44ue6Fi67A818JHnMleD6v7a1cOt7DO9ZH0yd+v39mv/1mwgwdi9n5bfBZ+LwUSRYdczv33wj8rm6Iq/TrXlpacvHp45/L8/F/49/XlQU9qXBffOAU9OFC387fdtpe/u9f9cR+1OKmoRfbYg66oDsLO6ssShIbR4FtwCLPk9hWbr3FnnLHnbZ08oSVkxxWO8QNxzPhmhdfUuP8qmLdMOtXp1ZmJTIEmZU5UrYSgpjlbsjLEn6GzALrXV3LdwiCq0suMktwzTSIrBOF1osS51P0XUk8rs0EksBGdD7DjTs3Px4EyoeLU7w2IOHGMc1xs308xu1pXoMrVeA+iibux4S9SewDm0K0hjh6jAOWTiAO8L4CXgDMLolzm6Uoaob39ffaIcR9cUdYZwF2eiEpy6YFO+ODz7926YKbVpOuh2/CP3+E+0UIKM5uAuxopudELsxtYpAYNj4X2yWQ+Wcmft37PIeLMBwd/tLN/lmYHT6uQ9tCfGzgG0mWl2x15Zhr5Mh3U7A6xsWij/fmnFlUOa4mmP45Atynds+14zfXu7Jf+wyVO34Hxgrf0Qff917rYHkJ+9OIh82EvEKW1ZVO3ejwzI2g4824ECWzdpx5hN8FniOuG0Gvi8imi0t29vQxe8V/+KErR4o4tOjFtpiDLugUgXBcWg+i9aYzD9nG6pJ93td8jXWe82wo2SpSJYhpyH7pSDR9eum/2JkA7OyA78SA6/D9M0HAGj83KLrZZGwbwy3bGm8hszC26bmzVl1as61Hztvw4UesOHfe6s2hxRD8COccWx1Ab3k9ZhCKRvyR6YhxgxoZhgAZgRKisY5MQg3RGQyWbDLEfcaFHV8+biPcg+KVw1HkmNDHuFynYIKPIGHdtZbGcqfTQ6LfsY+srVt59232iq/8CrO77sQeKEGOo/HeXKRRpCgkyMQYMh5OTHYJynZ8UDAYft6BLxpC4uJhPDZDBucSnr8YjmzzobN28cMftY2P3m/1pXUb4BaLsN4X+h2IJ85BxqYopliGVQ81pdDnWL6YTVy1xXLaw23Yzzl31mjUadpGBIgjaIsTGoawQFgyBHnKYOMejAv3HZQUtsAKlzNgWFmVElgS9u0tD5+1p37xF9hTX/4K6z/16c2FttbwIno4mRb6TBTd+9/FXtuIjy/ezvmz+Jr33Vu5io931zALAx+KF+X3YvjmPvRee92v/b+29oY324ufdpetjS9at5fYdHPTlvtLluNn2VzrseFuB5gB8ZkmhovWOYnxnQR1jM8lts1O19ZPHreX/8SPzc4SbUMvtsUcdEFnYp5C6cZxbO8PC7vjM19pz/2Cv2dZ2rE6HlgA65NF5oQJlJvfeQYtt8aKajZyHxO3ecuQFlKXRZ3c5hyFE5Y8nhnyZEFRWt+JIw5mXfsWRO7hM2b3ftQu3nuvDc+fg4X1TquzsSU4ZwEmVh8XiiBaMcSK4s5SgbCbWv/EcdtCJuDs+Ut26vgpW+4s2AMfvs+Or666sBUIamOVNq3sm4QW4YzxPnDtEoGntRbVqd2LTED44ufap3zLN5rBIi2RaYiKBG8ysCyhTQpRxf35jDX21XifLv3G+mXgvowiLzm01GF/uoxJTYfnD9mqkNCyG0GAHjlr9r4P2H3veJudvecee+S+e6yPB13u92yl17Eei4qReYlzhDmC4J5etbXNDehvCcseooYX4EoDcDkWi6d8h1jhuyZ8j4wLijqPifHsUYXvsEzcu8MijkGmgOYrj59Edm551Z7z7d9snec/z6KkCwsX5042LO10bJrFLn74lI248aouGDtsC3TzXezQVM9ciVns7ANODiDcuDaeAuuNqNIldY5rI+MUFfbg7/5/9tFf+227u9e1C6Nz1usmFk6mrvrHatrvV77LleAzu+9o9nzEiznjJOF3hrAVVWJbiK+NY8ftZT/54/OxI1qEXmyLOQwWeieP7EKR26XTx+xl3/j1Zs97DhKf2ramEC1YrCw2JywG3S3oLuGcWUZezP2j8NCQz0YrGr7bxhMgNkxHWczN5Qkb1eHoDhNkWsA8ltYvLVlaWaOxTd72VnvfX73J1j5ynwUXN60/zu1k3LXjS30o0sQ2800b0tRKIchx6or0AwR2pTewagJLn7eFY/idtY5bUdSY4FLYY9yfiTpvCxPV7ocF3f+Uj7NP/PZvxfOENpoJeoXwUdB5XgfPVUP0CmRY+NxNBscn7O7ijajhGZl5YTEvz2MmpGl3wPVZRiMv8H1U1oOlDXMbG/DcW1tmm+u28Z532wff/Ca7/53vwXNndkenbyuIq0WcGOP4jXpia/kQQhtbp9dzVR8szo+ZycAtKO58Zt6Hj8f3yPjwceKLt/cT9K1LyBQ89/n2zO/+LquPH7dRxpNKxMfI9YbIcHF+z4T325M5QWeUeHi4+2a4fx+u9NugcFZhifvzqog3WMKsGonx/Sb4djr43bkChLe/0/7qVT9hJxHPw2LL+p0YGUP8BqeZ1REyarPwPxauR9A309QJ+sv/00/MR4NoEY/9SxLicYCDwRiEobe0YHbyuEtxKQ5JJ3V1pBSEKzmXWLsEeebcOos7m+UA6uUaI2GdReQVhLec5lZBnAoIM7IUEMWOTSBkHBQzRwqZsegYCSGMTiSOsXVf9mn2om/9Tvv0f/sq+7Sv+npbeuFL7N5wYG986JK979y6VZ1FC5OBTYYQmhpWfHfgwsaGfYQZixTXYoOlhMHC5qbYObQprGQ29OLxDCdhUbUbpW1uu3/e3a6O8FxwZQxhiWsrnIPQw6+gmnQBz2cmJqS414anh9+U4oeweJM+4r7fR8YhtHE+hkgiJhZSs9tP2tLLP8k+/ju+xf737/w2W3zBs+29Wxv2AMK8hczKJfis80+RjMQhBBnP5t4Zrs02CS7WsUIxZxH7OGmemxkbBNFZ7bsFE5sanxcBfEYH4iNHxo+N4wi3F6w6wLuGNDrHp6Pz64x3lgDwPs6HY/E/7+mc+0YQE1dwddg4vzzvI9eG76NoRJ0+tpVYLvg+8O25DOhohJfesfFoioxTZV1kBHlqFxmAqMmzPCn4eGwydqKtSNDFTYNJC7upUfgqlovTah4PIaYQRlhfrJulCHnxmne+XzkTTtbLNtbSLCGFz210ORLdDCl6xRZJsKDjDpLSFPY4LOkYbsqEdoJEGolrFHacwIWdBSfS0+4iMhmnbRJ3YFkhFR4MzD7rlfas7/wW+9hv+Xo7+XmfbQ8vDOydD521URHbsdXTVo1ga08rW+oPbGNjDU9IiWJjspnDKi1JWt60uGM8pxds+rQ66Zy4UyHn9j3acTsOYTRxmeINMXHbvINyMVr9ULd+MJ3Gsgvt4iPnbbIxgdgl1u0MLO7i2dO+TZPUSraAX0Qc8N286GPtU/7ld9lnQ9zP33XK/nB41j7AXMrKkvV7C7gHBB2CFULFOhCtGDdnpmRb0GHANiUTbHSGZ6JVzqgBDIsX8N0wLpwIMYMDfGtxt8yiBtYVBDnEGQ5+hHVa9yx5onXqSkDgopmblYU4x2UeF+H6u10zjsGOY1XFbp/XYCahuQ/Pa67H97ydyYzx4IxHZCZZ/dCFuDOeyinPx7uYs6yfKPi+PVfrFSEON0/81yTEFQhgjY/yKUQcgpnChEMCOIUVTcudlroTfaRHdMT7HooDt9EaYlLljnV+YyGNy9wmuDYd2x9lSIxpgbNYn8PFrhxbtE6f9ZilG6RkY2PThmNYqUj4aojHxeHYig5s0NVFW+tGsGIRzhNdW/n0j7cXfN2X22f+46+2Wz7u4+1+HPcgrXVYXlVWI6MwtmWIYZO5oJjBh/NFzDEUzFmOuAeh+BWzblkULAoX46LCNm7nfu/m1yu2Vp+y1frUtegvsK10rf2n2IdtY/jYz+IG9slnxoWFInSszbjt9K22AEGeTkrbWB/Z1nBq06y0CU5h2761UWaTAKLKtgwQhv6nvtz+t+/5V/bSr/gyO7vYs7c9/IA9sLnurP1ut2cJJXWa4XYQPmSg2BjQWaqAGZmdovbGzSdBzfrl5Kzr50KnYwmH7p1lFBgHDi+c3neuudfll2syULyHP4rXZVhcJmuXYzjnHY/b7bOUoYOX27jA0pLvlQ7HwHdiDTG3ssT92LodWQi8X2oqMylxhH1PEi4Th3vKQm83EnRx03BWGaw/JtlI47CBKWTqttNq53CvPhHa7diQzfkECaerU8ciE9rG6plZwL2ehd2uEwS2Qq/Z5x2WUgVLlcPFntm4YBvTNcvjzJJBaAuLKSxOWFJItdMqty4twHwCAYEwBhC3cGrr1cjW4DaLDet/+kvtxd/yDfbiz/0cO4fwXtqaOIuVRasMI+uPp3FtoxQO+RWKO8PYhWD2s8AiiKy3mprEHlkLCIB/tnBmsbO/OJ234Lncg7U3CDu2EDT+IEzhEuthuRfBeX/mutifYD+LxxOcm6ZdG0Pop3nhGsxz28JgxZbgBp1lWJMDiP0xq6sUmR0cN4KI4hq2sGxPfeVn2N/9hm+w3nOeYZuLA7sEES8parg2XpzLkDHeWSfO98lW7h2cTkdBZLy4hnGXq+6joHA7i5xtBbDOTBjFkcscrwBX52EzcNwsSXPfkHOhKxXI4egXfh3vvqm75rcTPMpFuAAd68T3c3EVWTdLrD+Fy1K809h6eYRnjZ2wU9StwHeKDCKfgSVPY/bc6OAb5PgH2I3LPKls/2ZEK2m+fiFuEkz4Y1jmdDYaIiWGZY7Em9Y5+4q74kI4+ns6WIQsunT/aiSmziGxdXtglcAMpUAWUCyKQcZ1aADFnmXV/UHXEljeLLIua45ON7UsH8EK5EAmGdLeGBYbBBaiHs+KdwvWMSe5pSsDm3D5xDG79Uu+yD73H321VcdW7YMPP2LjDAl3wC5tFJDAJjFdI2KE9ekdXI7h4/NSoDlZCkduI07kKVi07mYiTzcv+nQUzxCOPaQqiMeOQ5ix3zUKhKshJGyElU2nNoElP4abQsxLCCYH4ekgk8A+7TmO2xxnNoKJPs1r20QGJYr7tnDslKX9VVc8X2xOYHn2LXru8+1T/8V32e0v/UR7YDK2+9bWrITV2R8sux4KGSxpZrYo4Cyd5/PSZ1E7xZaZm3k5JrsFjpkXFyd45ilLHvBMfmIWwm6D/jtgfLPEpoJ4VkHiMm3esUU+XYH3UMFnFU/FUhB3frKnq+nbo51dth3hqDvIBKSu2iKs2VOBLfuxj98Yvju+r06/50qjmHnl7IAFbj3Kplh74mH8iKOBBL3F+LrGgwwTdFpTHOqVVrSD4oqEmyK3G1q3/qlolbuiYFi5HQh5J0CiOoVlOMa5EKMUF2YjNAoIkzSXsME50eAfWNAsjg6yurHKIEIGC76EAFBsnBUJkWcoY4SJXdd6cH0Ie4eN67KRlQjzkMJVZmZ/69Ptk776y626/RY7S6s3gYWK6zIz0V1atvNbW846DGNkIBDmhQhihf1M8ItZMTotKJ9ZYVid82HfBUWsYjEvu/hBXHI8B4v8wyR1ghpwkBiEz9XZ47r8HlydPYTFcAwzUQtpxwLEQQYrksdQ6KbwObDNFIIXDAY2xvmjKcKH+E66A5zXa14aWw1CHJ/xj7/KPunv/V07C5E6g0zYOsUXmYpO0nPPmSBqujg+zErr4X5dhIn981m5714DnoX+XjBMjBt8DC78zPT4CUYYJzWs5BrvvkLY6JAd3HY5M1TIDOR4jvXhyJXMMFPH0p/xdITwpXhedgdkVg1ii+vkMJsz5DYmeDQEF9tCxAfjBNsQUPquph5xW+H9FhD3KsS5CMsUz8BG+E3DyqqZPIj98XE/ZmBG+RjnIgPVjRGeDUv6T3yRO+OI35f/fvb6jkR7kKC3mLbMrLRfEkRNqSEoLL6cVoWNIZjRoGcJXARhYl9x13gJuYCarZNdvXqOBJZ1mvxXuyJopMg2gVW6NYJlCiuWiXgUsc6WYsiuSBBh3IyWJjMHrg6VAcB25Bsg6n0rVhawAcL+ic+3l37p59twsWv3r69bf/GYE9uLF9fs9OlbnSjlxRTXh1CMYeneIBRwGujsix1AKAOIFFuxs3iXI+itr19yrcFjCGOMuEoRVx1mKCAsk+mWrV86D5GNbGmpD2FkS+3aBgsdWxxArBB/rt4ZR7NrVoGMTg7xyiCMJR0bLa6supbct3zB59sr/sEX2oO47iXEc5V2kceBgEPwFmi1R12XsViDFc+SF05r60oY9sC9V7h5f2+YfPEghAPx4Ju7OYFGeOnWNjddnC8vL1uCOA+QaerwGSH0JQS2ZsaMzwnRc1fEsSwx8dUaETI981Ud7DHAY1n6MJpMbILYGSEIdPy1sS0BxZtBonZm6xctXcD3GDOThu+tkyCzM7Wwg0yBi2932ycMl0mbezY60V70dluM/yEfZPgBMqGn89AK34vdHysTwy22Yu9GlnVC2yohkOXUpluXINCbSDCxDgHn4B507N9cR5DzCIk4HAV+DIs+TRZsZemYLS+uINFfQCKPRBsuZjFq0UHGAAl7BWvKDQKSwBqDaCIjQHHrhF3b2hzZFsRtvY/MwQoS7894mT3ncz7LzsGaP781tEEP4rWZubpuSIoTSmerJUhsbyBBd8XLaWwjqB67wFXd1LUmH1awuGs8K55veZFzy7MIGDI/2rRia93qbIRng7AhZ7KyOkBIJjYcrUOKES9wEwjuGBmbBNd3pRvufVDUm+5nbAuwiejYTENbn0zNTt0Ciz+yY//n59nL/+EX2QN4J5ts6c3MEHaXw6nLXCa9PixtZAhgubLFfT66vgwNg/EogUemimGjkCPLgjBCKFnCw4wIjqOQs46lmgwtmIysCwu9jx2LyOwEyHB1kPGhjR4hzkKWsrAKBa7MxlbAii9wXoXlAPtwdesmgfUhxnSM17JT4/urDZ8JPw9kqhCctIKA186lPUQU3k0O8edQul0IOqd+JU+GuFLQ6Tzzy6J9SNBbjK+PPehsC7hLsZtFbrua1nGsamiujesprOqpHTu+hMQYQtVPrdtn3XhsXQhXH24AuVqAo7+ECy9CdAb4+pfZwh0W7KVLG7axtuW6Wy0tdCHUsU02YdnCeo/LBC6Ci52wBxWt+gRWOxxUrt/p2ToS6UkS2sPToSHVt9v+9ufYs17xMvsQR16LerbUXbKtC2u4RuAS8hEEIoIlzK52jxWeyaL1ApHF6gFGWMHiaYgW9KYZKAZWtYtU7Iu7HevCDSB4i9i2iPAGFcKdb1pWjlgKD2sd4o+4CRGPWHUDztC5ltu4jM948X4UzQxxMppUNqR6Mj4/+zPtFX//8+2+rS27gHiNOl1YtTEyDE3DsMXlJWS0atef3LXkd0/R8Cixnme/7bypF/X5Y/Bt8BsKYYHnG2uWIuPRQXgHFFEOmlOU1kMGI4blnEKkO3juDjIo3QTfDPwBhHeAjOIC4qqP+OgiE5JC6JNsYslky9Lx0DqTTUvzoSUFlgtkkiD86WRsXexLR1sWsQ86zs/uu9eKjXXrMoPE+MO9kTfA8+M7eoJhnPtidmbwWa0j2gt/UaKl/OMXfOx306Zs+uUiBXG/a9YhB0j8uAJxQcK+b1r5BENxYHH2EFZSubJkd778pVCUHiSXIWpG3XLH8OCZ6vMvHZtBUQxriNI4Q8IKIRsgUbbz550V6MYr39rEgWwUVlgE1/RJhlix5KJqrhfCekpx/ACWVIRjc1iSFevf6wiCiDAw2nB4AAXjzHBu0hLEmm8NbdPKFiDMIwjHFCKdsmU3MxVp107ecbc98Ja32+TCJTvWheXPEeT4MNQgiIXrxoawcFPzFvg+YOnjWaLbT9tTXvopDKBrmR2yrhj7ka9w14hc+PkuWe+LPU4pYI3lE+tHEGy2P8D97Ow5s3s+atVH77XgHDIXjJ9z2AbxsV4XwgKhgxXfQ7in2LaFOOtC2ReSngUZRztr2iGwlTr7WvN9sJ82+1pzWs5u2LW8QLghgLTsKYy9u++2Vex/x1vebCsLA1sYDBDdBa4/hbizfUSOOEIGawFZLPh8IMYqcaLMdzaLkRzxG544ZSc+49OsSGFL4541rp0wIIi7miPbuXhgtQrPcKuuZMENJFNkuM/AVTfY5paV736PXXjLWy2+7z6LEQ/1Qw9Z+dADZg8/jLh6uImjC3SIp4uMJ1jtww3kGiHOsNjd4Ouw7l2Y8R4Tw7vGF5siOCnCHCMcEX5z7n0wjGcesnf/f79r6QNn7XS3j291igxEx31HeKuIFxxzI+Cx+NSMQQ/jYraE8CBu+P2GeD9Y3kQm6jXveNv3zA4QLWPnKxCt4y8+/x/UK0gcD/JsaxSqs0h0p097ir30n3y72fFjBlsOCTuEEZ8nLcMG1n/PFgHFhEXKecIJUyrrsxXT2qa98bf/m/WRCKcQjQyCViNhbfqCzywVnMdhSVNY3iXEoH/6tJ1++t3Wf8bTYV6u4MKwmhgfrASFiNcF44cKzLtCQLiICPNhYdHxBqyx7vFF28hHrqh7KY2ss77p6uCnv/fH9rs//pP23JVjdqrftdFowyo8VHKsZ+cuXLBFHMO0n0XGzftoxnJPP/GF9snf/q1QpdTGEO3LxnLH/VNYeWwUyALjaYmMCqzKqs5csfFCrwMRguX9gffb637zv1r28BmrNrasxwZxsEgZH31koBZuu8VW8dwnn/5063ESGGSm2CqbjQLrAPLEqTdxD34fIeKL8Q3Pnc8BfFjEHVQdDoRml0YTG/Rx7GSI+7Dcf2zv+cn/ZB/54z+1Zyyv2olBzzYhknWMuO83jeK6gz70cuLuEbHUA7Dfej0bIIaM15ERe/bz7Fn/5l/amMcjTMww9cPS+RynjvX8rsgd78Rb6RxEhiULNUS8s9A3u/de+4vf/m17+F3vsvLSmi3he2ATwqA/sBJx4oq/4ZxFy7p2fivIfBQs8ZhtZyNCV5/Okg5ketjPvrvQc7+nGN9SCNGM4LthbxFpYVDY+bMP2sNveYd9bLBoCwjjg9MNWzxxwo0XwGoI3vZG4DO798MPcwbfTwPiABmGskBY4oGtI4P6SLdnn/WLPz+LJdE29GJbzOv/3hfWq1DNgy7o52jdQtA/hYJ+YkfQORCHMzwdjxb0GJZSnW1BIAZmD52xd0C83v8nf27x2rotsziX3c66bLWOc13yzedtBCrBxditjfWr8fLA0jtus2PPf47d9smfYMFzPsZZ+ecgSmkfljXiqxkopAmzh8HpQvjOnoX1ddtphK+2ixuXbLGfWgyhilm0upnZX33/qyz/4D32McdPwPrftGkNS3UpwbEQlqjrnvGxCLqr3y4TxBPOTPFeWfzL99mBGEPMX/9fftseesvb7DhU7mTSRUajg3itIKZD25iMbIJr5Floy6dvsbs+/sV26ys+xYzPDosdAbIR7sjuXxQN16ca5zbfiheMGJmpjp2/MLJTt8L6HOEbw1kDtiU4dwbHB/Yn3/Nvbfj+D9mLT93qir1Ho5EtnFyxs5NN130sQeDd5CyPWdDjywSdBFjjd92FkAUJvoOstOGf/on99194ta3mpd2KjMsSjssQByUyGMwEsG6Z3whx9c7YxqdktQCzLmw45ybRgV+4Eh7urV1bDRcn+A7Y+NF1owsZJmxDGGm6r5aRPTtYwA0Lu9hBpgiZGxZMcCz+5mQfn9cPw8lLXEnQixzxkSy4KWgp6J/56p+bxZRoG005l2glX/38F343ZBGJ28EscnchQIo0QuJYrq7YHS97GazEvhVIFFmU3ISPNAlU4KzCJrSQV2e9J86Ciq14y9vtta9+td0Nc/Hpq8v2zJOnbAWZltODRTve7doxJGTHYVkdg6idgLidSHtwiZ3uJLaAhHrj/Bl73zvfZu+Fy85DoJdWbHDrSdw6MzelJ1JNV5TJMLggMCSBbW5t2MlbTkJ4Ni2bjm11dRWJPLIkOIh96Q1W0TKOf/+b3uKK/Zf6nMAks43hui1CoAJYxLxO81x83msvcmfmwhX/cx3HlLD4YrcxsPU3vsn+8JdfYy+AWD8F91xgwr65aTad2nIP8YF7r0aJPXXxuNWw3t//jnfa+9/8ZovX12wVcWdLS8j0FO5+fjIZp+mMAvxxUYB7V1kEwz41DkbH/vwFMjLT4dA6x1naEdldt9xib3rDX0NAUzfF6mgLFjOOH7NNeILnxTtsqi+apMgJIeKY3yUpLity70BUEVd4X5xkhoLIGOP3zBjk++F3zXMTxI8r3WHVCzJIw3e+2x5627vtzm7fliDKCeKqi/tQ+F07AVyvi8PperhGF66HiGUcdBF3XB/gXbB1/CLcAt8rLPlbBgM71RvYSbhjuPZqp2vL+KaW8O4XkbHqw5K/Y/W4ZRc3EEe5dfGdX9zatBxh6LMqgso+e9bHQvMeKOz8XfuvEgt8Rwg3NiOe+BlFluEbGcH/xberyL2t7GTrhLhJNAkRP0W4mkXerBflsK9znyeHXKWwu8Se6RWtMhyXwtYqIHTDLTvWCe0YDKGw3rKN8QWbwkIawQplkXQBaz6HiGRRZtMkt2lcwMFa7Rd2yTZscTm2j3/6nfaU0dQ+8qu/ZW/7/h+3/Nf/u+s/vYLEvzPaskUk/hHEdqHTsxyWXoH1AaytDBZvjHunyDCMIOpunHiOqEZBgcgtvvBZFt92ykZQL9ahckrY1bhrfVqms7Tctz521uHMOStwVibLBk0sBqbjstsP8S7wPBlM9Sn3dxdsAkGhPpRnz9vT+n1brEZWTdf55JzgHK5rowBxUrBfdgFh3bRoUNrTnn7Cbu0H9t7/+jv2F//635q99n9BDGvr4bq0+jfGsP6THt5VaMPNiXUhYBxq1mUg8E7ytLBRPbVOjAxSZ4GD6yGcsFaf97H2KV/0pfb2hy9Y0VmEFZy4hlmunhkH4c01mQS4/XFvvFmkT2vUu8ugtd1UpXAOcNZm1xBeW8B9OXtfVrk4TxD/rgsjMj4caCaDFc+R47zLIOQ54jlj6NjoEELuSrW4jo+1KQ3AtbkP6zyOZROcN4DWMYMV4NocrIg9BS5tbtkI8Z6tDpBZQxwhQ9X0p7++Vv574caOR4hYesVuenw//EG5EhVQ4DkrztCHb4Td9Do4XrSX3b8IIZ5UKObOKnNggQkSE0wuO0dmidCuVL8paaDJCisV65yyMoaohAGHaUUCBrFpMgvNfZiIsyFaASFjescicmiORX1YLxD88da63dLp2MedutUG5y7am371N+yjv/QrODuybgorFKLWhVW/BUuX9aSsR6WYMXzuOdxSE36m6hQUY7elW07Yyh23G5NvioAbGY711BwG9AbhM7JxIOQRwkMHAUO80ELtlsiIwAIMg6YLW8EMAJ97Fi9Ni7/Cenj+IhtaHxmc595+2uqHH7Q3vuZXbfTbv2O2NbIBnvU0LPbza+fcoDDsQ37p4pr1kWHgNWo49l9nnDdJCkUVcco+/hD+p77kJXbrc59r962tW39lBRmCkS0P+hA7WuYMx47IuPV5dou2W2++C7+HEruzBt8dQ9FlyQKW+Z+aBtdcnwLI+GC8UQ4bdvtk7qp7+DzXO9zWfWN0WHPP1FRR8PueIuMwZvuFJuiPCzshb+7rfkezZ+d9ucR34nqDwDGeWE0j2ov/PoU4crikb1JaPxlYAOHdqnPj+PE9WFBJB9bX1pa97Xd+3+yv3oIjIYIpB5KBGJS0MJt/Td2ld5fDRHbCIl9c77an3G7j6cRZ9ayLZT3sZDYV6M2C4saR3MpRbj1Y9h1YjTkyNoMlWN/IvPzRb/2OPfI//tBZ6nZpzRUnFxyIhVY7npdd9hqr0FzxNod1pV5QtNy14Tj8rN16q33cZ73SzkxHyHwg1nBONp2N0X6D8B4UL+924wQUrrFgWX1QWY6T3BSnuD3PT5C7i7FyvT7Fcf7t7w6D2471ebfDk6esvvTHd18T7YXfnBBHEygRmxYUWeGEKXJ1tIVtjTctSQN7JqzqUxDs3//ZX7Ty3vudRTqdjiH4PWehcyazBv8zapL27eoDuPGEhbGhq5fmqHIsEmYVAEdzc9PD3kTcBCOsu8bzs/sci8LHxcSOHV+xu289bQt5YW/8rf9q9ua3WzcvbSmJrCoy1zp7ERY7+5JD25xlyHpodm2jZQqtm8FR8bBxvGUrn/GpdvLZz7Bz62u2uLxqw40hBG77wBuC1/FCGrBIeWYdb1vKLkywVOmwTDGnqLsSmhvSOIR/7hm4RNHeLez7c00HPW5I0NvP4/OLEuKwwq5lGRL5cWlJELm6TRqOk+nQss11+5jVk3b2He+yj/z1m6D8hWs8RTgkaMbx532C7vydnxOtVibXEft0QcQXT52E5bvozmMrNlYpdPsD599MWNe61F+08cbIhltbtnhsxcZ49rVzj9hzKOprG/b7P/wjMG0hzGvr1sEjdnup1dMSAsGi9do9p2ugSB0FjUyFTiw5w90lZIJssWOf+Ll/0y5x0hvsS5LUTSJzo0kQY8+L5/yVGP/u/jNBp99Uw8yJO5dxTO6qKoLr9p31D9ieY9th3VvjTti53zm+6VlAwY1lJK4PWehHhxv7NQlxiKG1nCHl54Qjg6hrwaRs+kXHzehhFZYDiNHznnKn3fPXbzZ75OJsYpGhRTHOR6LumIk5k00m201tJQUNwoXj3Y6VYxD0ZcsgjNzvxoA/AOkrqxjw35b7SzbgdKrjIbbleH5Y11vr9uxjq1Y+8IDd959/HRma0qLpxHqd1E2mw+lnaY1TGDnQjBcyD0sqOG1pMOhjrTD7xBfbyp132v1nz9rCwpLlk3xbjB8zLu53J2RNziKcCVkDtzXivuM3+OOu19/v9XE73e742E0j6jvheDLw4i7aiQRdHFmYoI74C0hTWw461ptUNp2wnpv16qmtLPVta7plt546ZtlHHzR76JxTYQ6pO+KAMxA2ivYOLhlvFgGtRNe3mV2T+j1Le13bGG652da4b5rls0T95sAwsNHYmKOpdXs26HRta2PT0k5sq8eXbLy15obN/USI8Bt+87fM3vcBC/DcBjHnoCoZxIjX8BJBcXZ9yiGyzNAwwzKpCgh6zzbYohvm/cd+xivsEnIQU2Se4lnXxBuFYZjJ9DbOOp45BpAN4uhiZF5YkkCfIweyqqBT0tXX7fP83aHfvi/iobHad4s6V7x7cpGF3n4k6OLI4opkIebDaWb5cGzdMLalwYJrrDWZjmzEMbm7CURu3ZIJRHkMNxpbH8dsjUeuDnwnWd5JLCkwbh0J+vaMYilnb0tdIzmONBbDGr7Zk+e4zEQ3tajbtfVLa7DIp3b6+AlXN/7g2Ydt9dSqZVsbNoBU3hZF9pcUdQ4pCyvdFV/HTftyWrsuLuEoXhRLUiIeWRJBK53Tx9p4YvGnf6qlp07Ypc2hLfVXrmjBXgtNXO/4xFvG3OSuP1tnIzYn6hT0mWuegI49Dh6L7y6//R3Mh8NlJmb+jT7nY0UifrSQoItDzXz9oE+8uO1aixZpbftz2Z2Mvp9Ok+ucT3wCq51dtdzY6LjuNJ/a8tKCEz5Pk7Q/Ghcmujx390ogiGNcx/XFxvUJw+rDTrh8vUWj/nyXSZide7VW5BThSZDbyBi2xPWZLoaZG8Y07ndhVQ8t6cU2gaX+zFtO28PveIdtvO51TtRZDz2Fo5hTsNzAM1zGJm6msLH0og45Hl8C+cMGDrSzOrC7P+FFdnZjC2FlKK4cRr4LNy8+4mp3X3zn47JXrLpgozzeOy9tkeMHIOPGlv2dILI04Sh4TYv3x+rCNHHPyfH0Ofd9FCYWziZdKQo89fZr5MM28eWcX3+C4XfEaV8ZFsbl9X5X4nAhQRdHFlpN1RiWOSztoJPYqMgayxtC0e8tWBcCsHZx3U6cOm0XspHZQgcO9mpeWJGVlkCstkHKPW+dISmdJdxcxDLELMf1QwqS2zszY28iFEMKMR2JsKEZGpfF5Wz4ZZaFpWtTEGUTO5F27dwHP2S2NXSWbcyx4fFodK6hWfNgcDgRzj0969n5tAWEk8lNEtrgztstWVhExgjn8JgborkC49677WoQrKQcnx5wYh1mIDhFbiftWY3wjPkcyPTUeL7H4njuKJu6DAXjgs/KhpLsBcBwsIGluzc/BfiMJy/wDOEslEI8buibEkcWJrB9JPI1LO31emqjDgQAFnkKC4uzp11aH1o/6dv61sQmx2Gh33ELUuTSWdbVJLOusz5nQuZgan25RPEeDpyTjSf4wQXN5B3cvmO+3TR8q28/Q5cTdfZFQ0hZVM751YsY+8rCTvR7dv873+1mJktDHMej6sZCJxQxp1xwbhkLKaz9CsJNAeVoa5w3/cSznm6948dsayZ8TyR5Vrhuebz32vqmjSeFDTnmPCzp3mDZMjxXwVH/HoPLygoZhj4uxRIIlhRA5JFxi7qpu7cbg2DbIr95eKvcl+KI9iJBF0cWilE3QiJXZjbl0LK92OI4tXxaWJbXFsIi7a0et3fed4/d+QkvNrvthG1wLPKEw6tyjPzZhZyIN4k2R0yjsLvuUm4b1pmg5lPXhz3GL46N45kR4KHbgn9TqBGGpoV6E1pkNyrOoIaMCq1shLKOE5uysz7iqZdGtv7AQ7Z13wMwtEOLq8zVSzv598+BZ/MizW0pzNcoY/E4MkEs0WBcPOUON8vdOjJNvOeNwHs0cdnEP2FQKOC01MccjQ+ZqeWTJy3sD1yL+5I9FXDW+c0tS+KudeMOvoPedfsd+JujoW3h3U7qwvUYYKt/Wu5s+Mgqj/kMCxddeBlAIZ4AbuzXJMQhp8rG1u1Elg4SyyFcw+HQyrK2fm/RBsdO2PsvnrXo9lvtOa94GSvc3aBprDvvceYyVwk8a+m9LeC7cBYaTjp33jKcRwudibpr302hdPJzc2CGJHWTmEDQkRKwxXszs1xsaZFYUsYQpsQmDGMKUx3ERWYbEHWDUMYTCPosQ+AamOEwChonc2GpheubjgjrlBA3WOoUVo6BbwsLtnTbaRsyI3GDKRDnZudzUCx3hJJVBk0JQ8ypUznmeq9rmzj23HRieb9nwfEVCxcWrcphVU8em6vxbAGs8xT3WFhZtpizqCE+J3kz4qAX88tKIba/E++eeOYtdNWhtxsJuji6QAE4MlwIs5nCUCCxT6LUlhdWjGPGvP/e++1Dm2v28r//d23xWc9sRkhbXHaiH8Fa5TCuTWI9S5ideDfOWY10tBzxK9uAlV/homwXz+0xxK0un5wEfT8ogAnCEOPZKcAUY44/z5nPYoh5DCF2TwHLuoBI54irPjIym2ce4Yp1IeoUdELxprBmOI6u2RZaCsFMcXFaq85q5uEQvdXbb7MM8X7FBm1XgeGn48xzvqSANBks3Ab3c2O5p4kN7rzDjj/tLrt/Y93e98iD9tG1S3YJGaqLOO8irnER512vv4ZzhxDvi5vr9tDZM3b+4gWblLmrT6eVPsmzPbNrDOdO5uPJQ0Xu7cf/BoQ4clBb6l5soxxW+XBiC0Fi/Q5nwcpttDW2YVna8z73M+2Wv/lKKF9q5Shzs4klScfNmgZDFsKBq2xbXY/GJaJI3O/96D1IxGvXKI6CFkMkKeg3M4mlGLNPNcdgp75wmlaKLovbU6h7AldnEHy2zIdQ1VGADE9kk7V1s/UtiBbnAMfj4eQQSs3W7RRz1rtTUdl9zZUCGGclQ4YJKsZWB1ZUtnDbbVYhU8SMxI3g7j1zXuCJz6BscmQ63uNpd9tn/MMvtU/8G59utzznWWYrizZaHtjmLct28bbVx+S2Ti9bevKYLa6sWgdWOgfa4Rj9HKufXRp9o7j9eLJFXYLefvSGW8wbvuCL6mVOWFlNYSVlTQqChJaJtrNckJ9jov5kJyyeJhEO7Qws1/zuu+2l/+Q7zI6fsjHCVYaxKx6MXbF0gQObhluVsyBDiEfsrLKmyLew6R++1l77s//Jnrk4sI7rEpYYNuOYZHYu6zcLPr67J61PWuWsDl8bbljU6dhg6ZidXx/aA2cv2uKJW+y2T/o4u/ubvsrNmMZ69YLmJBtT9Rfs/IV1W1pawLYM12vEnMXVPITxyQFL4jqHljf73vCvvs+K93/QTmL/gKXPSW3DydDSKHXVys3873yuxO5jScHHPd9e8h3fatbpGycZdUoZxZbhvKoqnBDH2MzpMZ1VXXac4CImbQnveuMXX2Nv/41ftTuPLSFAeHbrOMHGRXC1EuErYEGXzrJmmcE4hugiQxNVKRznmqfVXtgkHFl3kCKDs464WrQzG1PrPe1Z9qJv+iazO+6wssgQr8gAQKRZfL6ZNkX3aRFbF0qaMNeD+2ymCGeY2wDvMhqPzO47Y//tX3+3PR3HL8CStbrjskQUYQvw/tx7x7tZw/O8+BPs6f/qn9sQGYsKx9XIXCSWuW8jRoTzffLeGe47hdXPz5kZCTduexra5tlH7O7BcZeRsIvnDSfiRhP4iEBOt+fiBc69Ry5fxXcZOPgcMGg0dj0fbLhlxZvfaG/589fb5n0P2amoY6cXFy3HszJzwe+Os7v5EgmWXvD7v5EMjfv9IEwckY+fB/0YF3RVEHBuFryI757zvvMT6trFoGvP/pzPtWNf9iU3cGdxUOFXKlpK2+vL2DGqzrZcAr2J9UsQkLU8sTBdReoFwcd6CDFxw5LiXwJbMS3xN0fCN0XyN66sOwrsRLxs1TSxd9/3sL1vNLLOSz7eXvCNX2V3f+vX2QRW1yWk3xuwyjnXeBHCOh9BZLpIxGG9pjGEEul6hQSaVndVlG5QmpKdtDoQM6Tg9Rvfbmff9T471Vt006ZOIQQbEN66j4wCfoG1H0J2RgAxZWLtlJ7r8HanvtxzI2JA2Cp7FCcQc4g4LphWOW40tjweI/oK+MjsJbGN2ZgPmYUIYe4hMFOO+sYwQzwr1o1DUFl8PoWoJMjIMLNgQYbzcT0ISoXr9ooaIl+7ecaNw+Ei3mJkVsoJjsHzshSDFjz7SvP5GR7GAbJgVuLarjUhCJCRcYKF6+Au7v50nAOd+Ewez8RevKOJLcOCnkRYR6bCTuPbOAlxv/UpZqfuMLvtLizT3Tlbhs/1W+DfMuf77fP+U54Ky/9jsB/Xuusui//O37ZP+s7vsNGp4670olgbuglrGCcsyaHoDpGBGSXMdDQlITc8QU3N5+Y18Gxs2AkRd18Hrhtw4h1kWGpkZPhbiREHKX4rkxF+M6KV3ODXJA4yTaOt9kJBm7LkAWna8ac/1U4+7/n2wDi3ByAS47Rna5DB8xCXM7AiHy6m9nA2tTN5YechCq4uNI7sbRcv2hsvnLd7oBKnP/mT7XO+8f+yT//Gr7fFT/p4XLuESCVICjlQSIwEEg5LFBRasLRu81FmKcx8Tim6yUZvsOa7/Y6VOSy39XVX13zv6//aFiD+SV5aj4OrAMpNGSHB3SXVFO9t5pdnOKF/nGCJQhFEcLRymehTEFiKAasOAkRrkpYlYaaoKQ1pWsZTgI2lCk6QeB2WqjRPw7ihFdtMhoLrIdBsOxDjYhRoZxEnyFyl/SbTCefuw3BQ8LnoNjfbndUO+L6dmMMRt4/3hWs2Mds2V+KE+0cQNV5xirhex/veShIbsVtiiIxKmNgGwr8Ot4GLbyBTtgV/CH8MfzznD+Fvwd/ATXnc+szfRCZxCmt8E9cr+z1kFo7ZXZ/0CXZhOLJuD5m+XUksSy+a0jHGefOsj53mOts4Medvng77+L3iHbmxDxivzFggq1nPSj9E+7j8axOtgiOTtRkKTu/kSTwoEu2n3mWf9kV/305+wsfapZVFe2ihY+ePL9nWnbfY5p2nbf32k3bx9hO2dscpW7/zVtt82lPswrPusONf/r/bx3zn19grvuc77Xnf9NXW+9SXwnLDNWGJd+rUFiexrUxCW5qaDfIKliaLqjnuWQZXwACtrZPi/hByFodnEK8CVilnJTPWob73A/b+1/+l3TIYWMSiZYgdE9cOqxSyg52wUhgvy2DMaEoP5pbnmD+ei5QQp1s4kALvBJzWfRJZr9f0FPAlSYyXeXctNJkGZh4agfc46xeC6+ash8+52+loxLJfPF2O+HeZBgicEzrvuL6X23WMK0nJcP6ksgJWcMlueQt9e8ErXmprENdJHO60+MerZlsFWuzMCO4Vr08E83HZPOuTdGNxU5Cgt5irDf152GEr5ouwih9Y37AK4jl44cfap3/919nf+b//mX3Gv/in9sp/+z32su/6J/ZpWP/Mf/HP7G/B/xvf9U/tU7H8kv/7n9or4J77xX/f7v7c/806H/sCs9OnkOImViCRzqewUqe0SNmNq0mQI4iPq7OE1enn1uYgM2wRzy5tYRdWH6sAMraWR0oOq/w9v/M7Vly8aLesHsOPrbLxeOQGlumGKfYXjxLEm0UjhjNhhccvx389TthnfhPeq31XONpZ7sh04cLOwoaI8x7uPrwQ4ovD6s4LOrkeMedZ/pruujN82DnqnZsspsK7mTkWQbOkxflQWpYasNzF+TNHm55WLZ1fpj9/jDsHrgsL2N0D1j4/A9rGwdPutv4tp+zcZARrHM+N0DSlOo2os5tgU6ZAxzOeWHbHqR9yWLSPq/0yxSGmYOVui6G8FlFivdUTdhHiOM1zmzLdesqtjZXdTcyOr5qdOObqTetTEGxuP75idmzZbHHFptHA1keBXVrPbGMD51cdGOeLcAuwrpBIw+pif2ZaWqwDnSBVHse1jWFqjRNYZklom+OhTYvMaljuCazwlU7PbGNok//xWrv3LW+1p6ysWlVMXHUntKARCFh1vYIN85pnuVkwPPN4y9GJ+MwxkXDLzoc48JiZo/Xpmc+ccLu3mrmZos4SlYAHUVxwEWZwbjRDw7rpeUfLfN4xEJdtc9IMF8YWBRB5WNYR+9Sz5AUumrlw5vyy3759HLvswcpnpoGZvjju4huobZ2jw6Wx3foxz7Czoy3XUI/yzXtT0Ok425uP1yea3RY5M/lubHzRSiToLWZ7pq8WU5Vso83uT7FtIXGuOXY3E1GkY2V/YGMI8mYU23qc2HqS2gb8jSi1IT79LUTPJI8tiRdsYemE9forOC+2ESzrHEoUw+pv6jwbKxOG2I5IeZew4B0pNIR8AMv+NBJ2G8NWe+/77Y/+86/bKhL30yeW7MzFR6yKA0sHHVyktno0tcW45xL6mwetQwosE30uA4giQ+SFlstu9wy37peahV3sPA/jh+LNuGPdOdcbSxEXLHIrsgyv6nLr8fEqFt4RcLfWOLxLuoAWKr6LIGrC6v6647fXnEg3XL7u35df5y/MDSIDv8YDliXiEZnL1RMnLMcysy3uuXFA02CvWZ6P0yeS+XY0jFfGddur4o4y/qsVLaTtRWtMHBeijhVbI1uIO3Zsacm6/SXbWB/aEBZUVkc2hlk4LQwugHjDzwPL4PI8tLIIrQdR5Yhfo/WRjYecPS20ZDaD1ggnMt11wuQS/Kb4ll3eElrXSCspVp1uYgtIvBep+BsTs798i334v/9PCy9esuOLfRxT2ijIbBqxvDVyCStb4Ceu+JdPcvPhI1LE5y1mZ0zPh28mYrvZz0onLiOE56W0BbgYncs84P3k06lFFNiZoHsx9+5aYSM9XnY7rAgns3k7rmk4x6wKSwn4VtminuVXdZK44W2dP7dczdZ3+26/PwaZtSke2LWbgNWe4vpL+B6Z8xtf2nCD8MzDRohPNvPx6ON16Uu+bO6NiTbx5H9h4knjehLFwwgTcDd0KRurIfMy3hjaxtqaE4jFlWMwlDiRSmIcdpSd1uKaLraOwYUdNyZ3NmmGY+13e9brNEWRBcSGVnQKS4Yp37xQND+ZptsR/XwytLTOrYswsEW73X/O3v6ff8fe9Ud/Zi946lOtKic2HG/YwvICBKR0s3GxdXgEQShg2R0MvBXX+F4gPSFyNN4i5REUSRcxXHY+tsKyb9g5l3HEd+EFn74Tb7aShwBWk4lb3y3oHr99X3Ajl+loFhvmMh0ubIhrdgtkcXyF+G+atGEZcV/UWML9SlyB29nUsRH6nfXdvutat73OKhdkWliGjve6iOdNA3xDVWIb9z9ii/i+GD6GgxlExpCPJbdttvxkwHiltU638Zpf2olk0Sp2vn7ROq6aIB5ynB02zW0hia0cTawThTboQqi7qWVjCC2s4RQpJy2nHqymHhJ7+l0oSwdaGrHPM34BHEClrGi3VW4WsQ7iLWF1BcS+CwuS84QjRcReJOJYzHHdLGHdOutDS+tiu+vC9fq/tjf8wA/a2be/05575+3Gftss5WXjOY7bzm5frGdnYp7FgU24D454YZsXN97zZkKRLDlNLDIfHjxJM4sY4pmhcy3XZ58Zj+fivJVO4XMFz8wcYeeUg8qwNfjGmtV5Zp0kdc9MoaHPUiUfBx5fRMxjIrxj7md1UoT3wnuxpITRuC3qwAtmURfIPEFMXbF4gfuxaxtLB4bWTbG9zLEP0gxXYtk5nOPeGYLJ87nusgK+tfvMFfg3xr9+D19YMTYb4tkmhW393mttcu+Ddktnwb1z4qodeD04Lvs4e6JhfPpMkm8kWyAzJdrJLDkR4nAShEjYaTMhNWci7AXGW4NOKMrGsQFUCKs9pDVdwt6CKAx6iaUJj8tsikR+PN6yvJxaAKuru5BAvCaWYd3Jg+vzhMQc1ljJRlHTzAZsYJTltvm7v2ev/emfsvDSmn3ccz7GFhd6du7cGZzDhlOcoISuER+GbQSNpGMR8MHA2d1wTdnDtsUNAc3z3A1lyhIF1j9HnS7rGazAMzXCNDt2G16hcTUeloJMUYkhKBwiFpFttsXeABmO2H3u9cAGb7gLXCPmTXLWvP/ZRrgIB/Qg3uxuGBUTG2CdbRvSEu8P77/bwzLWI+ZbsK/E+86KqY2zIa6F76luRL6ss0b8Zz63x0Fu2WQd1jgyHcic2AMP29p7P2jR+tDy9Y3t982udcwMMph03PZkibo4OjS/ACEOKRUsas7XTVfOfA6xycSTxaMU+NmRSKux7ASfQuSSVSunIwh7bkkM67wDC7GHxBfKO40zG4cTK1IIf7e2tAfLHWk2i9cXIGzHkIAvpBC2D3zQ3vEjP26v+43fsGWI1sqgY5fWL9rWZGi9RVhouGWnCKyfBdbLm25LFHGK+TBFmG9yos5ueIwKiuJe0MLjnOGcbKSCAhU4rr+0iIdKDbZtI1B4Bh/L7PM9fz1nSeMaOQTSVVQg7lidUZ07bzZGxmmf+14fTeaBNGLuFgFH8jObbq1bMdy0Lt5ziufgsLIJhwfGttH6OdsaXoJ4b0KwJ3hOiD4Hsuviffc55SvHsEdGLkZGEO8rxr4E+/it9LF8LI1sMcUN+cBveau9/ad/1j76V2+02xcGdhrvn4Xz7jubxZEreodrsk9CPL5I0MWhpbFyaJWb5UEJBzGHYxczV4DOokZY6TUcrXWOWMb1KoKQRkhqIf4chjWjBYbruAxBVGIdYl6MXSI/QOJdbEKgH7rf4rVL1jFYqFS193/E1v/gD+31P/nTdu/r/9xWIBK3rgyc9cbx1NN+11m27NbUdFeiT7HjT46DkCAMWDwQVprL9Hi3gwsb4w4iyPrjOg5tczKyZXYDZEYK4Wfcu7O2M06eRth9UXoxZbc+Vmng5SBjtX7mnGsNvl9G4nrhZbyY85tgqGj9B8hAJEVhA2RAIleaMjW7eAk5DeSuYJIvpj1bhUqvIFxLNcQZF1qCBi/mhS1MC7xXsxW882X4i9D1flFab5xbdzi0DieoOX/O1t/4Rvvoa15jr/vlX7YH3/l2O4l3f+uxFcvyMb65Rsw9fF73GcLhL7dwQYjHhblPTbSNv/j8f1CvIHFr6+QspAwaMW4ScrfJ+b57ES3kna5GznPHEib8SZcF9sgMsJFWjWwADmrq0SPrMEPAetEQ5jQ1IsOfB89b/aa32Fv//C/tnve8y1ZhuT/t9lsR1srW1tZglfes3+/bdDS2HBboAs7lWN5u5jLcl+OdjxF0julN+jknccE7wHO591Emdu945CZn+eRv/xYcsGBTnohcSs15vZnpQDjTEjFBQcW/xzo5C89mP2lGRw/vgNZ6wXjnMVUCH5LICIwL6N8EFmrHPnj/RXv5P/rHNvg//56tD/oIV4Y4ZiQjPPBYrcBodpO94HZ8fb1OYpuXzrvSiyTEdzia2v3//mfs4Tf8pd2y0sV9C2TGOk74GJYQz8C2CXxPZzYyW33py+yZ/+yf2DrC36t7sPr5rsYWxRz9jT0FmtbrPJ6ZJMKGfYzXLt9hgrgdjezB173OHnz3u+3Mhz5kJwcDW0Hc9vuLlkDQe72edfE8XXZ77LFKgWY6XtQsU+iAmNsUGYLxBO92bKNyYh88e589eM9HLb//jJ1Ku3b76jE3OVC6SWu/ts0uS4wQBH7GfDL3u2M8NdUF7ptG3D0W+DvguAC8Rhbx2+VkNex9ge1V08K+wrur6onFCMsE6+vpgj3jsz7Hjn35V84eSrQJvdQWc1QE3dWbu3OY9rIWuPmweW0Ozzn/fNRGJ/5umcN/cjhWNrCq3ehurGtlCaqz5CZwrBe9uG72gQ/bQ298k93z1nfY8Mx5O9bp2enlRUtjTsYyREINcYFwZbgf501PLLY+Jz3J2BiOYWFY8STQlgzhpE9B5ahhbv8BEXTXvStItgU9jyASHTyTm3AmsLPD2j7t277T7KWfYhdgiUYZSyGYIWkEvYvLMrgjiCHfB8dSTyGo4801G7AeG9eyex6wd37/T1r8wIO2AMFj24THKugGAeMZPNYLuh93nnFbba5DqBetgJD/5k//jOtKuIhnv6W3aPnmphVTtr9AHPC74fl4apYqeBHnaHbcx8GA+D1WsNynEPV8mtmEJTs9WO9LC7aK9z1IE0vTyEYb6xaNJrZy/JhdsClihvFL8Q1dfPMpU6q8/6bhPxYk6GI3/LqEOJQwQ8A62xiiQUcRdQ5WcQpR6oSp87lOxy5sAbuxsfUTRIbrpxZW7PTCcTvRPWbL0YKlGQT8LIT8fQ+Zvel99pEf/hl72/f/B/ujH/0Je9cf/U8Lh2t2x61LtnIihQgNIQgblo3WbTDA/TqxbaxdRFgCO720avnG2CXiOQSDM2zRUcwp4ANY+4vMLzy2tPxxg6k643E/KG5FUSDOItsYbtntT3mK2S2nXR16BnGjCO6FvybPp6MwYsHlpIYPPmQXz55x/bSvdO+rwVN5/0bMaaVfnpyxMWJ3ERkaHDl65IxtfvQeOw1hfibE/BYEZWE0tpMLXVtd6tjKYtq4hdSOLXXt+ErPTqz2XT15L60RVhzfDd2xt55YsrtuO2HPespp+7jTt9gLV47Zbeybvr5mk9GGDVYG1j+xaOdGl5DRQxYBgutKDJA35ft2I8UhVPw2hHg80RclDjW0njqwivuwMBcmuQ0mYyTUQ+tPRtadbFo3G8/c1Ppwi3BL+dhWp2NbhgsegHC/+z22/mevs0f+6+/ava9+jb3jx3/S/vhVP2y/830/YA/8xV9afv9DdgoW51OPnbCTi31kGUoryqmVsIRLJNSDxQUbjUY23NqyUydOOqHauLTminEpOHS+SNgLIBN1b7l7rkXceI15fOOqgu0CcDHObsYLuXu5n3djGbpqiRA3pZ2N+zSN11wzNVck3IyIR59WLix6uAqO9dAFu65FeKZRact33Gm2uorAhzYpc9yqsYYZdArqFNuzkFOashQF92UXqaK0LrZXLA3JM7tw5hHbvHDBWOtAy/5a8fEzH2fNMzJeWWfOOvmmxInPVtHKzqGiOccJKO0U3sutfCejLQvxHdx++qT1kLHrxqFzyG/B1Y3DRehSboMfVLnVBaztfIrnKpzF2wsDC2CJbzx8xvWpXxr0ra5KG45H7n1HXT5hY0XTJz7s9Jq6fiEeP5rUQLSSo1DkHkR4vtGmhQEs5j/+Q7vvnW+ztTP328nTJ1wL66XuskWw0tmpmNOEjiDEUwh5BcGvs8JGm0PLxhOI8aZlw7GLDwryYr/nuqSxr3TzI6F0+AS48RlvftuOgDbP5MXH4+t2Cc+jmPM6TNT5nC7hd8+W2v3IlIQveq695Nu+yWxx2RW512zpF8VuRjd2odoucnfvsxHkmnOP11M7gSg784u/bu/8z//Fnrm8hCtntgUrkwLHot60jF3Le/ajZ10+h6QNIFYRwhKlkdUQas7r3oWIl+McxnjfcsjvBy9u2Gf+839u9gkvtrM4r+z0bAVxx7pqzhufIXzsRMj308wDjmMgnEkNQe2waHyKZ8js97/3B2z5L95nz+4OcM4EjkX/Tb/2Rvp2itwfXpvY7a/8G3bHN329TQaLVo0D7OezTFy/6ppVAziuCjPclz0ZcAEeUeN6jOigsD7iefQrv25v/LVfs9tgdSf4pjgxi3t7c6LqdPcamP+9NO+x2cZ3yXfB6zTrzXdB2IaCizzcZXZm5z3W4naiInexm7lkRojDB/ufh4OB2Uc+Yn/x679h9//pH1n2vnfbhTe+wc684XX24T/4ffvQa3/fPvgHr7WP/uEf2EN/+qd2/i//wjbe/EYbvv1N1nv4QVvduGR34TrPXh7Yx6wu2W29xAZlZtVww2Uo2M3JZ3wax4SUPx3KOaxROOPc09vbm4R83u2c63a7hJ9u90/QbdqH2akOJxS4l6tygGvErHbhZCvy5rpsMIYDcRwzFAUSdba6pogwU4fskptGNE0S6/U5kh0EfjhERgjyHUMYcJ0aGYc6Su3tH77HXvDKzzB79nPMkOEZT5DRqVh3TmFp4oRweFPXLQuOLA5gESPD1jx4adMPfMTWPnKfHVvgXOGXi9legurjy+PXdx/K52dbARazsy6fz18iEzdFJoM5H4YxLYsmfvD8zMzQzd/Tv5+ruXn8e3QlG+6Zd74N+s1sb4yT5jj33vDcfAc3IuZC7AW/PCEOLVscoARUZ8/agw8+aMvLy3bbLbdar9OFmCy4IvDjx4/b8dVVW15ccvuPrazayWPH7TT2ceYpjoTGwU9o8dFxmdsO+qxUtA47UJJeFls/j60HK76PZeOEM1BwZ6lBVCiuLJqnqLMOf4pD2A++gPINIHjR1hiW79i6yAAMwsT6sG47k8DGF0e2sHTcHtwaWn4a8fU3XgGFhuUHVWNr9kENax7hoDAyIWFY2DagV1CodgQrithVECcEgd33R39piw+t2wDvZ4IHaAROCPF4IEEXhxZaXX12MypKNyb70sIiBPyEE+OiKFxDLCfQEDRnWVW1G+GN/cOLLHet0VnPzePZcIvrk8nE7Wcx+OGY3IY/4cBZ6t4apEXul+k4mA2LwOmn0Fg/JzfdIp6xHo6c61PQq8SSjMXlKaz2ZbuU1/bRzQ17xZd8vtmznmp1tmXrm2u2Oli0DtSYVqmvL+/AxO/B0ee1GenD0YalC32EEi/g7EV78PVvsqd1lvDO2N2QA/zIShXi8UKCLg413S4EfTwxKyFQEJb19XXXII2GX0yxKksn1mw8R4HuwurupR3ncxxx9hen+FP4aZHT8VhuG8NqPcg0jdBgSSfwYw70QnHFk9dNH2cOaENx7cKEXoRIL03NVvBIy5PKVqY1tuGg8dAWk9hWwo4l48KiYWnhFAIddCxaWLX3nD1npz7+xXbqcz8HF+jZtN9zM4114HJkomj1s281SwuYaWBxN/vd94raifoowE1T7MxLO/vHr7fwoXN2W29gVY53JgtdiMcVCbo41OSwqEm333cCTku91+3asWPHLAkj1zCOljn7oztbFtoC89uJPPd5v2mYhh8ExQnXoTvo80az/pdt5ViMzmLv7Xp5uKYbF9bdL7yp/6fYslSDzm2Fdcyx6llK4UZwm5Q26Cwi/pbska2pvfX+B2zhY55pr/zqr2ZRiI3ZTQ2ZoSjpWJVhuWCvbdreuMmsDh0LuBfr8pE5sMx6C11swzv4yAP2/j/4EzuO86tsbAlb9O2qQxdC3Bj+VyjEoYRF6FAkmIVNMTuHTaFgDTc27eL5C7DEO5bGicUQLM7O5YC4OwfhoUVO4aaws6idjssU9INeh05BZnc1DlfLls6uxTwFHY/p68nHcGzJ3owdX7nx4zc7la11K9uAP8R2jl43gUCzYV+S9mwD+nsW24Kn3WUv/9IvMrv7TmScMptmiCNY92xdPeKAMp0U4t3U07NRGDMXrgg9KKxi9zkIObt22bmzdv9//wNLHjlvywsDG5ZsoY5gIsxsyCeEeHyQoItDjbOsIc7ZxoaNNrecgFOgaZGurq667lcUevaH5ihfXOc5vgjeW+a+IRy3EZ7DEcEOOhw2lW3tnUVcs9U51BhWciP2sN7hKLasWmfxdtPavRHfaczBbgLbQqZgguefdhJ7EM/8jnOPWH37bfbZ3/D11vuEj7cLFy5aBaFfGCy77l4JjuUc41ESu6J2ZqDcdaOmrzvFnJkMCyD6sMbtzAV71//8I7t9aRmZgMAqDrBTs+U7cx9CiMcL/AxFW6FotR1XLI7nZP35wsKC20Yh5nbfuI0wLrxzRc600NklC/vpaJXTzR/P4vcnmvlw0REfhqvBrlp9iHIw3rK0yK2H03osxd7ctH7a1HHzOSM8RwIhjjnbGxznhWeLdldM3l2wS4i74eLA7kWm4F3jTbvrlZ9qr/yGrzN79rOtRsamf+y4VVDsfFo11RgFMkRx4GZhq2C5c9z7AJmBqRuQprAcbhhNLenB/F+f2J//xM/ZKjJKnH50AoFP+2kzIU7d9DW/EowLFy9w/l1xne/mWuMJB7oM2va1ZjwZ7/dmMx9H/hubjwPRLiToQhxitrY2LYWYdtLUjWLmiiaWl2ywuuoaq1VJB+IJOx4mesi+8hVcjkxQiYQ97Ng4jO1DFy7Zm88+ZJM7b7VP+5p/aM/95q81+5inWT0ewZqn8HPCliap8D5hhmIJGYHRxqYbgCdJIstglVvHkNGAaAyH9siv/aaF9z1kx7pdS9JmrPlplSGfwUwBrv0kcc3i3zLmBdxnWpm5Ee1Egt5ijlJO/GqW3jw8Fhp3XeccRCqIdwUjuErYx7y0rWxiIw7iAqs9ft5z7FM+57Ptbfd8xN730Fk7szmG2KbGSVoubmV270OX7EP3n7GNPLRnvORl9re+/mvtld/0tbb4t/+m2eoCPh5zI9RxRD7XFQ6wVT2L1ul8UfsY1105vmzh5sjCycTKTg3BHlunKG3y5rfbu/7HH1q6MbTFHu6NEyqEgDPasXCgQvaA7+HJwov6URN3Pu9uS120Ewl6izkyOfFZ+uSFei+YnF1p/2GFfe0ziPgUAhrCCh5RKDlc7m2n7Cn/4PPt077yy+zpf+tvWPSsZ9rF46u2duq4Jc97tn3M5/0d+8yv/Vr7m1/xj+1FX/qVduJvfrbZ055qHFF3bTKyDQ40s7zs7uGjjHHoZYEFART0Tq9rm+cvuSlje3Fiw0trtpTARH/wnP3Zq3/NFrLSji30LcLBHHKXbRTYVoEznLF3Aa/zhLOHgO8WubYy/5wUct+LQ7QTCXqLcV22Ws5eAu2F27vdbO+brR9WQjxEVdRu8hQ2h0sGS1YNFu2BIrNNNjq7ZdVu+dK/Z8/6hq+0T/nX32kv/ZF/Zy/84e+1Z2L59Dd9hXW+4PPMXvZSs5O3GOd6v7A5tM0gsmiwYHUXGYXSdyvj1RvHYVO5TjEnQYqtrmU7kpJLG3bb6nHkCEb2+h/5GSs/fL+dgvU+WFmwEmEKOPRqFDRCjmsnrMd/gvFitts/KsyL+XzRu2gnEvQWc9C7XT2eMNmi26sYfVvAZ64t8FHiwqwfdi3MQ8snWAkSC/vLtgUr+Ow0swzfwGRxwSYLixDprlm3Z3mnb+dgTa+FkY05KE+OTEEKC3vxhMVRDxZ+5IrXs4oN3Jo4oyXNVvQcrIbF7YRxvba+YcsnVs3GW2aLixD1sb3hR3/azrzxnfbMYyctrEorcJ1mfHhIOM7NcU92fWNXwuYpnhyOoqjTIqejmPO5mZniiIiinUjQW8xRKFrbU8DhuN1b6rtpS3JOke2WiS1Y343lHmzmFmahDSy1XrQIAR3gYXsc0NWs6Fo2NCs3cWKWQpj7llfwj6/aMObc5jh0Wlu1kVvEdm2djpVpZFMoeBFyatLKOMMbHUeAYz064zftxMgUbFnGyb5hgb/lh37GPvSb/9Ne+fwX4565VdnU8hyuLi2MOZ9c0AxBG8auK6G39J9Q9hBwittREHb/jN5C96Iu2okEvcXknAt6m4P3qr3gbierXIBYuP7UWPb1q83gJfTZ5awp8nX9rCE0Tatr7MdfnsfR0GIkWlymWPBoio+zMNnSGxu4naOouf7Zrgj55sF5yglFkkOnNs/nQSDxn6O++YzLzjzmjC5Y5WzZzqdMYut1O9bFjmI0sXw4cnEx4dC2Obvj8QKNpebqsXHhAAn7VlHZ0DKL+10bLMDSZ8t4hIXTsk45GhzvzfPcO2jGbG+m7eQQr4UNJiODTQ+Rntpr//0P2D2vfz3E/AW2duZB66bNELGEIsIgRLD+06TrSo8m42znunhnvCZ9VwoAF+OheU7zjkqEmP3b82YgHXdVvtvmW3BPh7DhKq50oRkjntsLRFSz7L43ti/AUXWIZwsPu6XK5/IxARC3fMeNw76AXfWaNIDvPeTgSmEC/2CPgCgeO3zzoqXwR3wZLlE/ODA4m9nEgpTdqJDwst800icO/Q2lsgTCw/QogIsLCFHJkcWaBH6KhJ0OSRa+4tjNa96JE6u3tux4r2sB+6BDcDjYCcU7gmhwBjJOHsJ5ujkH9zSGtXITfwF8/gLPUuIpelhJJxmePcBzxzbJITYxR2CrbQqX4V0y+XYZEjxQjnXOVmb9GNeYWBWOrYynBnvZFqLCFhCJCUSrkyIhhwCGSNwRgValhZXRGMeNrBtNIe5wMJnXsnU7P9qApQ3xx31ZzdqNIfBFbHHAGdZgxUMw84qSGVkX6wlnVatgzv/J/7I3/Kt/Yfnb3mR3rHRwzCauiTCXEyuxP0RY07jjromjbQrRnuSFpd0enoczw8VOkDn1KedWpwXPmeMS3NtZlk6n8G2EI8u6Y8s7eK/4KFxjwLiwHI6ZgLSMEEcx4gb3xrOXiJckxB3x7OMp4gfvOkTGp0IoIsRDEXLYYMTLYYbvtfky8EHhd+REHbHJDA3iKMR3zmSAmboiR8aJ7xK/BdFO9GbbjvvxMrk8eNDySxcGsA+R4NCKWugjVcdymTlBq0KKUQQHqwI7YiRWFDM6WnPzdGBhNiO9BTbc3LACiX2cIkOAR6cjTPTd3OHwuY0J/K7LPKnQYmQpgS9BmH8mF2a4AJkVOmddBbF1IIBdvNMYy7S0GEclnjmPIfiIO2eJ4TyKKBPyEiJZIm69j1iFnEHY6wLxCDfNIKiV9WJc1/UVT13/cHcs4jBHpmhztIX3McX+BNY1LOrR0BDJLoDj3/wN++B//S3LP/BBux0ZgeOLHcvyoY2zIY7f1YYD4eYj8rl93NNnPT3jocl8NZY0rXZ+DCWes3l/nL0dWR98G1OEJUI8LPQXndhzTnz3bcAFHOQGGSJui+jwnE2pD+IF13Qz0OHGLAlhBuJQ40ohvM/4QkQ5Ueeyi2k4Wuj0uY8RyX10oo3ozYqbyhRiMoK1NmQXO07YMR05y3OSNBYoZxHj8KVliH0UMiTIXVhigyKCtY1EnBepc6sgJhPaf92OjUsk/FC1AonYLMlzsBg2QELOc7yAOq24STDJzSDUU2Ra6HIIdOGK15n4Ns/rSiVgCccFLO4MIgRLK8lq68BgjZETqmHJFlDFAnGxl1/XKe6T7Ok7Uax6tpSl1hsjNBtTmw5hBWcZrH3ETR9hwk0WV7vW6ULgN84yxNiOnefP2L2//qv2J//99+3cQ49Yv4PMAJ6FE7ZwFjs6TkVLGM97QTEfI5c17OAbSCq3PHFjy3P2uNANjDPB9XLOCseSgqoDK7xjyRQZtzGEe1hbkCOu8Ok4Q9U5CFheunU6Wvl8mBguQZykcJ08sU6BzAmWKe5CtAWXHgpxM2DxeQef4FK3bwucBhViRgaDBesu9iyDEkwgybQqG8uSdeYNtFATHE+BtmqKfYVtTcZWJxB5WIYxhR1WPo0SnjMv7IQJ+c1PzGktssSAVhUcshess+Z2Z6EyfLNw0l1ehdI8katfh+0Kqd/Tr52FCwHfww8g7DZh/EUWJz1b6PVt0ElhhUMsYQnnk00bJLXV43VL85GlAxy/ccHy1/2xve5nftL+1y//gg1g5R5fWbUTq8dwN2S+RhOXqKSwkpFr2FfMCZ+gmVDGu2abb9/A6WA7sMLT7gAPz6IbhLjuIPOwgDAiY8LiZcSTO4/vGTdzg9/AufeO+zujFCFybS1cHCOU8CMIPOvclQSKNqGvWdw0KFJ9WJ4L09IGU6xMkZxHHVhWJYRhaOPp0CrWH0cQdAhLBmuds4ixTnkCAaDIwySkeiDRh0XKbVUJax2JdYoEf5bQO7DP4yxzOPbjZqbiZsHn70C5+jmEC2IVw2SlY5UAqwdcaSl+ouzeFUQQe+pRGljRgQXeCayEC7AvhNix+H0vn43hmOfZy6dBW3KIVtyQjes2x5s2Hg9h9U4g1KUdQ/wucjpaphJlbva2t9k7f+zH7He+//tt801/ZZ925112x/KK1Xlhk62ha7ne40A3OCeHlT9ABuFKMCuSVpV1i8o67JeOZbZvcIkSwseylKxqRJp1wznuM8K1xznCy88FGRyWzNDlCeIE30HegUuxjHW20mfpDvI2zuqf4LgpMhosDeGQthXih9EsRFuQoIubCucpryYTy7e2zC6exwZshKDEEOqFTmJRWFgUw76CqxOIdVS6utYccl7CMk/KKcSmsA4S9y6stmmBPRCIoigsTbsQguYTp27PW4IU8itZj08WEXIcbL1P6LEYmmFsMiBwVQYBnlpRw2LGv2kwtSyYwHEd+1ixAIUOEF97+ZA1ONqnj/broLS8i4wSC0fg9yGEq0liixRmmMnpGDmKS5tW/a/X2Vu+99/Z7/3Aq2ztXW+3F995m33s3bdbON2yfDi0mlOvugZylZuitsc50+H7Ivf9YPw3jdmYsWl8vhe83m2m2dhl7njtpNOzE4sD6+HEgBkBHBwhAxexG5aLJ2TxEE81YqZmNQyc6zWAuGRreFr9GatiYPkXAUsxmENSEijag75mcdNga/Wwl1h3dcGN/73xzjebrV9wifPJQdeWkDQn1QSiPYFAZJZAzOMOEnym/AnEACk/DDE3CcjGQ2echUerl63jOciKayjV3Aq63jS4omA23aCarlc3E4aCIsP5yDlfOeuRRwms3QSSxM7groU2HUQqnCIz07iSPlt9Q9xD7AuxvJ+L43xfZ2lha+GWTeHHyPtEEHSDQNr9j5j96V+b/erv2v3/5kfszT/2CzZ6w1vtaWFidywuIrov2INrD9skKiwvYYl3uk2VSY4MV5a7unTOdleyc/sV8I3UXMnEzHcWOt5L4DIdlZ1eWbHNM2fM3vNuZC4uOAHvQqhjZOTCKLDlPLMlZN46yNSlVWE9fDtdiHqvzJ1LOGIetrNCnaLO8eRZpN8U0c8CIkRLYIGUaClf9bwXfncXCWMEK479spGEue01iypdfWyARJPdkG4eeT62DsT7wbNn7Z4H77dlWIgDFjHDwqvOnbFBWVsXFmAKsWA/7RgWfYIUueNEABco8efBR+zBP32dXbrnHrulP7AlCMxoOIKg4ToUbhzGVs6Ej81ifE5swnjw+28GLiwMQ41nQnhKWtVxaENkYLrLi3b7S16C3EmCjAmsZShQwuPwClk83cf75HSpKYUQ+xkXroZ4t18gE4SMToxzdvspxHEB9+tsrdvow/fY2Te+2c4jHs/92evto3/0p/a+P3udJVtDO9nt2KmlRVevzm5ofbyvHlyJ85f7y1YMkcnIC+t2Oi6TtLW15UpeOB/9lN3vyFwku1cB1wh38y3SNe+D9e6sCuF6jXv17T0ffK+dgahPzp21RdwnWluzYGuEiEhcVQTjr6meQDwgRevg2imeH3kkCzkqGsKSv+kddu4DH7Dj/T6eAxkYWOocfta9hEOKi6tmoamWwAIzSc1vmpFbuYysOwTxiZizLOna4p132Q/+3n/7HrdDtIrD+zWLq/IXn//F9QqsnKSeIIGjtdT8uPnjZ7Ejkjsn9DfLUqUFluD+tWvlHds6DKm1orI8ZKO2rutGNYBIsA65n3as1+u5vsuu/3LSc3XKW/mWPfSRD9rogYdtFQ+yGiVWFxM337alMQukaZ47y52O0Mtn5bp+kJSbBUUtQoi6EJ0QbgqxmXIwlhPHLTlxym5/3vMhbFCpCpkT7Ifq4yxYwniyAgFvku4mU8I9u32j2EG02I2N61VZWg6LlqO0cTjW8488YsOtDVs7d8G21i65aVD7aWqrg4EtdhGXyExFNQd1wXcC14gw4665SxN//Jaw5m64NxRxv3veOmbjPW6n5UyY2eB7YiEMCZLUNvDtnke8bOJZqiC2TqdnK51F1/DxxDOeaumgh/AuWrKyajDpzY4tmy0smbHbHEtl/vjP7H2/81qrHjlvy8yMpIhPtuTHt+d6UMzCctjg74dxzrjMwhjxyHYYcfObZg7HlUqw+gEZQfymJnVil+KB3fnpr7Rbv/arDulTiyuhl9piDoOgB1XmRi5jI6WshLAjmGy9HEOYUwr9xhZEA+GGNcW+6gUELcMqG0VlEIH+yUXsKmwFz3Si27cOjhmPtoyt3tnanY3kmOB50SFcb4rdb76gu77SEFlalFzmiGrsdjeKEyuRmTm7PkJCHVmIuKGgs1qBo+3UsOZZfcD3SEFyE7Xg/N2+ywDAinWVD/C5veBoPdjOeuhbl1dgyWMZwkYLmYPZMG5oHe9AgcDpDCM2c5fPHHkuO3wXjG/nNx6u3/iuNTpCxvDzGGYU3OAyCBeHmHWlSlE4awCH9w3fd+lL2MIdgb7n0gVkCLHO8ghkQPJlCPbyoh1fXLZ+v4tzK9tCpqX78Jqt4A5pmlhVQMyzqQtPiW9Egi7agl5qiznogu4SnHrqEu0ACU7N7lvsSoS0iOJBIe8i0Z7Zli7cJRL0EmJfIQNAYVhbuwiLK7GlpGt9PFOV567FdgjrnPXzo2ziEmyf8BEnKDOB59+b9fwMjxPPIqesWRpHLnPj+ubDgh4jjGlvgCePIb4QY8SJF3SKH0XXDSyDh9hP0JlvoR8jHvnIFHb63B4hg1BvDa3DrbN7c+jXEv8oAriD81kC0Ijw5RU0uOxsCy52Dfho9oLenM2cRJOJcALFLcisUNS5l87wjP59M0xVwTjjpC8Q8v6S+y6Y4RsFpa0FOYSrtIQN9cBGNraFJLHbgq4tRR3EFRtMZoxRi7F9gvvshOdwIUEXu2F6JsRNA1kKZ3myPpMJUQLB7kJUUqRUCS1J12p5iuQJrhrDupwgIZ/A8hpbVU7t9hPH7ES/bzGOnYxHbnSzKElx4dimNPeBT/ScIMySMX74dNx3s+C9Y4gR+5ezkXheMoMD+U4jZ10u9Sm1lPMSeR4IHHM5MeIJ+Z4IfgwzOQ1rZHpq60AQ9/J70Ms+LHPYoZYijmJk7OISjj6Ec3GBg8ZAyCGGJasqpkNX7M5Z0jjOW3NL1rnjTXHZ+XTIMM0yRT4Kr+T7ZTIrXXc+20XQdWY+53hhvLj3hWOcz0ZteK90ATI6MQ5IktD63dgqhDeEaKcI/wK2LcNKP44M3moS2RKCd9ep43bLyrLL9LEB36TKrOggVnFcgbg5rGIuxF5I0MVNg8LQh9UwKBLrZBBxGOtJwWE8A2O3JxpvQQobLYEBlsBCT2vLIWQlUn1X5wqRm442rUCizvpgFr1GndSCDhJvCONoMnb3acSc8tA4nkrRoEDdTBgON+odHrDPwU4QB+V4ahVcgMxInEGAc4QX1igbcrG1NuxJ4zjmJRxiohG5nEK3t89W4SFEkMO8st7Y2Eht5nOO8tEUDsewn3aJuKv7qVXsv43AjWfF+hQ9JhRsaMeqgS4uRcc+9IxH7oe3r78Xs9fn6sp7yM34bmssyuc+nkvBncI6p5tgnc3rOIY9R5GbprFlEOagB8sUGZwpMnnjnN/BFJa3ITPUsxNLSy4zwpb7/Oe6O+K8PIltiNi7NB67b0OItiBBFzcVN/52BQsR1p4f9MTVlePL5Bjl6xDrrXxkYwh2zlbgSO2hPc6K78UR9AyWOhJrCr91kNBDuMe0dKE0nW4f+/iJ46IOFkXPxJw+tnD9ZsH751MILqzdOOpalLDffTN5RsB6gpxdtELnOnApXII44mxyCRQPWRdY75Fz/LeXz6J6Nxodzw040UoMq57tE1LnWJLB4myY/66RXYmoYmaIk95wTjMGw9WCQH19xog+o63JJDVQgPfz/fLeIIvirk2H+2GZ1UEc9rWAeGd41oLVLghfFHcsQJgrZIAyBGyCuHOTt+C8prieH09u5Whk2dq6jS9ctHprYuGUDfvwzvHsLH4uyxrXYJE74lqIFsHUToibApNhGOWu/i+LaTklNoKIj/BVjpCwj7GcLA0sWehDnLvWhenVgTp0JqUlW5nVG2Nb7Pct7MTO+uIwsSOI/hDiz7p2toJuRAj3mhMVfvS0zllCcDPh87Oh1zSYjV0eRVbCgow5LnoCwQ0SN8tcmsN6zZFBocMJ/Wlgffjdae2KwANkCPZzdZMz2l4PIYb0uY2mbbeD+GUndGSs6jywIoPlX9TI9ITIXLDjFw5F3Pn+8pO4ti2Y6XTsO8/tTuCv4nYLOxcp5OxzP4YbpXScRQ/3ocWNXBt7PlQxMx2phUEXYU/xvB3ECbIqObaVsU03x65Ug6UHCxD71d7AjncX7HjSt2PIHB1HRmkRGUaOxsfSkBTPGE0rfEeJLaQ995xCtAV9zW3HWVE30Qy9AkzgoR3OAmRxORt41RBxFinTSqeFOMkym2ZYhlVFCx4y47qxpXQcvITHTKc2nkDgcb1Op2MJu6vh/HHG7AJpioYbGWlwAjNbvlkwDHGvY1XCIU4R3rywDFZ5jmW25i+Kwh3HULuShQpZALY3gJXJGed4AcYJbFv4fJ5H+zyb8eJ9bnezr8EUL4rSxhBDzpvP+EmRoWJXQY6wx8ZxrkGcO5fXaqz0pgiejfEay3pepK8Hhozwmjmvi+/UlwbMX5OZCs6gVuG5OQUoewFQhBO8e04As7K4agMOaoNtHHI225zAQodj635sY5yVsNCn+EY4z3sHmUfOAcDhagtO13sE8O/Q+6K9SNBbDBO/y2hU7WABi8wV41ZMqNm6mY2xWJzMFt3wYUXGrCSFNVbAwiqQKrEu1c3EBpXL2P2Kxcdxx4mdb9AVw0L3rYBZ3OwdxYDF8BSNGxGkxwfcv87x7GzljswIBDWGgCH4rkgYyupKHjgneoHnRRTAsR1BAMs2sozTnGJ7TbVnpmgfvykmhwjPfG7ngCyuGxvOD7kdYWE7hML1T2crd0ZME190TChcsTUyA5yznAP80Pk4vprzuHifc9zHa/vr09JmwzjfWI5tAVzbAR6IuKjpQg7rykaSmY2ykWupXrKFfpy4YnW+3wkyhyNklFj3XnWQ8eunbj4ADt6DXa5hIR6LIeKfQ8t8HDs32+7ha2TvBWZm+F65XDMCRCtxn7RoJzCy5jjoCVdTB0pH0WjEg4lUIyg+2Wdi3XRfg7jBNXXkzYNenrA1QrOzff46OI/nHoh0je9l9uyz8LrnnIXPPafLeDTOPzeLuun8M3Df9fu73f5sx6t3DC/ddpgfO7uv7d998/4bx/AxzN75MPt4cm72bhl/Pn7m44t+E1/X9syHmSbOIOgsZYHz3wnF/PJZ+0Sb8L8A0UL0wxXiaEMx9/j0QOlCe5GgCyHEEWJe5EW7kKALIcQRwBe/S9DbiwS9xahoTYijDdOA+XSAy+zBINqJ3myLUU5ciKPNXmKeJM34AqJ9SNBbzKO6rQkhjiwUdHZbO/4Pv1hFdy1Fgt5i+OMVQhxdKOIsqfPF7Jubm84X7USCLoQQR4T5InjRPiToQgjRcmilU8wl6O1Ggi6EEC1mvnGsBL3dSNCFEKLleFGXoLcbCboQQrSYeTFXH/R2o7crhBBHBFno7UaCLoQQh5E6dNOj0nGm3EaqKyxwillOlcvZ8GbT385mGtRQU+1Ggi6EEIcQTonqp4Vtph2mqpfYXmJbM7VsUFbWDROLqgRHxDYqitnZoo1I0IUQ4hBCy9zNAw9HwrqZ452WeTlL2TkvOq33kAeDOlCS32b0doUQouWwYZzviy7aiwRdCCFagLfU98Lvk6C3Gwm6EEK0HFrnlcFCj5Tktxm9XSGEOCLIQm83EnQhhDjEsNHbfjjLHBrONnElW8HLQm81ertCCHFIuaKY08kgP1JI0FuMiteEONr4NIB+kiSWFblbF+1Egi6EEC1id2t332WNKJPfbiToLcb/iIUQRxM3GQtE3A1CY2zpLtqMBL3FaGYlIY4Ou+vTaakHszTAW+nK5LcbpfgtJoqi2ZIQos3s1zjOibizzkEYqB96y9HbbTFZls2WhBBHkaqqnKOws8QujuPZHtFGJOgthj9kIcTRRsXsRwcJeovpdDqzJSFEG9lr/HZf/E4/CEIk8k3VW1WalSX+iNYiQW8x+vEK0X4o6l7YnYjDOR/rQYUF7OwmXZuOp8jk95oDRSuRoAshRFupYaFD05nUsw96MLPWRTuRoAshxCHHF7PvBa13X4+ugWXajQRdCCGOAuq21nr0doUQ4hBzJeuc0Dr3deyy0NuNBF0IIQ4pVxNzCrifca2Gha7RI9uN3q4QQrQQav389KlO3CHqor1I0IUQokXsNQe6E3cuqMi91UjQhRCipRRF4YZ75aiRHAp6aWlptke0EQm6EEK0GFrmJf6yuF1F7u1Ggi6EEG1lTsBZh65Gce1Gb1cIIQ4hHOJ1P+a7qflBZSjmmlK53UjQhRDiELOfsFPU5/udc1CZMJagtxkJuhBCtBQKOuvPKzha6Cpybzd6u0II0VKqmU8k6O1Hb7fVhK44LnJFcjuvmktXqn8TQhwOdv+Ofd05pZyjyEWw0DmFalRXODa0PN4pghftQ4LeYpg7j/En9tOi14ET9xDbJOpCHH5CNz0qM+78RYdWQq/pnJhzDPcit8gC6+LvZDKxeHW5OVG0Egl6y2l+8DvjOVPE+WOXmAtx+OHP2tvcbprUmfPb6LOVe4RMPOvTC7VybzUS9COEF3UhxNHAt3KnqHP5mV/4JUoFWowEXQghWgpFnGLurPaZuIv2IkFvMfwRz7dyFUIcLXZb6KLdSNBbjG/xSn9e2PWzFuKI4C10OC6LdiNBbzFs9+YbyZCdLi1CiKMArXIOKsPBZWShtx8Jesvxgu5FfTdq7S5E+9jrZ71fGiDagwS9xXDsZl/Uztz5vBNCtAffHXUelshNsqklaWpF6QejEG1Ggn4EoKi7PqrwlUsXoh3sFvC94FCvzMC7IV+RwRftRm+4xTgR30PAryEdEEIcEq5UbUYxZ4M4jeN+NNAbbjHzRev8ze9uFHctOXwhxOGFaUBVVRLzI4Lecouhdb6flS4xF6L98PefV2WTFqhsrvVI0FvMXrny3Va6EKK9eAvdF72LdiNBbzFpt3tFK10I0W58pn6++k20Fwl6i4n7A6fknGmJ06iymJ159DJEjh1+M0+6EOIww8y6z7izgRynUnWZePzKOXWqq16LYhzDX71oMxL0FnPL05+FnHliaYkf89bEBmlqGVS8TiIrJ5l1+YOXqAtxqGky6Y3fzI3O5RiiHlo5La0TdWyUTc3w+xftRoLeYp7yf311cHE0tqTXx1po4/HYDTYzyvHjjvCjV52aEIeWxgpv8D5tcIq6s9rxm+cyt1bYUMdK7tuO3nDLGSdmo05gRSdCLj1zdWpFUSC3HsNaL61UKZwQh5r5hq4sXudqU/TebPMkCRID0Wok6C1n8e6n2EPToVm/ZxZHVpeVJRH8FCIfIdcuQReiVezVJZVd1tKkO1sTbUWC3nLu+Ljn2QOTTZumkSXdnpXT3LpxAiGvLbMCufv5iVWFEIeJeevcW+bzlMix+xbuqerQW48EveXc8SVfFdjxZdusagsg5EFeWoIfeVmWzgkh2oErbp9zHtalU9g7nc5si2grEvQjwF0veqGtZ7mVyM73w55Fk0bUI2Tc9yqeE0IcDuqgctVm3lBngn6ZmGMHXYGNQRrPtoq2IkE/ArzkG78rGJWV5VVs/XRglteWBpHFev1CtICm2sxb5vxV+182xbzp0hZYGEnQ245S9CPC05/3Qru0NbHROLfF/rJFBV59UV2WmxdCHG58sbu5rmuhRUlqOavX8HPvLiw2B4nWIkE/Irz4u/+fIFhctjzt2ghCfunSuh1bPoYEQJ+AEIedsG4y577o3UMLfTiZWgBh7y0tzLaKtqLU/Ahxy3Oebw9MJraGn/3pO+60C+cvzfYIIQ47oTWi7tvF0BvnmaVLA2OB3LhQI9i2I0E/QjzjX35HMFpdso1+1zbxa6/CZnhIIcThg9b3lWCXtglEfPnYcducjp0T7eYqn4RoI7/6f/zd+jbk5p+ysGDVeMuiWn3RhThsNILe/HbjKrQYBnhahq6+fDM1yyP2Qw8tT1J7cDSyv/Pb/03pfcuReXYE+Qe//VtBtjCwh9YuIRev37gQh5GrNWilhd7t9+zhs2fsjqfdPdsq2oxS8yPMG774C+uVfGodDTAjxKGE/dAp7LTQExjr8ZyFPolZjx5ZNRjYi37ul5TWHwFkoR9hPuVXfi0YJqlNw8TyMLIiiKyE48hS/tNgA5vd7nKaY5vW8tfrmmLDG3E7NNe7Vn++db+/zvX6jxdMlB+L74tb5R9W/8ZgIzhWl9GxlTuhmPN3nOM3PY069sBoYs/7tE93+0T7eZyTJnEYueebv7X+wHvfY6eOHbNV5OaHl85bOR7bUr9vIbP/VW11XboxoQMOTgG/qio4swjrbhpWHMMJIOanZPVjSJO9kjCOJ+/Gkt8WqOsEohzhH+/i0jNcjz5DEkJ1a6x0Ol3nuyBWpfN5RMD9OL4M8RzYQnmvEV76fr25JK65a7tfJ5zs5tGZnL3x8eF9Nw43Ti7xL8AK44IZDfp8rhr76qKJI7993meIGANM2HdCfLnPdxTgOQMk8qELdLO9drmSHX+/86/mMwQBIwDh4ZPUeA76XOf2AOFz75fh3cO/lv3z1/P+9nmucAn+PuErS76c/feHIb9fXgTXRTxxndsZL9x+tfhhvF5pv/f3ug7/Eu7CrfcGL5DfC2dJJP73xW0c6bHMhtZNOxYHqU0yDuccWZYO7FIU2iNVYS/523/bTn75l/Dm4gigFy0cD/7QD9dv/6u/tHQysRMQ8gESjh4SjWI0ggXQJIoUcSRxTQKEBIaJDBMqJ444xglViIQmongwgQwsz/PmBuBRyRwF2PmP2nNNPtP3alZdQFmveW/4vK8LC+D9/TodQuW2Ez4HxZT+bvz5RVFsL3vm15kQMxz7sV8Gx+OeHW7+OOKP3euceZrszP7sdb6/F30vFPvBd34lCmSWeI/mW7j8Wemuej6n8r0Cu4WMXHYfZCSvRBxfeXQ0hpHX89f08eW3XS1+5sNyrfhzmKFzGRb6+1ym2+02cQiXIa4qOJ7PcFLQ+0lg0+nUQljjYX/RtmCiX+KFT99qC0+9257///vm5oHEkUAvW1zGH37zN9bTh8/a6Ti1cGPL+khpFpDbT5MYiUhtU+T6syqzAgkME6KBs4BhRWKdzidWPkGnBevxCde278QZFg6tsT0E+6p+QDGAoNOS420h6M6fAyHaDovHh9cljLi/s5Rn+PB7mDkh8+d7uO1qguXP231dwoxA4sLQsNexV7o+j8pxkSuHoMFf0/v+Xns91/XA6/Eau8Put80/y15cTXDJ7jDymle7rudq74f35zH+uPnnoLuaoO8O2254DX/M/LV3/L2vz98IybLMhSEKkBXF75Dft1vHdxnj1AgZ2tF0YlkCCx2W+iPT3EaDBXvxZ32W3fnFX3blwInWoRcu9uTPvv7r6s5w4iz2FFZBWGRITGgN1xYnocVp6vzNtUsuoQrh6M87cmULCglUleCSV04094VCzr46M0nzCaWHpQlJkly2ncsVHEPH4uE4oKDs3H/3NZjQ+2fxzK/zHldit4U5f30KelCVjypV4DHe+QzFXjAjwoT/SiHY6768D8NF/2oz7l1N0IgvGXFxgQwcfV9iwvfPcLrSlD38YppdcT99f33689uvFvfkauHnfr5jH9/z74FcLUNwtev7a5L56+68j+b83c9NeATvz3v474DrBX6PfG/NcmlLp07ZJfwG7h1u2InnPdde8W9etXMjcaTQixdX5C++41vrcDS0YDiyCJZAjIQkgghZjkSlym15qe/SJG8ZM6FiQuMTnDhsEiKf7O22oFnXvXvbtUIxK2bprU+Iuc35SPwJi9wp4D4BdcfB0qHFw/rnAI8S+RR0D/gMnvkE2YF7sD6d99yP+XN8GHYSc15/J+z+WO737lH3nMNZa3BXij+Kgb+WZ/5e88+3F/Pn7YW7DoUWSQlLQ3xbCq67+IHAu3eCXXv5CdtgXGG/93m9vbZfU/iuAJ/fx4+PF3+O334lrmW/v95eYWnq7B/9XISfJcPnMg2zcDET48NYQuRH2HUOv8v+XU+xl7zqhx59A3Gk0AcgrokP/+QP1ec+9GGbXLpoSVZYB0lsguTFsik+oqae2Yt204iuSeiSmaAzoXJ+4zmcGDnrGgKA5XkL5dp8JPIW4woULaxTSnA5NnZz6/B7vT6WmWjP9sN3BQJINSOcn2fYQLlwHhJK7uf1ZwLingX+7v3eL3nMFdid4M+vu+vHiVV7XJc+QnvZ/Xf7fIyIGQJ3tb3he+E9vdsN998QON8LzDx7bduL+TYWe+EtYC+8u/EZt/0orlJHT/x1eS8fZh9f1/IMV2L+esTHi3e1z5HOwe+b8Ixer2c5MtAses+K3F0njCPXEK7q9uyOFzzPbvmWb72xQIrWoA9BPCbe8/3/Tz185IzVF85ZWjTWuC9ep1XuG8YVswSbAkwoRMSts8jcuJ9+k4Bdnx/jHn0sscUwhYuJI7MIMx83m0ym3A0thjUeMRENkQ1phD3H/jyJrWBCzotCHCjk3qdwVng2L6B7CjpCwV374RP0efw2JtxVmiA7tHO9eZ/36yTpo7bP+17w9sNb4LznvGARv+1KXG0/LrJ9TYoN7+e+hdm2+fvtxdXq0Hl/f13iw+y/L8Yh42E/rlRlQfzz8bre8V4sYaK7WvivFj/z4afvw0/n6sXxAP5dEi/mhJ8ACSDgSSd1g8Tc+RVfc+UAiSONPg7xuJD90qvr8+fO2KWL67a1uW7TKawJWBRxnDqJpVnsu1cFTniZENK2Lpzwsuj9un2ePUWyF8ZOGCKIM+vMI4gkE3K2xF9aWnLrtHSYIKZfroZCQgghhBBCCCGEEEIIIYQQQgghhBBCCCGEEEIIIYQQQgghhBBCCCGEEEIIIYQQQgghhBBCCCGEEEIIIYQQQgghhBBCCCGEEEIIIYQQQgghhBBCCCGEEEIIIYQQQgghhBBCCCGEEEIIIYQQQgghhBBCCCGEEEIIIYQQQgghhBBCCCGEEEIIIYQQQgghhBBCCCGEEEIIIYQQQgghhBBCCCGEEEIIIYQQQgghhBBCCCGEEEIIIYQQQgghhBBCCCGEEEIIIYQQQgghhBBCCCGEEEIIIYQQQgghhBBCCCGEEEIIIYQQQgghhBBCCCGEEEIIIYQQQgghhBBCCCGEEEIIIYQQQgghhBBCCCGEEEIIIYQQQgghhBBCCCGEEEIIIYQQQgghhBBCCCGEEEIIIYQQQgghhBBCCCGEEEIIIYQQQgghhBBCCCGEEEIIIYQQQgghhBBCCCGEEEIIIYQQQgghhBBCCCGEEEIIIYQQQgghhBBCCCGEEEIIIYQQQgghhBBCCCGEEEIIIYQQQgghhBBCCCGEEEIIIYQQQgghhBBCCCGEEEIIIYQQQgghhBBCCCGEEEIIIYQQQgghhBBCCCGEEEIIIZ5IzP7/cnYPWvpw43EAAAAASUVORK5CYII=;" vertex="1" parent="1">
          <mxGeometry x="120" y="650" width="50" height="50" as="geometry" />
        </mxCell>
        <mxCell id="bzDGTtf_FaZqw25zYTY--53" value="" style="shape=image;verticalLabelPosition=bottom;labelBackgroundColor=default;verticalAlign=top;aspect=fixed;imageAspect=0;image=data:image/png,iVBORw0KGgoAAAANSUhEUgAAAfQAAAH0CAYAAADL1t+KAAAAAXNSR0IArs4c6QAAAARnQU1BAACxjwv8YQUAAAAJcEhZcwAADsMAAA7DAcdvqGQAAKdPSURBVHhe7f0HnG3JWd4Lvyvu1PHECZqghLKQiEIBEAabCza/e30NxiQTjAmX/IGxzbUN9jVgZEw2JgsQFwwm2BeMhU0UQoByztLkmZM77bTi9zy1dnXv09N9wpyZOd2rn/851bXyqlVr7XrqrWhCCCGEEEIIIYQQQgghhBBCCCGEEEIIIYQQQgghhBBCCCGEEEIIIYQQQgghhBBCCCGEEEIIIYQQQgghhBBCCCGEEEIIIYQQQgghhBBCCCGEEEIIIYQQQgghhBBCCCGEEEIIIYQQQgghhBBCCCGEEEIIIYQQQgghhBBCCCGEEEIIIYQQQgghhBBCCCGEEEIIIYQQQgghhBBCCCGEEEIIIYQQQgghhBBCCCGEEEIIIYQQQgghhBBCCCGEEEIIIYQQQgghhBBCCCGEEEIIIYQQQgghhBBCCCGEEEIIIYQQQgghhBBCCCGEEEIIIYQQQgghhBBCCCGEEEIIIYQQQgghhBBCCCGEEEIIIYQQQgghhBBCCCGEEEIIIYQQQgghhBBCCCGEEEIIIYQQQgghhBBCCCGEEEIIIYQQQgghhBBCCCGEEEIIIYQQQgghhBBCCCGEEEIIIYQQQgghhBBCCCGEEEIIIYQQQgghhBBCCCGEEEIIIYQQQgghhBBCCCGEEEIIIYQQQgghhBBCCCGEEEIIIYQQQgghhBBCCCGEEEIIIYQQQgghhBBCCCGEEEIIIYQQQgghhBBCCCGEEEIIIYQQ4sAQzHwhDjxnfuWX6iLLrSxLC4LAulFotjm0qKzNqtoqa/yyrpxf4+uuitL5AXbt9kmA4/zyXhRFMVt6NLxOgZNrhAUhcX4Eh7tv+4uDwWX74zDcXs+jwI597dfhKkIIceMoMRFPCB/+xZ+qp6MxVKykKlqZF1ZMxpZPpjadTi2fZhbkEGYshzNBrmuIclVBYJtlbut0Ok5wuR1/Zn5tIYQxwdfbw+UjCngNiQxwrkXO9+tlgZPn1h/l43xcEA7rj8EPogSXwvqu+3t/MsZzhggD9tMPg3h7vYSgrxdTq+LEogjHh4HLqATIqPD5KPxZlm1vr2e+Xy+D0OKlRauT2JIksQRxxfhKOqnFcWxhHLntUZrY7V/8j/RbF6Ll6EcuHjOP/Pwv1Pe94+1WjydOpCnaMazkCEITVlDKsrIin2Ib5S9wAkw/gkJ7q5jCTUuX252YwcU43y1jPy1k7iPOmsb2CGJHwQtwkVE+wp5GYLm+l7+fINcQ3Jo332c//avtD0M+3ZX37xcOPkuVMw4g1szMIO7ol8y0AAo4BXp7O3xmaCoeOzsmiHh9nA/ncUEGPJ7nUdgZApZsVNhHsXf3xtbCBSWwEBmKEBmDOEVmAC7pdHHtyHoLixbg/Ajr3X7Pjn/l1+zcSAhxoNCPU1wXb/nu764fuuceK6cTW4BYHcO2OIMFDrGI8DklMaxGCHINMa/K3BJYoTEUhvJBXaMoGyxq6AyEB2ID8aBPjav9dldkzrvBQo9TnAQBgxVflQWEDAdgO+THClrC3cBwd2xrhHJegOuaRfOwfGfre/kVwnql/Vc7398vhMVdMTxQTPp+PYZF7tdL/PP76fOx0zqF7yIDljs9XhfrLtMSWI5MkruV+6ky84MVF5HIEGA9YAkEfay7eORWxB8LPXhcgfcQsWoC2/OK1QfIEGGdx1fIdAVhhAwChB7Hu8wCb4P7IhfgfJzutjETgaMZTIaOB1mB60yRoQgh9gUzcLjW0sqy9ZeWLewiU9DrW3dpyYIktbu++Et4ZSHEE4h+ZOKqXPz+763vf+e7rdzcsi4S6iANbQJxKCHYgzqymPo2B0uUGyA0s6WdbfzocAIEjhYyhcELHoWR6/v5/jyo4fb5ToCuct6V/EZAr/34/fxgFp7r8clOvOx/fcbPfvvn4+1Kx9Hnfefj71E+j5xLEVxeZUYTzGaDP4b7S/yZF3nC/Vyn7zIWwK+7cNCb0Uk6FqcJxL9r3cUBMgOLzk+RGYiSxLpfqqoCIa4V/VjEvrzxn35bbQ89bMnapnUziDfrY5PQMgjANIRFDus5yHeKz4XYDYv894OZmTJHZiJEVo2lAREyB3HTtsBltLAtguBnRWnDaWYZzqlZFdDp2PFbb7WlZz3LnvrF/1BpmBAz9GMQj+KRn/rZ+j1/9mc2KKbWr2pLLbdOHLvi8zyf2mQygZ0VwFrvWuEqYYV4bKRR6ur687qyAi43OFf1wvr/WX1/GLsGgIYMZRFENioKS2nN33mXvei7/qXSMCFm6McgLuON3/LP6tFH77HTncRsOrG0Y7CQppYHuWuIxuZV7CaWQtLTOLEprKf5Yloh5mHjuyvBtn2ugR6tdB4asWqg2cZMIyvxa3x3rMtnHX4GkR/nhXWXFm35rrttc2HZXvQd36YvUAigH4LY5g++4qvr3tk1uwVC3YVQ97qBbeQjm0DMiziwKI2sGyQWwiqPpxByHAPTHdbT7AJCXCclModsaVGx3gai7hsVOEGHiKew0Kn0Ob41FgaxEWMJY3355Ek79bRn2Fls3Ox17Xnf+s36CsWRRz8CYe/88R+s733jW+1UFdvyKLNOllsPCWxWTCxe6FiVIsGNQ1ckWo0LWO65xQVbVgdWQ+Ql6EeXq1vgV66SiaOOs8gp6LDFsaUpbqe+c3yBydbYOkmK41ILktgKHEMLvbe4ZMfvuNPKwYKdKTPLVhfthd8oS10cbfQDOOI8+KpX1aP77rWH7rnXurCQbl1dsWo6seH6uvXSxMoqb4SbroRFDmspDmGpJ10LYT1NIPoqcj+6XE3Qr9QojlQ+Nwiru/mOKjfwToR8QIjlXtJzRjvbamQVMpl1CVfbysnjdhss9DPjLasHAxuFoU26sNS/6dv1NYojiz7+I85ffd7/US9XhSX91FlJo3yKRLq2ThpbgiQ1qkpXxF7nSGRZhx6nxgFPWHc+yTNLcZw4utyooLM/PqHnuvPRNAcBxJyiXsPCT9hXHt9iDT/D/VhStHgCgv70u+38cMuiXs+myBisTfGtnjhhz/pGFb+Lo0nTcVQcSX7v735+fTqK7TgSySTPkapmFqVICzuh5VZYjvUaws2hWTtO3JuR28aw1KcREtseB4WZXUwcSZrW6Pu7K0HLmw3fInxEHJSIy9RzOu7jt5WkqStmz5DprPFdZkFhk6i0eLlvW8XEwk5ko9GW2WRiJzjC3fqmvfuHfuTKNxaipUjQjyh/+I3fVK9GocVIKANYPCGSzRA+6y2dzyJPOiSN0Xby2DRIKuAyCDp91Z+LG2FmkDuLnN/ablivTmHnd8ZW7vzmiihyjTQL14gusBjr7FLJHhhJXlp1ac3e859+SqIujhwS9CPIu37wVfXaRz5kXQ4Qk5Q2TCuXUJK0NOvDWO/nofXgEip4zVHIYB1BxDMmqFB6J+b6esSNwlHq6HbBIng6jkRXhWx4ySxnbTlEnZPRVHGzjXP/UMpLiDqPT5LABsgZhOcu2Lv+ww9L1MWRQknyEeQ9f/5n9qxbTlpaZ06kJ3FoeRjCWqLFHloKtaawc0hXbmPCCW13Io7dLuGk1U4rXogb4WpVNk2xPb7NAMLuvrfATXgTBin2YVuNDzhIIPaBTaju+DCXuqkdh+AvTsf29le9SqIujgwS9CPGn37LN9YrZWWDfOosdDZEopjDpsHeRtQjuGas8UbMi13F6wkS1g6uQbdTHC/E9eEbwlVh8x02Y9HPwPfHcerZaA5/m+8Ru6MqthQCnsAFJSxzrFucwkJPbFoVNs1zWO05jptamk1sqcjsPT/2g/pKxZFAgn7EmD5y1u5aWbLhmUdsMYqQ8DUJZ/MpUNgjyyniQWQZhD6nmGPdDb3JI5CoJjCEugVFXVa6uDH4+dAxs0hr3Tt+ba5+HZnGGFZ4BGEP8M1FOLDj/sXYj28V3+AUR9Nqj8LEIp7PwvlygsxAZovQ+/LCBXvHj/0HibpoPRL0I8Qffft31Mc7HTcKXB/rMYfQpDAXgcVIKDliF0V8Egc2TEMbJ4GNscxieZfIQvgp4j2c088rnLt3QyYhrgUv3myLQWvdO49r8V4hiwk/oajjG41xcIpMZ8qidhycI+NZwGdxfBfLHQo7r4FvN+rg2x1t2GqSWG9jZO/54R/V1ypajQT9KHH+nGUXL1qY5zZYGlhWsGiyqSv3HwKLPpnIsvjTtYebT2DhKOC+ZbIQN4rrXz5b9jghh/PfGovc3bKbCx/rbO8RNNs6ncStGzKYnLmtKks3CE1RNvO38+xekiIDG1p58ZK9+yf+Y3MRIVrIXHIt2sxff/M31emDj9gSFDyqc6vqwg3LGXD4GFje3jLyqd28pdQku3OJ7GyZ8LjLjxXi2nGZR/g7lgXnindt21xmk+3c0m7PpnlheRTaVlHYbc94unVXli3DuRm+XU612nyb/J55tSZjyu+SQ8aOpxPXUt7S1LYqfPe9jr3wW79TX61oHTu/I9Fqkq1N6+VTi8vCSloxePN03hpvktUmQaRjf/Qdd7mAs77Tny8xFzcEBLlpw9HghHm2vPNt7ZQaVSxPR66S+/hJcnjYCBlTinkDz4arY+dYFM8R5mjFxzi3g7OS4dDO/JSK30X72PkliVaTj2GlwOfc0xR0Wj9MPL1QC3FQYdc1DjDDYnbv/HZCcfeOW3Z/0r6I3qraYjbuhH/x3Hl7xw/9O339olVI0I8Ab/qX/7yuisKCaFb3iG0x7HDXsEiIA8x8Gw6yW9S9Xb4fPJ8izqOrnL3VzfqdrpvLP5pk9tYfkaUu2oME/Qiwcd9DliBRixK87rBJDEN2V0NqyDpxIW4WFNhGmveHpUoe1wAOGVN8xE6sd7t5a52wNMpnANhmhPMScLKXftqxxSix7tbQ3vXDGvtdtAMJ+hEg4pzSM4umrGuLoghi3nQHmqV7QhxoXPE6v+GZOG9vA16894KCzuOYEeBsgTyUlnoJ67yeTu1YHFl18Zy99Uc1+Iw4/EjQW86ZH/7ReqGoLYaVU1Wl5WXR1CmyDzmsFSEOA75o3VnbsNA5he+8kHurfLfFzm+dgu76s0POWSLFKVnZvS3E76HMtuzEILXBZGTv0ohy4pAjQW85l+5/0PosWkfiVZSZFVXuEsemyxoSSCVh4oBDYd72OcPadRDHzXz9RVE0wo4MAevUOQBNN+3gNzG1NChtoUQG9+K6ffin1E9dHF4k6C3n4gMPWQ+vOYCgJ0liUZo4Kz2KEgi6GsWJg4uzsDmzGvuegdFoZAsLCxbjG57mmRP33cXt3lL3+HMjiDgL3F0GlgPUQMCZwY3jEGKfWaeubDWMLH/4jL3zhzRLmzicSNBbTowErelLDutk1lfXF00KcRBpvtJdzMTbOax6xfWNOq+1cSePmz+Hgl8XJS5YWicKbQGWezqZ2ode/eprvKIQBwcJesuJrLAqLJB4NUXshCmVSxRhtUjYxUFgvzERfMM34lur+0ZxHgozz/Vi7YR6Jv77wV1uuuAgxj0Cm+I+BS7CEvqkmFr+4MNq/S4OHRL0FvPIL/wUEqTaTU9pwc5oWhRxzp7GEd+EOOhQVZ04s/4cYs7v11vq8xmB+eVrhUPD1kFiWVXbpCqsxL8U1vogz6y7tWHv+/Efu84rCnHzkKC3mOGZ80isON95kyZxPjWuu9mt4CjoSq3EzcRb1PvhS5C8Vb6fhb7fNbylzutsZwS4jH01kr/KEvwWYmyLm1EUkekNkSvoRbUtIQMRbazZW37w+64QQiEODhL0FrN55iwSqqqx0JF0+USPaxRzinoFS12IgwwFmCJew3GZOIGuKcnMqDZuXtSvlEnw8FoTWOYV51FPUjefumtEH7Dv+tSCamq9urBgY93e+R9V/C4OPkrNW8z44rpL+HzRukurZskSrXQVuYvDhLfO2QedODHH93wtxew+IzAP25Dk+FUUQYRrhG6gJc5xwKopFr1Pqwl+JBO7Y2XFEvyW3vOjKn4XBxsJeovJp1kzCctsnbhEa5YsuaJHWPBC3Dw4zemVv8Gd2dhm/tzsbL4o/Vrxx/Lb5105aiIHnLGytjrDlpJbcf0otjCMkYGIrJpktgTrPTt/wd7+Yz8uURcHFgl6i2Fi1Udy1YUpzgSssNrS0tw6k7PrSQiFeCJoLGeKKL/HRwu7H4vdtXaH2KYQ2pijv2G5OQub2S6EVUtwzTUaR0t73s3fh4416JxOOIVLcHmO8R4FCY5NLaw4TgN861iWlziytJV+asH6eXv3j/57ibo4kEjQWwz72MZlCCt95zWzbtGN4Q6nVEncfCiyV7CyvTW+20qflTt5C92762M2RgN+J43gE14fbm4+dbYzYaaCc8KkzBxsbNjFn/9J/XzEgcP/OkQLoXUjhLgyrvh95qjS80rth4t1JQRVM586SwfOPvyIvetHXiVRFwcKCXqLmR+UQwjxaK5q1bPrGksD8FviiHKcsa2XdtxQsuVwZG/7cdWpi4ODBF0IcaSZL7Kft9Y9tNDdPOwgxkGsx+8lqZtPPbpwyd73H1X8Lg4GEvQW4xMhIcTe7Bbv3fhSLop6HEUw2ANnqVfT3MJpYbctLdrkoQftbT+hfuri5qMUv6Wc+eVfrtnKXQhxdbywz1vrdPwN+Qlc2KCUjnOp+/nUq2xkpxb6Vj78iL33J39Coi5uKhL0lkLLQha6EDcG51PnbynP852pWC2Yzaee2ObGJUussLuPHTc7e0GDz4ibilL8lnLLl31Z4BMgIQ4rFFRnIc9lUOn77Y83u4vgi6Jw90vjpBmRruJws4Gz1NmLpD/oWlVkVo+GdjxJLVnbtPf+qCx1cXOQoAshjix+zHfvXw1f7O6W4QIIfMC+6cgEcHqXblUazHa795dfI1EXTzoSdCHEgWV310uue8eGao8HFGha316s6XZb6rvhrmYceSahoZupLbcCG0qLs6lN73tAxe/iSUeCLoQ48Hjx9mJOHg9Bb0T50cvXSoAkNAhjiHll07JAmGobJJEt1KV1NtftvT/2w9d5RSEeOxJ0IcShgELOevPHq+6c4j1vle+Ft9R9q/ftdexr5lMPOICsVWHYHBNVlsTNfOqLWM/PnrUPa5hY8SQhQRdCHFi8Ne553C30OTcv6vsJ/DwU9rwOLUc4ODNbM3MbMh3FxIpiZFU+smPdxNY/ep+97+ck6uKJR4IuhDgUeDH37vGqQ7+WYnaK9244n3oRRxB1s7KoLYGJHiNrUFeF5eXEyjqzJCztZC+1yUcftI/87M9L1MUTigS9xdDK8EWFu9lrmxAHgb0SpWbbbM/cfOiPB9fzW/DHNgJfue5zZV1B0AtXFeAyGUFkFieWdHuw1HEMRH6137PNBx+y9/7sqyXq4glDgt5iOE1qiTfM6c8p7lxnauKmQwczT4iDw/Z85jPLuardRChOKLHMmc44/Cq50dkEKc5+LvXHMp86qfOpdRAeju/OOvWijLAvReC7WMaPL+pazvBD47udwLJzD9gHfuY/8smEeNyRoB8BaE1cb+tdIQ4CEcTS15kT3yjOzYD2OEBRn3fXB5vEzWeM2TAODja5m0sdfoWL1nTYmyK17QTIhKxdtEu/9NP6RYrHHQl6S7n06l9GOqg0QxwyZv26PbSDfX05Ha1yX7R90BMvVyoWwjqv6mbsd6xzPvU8y+yRBx+yd/7of9APVDyuSNBbyuqXf2mgsdzFYYfC7QWcVnlVFM1EKYekwogCzpCyqqDGcyQIOceB57OEk6m94ydkqYvHD6X4LUazrYmDD5MgiB5kbXe1EIvAKeTzFrqbJIWCzvUDLIU+bL6UjA3jOJc6rfQ0jKwXJbYQQNbPX7AP/KRav4vHBwl6S1n7xdfUTPyEOGw0zc0aAihgY6FD1LFc5pkVZYZ1JF6QwYMu6kVROGucjeZY/M4wW97Mpx5MM1uJApuefdje9/M/J1EXN4wEvaXQMmBCKMRBhgLnRG5mqe8Fv2VfxM46dBZfUyQPsphv4yZvacTdTeTCVvozv0bmJA4KO9aLbXr//fa+n1Hxu7gxJOgthXXoaZrO1oQ4XLC43QO73BW3U9RZD01hdF3XGpWcHXUw8e1YXGO+onQCH4eRm441jSM8BzIo0y1bwbb63Dl7/8/8rERdPGYk6C2GxX1CHGwut8zZ7Wt3spQkiWsMRyHsJqlNJyMrs6kT+JvNTgnD5TBDMp8pYYmCd85SZ6YE28uygLDHttxJbCWIrDp7wd77Myp+F4+Ny385QgjxJOKLzcO50d+8EDpRnDUqc3BAlxoWLSxdWupsQb6XmB4k/LPsHjrWr0aIgLrMrUAGxYrckjwzW9uY7RXi+pCgCyEOCHPJEQUezndZ2waWbVFkrnFcEt/85MvXj++GAu6dt9YfJeo4L4TNzkxLxowKMiwxcijhcNPe/wM/VL9PY7+L60SCLoS4KTTWNRu37VI64MUPNvlM0HcmZClyWLTTbLt++iAwL+q7hXte2P0+f7gbHoeZlxDxkMbWgetGgUWjLaseecQ++HMSdXHtSNCFEAeAXSo4w4s4LfVtQS8Km06nrh76IMPQzbt5UXfLSH4rPHeNjAnnVyjxj7mcFG4QmS1z25mz9uFX/8LBflBxYJCgCyFuEruSH6rdXF06RY8CTkcxD+GSKHKtxTMI+o1OznKjuCLzmduNF3Dv5re5x4Tj3C0FBL3k+O/YUOWFVdnUTb8aQ9y7uPACJH/znnvsw7/8S3vcRYjLkaALIW4ucyLumFv3gu7HVODoh67OOcsOTS8OivduUfcud9Z53GQOCtjrbljbElFQWl5lyCxM7VinY6OP3G/3v/pXJeriikjQhRA3F9+XfK/WZbTO4bnidvgR/kQ1hC/PrS6akRDnBfJqzB87766XvYK6G2+5e0t+N9wUQNA5Ch73s9V+EseWcCrWcFYqgaeOkHFZxLFr995jH/r5X97jSkI0SNCFEDeFZv7x2rnKKSRrlBvnobDlVWlBTEu9tnw8tqisrAuLfev8eUvTxIoA+9PQQhwzyTksbGAdWLVlXlwmvBRuV9Q957juLegrCTyvM+98wsln2Gsedf8czHy4DMhsnc7Pr+6WS1jheL4QF3UlEbg2x5/BQ+EP1rHM7Uka2SA2mz58v93z0xpRTuyNBF0IcdPwgtiI4aPxjeEIhS1CikWBZF1zNhq6dW4vM1jsEPoYFi6Pp5hz2Z23h/x5IffsXt8PJpi7E829zqPFvZ/zuHWK+uzZL89I4C6u6gF7sT3AM0WIpySfWnDpQnOIELvY/W0KIcSBw4s6u6pRwIuisPFwZOWksE4dW5jjmKxyU5NSwIsscw3odmjEMYBIchCbqGqcx1veV2P/rMfjRRPOedyzQ8zZS4/PPx6P7Z5XfX/9wM9rmFhxOZd/OUIIcYCgeBOKmhd1Nozjdo4YN7ywZilMWE5HyklPIhwScR+OLWfHewvaW8juGDhuvhYRvxLXYtXfCLw+u+expILDxnIYXD5/Np7Yxtmz9tHX/L83+ASiTUjQhRAHFgq3F3Xf0p1WKkWNY7uvnztrcZbbAhuTUfQ5mxmEj8e4mdkCFlk3xdYNjZVOF81M7cci6o+7lc7idThfAuCv7wfP8VUPcRS4wWc4uQufd/jAA3bPL/2KRF04JOhCiAMLxdwXs3srfVvQ4SYbWzaFY5evFALPaUkdFHTWtUPIqXZ083XUvi57fgz5gwifdVvU2e9+lmHh3Oop/F6e2/o997j9QkjQhRAHFlqmFHMKOIXNizodi6ITJGGbFy7aaHPTOjgmggVbVYUFEaxdLLvW7EjlKOZcptyzGHu3uO92u+E5e7kbZmaZ73VtOv/8XtQ5KQ1FPahKi+A6dWGraWRv+3fft0eoxVFDgi6EOLDMF7PPF73TcerRbiexrc11CPrWrBiego5zAoge1tmdjEp3mUi6qxwOXLUBMi9uZjnEgctssJQCmRmKeieJLSyn1kFc/LVE/cgjQW8xPgEU4rDCb5iiVsxGheM6BY6wW1oj4IVdunTBNtfXLE1ji+LQMk5HCjHnvpojr2G5kfJG7CnzLJLf6zfCbXQ+E3Ej7mqEbJUfsJHfjmuSZe+aZ+AMcwbRZsd0CrnroA6ycoL4KK2PeFgNI3v3j/yoRP0II0EXQhxaijKzLkS8zMf20AP32dkzD1s/TWxxoW/FZGJJ3FjtIQScdc8BTFwKLUuwm2J8impj/c6LsPfni/ifCMfMCksU/Drx4aDzYWMDwAhWOsPMtgIpGwEi44KsCjImEPl8ahGeN760Zu//wR+RqB9RJOhCiMMJi9Whuyx25gAzw411Wzt/zg0404N4L6apBRks2zy3gBZ+kVvF4WJh6dKqpZWbTzMrstw5DkbDiV/oWCLgSwUI69z3cldjXpz3cs0x0fb1nEDPuZ3qhbIRf4SJ4SyyqRtMJ+10rNNNkIlJbRnCv1BUFq+t2Ud+SJb6UeQaPklxWPmrL/ySerHKLammllZI2Ng/p25mdyrw42d+zg1LqZ++OKSEsMDZ3xxfseX4linBcb9rqydPwZ204XSCT5516RBM/GksYW95wwL2o8nNCSzh8Vx39fFgP/HeqwHd9dHc3w0f68LUXND7HTwfl/kbddYX684Zfif3ZiPLXf/0Lv52a1jseWlZWdmok9p0qW/P+rbvUBp/hNDLbjESdNF23PjusMDDOLEYVuoYFvfWZGy9xUU7eetpW1hasTqKXat3+vzmS4g0x4cvIY7sp07qeTGHgLKOnT6LuMluQXeCT5G94d/OTNDdX17XLzWJs6svp4/7cMCcZhx4t2nbqkc2xXpVaF0WzeP0AlebhIEN09AerAobPPUue/YXfuWuJxBtRC+5xUjQRbupLOZnzJHUIGosuvbWegHRLvBdrxw/bkGSWtLtwPUs6sCWjVMn8OzGNmGxehhtCypxRdz4XVDQWX/ttu1KKSnoxA9O89hpBH07QzGr498ujmdDOMCR7VwbAISUFjl/szwmgSXOKoJoymqFqatimMIfl6WNEPQPrl205NZb7NO/94d3PYFoI3rJLUaCLtoMx1WLIIBsMMZhYEv2z44jS+KO5VgejibmpiFldzYKOVwMYQ9TuE4ClYwt6vca3zWQw28CzhW1uwJtc/OuEy/oXsg9VxN0L8z7s9tCny3MtrCBnytyZ70/nsn3Q2+K3msbboysZt3/dGzldIQAT6wscpuWUxvh2KzXsVG3b3/rF/+z0vojgF5yi5GgizZDQa8hdNBsWK0zS5qCV4cWwiqPktiyHEIPcS4ggk0dO75/HsqGaFFgcb8PAz2xNE2diyCg7A7XzFMeWB/7Pbut9GvhyoIeWMq5z1mqgGAXdQExxjJ8X3dfIkNBEWe3tWKaWY51NuCrIOJs12c5n7dqpmDFbx35GUtgzvO+OR2ufxbX/Izf+G2l9UcAveQW88Yv+rJ6UEwl6KK1NKOf72JuONcdEWbHtZ11bwnD0N1uTU5hJRRD341tMBg4322DWvpuZH5/3IWFf400wr3Tat1Z3gUFuXTdyos6d4JeQph9eNgK34eLPuvPeV/CIvgImRH+fvk75hNWAYQeu5ufOkfL69gZZGZe/l9+czsmRHvRS24xf/n3v7heQm5fgi7E/lAovSNewOnY4G4/KJxsaHe1n48XYHLZveCcZT1Lhn0mwTvifR82z/Z2V6NeW0xrHWJeuNIHNpxjVgcSH/bsDDIML/0v/2UnEKK17GRlRevwxXZCiL2Zt7j3ct1u1zrs6w3HInlOX8oieda5u3p3yGkIcb2a42QqdAnOTXENuk7SFPN756/tr09/rzDNu93s3qI04GghQW8xPhcvhLgy3ir2zuOLvgm3U0S92M67BJb6fr4T/2B2Hkd8g+/303HdizPvVxSFKxlggzze24eB/vzybqt9L67lGNEeJOgtZj5hEkI8Gi+M88Ln17mP4uoFlv72iG08r4TA5s3Ibfv5rvX9bN2NSMeGbRydzjts89fmNQl/ty4TAOfDslf45rftByd1YSZi7VdeLWU/AkjQW8y1/OCFOMrMi+NejsXg3nlr2lvUdJyTPYFg7uezaL3LonX4bNHut7PonY7XmrfU55fpfInBXs7YvJ/P4P7ujQsjrneltgCiPUjQhRBHnkeJ5Qxazd5569xb7d6q9n3D9/MrtmjnGPHwuY6cQrN/lmmYvy6L2afTqXOTycSFYT48nr227YYt4nl9wtIA0X4k6C3mWn70QhxlvIBfi9uz/pxF2nDOEt7Dp6AGHGIWvh+ylb7f79axTMdrsySADeTYCI8N8rzo7+f2w/dcYSaBmQU/QI5oNxJ0IcSRZz+h3L193mJ31vmu/Xs5Mp8xIDyXQkvmj/XX9Va7Z/58f41rgS3sWRowHo1mW0SbkaALIcQhp76Kxs9nDkR7kaALIUQL2EvUnTUPy5+t6UX7kaALIcRjhEPJ+uFkH6t/I+x1DV9Xz11+mY3sRPuRoAshxA1AzaSwXq//ZODr2yXoRwMJuhBCPEYozo/V98s3ypUyBxR0NrbLJxL0o4AEXQghWoq30DWwzNFAgi6EEIeWpn970yAunPU/D906Z1Ws3MxrOKZQK/ejgAS9xfg+sEKIJ4bAqhtyNwLF280HD9F2xe51aFFFUQ8th5jnSN2zOrc0Cm2hurF7icOBBF0IIQ4tFOpGrGmVU8wDiHoFQS+RujNLH0H5Ywn6kUCCLoQQLUeldUcDCboQQrQY1zBOFvqRQIIuhBAtRxb60UCCLoQQLYSN5thWLsRfCfrRQIIuhBAtg0I+T8152EXrkaALIYQQLUCC3mI4r7IQ4ujCovYI9no37djmL/+Syt1bjgS9xURRNFsSQrQNP12qn/CFzE+h6mZaKys3FzpdnmXNDtFaJOgtJgz1eoU4yvj50Cnsk8lktlW0FaX4LUZF7kIcbVhKR1Fn5r7Ki9lW0VYk6C1GXVWEOJo0k7TslNJR1ItCgt52JOhCCNFSKOwsqWPmPlMdeuuRoLcYPxeyEOLoQjFnSlBkmhO97UjQhRDiELJdrM4Z1ppFN+8aW7pzWtWwrixACh9wtjVsD0oVubcdCXqLUaM4IdoO5z+nqM+K18MKgl5ZBDFP6sKKYmJxZBaVuU0212fniLYiQRdCiEOOt9bZJ72CoAe0ztk7Hcu02ynwYVk2B4nWIkEXQoiW4nu60FeJXfuRoAshRIuJgqCx4CXorUeCLoQQLcUN/zqDw7+KdiNBF0KIFsPuqypyPxpI0IUQ4hAzPyHLbnwdOpGgtx8JuhBCHEKuJOTzuG5tXKjmyt9FK5GgCyFEy6DWU8jTOHGzrHW7XQ39egSQoAshREthkXtEeYd17vuqi/YiQRdCiEMOi9/3K4L3czpobof2I0EXQoiWQgvdTaFaVkrsjwB6x0II0VK8oM+3dhftRYIuhBBtBUIeR5ETdNWhtx8JuhBCtBg/sIxoPxJ0ceDxjX18w5/dToijyLzFzVnWCId6ZaLezLpmVroZ15qd88PAinYiQRc3GX6Cj3b1nGNzHu8/2l2byLuEbg8njjZ7fRPX4242nBaVU6WWAVyIXwTDhR9Fid9AFgVWJYmNi8xZ6ey+du8v/dwBCLV4omDqKVpKFEWzpcOPt0DIbsF+LANa7qH5Qhw6dteL+4xGGYRO1GmduyL3MIKg19bBX9FeJOgtpiiK2dLhY15wfSLlHROx7XXuh+O2ebcbXwTp3R6HCNE6fN05RZ3OdWETrUVvt8Uc9ukSKep0ZN53ot6s7ivgV8MLuxBtxk/I4oX91Jd8mb76FiNBbzFxHM+WDjfzIr6XP++uxpXq2YVoGxR012Wtqq1CBv/ca37pGn4l4rAiQW8xbahDnxfq/fzHikRdHHb8N3ylb5lF7YTifthL7cSVkaC3mMM8//G8kJP5+vF5t5vd53lklYu9mG9X8VjcQYVBY+IehSH8WcO4maUu2osEvcX4nLkQ4mjCRnB0Pi3QADPtRoLeYg7Dj5eJja/nY51/kiRue8G+tXNt0b2FvdvxXH8+Ha2mOtxp0UvfLcNK8ZbKfOLm1+e3P5n4+/qEdz7xvRb8+fs5Hy9XOpb4Y3h/VtXQcflmMx/2eXw4/fPt52428+HYHeePN3uVx/lidleiBes8m0xne0QbkaCLm4oXDyZ6WZbZeDy26XTqEiK3HeJ8JRd30sYhMxDEkUsseS2fkE0mE3e9PM/dNpew4Zg4jCyJYredrigKd/y8CDxRCe9e+ITf398n/AzzjTifSSBc5zPS8XnpiL+v38/tPl5uNu69zuJhPo4YRn4vPp4Og5tnr22PlfoaL8P78f2K9iJBFzcVCjgTGYp3p9OxbrdrvV7POvCTNHU2+pVcVuSNKyFQFcQKlj2S/u2Ef3Fx0RYWFmzQxTXjxNWvVwVEa5o5oWeJAB2Fwwsfz/Pi9mThw0vnYQLMcF3JecG+kuN16DOOeQ6f18e137efu9nwHdDxfRA+Q4rvguGnm4+3vRzPu5Lj93Ijbq9rzrvd8cgwPZlstymBdR5xsJkDkEkTTxwSdHFT8aJEfOJN64tCv7Gx4dZzCDVdVj/a4WTn6minqHheuIbDoY1GI2ep06JjIhshgWNjoQRWOgWNjvjlefdk4BP53T7xcfJYHePS+355fp8Xnvl78rkPiqAzDP6dMowsNeC3Qcd36sO5n9v9Ph9vt9c95x2P2Y8r7bte6n0u5e/BuOMyfwOivTw5KZa4KbzhC76oXrbSkmpqaYUfMsub8cvnsJAFEhvm55qxoJvjbwZplG6LCxOdMJnVoyPxYR26246v1Adxd8viGI/hHosJ1sxvlpt1l7DSx/V84rZ9HFanSOBYdE98AuwdodjdLObDsR9X289nIl605x3h+fPr/ni/za/fLBgGivl8uAgzbNzODNuV8MfvB7+BGwFfzGxpb3xGZD+uFr6rg/eKIPD3zDHce64WpbJpjMwgNsQlf+NwZcfWOokVz32Wvei7/9UNPrU4qOjFtpjDIOgI3raQEieuWJ7OitJdsSq2u8Zus6/Vi7orPi9z5/N8Jq7ej2bXC4pGkJ2gz57Td91hhoH17v56uxPXG09sr53t55/dkz6d374fVwujz5DMx/E8FEZewx83Hw5uOwiCzjDRMTw+Y8Jw7fdM18ONCvrVfjvMrPrw7w7r1d7dtXFtgh4WqW32u7b51Dvtk7/ve2/wqcVBRS+2xRwGQQ+gpmmcuESJddqj6cQKFglDbFlHmbNYGPu4f1t4G899vDH+zDY3ljhFHb4X9LBsBCGGpeQawsHRd4krG9YlO4JOdieyuxPhxxsvWF44ue6Fi67A818JHnMleD6v7a1cOt7DO9ZH0yd+v39mv/1mwgwdi9n5bfBZ+LwUSRYdczv33wj8rm6Iq/TrXlpacvHp45/L8/F/49/XlQU9qXBffOAU9OFC387fdtpe/u9f9cR+1OKmoRfbYg66oDsLO6ssShIbR4FtwCLPk9hWbr3FnnLHnbZ08oSVkxxWO8QNxzPhmhdfUuP8qmLdMOtXp1ZmJTIEmZU5UrYSgpjlbsjLEn6GzALrXV3LdwiCq0suMktwzTSIrBOF1osS51P0XUk8rs0EksBGdD7DjTs3Px4EyoeLU7w2IOHGMc1xs308xu1pXoMrVeA+iibux4S9SewDm0K0hjh6jAOWTiAO8L4CXgDMLolzm6Uoaob39ffaIcR9cUdYZwF2eiEpy6YFO+ODz7926YKbVpOuh2/CP3+E+0UIKM5uAuxopudELsxtYpAYNj4X2yWQ+Wcmft37PIeLMBwd/tLN/lmYHT6uQ9tCfGzgG0mWl2x15Zhr5Mh3U7A6xsWij/fmnFlUOa4mmP45Atynds+14zfXu7Jf+wyVO34Hxgrf0Qff917rYHkJ+9OIh82EvEKW1ZVO3ejwzI2g4824ECWzdpx5hN8FniOuG0Gvi8imi0t29vQxe8V/+KErR4o4tOjFtpiDLugUgXBcWg+i9aYzD9nG6pJ93td8jXWe82wo2SpSJYhpyH7pSDR9eum/2JkA7OyA78SA6/D9M0HAGj83KLrZZGwbwy3bGm8hszC26bmzVl1as61Hztvw4UesOHfe6s2hxRD8COccWx1Ab3k9ZhCKRvyR6YhxgxoZhgAZgRKisY5MQg3RGQyWbDLEfcaFHV8+biPcg+KVw1HkmNDHuFynYIKPIGHdtZbGcqfTQ6LfsY+srVt59232iq/8CrO77sQeKEGOo/HeXKRRpCgkyMQYMh5OTHYJynZ8UDAYft6BLxpC4uJhPDZDBucSnr8YjmzzobN28cMftY2P3m/1pXUb4BaLsN4X+h2IJ85BxqYopliGVQ81pdDnWL6YTVy1xXLaw23Yzzl31mjUadpGBIgjaIsTGoawQFgyBHnKYOMejAv3HZQUtsAKlzNgWFmVElgS9u0tD5+1p37xF9hTX/4K6z/16c2FttbwIno4mRb6TBTd+9/FXtuIjy/ezvmz+Jr33Vu5io931zALAx+KF+X3YvjmPvRee92v/b+29oY324ufdpetjS9at5fYdHPTlvtLluNn2VzrseFuB5gB8ZkmhovWOYnxnQR1jM8lts1O19ZPHreX/8SPzc4SbUMvtsUcdEFnYp5C6cZxbO8PC7vjM19pz/2Cv2dZ2rE6HlgA65NF5oQJlJvfeQYtt8aKajZyHxO3ecuQFlKXRZ3c5hyFE5Y8nhnyZEFRWt+JIw5mXfsWRO7hM2b3ftQu3nuvDc+fg4X1TquzsSU4ZwEmVh8XiiBaMcSK4s5SgbCbWv/EcdtCJuDs+Ut26vgpW+4s2AMfvs+Or666sBUIamOVNq3sm4QW4YzxPnDtEoGntRbVqd2LTED44ufap3zLN5rBIi2RaYiKBG8ysCyhTQpRxf35jDX21XifLv3G+mXgvowiLzm01GF/uoxJTYfnD9mqkNCyG0GAHjlr9r4P2H3veJudvecee+S+e6yPB13u92yl17Eei4qReYlzhDmC4J5etbXNDehvCcseooYX4EoDcDkWi6d8h1jhuyZ8j4wLijqPifHsUYXvsEzcu8MijkGmgOYrj59Edm551Z7z7d9snec/z6KkCwsX5042LO10bJrFLn74lI248aouGDtsC3TzXezQVM9ciVns7ANODiDcuDaeAuuNqNIldY5rI+MUFfbg7/5/9tFf+227u9e1C6Nz1usmFk6mrvrHatrvV77LleAzu+9o9nzEiznjJOF3hrAVVWJbiK+NY8ftZT/54/OxI1qEXmyLOQwWeieP7EKR26XTx+xl3/j1Zs97DhKf2ramEC1YrCw2JywG3S3oLuGcWUZezP2j8NCQz0YrGr7bxhMgNkxHWczN5Qkb1eHoDhNkWsA8ltYvLVlaWaOxTd72VnvfX73J1j5ynwUXN60/zu1k3LXjS30o0sQ2800b0tRKIchx6or0AwR2pTewagJLn7eFY/idtY5bUdSY4FLYY9yfiTpvCxPV7ocF3f+Uj7NP/PZvxfOENpoJeoXwUdB5XgfPVUP0CmRY+NxNBscn7O7ijajhGZl5YTEvz2MmpGl3wPVZRiMv8H1U1oOlDXMbG/DcW1tmm+u28Z532wff/Ca7/53vwXNndkenbyuIq0WcGOP4jXpia/kQQhtbp9dzVR8szo+ZycAtKO58Zt6Hj8f3yPjwceKLt/cT9K1LyBQ89/n2zO/+LquPH7dRxpNKxMfI9YbIcHF+z4T325M5QWeUeHi4+2a4fx+u9NugcFZhifvzqog3WMKsGonx/Sb4djr43bkChLe/0/7qVT9hJxHPw2LL+p0YGUP8BqeZ1REyarPwPxauR9A309QJ+sv/00/MR4NoEY/9SxLicYCDwRiEobe0YHbyuEtxKQ5JJ3V1pBSEKzmXWLsEeebcOos7m+UA6uUaI2GdReQVhLec5lZBnAoIM7IUEMWOTSBkHBQzRwqZsegYCSGMTiSOsXVf9mn2om/9Tvv0f/sq+7Sv+npbeuFL7N5wYG986JK979y6VZ1FC5OBTYYQmhpWfHfgwsaGfYQZixTXYoOlhMHC5qbYObQprGQ29OLxDCdhUbUbpW1uu3/e3a6O8FxwZQxhiWsrnIPQw6+gmnQBz2cmJqS414anh9+U4oeweJM+4r7fR8YhtHE+hkgiJhZSs9tP2tLLP8k+/ju+xf737/w2W3zBs+29Wxv2AMK8hczKJfis80+RjMQhBBnP5t4Zrs02CS7WsUIxZxH7OGmemxkbBNFZ7bsFE5sanxcBfEYH4iNHxo+N4wi3F6w6wLuGNDrHp6Pz64x3lgDwPs6HY/E/7+mc+0YQE1dwddg4vzzvI9eG76NoRJ0+tpVYLvg+8O25DOhohJfesfFoioxTZV1kBHlqFxmAqMmzPCn4eGwydqKtSNDFTYNJC7upUfgqlovTah4PIaYQRlhfrJulCHnxmne+XzkTTtbLNtbSLCGFz210ORLdDCl6xRZJsKDjDpLSFPY4LOkYbsqEdoJEGolrFHacwIWdBSfS0+4iMhmnbRJ3YFkhFR4MzD7rlfas7/wW+9hv+Xo7+XmfbQ8vDOydD521URHbsdXTVo1ga08rW+oPbGNjDU9IiWJjspnDKi1JWt60uGM8pxds+rQ66Zy4UyHn9j3acTsOYTRxmeINMXHbvINyMVr9ULd+MJ3Gsgvt4iPnbbIxgdgl1u0MLO7i2dO+TZPUSraAX0Qc8N286GPtU/7ld9lnQ9zP33XK/nB41j7AXMrKkvV7C7gHBB2CFULFOhCtGDdnpmRb0GHANiUTbHSGZ6JVzqgBDIsX8N0wLpwIMYMDfGtxt8yiBtYVBDnEGQ5+hHVa9yx5onXqSkDgopmblYU4x2UeF+H6u10zjsGOY1XFbp/XYCahuQ/Pa67H97ydyYzx4IxHZCZZ/dCFuDOeyinPx7uYs6yfKPi+PVfrFSEON0/81yTEFQhgjY/yKUQcgpnChEMCOIUVTcudlroTfaRHdMT7HooDt9EaYlLljnV+YyGNy9wmuDYd2x9lSIxpgbNYn8PFrhxbtE6f9ZilG6RkY2PThmNYqUj4aojHxeHYig5s0NVFW+tGsGIRzhNdW/n0j7cXfN2X22f+46+2Wz7u4+1+HPcgrXVYXlVWI6MwtmWIYZO5oJjBh/NFzDEUzFmOuAeh+BWzblkULAoX46LCNm7nfu/m1yu2Vp+y1frUtegvsK10rf2n2IdtY/jYz+IG9slnxoWFInSszbjt9K22AEGeTkrbWB/Z1nBq06y0CU5h2761UWaTAKLKtgwQhv6nvtz+t+/5V/bSr/gyO7vYs7c9/IA9sLnurP1ut2cJJXWa4XYQPmSg2BjQWaqAGZmdovbGzSdBzfrl5Kzr50KnYwmH7p1lFBgHDi+c3neuudfll2syULyHP4rXZVhcJmuXYzjnHY/b7bOUoYOX27jA0pLvlQ7HwHdiDTG3ssT92LodWQi8X2oqMylxhH1PEi4Th3vKQm83EnRx03BWGaw/JtlI47CBKWTqttNq53CvPhHa7diQzfkECaerU8ciE9rG6plZwL2ehd2uEwS2Qq/Z5x2WUgVLlcPFntm4YBvTNcvjzJJBaAuLKSxOWFJItdMqty4twHwCAYEwBhC3cGrr1cjW4DaLDet/+kvtxd/yDfbiz/0cO4fwXtqaOIuVRasMI+uPp3FtoxQO+RWKO8PYhWD2s8AiiKy3mprEHlkLCIB/tnBmsbO/OJ234Lncg7U3CDu2EDT+IEzhEuthuRfBeX/mutifYD+LxxOcm6ZdG0Pop3nhGsxz28JgxZbgBp1lWJMDiP0xq6sUmR0cN4KI4hq2sGxPfeVn2N/9hm+w3nOeYZuLA7sEES8parg2XpzLkDHeWSfO98lW7h2cTkdBZLy4hnGXq+6joHA7i5xtBbDOTBjFkcscrwBX52EzcNwsSXPfkHOhKxXI4egXfh3vvqm75rcTPMpFuAAd68T3c3EVWTdLrD+Fy1K809h6eYRnjZ2wU9StwHeKDCKfgSVPY/bc6OAb5PgH2I3LPKls/2ZEK2m+fiFuEkz4Y1jmdDYaIiWGZY7Em9Y5+4q74kI4+ns6WIQsunT/aiSmziGxdXtglcAMpUAWUCyKQcZ1aADFnmXV/UHXEljeLLIua45ON7UsH8EK5EAmGdLeGBYbBBaiHs+KdwvWMSe5pSsDm3D5xDG79Uu+yD73H321VcdW7YMPP2LjDAl3wC5tFJDAJjFdI2KE9ekdXI7h4/NSoDlZCkduI07kKVi07mYiTzcv+nQUzxCOPaQqiMeOQ5ix3zUKhKshJGyElU2nNoElP4abQsxLCCYH4ekgk8A+7TmO2xxnNoKJPs1r20QGJYr7tnDslKX9VVc8X2xOYHn2LXru8+1T/8V32e0v/UR7YDK2+9bWrITV2R8sux4KGSxpZrYo4Cyd5/PSZ1E7xZaZm3k5JrsFjpkXFyd45ilLHvBMfmIWwm6D/jtgfLPEpoJ4VkHiMm3esUU+XYH3UMFnFU/FUhB3frKnq+nbo51dth3hqDvIBKSu2iKs2VOBLfuxj98Yvju+r06/50qjmHnl7IAFbj3Kplh74mH8iKOBBL3F+LrGgwwTdFpTHOqVVrSD4oqEmyK3G1q3/qlolbuiYFi5HQh5J0CiOoVlOMa5EKMUF2YjNAoIkzSXsME50eAfWNAsjg6yurHKIEIGC76EAFBsnBUJkWcoY4SJXdd6cH0Ie4eN67KRlQjzkMJVZmZ/69Ptk776y626/RY7S6s3gYWK6zIz0V1atvNbW846DGNkIBDmhQhihf1M8ItZMTotKJ9ZYVid82HfBUWsYjEvu/hBXHI8B4v8wyR1ghpwkBiEz9XZ47r8HlydPYTFcAwzUQtpxwLEQQYrksdQ6KbwObDNFIIXDAY2xvmjKcKH+E66A5zXa14aWw1CHJ/xj7/KPunv/V07C5E6g0zYOsUXmYpO0nPPmSBqujg+zErr4X5dhIn981m5714DnoX+XjBMjBt8DC78zPT4CUYYJzWs5BrvvkLY6JAd3HY5M1TIDOR4jvXhyJXMMFPH0p/xdITwpXhedgdkVg1ii+vkMJsz5DYmeDQEF9tCxAfjBNsQUPquph5xW+H9FhD3KsS5CMsUz8BG+E3DyqqZPIj98XE/ZmBG+RjnIgPVjRGeDUv6T3yRO+OI35f/fvb6jkR7kKC3mLbMrLRfEkRNqSEoLL6cVoWNIZjRoGcJXARhYl9x13gJuYCarZNdvXqOBJZ1mvxXuyJopMg2gVW6NYJlCiuWiXgUsc6WYsiuSBBh3IyWJjMHrg6VAcB25Bsg6n0rVhawAcL+ic+3l37p59twsWv3r69bf/GYE9uLF9fs9OlbnSjlxRTXh1CMYeneIBRwGujsix1AKAOIFFuxs3iXI+itr19yrcFjCGOMuEoRVx1mKCAsk+mWrV86D5GNbGmpD2FkS+3aBgsdWxxArBB/rt4ZR7NrVoGMTg7xyiCMJR0bLa6supbct3zB59sr/sEX2oO47iXEc5V2kceBgEPwFmi1R12XsViDFc+SF05r60oY9sC9V7h5f2+YfPEghAPx4Ju7OYFGeOnWNjddnC8vL1uCOA+QaerwGSH0JQS2ZsaMzwnRc1fEsSwx8dUaETI981Ud7DHAY1n6MJpMbILYGSEIdPy1sS0BxZtBonZm6xctXcD3GDOThu+tkyCzM7Wwg0yBi2932ycMl0mbezY60V70dluM/yEfZPgBMqGn89AK34vdHysTwy22Yu9GlnVC2yohkOXUpluXINCbSDCxDgHn4B507N9cR5DzCIk4HAV+DIs+TRZsZemYLS+uINFfQCKPRBsuZjFq0UHGAAl7BWvKDQKSwBqDaCIjQHHrhF3b2hzZFsRtvY/MwQoS7894mT3ncz7LzsGaP781tEEP4rWZubpuSIoTSmerJUhsbyBBd8XLaWwjqB67wFXd1LUmH1awuGs8K55veZFzy7MIGDI/2rRia93qbIRng7AhZ7KyOkBIJjYcrUOKES9wEwjuGBmbBNd3pRvufVDUm+5nbAuwiejYTENbn0zNTt0Ciz+yY//n59nL/+EX2QN4J5ts6c3MEHaXw6nLXCa9PixtZAhgubLFfT66vgwNg/EogUemimGjkCPLgjBCKFnCw4wIjqOQs46lmgwtmIysCwu9jx2LyOwEyHB1kPGhjR4hzkKWsrAKBa7MxlbAii9wXoXlAPtwdesmgfUhxnSM17JT4/urDZ8JPw9kqhCctIKA186lPUQU3k0O8edQul0IOqd+JU+GuFLQ6Tzzy6J9SNBbjK+PPehsC7hLsZtFbrua1nGsamiujesprOqpHTu+hMQYQtVPrdtn3XhsXQhXH24AuVqAo7+ECy9CdAb4+pfZwh0W7KVLG7axtuW6Wy0tdCHUsU02YdnCeo/LBC6Ci52wBxWt+gRWOxxUrt/p2ToS6UkS2sPToSHVt9v+9ufYs17xMvsQR16LerbUXbKtC2u4RuAS8hEEIoIlzK52jxWeyaL1ApHF6gFGWMHiaYgW9KYZKAZWtYtU7Iu7HevCDSB4i9i2iPAGFcKdb1pWjlgKD2sd4o+4CRGPWHUDztC5ltu4jM948X4UzQxxMppUNqR6Mj4/+zPtFX//8+2+rS27gHiNOl1YtTEyDE3DsMXlJWS0atef3LXkd0/R8Cixnme/7bypF/X5Y/Bt8BsKYYHnG2uWIuPRQXgHFFEOmlOU1kMGI4blnEKkO3juDjIo3QTfDPwBhHeAjOIC4qqP+OgiE5JC6JNsYslky9Lx0DqTTUvzoSUFlgtkkiD86WRsXexLR1sWsQ86zs/uu9eKjXXrMoPE+MO9kTfA8+M7eoJhnPtidmbwWa0j2gt/UaKl/OMXfOx306Zs+uUiBXG/a9YhB0j8uAJxQcK+b1r5BENxYHH2EFZSubJkd778pVCUHiSXIWpG3XLH8OCZ6vMvHZtBUQxriNI4Q8IKIRsgUbbz550V6MYr39rEgWwUVlgE1/RJhlix5KJqrhfCekpx/ACWVIRjc1iSFevf6wiCiDAw2nB4AAXjzHBu0hLEmm8NbdPKFiDMIwjHFCKdsmU3MxVp107ecbc98Ja32+TCJTvWheXPEeT4MNQgiIXrxoawcFPzFvg+YOnjWaLbT9tTXvopDKBrmR2yrhj7ka9w14hc+PkuWe+LPU4pYI3lE+tHEGy2P8D97Ow5s3s+atVH77XgHDIXjJ9z2AbxsV4XwgKhgxXfQ7in2LaFOOtC2ReSngUZRztr2iGwlTr7WvN9sJ82+1pzWs5u2LW8QLghgLTsKYy9u++2Vex/x1vebCsLA1sYDBDdBa4/hbizfUSOOEIGawFZLPh8IMYqcaLMdzaLkRzxG544ZSc+49OsSGFL4541rp0wIIi7miPbuXhgtQrPcKuuZMENJFNkuM/AVTfY5paV736PXXjLWy2+7z6LEQ/1Qw9Z+dADZg8/jLh6uImjC3SIp4uMJ1jtww3kGiHOsNjd4Ouw7l2Y8R4Tw7vGF5siOCnCHCMcEX5z7n0wjGcesnf/f79r6QNn7XS3j291igxEx31HeKuIFxxzI+Cx+NSMQQ/jYraE8CBu+P2GeD9Y3kQm6jXveNv3zA4QLWPnKxCt4y8+/x/UK0gcD/JsaxSqs0h0p097ir30n3y72fFjBlsOCTuEEZ8nLcMG1n/PFgHFhEXKecIJUyrrsxXT2qa98bf/m/WRCKcQjQyCViNhbfqCzywVnMdhSVNY3iXEoH/6tJ1++t3Wf8bTYV6u4MKwmhgfrASFiNcF44cKzLtCQLiICPNhYdHxBqyx7vFF28hHrqh7KY2ss77p6uCnv/fH9rs//pP23JVjdqrftdFowyo8VHKsZ+cuXLBFHMO0n0XGzftoxnJPP/GF9snf/q1QpdTGEO3LxnLH/VNYeWwUyALjaYmMCqzKqs5csfFCrwMRguX9gffb637zv1r28BmrNrasxwZxsEgZH31koBZuu8VW8dwnn/5063ESGGSm2CqbjQLrAPLEqTdxD34fIeKL8Q3Pnc8BfFjEHVQdDoRml0YTG/Rx7GSI+7Dcf2zv+cn/ZB/54z+1Zyyv2olBzzYhknWMuO83jeK6gz70cuLuEbHUA7Dfej0bIIaM15ERe/bz7Fn/5l/amMcjTMww9cPS+RynjvX8rsgd78Rb6RxEhiULNUS8s9A3u/de+4vf/m17+F3vsvLSmi3he2ATwqA/sBJx4oq/4ZxFy7p2fivIfBQs8ZhtZyNCV5/Okg5ketjPvrvQc7+nGN9SCNGM4LthbxFpYVDY+bMP2sNveYd9bLBoCwjjg9MNWzxxwo0XwGoI3vZG4DO798MPcwbfTwPiABmGskBY4oGtI4P6SLdnn/WLPz+LJdE29GJbzOv/3hfWq1DNgy7o52jdQtA/hYJ+YkfQORCHMzwdjxb0GJZSnW1BIAZmD52xd0C83v8nf27x2rotsziX3c66bLWOc13yzedtBCrBxditjfWr8fLA0jtus2PPf47d9smfYMFzPsZZ+ecgSmkfljXiqxkopAmzh8HpQvjOnoX1ddtphK+2ixuXbLGfWgyhilm0upnZX33/qyz/4D32McdPwPrftGkNS3UpwbEQlqjrnvGxCLqr3y4TxBPOTPFeWfzL99mBGEPMX/9fftseesvb7DhU7mTSRUajg3itIKZD25iMbIJr5Floy6dvsbs+/sV26ys+xYzPDosdAbIR7sjuXxQN16ca5zbfiheMGJmpjp2/MLJTt8L6HOEbw1kDtiU4dwbHB/Yn3/Nvbfj+D9mLT93qir1Ho5EtnFyxs5NN130sQeDd5CyPWdDjywSdBFjjd92FkAUJvoOstOGf/on99194ta3mpd2KjMsSjssQByUyGMwEsG6Z3whx9c7YxqdktQCzLmw45ybRgV+4Eh7urV1bDRcn+A7Y+NF1owsZJmxDGGm6r5aRPTtYwA0Lu9hBpgiZGxZMcCz+5mQfn9cPw8lLXEnQixzxkSy4KWgp6J/56p+bxZRoG005l2glX/38F343ZBGJ28EscnchQIo0QuJYrq7YHS97GazEvhVIFFmU3ISPNAlU4KzCJrSQV2e9J86Ciq14y9vtta9+td0Nc/Hpq8v2zJOnbAWZltODRTve7doxJGTHYVkdg6idgLidSHtwiZ3uJLaAhHrj/Bl73zvfZu+Fy85DoJdWbHDrSdw6MzelJ1JNV5TJMLggMCSBbW5t2MlbTkJ4Ni2bjm11dRWJPLIkOIh96Q1W0TKOf/+b3uKK/Zf6nMAks43hui1CoAJYxLxO81x83msvcmfmwhX/cx3HlLD4YrcxsPU3vsn+8JdfYy+AWD8F91xgwr65aTad2nIP8YF7r0aJPXXxuNWw3t//jnfa+9/8ZovX12wVcWdLS8j0FO5+fjIZp+mMAvxxUYB7V1kEwz41DkbH/vwFMjLT4dA6x1naEdldt9xib3rDX0NAUzfF6mgLFjOOH7NNeILnxTtsqi+apMgJIeKY3yUpLity70BUEVd4X5xkhoLIGOP3zBjk++F3zXMTxI8r3WHVCzJIw3e+2x5627vtzm7fliDKCeKqi/tQ+F07AVyvi8PperhGF66HiGUcdBF3XB/gXbB1/CLcAt8rLPlbBgM71RvYSbhjuPZqp2vL+KaW8O4XkbHqw5K/Y/W4ZRc3EEe5dfGdX9zatBxh6LMqgso+e9bHQvMeKOz8XfuvEgt8Rwg3NiOe+BlFluEbGcH/xberyL2t7GTrhLhJNAkRP0W4mkXerBflsK9znyeHXKWwu8Se6RWtMhyXwtYqIHTDLTvWCe0YDKGw3rKN8QWbwkIawQplkXQBaz6HiGRRZtMkt2lcwMFa7Rd2yTZscTm2j3/6nfaU0dQ+8qu/ZW/7/h+3/Nf/u+s/vYLEvzPaskUk/hHEdqHTsxyWXoH1AaytDBZvjHunyDCMIOpunHiOqEZBgcgtvvBZFt92ykZQL9ahckrY1bhrfVqms7Tctz521uHMOStwVibLBk0sBqbjstsP8S7wPBlM9Sn3dxdsAkGhPpRnz9vT+n1brEZWTdf55JzgHK5rowBxUrBfdgFh3bRoUNrTnn7Cbu0H9t7/+jv2F//635q99n9BDGvr4bq0+jfGsP6THt5VaMPNiXUhYBxq1mUg8E7ytLBRPbVOjAxSZ4GD6yGcsFaf97H2KV/0pfb2hy9Y0VmEFZy4hlmunhkH4c01mQS4/XFvvFmkT2vUu8ugtd1UpXAOcNZm1xBeW8B9OXtfVrk4TxD/rgsjMj4caCaDFc+R47zLIOQ54jlj6NjoEELuSrW4jo+1KQ3AtbkP6zyOZROcN4DWMYMV4NocrIg9BS5tbtkI8Z6tDpBZQxwhQ9X0p7++Vv574caOR4hYesVuenw//EG5EhVQ4DkrztCHb4Td9Do4XrSX3b8IIZ5UKObOKnNggQkSE0wuO0dmidCuVL8paaDJCisV65yyMoaohAGHaUUCBrFpMgvNfZiIsyFaASFjescicmiORX1YLxD88da63dLp2MedutUG5y7am371N+yjv/QrODuybgorFKLWhVW/BUuX9aSsR6WYMXzuOdxSE36m6hQUY7elW07Yyh23G5NvioAbGY711BwG9AbhM7JxIOQRwkMHAUO80ELtlsiIwAIMg6YLW8EMAJ97Fi9Ni7/Cenj+IhtaHxmc595+2uqHH7Q3vuZXbfTbv2O2NbIBnvU0LPbza+fcoDDsQ37p4pr1kWHgNWo49l9nnDdJCkUVcco+/hD+p77kJXbrc59r962tW39lBRmCkS0P+hA7WuYMx47IuPV5dou2W2++C7+HEruzBt8dQ9FlyQKW+Z+aBtdcnwLI+GC8UQ4bdvtk7qp7+DzXO9zWfWN0WHPP1FRR8PueIuMwZvuFJuiPCzshb+7rfkezZ+d9ucR34nqDwDGeWE0j2ov/PoU4crikb1JaPxlYAOHdqnPj+PE9WFBJB9bX1pa97Xd+3+yv3oIjIYIpB5KBGJS0MJt/Td2ld5fDRHbCIl9c77an3G7j6cRZ9ayLZT3sZDYV6M2C4saR3MpRbj1Y9h1YjTkyNoMlWN/IvPzRb/2OPfI//tBZ6nZpzRUnFxyIhVY7npdd9hqr0FzxNod1pV5QtNy14Tj8rN16q33cZ73SzkxHyHwg1nBONp2N0X6D8B4UL+924wQUrrFgWX1QWY6T3BSnuD3PT5C7i7FyvT7Fcf7t7w6D2471ebfDk6esvvTHd18T7YXfnBBHEygRmxYUWeGEKXJ1tIVtjTctSQN7JqzqUxDs3//ZX7Ty3vudRTqdjiH4PWehcyazBv8zapL27eoDuPGEhbGhq5fmqHIsEmYVAEdzc9PD3kTcBCOsu8bzs/sci8LHxcSOHV+xu289bQt5YW/8rf9q9ua3WzcvbSmJrCoy1zp7ERY7+5JD25xlyHpodm2jZQqtm8FR8bBxvGUrn/GpdvLZz7Bz62u2uLxqw40hBG77wBuC1/FCGrBIeWYdb1vKLkywVOmwTDGnqLsSmhvSOIR/7hm4RNHeLez7c00HPW5I0NvP4/OLEuKwwq5lGRL5cWlJELm6TRqOk+nQss11+5jVk3b2He+yj/z1m6D8hWs8RTgkaMbx532C7vydnxOtVibXEft0QcQXT52E5bvozmMrNlYpdPsD599MWNe61F+08cbIhltbtnhsxcZ49rVzj9hzKOprG/b7P/wjMG0hzGvr1sEjdnup1dMSAsGi9do9p2ugSB0FjUyFTiw5w90lZIJssWOf+Ll/0y5x0hvsS5LUTSJzo0kQY8+L5/yVGP/u/jNBp99Uw8yJO5dxTO6qKoLr9p31D9ieY9th3VvjTti53zm+6VlAwY1lJK4PWehHhxv7NQlxiKG1nCHl54Qjg6hrwaRs+kXHzehhFZYDiNHznnKn3fPXbzZ75OJsYpGhRTHOR6LumIk5k00m201tJQUNwoXj3Y6VYxD0ZcsgjNzvxoA/AOkrqxjw35b7SzbgdKrjIbbleH5Y11vr9uxjq1Y+8IDd959/HRma0qLpxHqd1E2mw+lnaY1TGDnQjBcyD0sqOG1pMOhjrTD7xBfbyp132v1nz9rCwpLlk3xbjB8zLu53J2RNziKcCVkDtzXivuM3+OOu19/v9XE73e742E0j6jvheDLw4i7aiQRdHFmYoI74C0hTWw461ptUNp2wnpv16qmtLPVta7plt546ZtlHHzR76JxTYQ6pO+KAMxA2ivYOLhlvFgGtRNe3mV2T+j1Le13bGG652da4b5rls0T95sAwsNHYmKOpdXs26HRta2PT0k5sq8eXbLy15obN/USI8Bt+87fM3vcBC/DcBjHnoCoZxIjX8BJBcXZ9yiGyzNAwwzKpCgh6zzbYohvm/cd+xivsEnIQU2Se4lnXxBuFYZjJ9DbOOp45BpAN4uhiZF5YkkCfIweyqqBT0tXX7fP83aHfvi/iobHad4s6V7x7cpGF3n4k6OLI4opkIebDaWb5cGzdMLalwYJrrDWZjmzEMbm7CURu3ZIJRHkMNxpbH8dsjUeuDnwnWd5JLCkwbh0J+vaMYilnb0tdIzmONBbDGr7Zk+e4zEQ3tajbtfVLa7DIp3b6+AlXN/7g2Ydt9dSqZVsbNoBU3hZF9pcUdQ4pCyvdFV/HTftyWrsuLuEoXhRLUiIeWRJBK53Tx9p4YvGnf6qlp07Ypc2hLfVXrmjBXgtNXO/4xFvG3OSuP1tnIzYn6hT0mWuegI49Dh6L7y6//R3Mh8NlJmb+jT7nY0UifrSQoItDzXz9oE+8uO1aixZpbftz2Z2Mvp9Ok+ucT3wCq51dtdzY6LjuNJ/a8tKCEz5Pk7Q/Ghcmujx390ogiGNcx/XFxvUJw+rDTrh8vUWj/nyXSZide7VW5BThSZDbyBi2xPWZLoaZG8Y07ndhVQ8t6cU2gaX+zFtO28PveIdtvO51TtRZDz2Fo5hTsNzAM1zGJm6msLH0og45Hl8C+cMGDrSzOrC7P+FFdnZjC2FlKK4cRr4LNy8+4mp3X3zn47JXrLpgozzeOy9tkeMHIOPGlv2dILI04Sh4TYv3x+rCNHHPyfH0Ofd9FCYWziZdKQo89fZr5MM28eWcX3+C4XfEaV8ZFsbl9X5X4nAhQRdHFlpN1RiWOSztoJPYqMgayxtC0e8tWBcCsHZx3U6cOm0XspHZQgcO9mpeWJGVlkCstkHKPW+dISmdJdxcxDLELMf1QwqS2zszY28iFEMKMR2JsKEZGpfF5Wz4ZZaFpWtTEGUTO5F27dwHP2S2NXSWbcyx4fFodK6hWfNgcDgRzj0969n5tAWEk8lNEtrgztstWVhExgjn8JgborkC49677WoQrKQcnx5wYh1mIDhFbiftWY3wjPkcyPTUeL7H4njuKJu6DAXjgs/KhpLsBcBwsIGluzc/BfiMJy/wDOEslEI8buibEkcWJrB9JPI1LO31emqjDgQAFnkKC4uzp11aH1o/6dv61sQmx2Gh33ELUuTSWdbVJLOusz5nQuZgan25RPEeDpyTjSf4wQXN5B3cvmO+3TR8q28/Q5cTdfZFQ0hZVM751YsY+8rCTvR7dv873+1mJktDHMej6sZCJxQxp1xwbhkLKaz9CsJNAeVoa5w3/cSznm6948dsayZ8TyR5Vrhuebz32vqmjSeFDTnmPCzp3mDZMjxXwVH/HoPLygoZhj4uxRIIlhRA5JFxi7qpu7cbg2DbIr95eKvcl+KI9iJBF0cWilE3QiJXZjbl0LK92OI4tXxaWJbXFsIi7a0et3fed4/d+QkvNrvthG1wLPKEw6tyjPzZhZyIN4k2R0yjsLvuUm4b1pmg5lPXhz3GL46N45kR4KHbgn9TqBGGpoV6E1pkNyrOoIaMCq1shLKOE5uysz7iqZdGtv7AQ7Z13wMwtEOLq8zVSzv598+BZ/MizW0pzNcoY/E4MkEs0WBcPOUON8vdOjJNvOeNwHs0cdnEP2FQKOC01MccjQ+ZqeWTJy3sD1yL+5I9FXDW+c0tS+KudeMOvoPedfsd+JujoW3h3U7qwvUYYKt/Wu5s+Mgqj/kMCxddeBlAIZ4AbuzXJMQhp8rG1u1Elg4SyyFcw+HQyrK2fm/RBsdO2PsvnrXo9lvtOa94GSvc3aBprDvvceYyVwk8a+m9LeC7cBYaTjp33jKcRwudibpr302hdPJzc2CGJHWTmEDQkRKwxXszs1xsaZFYUsYQpsQmDGMKUx3ERWYbEHWDUMYTCPosQ+AamOEwChonc2GpheubjgjrlBA3WOoUVo6BbwsLtnTbaRsyI3GDKRDnZudzUCx3hJJVBk0JQ8ypUznmeq9rmzj23HRieb9nwfEVCxcWrcphVU8em6vxbAGs8xT3WFhZtpizqCE+J3kz4qAX88tKIba/E++eeOYtdNWhtxsJuji6QAE4MlwIs5nCUCCxT6LUlhdWjGPGvP/e++1Dm2v28r//d23xWc9sRkhbXHaiH8Fa5TCuTWI9S5ideDfOWY10tBzxK9uAlV/homwXz+0xxK0un5wEfT8ogAnCEOPZKcAUY44/z5nPYoh5DCF2TwHLuoBI54irPjIym2ce4Yp1IeoUdELxprBmOI6u2RZaCsFMcXFaq85q5uEQvdXbb7MM8X7FBm1XgeGn48xzvqSANBks3Ab3c2O5p4kN7rzDjj/tLrt/Y93e98iD9tG1S3YJGaqLOO8irnER512vv4ZzhxDvi5vr9tDZM3b+4gWblLmrT6eVPsmzPbNrDOdO5uPJQ0Xu7cf/BoQ4clBb6l5soxxW+XBiC0Fi/Q5nwcpttDW2YVna8z73M+2Wv/lKKF9q5Shzs4klScfNmgZDFsKBq2xbXY/GJaJI3O/96D1IxGvXKI6CFkMkKeg3M4mlGLNPNcdgp75wmlaKLovbU6h7AldnEHy2zIdQ1VGADE9kk7V1s/UtiBbnAMfj4eQQSs3W7RRz1rtTUdl9zZUCGGclQ4YJKsZWB1ZUtnDbbVYhU8SMxI3g7j1zXuCJz6BscmQ63uNpd9tn/MMvtU/8G59utzznWWYrizZaHtjmLct28bbVx+S2Ti9bevKYLa6sWgdWOgfa4Rj9HKufXRp9o7j9eLJFXYLefvSGW8wbvuCL6mVOWFlNYSVlTQqChJaJtrNckJ9jov5kJyyeJhEO7Qws1/zuu+2l/+Q7zI6fsjHCVYaxKx6MXbF0gQObhluVsyBDiEfsrLKmyLew6R++1l77s//Jnrk4sI7rEpYYNuOYZHYu6zcLPr67J61PWuWsDl8bbljU6dhg6ZidXx/aA2cv2uKJW+y2T/o4u/ubvsrNmMZ69YLmJBtT9Rfs/IV1W1pawLYM12vEnMXVPITxyQFL4jqHljf73vCvvs+K93/QTmL/gKXPSW3DydDSKHXVys3873yuxO5jScHHPd9e8h3fatbpGycZdUoZxZbhvKoqnBDH2MzpMZ1VXXac4CImbQnveuMXX2Nv/41ftTuPLSFAeHbrOMHGRXC1EuErYEGXzrJmmcE4hugiQxNVKRznmqfVXtgkHFl3kCKDs464WrQzG1PrPe1Z9qJv+iazO+6wssgQr8gAQKRZfL6ZNkX3aRFbF0qaMNeD+2ymCGeY2wDvMhqPzO47Y//tX3+3PR3HL8CStbrjskQUYQvw/tx7x7tZw/O8+BPs6f/qn9sQGYsKx9XIXCSWuW8jRoTzffLeGe47hdXPz5kZCTduexra5tlH7O7BcZeRsIvnDSfiRhP4iEBOt+fiBc69Ry5fxXcZOPgcMGg0dj0fbLhlxZvfaG/589fb5n0P2amoY6cXFy3HszJzwe+Os7v5EgmWXvD7v5EMjfv9IEwckY+fB/0YF3RVEHBuFryI757zvvMT6trFoGvP/pzPtWNf9iU3cGdxUOFXKlpK2+vL2DGqzrZcAr2J9UsQkLU8sTBdReoFwcd6CDFxw5LiXwJbMS3xN0fCN0XyN66sOwrsRLxs1TSxd9/3sL1vNLLOSz7eXvCNX2V3f+vX2QRW1yWk3xuwyjnXeBHCOh9BZLpIxGG9pjGEEul6hQSaVndVlG5QmpKdtDoQM6Tg9Rvfbmff9T471Vt006ZOIQQbEN66j4wCfoG1H0J2RgAxZWLtlJ7r8HanvtxzI2JA2Cp7FCcQc4g4LphWOW40tjweI/oK+MjsJbGN2ZgPmYUIYe4hMFOO+sYwQzwr1o1DUFl8PoWoJMjIMLNgQYbzcT0ISoXr9ooaIl+7ecaNw+Ei3mJkVsoJjsHzshSDFjz7SvP5GR7GAbJgVuLarjUhCJCRcYKF6+Au7v50nAOd+Ewez8RevKOJLcOCnkRYR6bCTuPbOAlxv/UpZqfuMLvtLizT3Tlbhs/1W+DfMuf77fP+U54Ky/9jsB/Xuusui//O37ZP+s7vsNGp4670olgbuglrGCcsyaHoDpGBGSXMdDQlITc8QU3N5+Y18Gxs2AkRd18Hrhtw4h1kWGpkZPhbiREHKX4rkxF+M6KV3ODXJA4yTaOt9kJBm7LkAWna8ac/1U4+7/n2wDi3ByAS47Rna5DB8xCXM7AiHy6m9nA2tTN5YechCq4uNI7sbRcv2hsvnLd7oBKnP/mT7XO+8f+yT//Gr7fFT/p4XLuESCVICjlQSIwEEg5LFBRasLRu81FmKcx8Tim6yUZvsOa7/Y6VOSy39XVX13zv6//aFiD+SV5aj4OrAMpNGSHB3SXVFO9t5pdnOKF/nGCJQhFEcLRymehTEFiKAasOAkRrkpYlYaaoKQ1pWsZTgI2lCk6QeB2WqjRPw7ihFdtMhoLrIdBsOxDjYhRoZxEnyFyl/SbTCefuw3BQ8LnoNjfbndUO+L6dmMMRt4/3hWs2Mds2V+KE+0cQNV5xirhex/veShIbsVtiiIxKmNgGwr8Ot4GLbyBTtgV/CH8MfzznD+Fvwd/ATXnc+szfRCZxCmt8E9cr+z1kFo7ZXZ/0CXZhOLJuD5m+XUksSy+a0jHGefOsj53mOts4Medvng77+L3iHbmxDxivzFggq1nPSj9E+7j8axOtgiOTtRkKTu/kSTwoEu2n3mWf9kV/305+wsfapZVFe2ihY+ePL9nWnbfY5p2nbf32k3bx9hO2dscpW7/zVtt82lPswrPusONf/r/bx3zn19grvuc77Xnf9NXW+9SXwnLDNWGJd+rUFiexrUxCW5qaDfIKliaLqjnuWQZXwACtrZPi/hByFodnEK8CVilnJTPWob73A/b+1/+l3TIYWMSiZYgdE9cOqxSyg52wUhgvy2DMaEoP5pbnmD+ei5QQp1s4kALvBJzWfRJZr9f0FPAlSYyXeXctNJkGZh4agfc46xeC6+ash8+52+loxLJfPF2O+HeZBgicEzrvuL6X23WMK0nJcP6ksgJWcMlueQt9e8ErXmprENdJHO60+MerZlsFWuzMCO4Vr08E83HZPOuTdGNxU5Cgt5irDf152GEr5ouwih9Y37AK4jl44cfap3/919nf+b//mX3Gv/in9sp/+z32su/6J/ZpWP/Mf/HP7G/B/xvf9U/tU7H8kv/7n9or4J77xX/f7v7c/806H/sCs9OnkOImViCRzqewUqe0SNmNq0mQI4iPq7OE1enn1uYgM2wRzy5tYRdWH6sAMraWR0oOq/w9v/M7Vly8aLesHsOPrbLxeOQGlumGKfYXjxLEm0UjhjNhhccvx389TthnfhPeq31XONpZ7sh04cLOwoaI8x7uPrwQ4ovD6s4LOrkeMedZ/pruujN82DnqnZsspsK7mTkWQbOkxflQWpYasNzF+TNHm55WLZ1fpj9/jDsHrgsL2N0D1j4/A9rGwdPutv4tp+zcZARrHM+N0DSlOo2os5tgU6ZAxzOeWHbHqR9yWLSPq/0yxSGmYOVui6G8FlFivdUTdhHiOM1zmzLdesqtjZXdTcyOr5qdOObqTetTEGxuP75idmzZbHHFptHA1keBXVrPbGMD51cdGOeLcAuwrpBIw+pif2ZaWqwDnSBVHse1jWFqjRNYZklom+OhTYvMaljuCazwlU7PbGNok//xWrv3LW+1p6ysWlVMXHUntKARCFh1vYIN85pnuVkwPPN4y9GJ+MwxkXDLzoc48JiZo/Xpmc+ccLu3mrmZos4SlYAHUVxwEWZwbjRDw7rpeUfLfN4xEJdtc9IMF8YWBRB5WNYR+9Sz5AUumrlw5vyy3759HLvswcpnpoGZvjju4huobZ2jw6Wx3foxz7Czoy3XUI/yzXtT0Ok425uP1yea3RY5M/lubHzRSiToLWZ7pq8WU5Vso83uT7FtIXGuOXY3E1GkY2V/YGMI8mYU23qc2HqS2gb8jSi1IT79LUTPJI8tiRdsYemE9forOC+2ESzrHEoUw+pv6jwbKxOG2I5IeZew4B0pNIR8AMv+NBJ2G8NWe+/77Y/+86/bKhL30yeW7MzFR6yKA0sHHVyktno0tcW45xL6mwetQwosE30uA4giQ+SFlstu9wy37peahV3sPA/jh+LNuGPdOdcbSxEXLHIrsgyv6nLr8fEqFt4RcLfWOLxLuoAWKr6LIGrC6v6647fXnEg3XL7u35df5y/MDSIDv8YDliXiEZnL1RMnLMcysy3uuXFA02CvWZ6P0yeS+XY0jFfGddur4o4y/qsVLaTtRWtMHBeijhVbI1uIO3Zsacm6/SXbWB/aEBZUVkc2hlk4LQwugHjDzwPL4PI8tLIIrQdR5Yhfo/WRjYecPS20ZDaD1ggnMt11wuQS/Kb4ll3eElrXSCspVp1uYgtIvBep+BsTs798i334v/9PCy9esuOLfRxT2ijIbBqxvDVyCStb4Ceu+JdPcvPhI1LE5y1mZ0zPh28mYrvZz0onLiOE56W0BbgYncs84P3k06lFFNiZoHsx9+5aYSM9XnY7rAgns3k7rmk4x6wKSwn4VtminuVXdZK44W2dP7dczdZ3+26/PwaZtSke2LWbgNWe4vpL+B6Z8xtf2nCD8MzDRohPNvPx6ON16Uu+bO6NiTbx5H9h4knjehLFwwgTcDd0KRurIfMy3hjaxtqaE4jFlWMwlDiRSmIcdpSd1uKaLraOwYUdNyZ3NmmGY+13e9brNEWRBcSGVnQKS4Yp37xQND+ZptsR/XwytLTOrYswsEW73X/O3v6ff8fe9Ud/Zi946lOtKic2HG/YwvICBKR0s3GxdXgEQShg2R0MvBXX+F4gPSFyNN4i5REUSRcxXHY+tsKyb9g5l3HEd+EFn74Tb7aShwBWk4lb3y3oHr99X3Ajl+loFhvmMh0ubIhrdgtkcXyF+G+atGEZcV/UWML9SlyB29nUsRH6nfXdvutat73OKhdkWliGjve6iOdNA3xDVWIb9z9ii/i+GD6GgxlExpCPJbdttvxkwHiltU638Zpf2olk0Sp2vn7ROq6aIB5ynB02zW0hia0cTawThTboQqi7qWVjCC2s4RQpJy2nHqymHhJ7+l0oSwdaGrHPM34BHEClrGi3VW4WsQ7iLWF1BcS+CwuS84QjRcReJOJYzHHdLGHdOutDS+tiu+vC9fq/tjf8wA/a2be/05575+3Gftss5WXjOY7bzm5frGdnYp7FgU24D454YZsXN97zZkKRLDlNLDIfHjxJM4sY4pmhcy3XZ58Zj+fivJVO4XMFz8wcYeeUg8qwNfjGmtV5Zp0kdc9MoaHPUiUfBx5fRMxjIrxj7md1UoT3wnuxpITRuC3qwAtmURfIPEFMXbF4gfuxaxtLB4bWTbG9zLEP0gxXYtk5nOPeGYLJ87nusgK+tfvMFfg3xr9+D19YMTYb4tkmhW393mttcu+Ddktnwb1z4qodeD04Lvs4e6JhfPpMkm8kWyAzJdrJLDkR4nAShEjYaTMhNWci7AXGW4NOKMrGsQFUCKs9pDVdwt6CKAx6iaUJj8tsikR+PN6yvJxaAKuru5BAvCaWYd3Jg+vzhMQc1ljJRlHTzAZsYJTltvm7v2ev/emfsvDSmn3ccz7GFhd6du7cGZzDhlOcoISuER+GbQSNpGMR8MHA2d1wTdnDtsUNAc3z3A1lyhIF1j9HnS7rGazAMzXCNDt2G16hcTUeloJMUYkhKBwiFpFttsXeABmO2H3u9cAGb7gLXCPmTXLWvP/ZRrgIB/Qg3uxuGBUTG2CdbRvSEu8P77/bwzLWI+ZbsK/E+86KqY2zIa6F76luRL6ss0b8Zz63x0Fu2WQd1jgyHcic2AMP29p7P2jR+tDy9Y3t982udcwMMph03PZkibo4OjS/ACEOKRUsas7XTVfOfA6xycSTxaMU+NmRSKux7ASfQuSSVSunIwh7bkkM67wDC7GHxBfKO40zG4cTK1IIf7e2tAfLHWk2i9cXIGzHkIAvpBC2D3zQ3vEjP26v+43fsGWI1sqgY5fWL9rWZGi9RVhouGWnCKyfBdbLm25LFHGK+TBFmG9yos5ueIwKiuJe0MLjnOGcbKSCAhU4rr+0iIdKDbZtI1B4Bh/L7PM9fz1nSeMaOQTSVVQg7lidUZ07bzZGxmmf+14fTeaBNGLuFgFH8jObbq1bMdy0Lt5ziufgsLIJhwfGttH6OdsaXoJ4b0KwJ3hOiD4Hsuviffc55SvHsEdGLkZGEO8rxr4E+/it9LF8LI1sMcUN+cBveau9/ad/1j76V2+02xcGdhrvn4Xz7jubxZEreodrsk9CPL5I0MWhpbFyaJWb5UEJBzGHYxczV4DOokZY6TUcrXWOWMb1KoKQRkhqIf4chjWjBYbruAxBVGIdYl6MXSI/QOJdbEKgH7rf4rVL1jFYqFS193/E1v/gD+31P/nTdu/r/9xWIBK3rgyc9cbx1NN+11m27NbUdFeiT7HjT46DkCAMWDwQVprL9Hi3gwsb4w4iyPrjOg5tczKyZXYDZEYK4Wfcu7O2M06eRth9UXoxZbc+Vmng5SBjtX7mnGsNvl9G4nrhZbyY85tgqGj9B8hAJEVhA2RAIleaMjW7eAk5DeSuYJIvpj1bhUqvIFxLNcQZF1qCBi/mhS1MC7xXsxW882X4i9D1flFab5xbdzi0DieoOX/O1t/4Rvvoa15jr/vlX7YH3/l2O4l3f+uxFcvyMb65Rsw9fF73GcLhL7dwQYjHhblPTbSNv/j8f1CvIHFr6+QspAwaMW4ScrfJ+b57ES3kna5GznPHEib8SZcF9sgMsJFWjWwADmrq0SPrMEPAetEQ5jQ1IsOfB89b/aa32Fv//C/tnve8y1ZhuT/t9lsR1srW1tZglfes3+/bdDS2HBboAs7lWN5u5jLcl+OdjxF0julN+jknccE7wHO591Emdu945CZn+eRv/xYcsGBTnohcSs15vZnpQDjTEjFBQcW/xzo5C89mP2lGRw/vgNZ6wXjnMVUCH5LICIwL6N8EFmrHPnj/RXv5P/rHNvg//56tD/oIV4Y4ZiQjPPBYrcBodpO94HZ8fb1OYpuXzrvSiyTEdzia2v3//mfs4Tf8pd2y0sV9C2TGOk74GJYQz8C2CXxPZzYyW33py+yZ/+yf2DrC36t7sPr5rsYWxRz9jT0FmtbrPJ6ZJMKGfYzXLt9hgrgdjezB173OHnz3u+3Mhz5kJwcDW0Hc9vuLlkDQe72edfE8XXZ77LFKgWY6XtQsU+iAmNsUGYLxBO92bKNyYh88e589eM9HLb//jJ1Ku3b76jE3OVC6SWu/ts0uS4wQBH7GfDL3u2M8NdUF7ptG3D0W+DvguAC8Rhbx2+VkNex9ge1V08K+wrur6onFCMsE6+vpgj3jsz7Hjn35V84eSrQJvdQWc1QE3dWbu3OY9rIWuPmweW0Ozzn/fNRGJ/5umcN/cjhWNrCq3ehurGtlCaqz5CZwrBe9uG72gQ/bQ298k93z1nfY8Mx5O9bp2enlRUtjTsYyREINcYFwZbgf501PLLY+Jz3J2BiOYWFY8STQlgzhpE9B5ahhbv8BEXTXvStItgU9jyASHTyTm3AmsLPD2j7t277T7KWfYhdgiUYZSyGYIWkEvYvLMrgjiCHfB8dSTyGo4801G7AeG9eyex6wd37/T1r8wIO2AMFj24THKugGAeMZPNYLuh93nnFbba5DqBetgJD/5k//jOtKuIhnv6W3aPnmphVTtr9AHPC74fl4apYqeBHnaHbcx8GA+D1WsNynEPV8mtmEJTs9WO9LC7aK9z1IE0vTyEYb6xaNJrZy/JhdsClihvFL8Q1dfPMpU6q8/6bhPxYk6GI3/LqEOJQwQ8A62xiiQUcRdQ5WcQpR6oSp87lOxy5sAbuxsfUTRIbrpxZW7PTCcTvRPWbL0YKlGQT8LIT8fQ+Zvel99pEf/hl72/f/B/ujH/0Je9cf/U8Lh2t2x61LtnIihQgNIQgblo3WbTDA/TqxbaxdRFgCO720avnG2CXiOQSDM2zRUcwp4ANY+4vMLzy2tPxxg6k643E/KG5FUSDOItsYbtntT3mK2S2nXR16BnGjCO6FvybPp6MwYsHlpIYPPmQXz55x/bSvdO+rwVN5/0bMaaVfnpyxMWJ3ERkaHDl65IxtfvQeOw1hfibE/BYEZWE0tpMLXVtd6tjKYtq4hdSOLXXt+ErPTqz2XT15L60RVhzfDd2xt55YsrtuO2HPespp+7jTt9gLV47Zbeybvr5mk9GGDVYG1j+xaOdGl5DRQxYBgutKDJA35ft2I8UhVPw2hHg80RclDjW0njqwivuwMBcmuQ0mYyTUQ+tPRtadbFo3G8/c1Ppwi3BL+dhWp2NbhgsegHC/+z22/mevs0f+6+/ava9+jb3jx3/S/vhVP2y/830/YA/8xV9afv9DdgoW51OPnbCTi31kGUoryqmVsIRLJNSDxQUbjUY23NqyUydOOqHauLTminEpOHS+SNgLIBN1b7l7rkXceI15fOOqgu0CcDHObsYLuXu5n3djGbpqiRA3pZ2N+zSN11wzNVck3IyIR59WLix6uAqO9dAFu65FeKZRact33Gm2uorAhzYpc9yqsYYZdArqFNuzkFOashQF92UXqaK0LrZXLA3JM7tw5hHbvHDBWOtAy/5a8fEzH2fNMzJeWWfOOvmmxInPVtHKzqGiOccJKO0U3sutfCejLQvxHdx++qT1kLHrxqFzyG/B1Y3DRehSboMfVLnVBaztfIrnKpzF2wsDC2CJbzx8xvWpXxr0ra5KG45H7n1HXT5hY0XTJz7s9Jq6fiEeP5rUQLSSo1DkHkR4vtGmhQEs5j/+Q7vvnW+ztTP328nTJ1wL66XuskWw0tmpmNOEjiDEUwh5BcGvs8JGm0PLxhOI8aZlw7GLDwryYr/nuqSxr3TzI6F0+AS48RlvftuOgDbP5MXH4+t2Cc+jmPM6TNT5nC7hd8+W2v3IlIQveq695Nu+yWxx2RW512zpF8VuRjd2odoucnfvsxHkmnOP11M7gSg784u/bu/8z//Fnrm8hCtntgUrkwLHot60jF3Le/ajZ10+h6QNIFYRwhKlkdUQas7r3oWIl+McxnjfcsjvBy9u2Gf+839u9gkvtrM4r+z0bAVxx7pqzhufIXzsRMj308wDjmMgnEkNQe2waHyKZ8js97/3B2z5L95nz+4OcM4EjkX/Tb/2Rvp2itwfXpvY7a/8G3bHN329TQaLVo0D7OezTFy/6ppVAziuCjPclz0ZcAEeUeN6jOigsD7iefQrv25v/LVfs9tgdSf4pjgxi3t7c6LqdPcamP+9NO+x2cZ3yXfB6zTrzXdB2IaCizzcZXZm5z3W4naiInexm7lkRojDB/ufh4OB2Uc+Yn/x679h9//pH1n2vnfbhTe+wc684XX24T/4ffvQa3/fPvgHr7WP/uEf2EN/+qd2/i//wjbe/EYbvv1N1nv4QVvduGR34TrPXh7Yx6wu2W29xAZlZtVww2Uo2M3JZ3wax4SUPx3KOaxROOPc09vbm4R83u2c63a7hJ9u90/QbdqH2akOJxS4l6tygGvErHbhZCvy5rpsMIYDcRwzFAUSdba6pogwU4fskptGNE0S6/U5kh0EfjhERgjyHUMYcJ0aGYc6Su3tH77HXvDKzzB79nPMkOEZT5DRqVh3TmFp4oRweFPXLQuOLA5gESPD1jx4adMPfMTWPnKfHVvgXOGXi9legurjy+PXdx/K52dbARazsy6fz18iEzdFJoM5H4YxLYsmfvD8zMzQzd/Tv5+ruXn8e3QlG+6Zd74N+s1sb4yT5jj33vDcfAc3IuZC7AW/PCEOLVscoARUZ8/agw8+aMvLy3bbLbdar9OFmCy4IvDjx4/b8dVVW15ccvuPrazayWPH7TT2ceYpjoTGwU9o8dFxmdsO+qxUtA47UJJeFls/j60HK76PZeOEM1BwZ6lBVCiuLJqnqLMOf4pD2A++gPINIHjR1hiW79i6yAAMwsT6sG47k8DGF0e2sHTcHtwaWn4a8fU3XgGFhuUHVWNr9kENax7hoDAyIWFY2DagV1CodgQrithVECcEgd33R39piw+t2wDvZ4IHaAROCPF4IEEXhxZaXX12MypKNyb70sIiBPyEE+OiKFxDLCfQEDRnWVW1G+GN/cOLLHet0VnPzePZcIvrk8nE7Wcx+OGY3IY/4cBZ6t4apEXul+k4mA2LwOmn0Fg/JzfdIp6xHo6c61PQq8SSjMXlKaz2ZbuU1/bRzQ17xZd8vtmznmp1tmXrm2u2Oli0DtSYVqmvL+/AxO/B0ee1GenD0YalC32EEi/g7EV78PVvsqd1lvDO2N2QA/zIShXi8UKCLg413S4EfTwxKyFQEJb19XXXII2GX0yxKksn1mw8R4HuwurupR3ncxxx9hen+FP4aZHT8VhuG8NqPcg0jdBgSSfwYw70QnHFk9dNH2cOaENx7cKEXoRIL03NVvBIy5PKVqY1tuGg8dAWk9hWwo4l48KiYWnhFAIddCxaWLX3nD1npz7+xXbqcz8HF+jZtN9zM4114HJkomj1s281SwuYaWBxN/vd94raifoowE1T7MxLO/vHr7fwoXN2W29gVY53JgtdiMcVCbo41OSwqEm333cCTku91+3asWPHLAkj1zCOljn7oztbFtoC89uJPPd5v2mYhh8ExQnXoTvo80az/pdt5ViMzmLv7Xp5uKYbF9bdL7yp/6fYslSDzm2Fdcyx6llK4UZwm5Q26Cwi/pbska2pvfX+B2zhY55pr/zqr2ZRiI3ZTQ2ZoSjpWJVhuWCvbdreuMmsDh0LuBfr8pE5sMx6C11swzv4yAP2/j/4EzuO86tsbAlb9O2qQxdC3Bj+VyjEoYRF6FAkmIVNMTuHTaFgDTc27eL5C7DEO5bGicUQLM7O5YC4OwfhoUVO4aaws6idjssU9INeh05BZnc1DlfLls6uxTwFHY/p68nHcGzJ3owdX7nx4zc7la11K9uAP8R2jl43gUCzYV+S9mwD+nsW24Kn3WUv/9IvMrv7TmScMptmiCNY92xdPeKAMp0U4t3U07NRGDMXrgg9KKxi9zkIObt22bmzdv9//wNLHjlvywsDG5ZsoY5gIsxsyCeEeHyQoItDjbOsIc7ZxoaNNrecgFOgaZGurq667lcUevaH5ihfXOc5vgjeW+a+IRy3EZ7DEcEOOhw2lW3tnUVcs9U51BhWciP2sN7hKLasWmfxdtPavRHfaczBbgLbQqZgguefdhJ7EM/8jnOPWH37bfbZ3/D11vuEj7cLFy5aBaFfGCy77l4JjuUc41ESu6J2ZqDcdaOmrzvFnJkMCyD6sMbtzAV71//8I7t9aRmZgMAqDrBTs+U7cx9CiMcL/AxFW6FotR1XLI7nZP35wsKC20Yh5nbfuI0wLrxzRc600NklC/vpaJXTzR/P4vcnmvlw0REfhqvBrlp9iHIw3rK0yK2H03osxd7ctH7a1HHzOSM8RwIhjjnbGxznhWeLdldM3l2wS4i74eLA7kWm4F3jTbvrlZ9qr/yGrzN79rOtRsamf+y4VVDsfFo11RgFMkRx4GZhq2C5c9z7AJmBqRuQprAcbhhNLenB/F+f2J//xM/ZKjJKnH50AoFP+2kzIU7d9DW/EowLFy9w/l1xne/mWuMJB7oM2va1ZjwZ7/dmMx9H/hubjwPRLiToQhxitrY2LYWYdtLUjWLmiiaWl2ywuuoaq1VJB+IJOx4mesi+8hVcjkxQiYQ97Ng4jO1DFy7Zm88+ZJM7b7VP+5p/aM/95q81+5inWT0ewZqn8HPCliap8D5hhmIJGYHRxqYbgCdJIstglVvHkNGAaAyH9siv/aaF9z1kx7pdS9JmrPlplSGfwUwBrv0kcc3i3zLmBdxnWpm5Ee1Egt5ijlJO/GqW3jw8Fhp3XeccRCqIdwUjuErYx7y0rWxiIw7iAqs9ft5z7FM+57Ptbfd8xN730Fk7szmG2KbGSVoubmV270OX7EP3n7GNPLRnvORl9re+/mvtld/0tbb4t/+m2eoCPh5zI9RxRD7XFQ6wVT2L1ul8UfsY1105vmzh5sjCycTKTg3BHlunKG3y5rfbu/7HH1q6MbTFHu6NEyqEgDPasXCgQvaA7+HJwov6URN3Pu9uS120Ewl6izkyOfFZ+uSFei+YnF1p/2GFfe0ziPgUAhrCCh5RKDlc7m2n7Cn/4PPt077yy+zpf+tvWPSsZ9rF46u2duq4Jc97tn3M5/0d+8yv/Vr7m1/xj+1FX/qVduJvfrbZ055qHFF3bTKyDQ40s7zs7uGjjHHoZYEFART0Tq9rm+cvuSlje3Fiw0trtpTARH/wnP3Zq3/NFrLSji30LcLBHHKXbRTYVoEznLF3Aa/zhLOHgO8WubYy/5wUct+LQ7QTCXqLcV22Ws5eAu2F27vdbO+brR9WQjxEVdRu8hQ2h0sGS1YNFu2BIrNNNjq7ZdVu+dK/Z8/6hq+0T/nX32kv/ZF/Zy/84e+1Z2L59Dd9hXW+4PPMXvZSs5O3GOd6v7A5tM0gsmiwYHUXGYXSdyvj1RvHYVO5TjEnQYqtrmU7kpJLG3bb6nHkCEb2+h/5GSs/fL+dgvU+WFmwEmEKOPRqFDRCjmsnrMd/gvFitts/KsyL+XzRu2gnEvQWc9C7XT2eMNmi26sYfVvAZ64t8FHiwqwfdi3MQ8snWAkSC/vLtgUr+Ow0swzfwGRxwSYLixDprlm3Z3mnb+dgTa+FkY05KE+OTEEKC3vxhMVRDxZ+5IrXs4oN3Jo4oyXNVvQcrIbF7YRxvba+YcsnVs3GW2aLixD1sb3hR3/azrzxnfbMYyctrEorcJ1mfHhIOM7NcU92fWNXwuYpnhyOoqjTIqejmPO5mZniiIiinUjQW8xRKFrbU8DhuN1b6rtpS3JOke2WiS1Y343lHmzmFmahDSy1XrQIAR3gYXsc0NWs6Fo2NCs3cWKWQpj7llfwj6/aMObc5jh0Wlu1kVvEdm2djpVpZFMoeBFyatLKOMMbHUeAYz064zftxMgUbFnGyb5hgb/lh37GPvSb/9Ne+fwX4565VdnU8hyuLi2MOZ9c0AxBG8auK6G39J9Q9hBwittREHb/jN5C96Iu2okEvcXknAt6m4P3qr3gbierXIBYuP7UWPb1q83gJfTZ5awp8nX9rCE0Tatr7MdfnsfR0GIkWlymWPBoio+zMNnSGxu4naOouf7Zrgj55sF5yglFkkOnNs/nQSDxn6O++YzLzjzmjC5Y5WzZzqdMYut1O9bFjmI0sXw4cnEx4dC2Obvj8QKNpebqsXHhAAn7VlHZ0DKL+10bLMDSZ8t4hIXTsk45GhzvzfPcO2jGbG+m7eQQr4UNJiODTQ+Rntpr//0P2D2vfz3E/AW2duZB66bNELGEIsIgRLD+06TrSo8m42znunhnvCZ9VwoAF+OheU7zjkqEmP3b82YgHXdVvtvmW3BPh7DhKq50oRkjntsLRFSz7L43ti/AUXWIZwsPu6XK5/IxARC3fMeNw76AXfWaNIDvPeTgSmEC/2CPgCgeO3zzoqXwR3wZLlE/ODA4m9nEgpTdqJDwst800icO/Q2lsgTCw/QogIsLCFHJkcWaBH6KhJ0OSRa+4tjNa96JE6u3tux4r2sB+6BDcDjYCcU7gmhwBjJOHsJ5ujkH9zSGtXITfwF8/gLPUuIpelhJJxmePcBzxzbJITYxR2CrbQqX4V0y+XYZEjxQjnXOVmb9GNeYWBWOrYynBnvZFqLCFhCJCUSrkyIhhwCGSNwRgValhZXRGMeNrBtNIe5wMJnXsnU7P9qApQ3xx31ZzdqNIfBFbHHAGdZgxUMw84qSGVkX6wlnVatgzv/J/7I3/Kt/Yfnb3mR3rHRwzCauiTCXEyuxP0RY07jjromjbQrRnuSFpd0enoczw8VOkDn1KedWpwXPmeMS3NtZlk6n8G2EI8u6Y8s7eK/4KFxjwLiwHI6ZgLSMEEcx4gb3xrOXiJckxB3x7OMp4gfvOkTGp0IoIsRDEXLYYMTLYYbvtfky8EHhd+REHbHJDA3iKMR3zmSAmboiR8aJ7xK/BdFO9GbbjvvxMrk8eNDySxcGsA+R4NCKWugjVcdymTlBq0KKUQQHqwI7YiRWFDM6WnPzdGBhNiO9BTbc3LACiX2cIkOAR6cjTPTd3OHwuY0J/K7LPKnQYmQpgS9BmH8mF2a4AJkVOmddBbF1IIBdvNMYy7S0GEclnjmPIfiIO2eJ4TyKKBPyEiJZIm69j1iFnEHY6wLxCDfNIKiV9WJc1/UVT13/cHcs4jBHpmhztIX3McX+BNY1LOrR0BDJLoDj3/wN++B//S3LP/BBux0ZgeOLHcvyoY2zIY7f1YYD4eYj8rl93NNnPT3jocl8NZY0rXZ+DCWes3l/nL0dWR98G1OEJUI8LPQXndhzTnz3bcAFHOQGGSJui+jwnE2pD+IF13Qz0OHGLAlhBuJQ40ohvM/4QkQ5Ueeyi2k4Wuj0uY8RyX10oo3ozYqbyhRiMoK1NmQXO07YMR05y3OSNBYoZxHj8KVliH0UMiTIXVhigyKCtY1EnBepc6sgJhPaf92OjUsk/FC1AonYLMlzsBg2QELOc7yAOq24STDJzSDUU2Ra6HIIdOGK15n4Ns/rSiVgCccFLO4MIgRLK8lq68BgjZETqmHJFlDFAnGxl1/XKe6T7Ok7Uax6tpSl1hsjNBtTmw5hBWcZrH3ETR9hwk0WV7vW6ULgN84yxNiOnefP2L2//qv2J//99+3cQ49Yv4PMAJ6FE7ZwFjs6TkVLGM97QTEfI5c17OAbSCq3PHFjy3P2uNANjDPB9XLOCseSgqoDK7xjyRQZtzGEe1hbkCOu8Ok4Q9U5CFheunU6Wvl8mBguQZykcJ08sU6BzAmWKe5CtAWXHgpxM2DxeQef4FK3bwucBhViRgaDBesu9iyDEkwgybQqG8uSdeYNtFATHE+BtmqKfYVtTcZWJxB5WIYxhR1WPo0SnjMv7IQJ+c1PzGktssSAVhUcshess+Z2Z6EyfLNw0l1ehdI8katfh+0Kqd/Tr52FCwHfww8g7DZh/EUWJz1b6PVt0ElhhUMsYQnnk00bJLXV43VL85GlAxy/ccHy1/2xve5nftL+1y//gg1g5R5fWbUTq8dwN2S+RhOXqKSwkpFr2FfMCZ+gmVDGu2abb9/A6WA7sMLT7gAPz6IbhLjuIPOwgDAiY8LiZcSTO4/vGTdzg9/AufeO+zujFCFybS1cHCOU8CMIPOvclQSKNqGvWdw0KFJ9WJ4L09IGU6xMkZxHHVhWJYRhaOPp0CrWH0cQdAhLBmuds4ixTnkCAaDIwySkeiDRh0XKbVUJax2JdYoEf5bQO7DP4yxzOPbjZqbiZsHn70C5+jmEC2IVw2SlY5UAqwdcaSl+ouzeFUQQe+pRGljRgQXeCayEC7AvhNix+H0vn43hmOfZy6dBW3KIVtyQjes2x5s2Hg9h9U4g1KUdQ/wucjpaphJlbva2t9k7f+zH7He+//tt801/ZZ925112x/KK1Xlhk62ha7ne40A3OCeHlT9ABuFKMCuSVpV1i8o67JeOZbZvcIkSwseylKxqRJp1wznuM8K1xznCy88FGRyWzNDlCeIE30HegUuxjHW20mfpDvI2zuqf4LgpMhosDeGQthXih9EsRFuQoIubCucpryYTy7e2zC6exwZshKDEEOqFTmJRWFgUw76CqxOIdVS6utYccl7CMk/KKcSmsA4S9y6stmmBPRCIoigsTbsQguYTp27PW4IU8itZj08WEXIcbL1P6LEYmmFsMiBwVQYBnlpRw2LGv2kwtSyYwHEd+1ixAIUOEF97+ZA1ONqnj/broLS8i4wSC0fg9yGEq0liixRmmMnpGDmKS5tW/a/X2Vu+99/Z7/3Aq2ztXW+3F995m33s3bdbON2yfDi0mlOvugZylZuitsc50+H7Ivf9YPw3jdmYsWl8vhe83m2m2dhl7njtpNOzE4sD6+HEgBkBHBwhAxexG5aLJ2TxEE81YqZmNQyc6zWAuGRreFr9GatiYPkXAUsxmENSEijag75mcdNga/Wwl1h3dcGN/73xzjebrV9wifPJQdeWkDQn1QSiPYFAZJZAzOMOEnym/AnEACk/DDE3CcjGQ2echUerl63jOciKayjV3Aq63jS4omA23aCarlc3E4aCIsP5yDlfOeuRRwms3QSSxM7groU2HUQqnCIz07iSPlt9Q9xD7AuxvJ+L43xfZ2lha+GWTeHHyPtEEHSDQNr9j5j96V+b/erv2v3/5kfszT/2CzZ6w1vtaWFidywuIrov2INrD9skKiwvYYl3uk2VSY4MV5a7unTOdleyc/sV8I3UXMnEzHcWOt5L4DIdlZ1eWbHNM2fM3vNuZC4uOAHvQqhjZOTCKLDlPLMlZN46yNSlVWE9fDtdiHqvzJ1LOGIetrNCnaLO8eRZpN8U0c8CIkRLYIGUaClf9bwXfncXCWMEK479spGEue01iypdfWyARJPdkG4eeT62DsT7wbNn7Z4H77dlWIgDFjHDwqvOnbFBWVsXFmAKsWA/7RgWfYIUueNEABco8efBR+zBP32dXbrnHrulP7AlCMxoOIKg4ToUbhzGVs6Ej81ifE5swnjw+28GLiwMQ41nQnhKWtVxaENkYLrLi3b7S16C3EmCjAmsZShQwuPwClk83cf75HSpKYUQ+xkXroZ4t18gE4SMToxzdvspxHEB9+tsrdvow/fY2Te+2c4jHs/92evto3/0p/a+P3udJVtDO9nt2KmlRVevzm5ofbyvHlyJ85f7y1YMkcnIC+t2Oi6TtLW15UpeOB/9lN3vyFwku1cB1wh38y3SNe+D9e6sCuF6jXv17T0ffK+dgahPzp21RdwnWluzYGuEiEhcVQTjr6meQDwgRevg2imeH3kkCzkqGsKSv+kddu4DH7Dj/T6eAxkYWOocfta9hEOKi6tmoamWwAIzSc1vmpFbuYysOwTxiZizLOna4p132Q/+3n/7HrdDtIrD+zWLq/IXn//F9QqsnKSeIIGjtdT8uPnjZ7Ejkjsn9DfLUqUFluD+tWvlHds6DKm1orI8ZKO2rutGNYBIsA65n3as1+u5vsuu/3LSc3XKW/mWPfSRD9rogYdtFQ+yGiVWFxM337alMQukaZ47y52O0Mtn5bp+kJSbBUUtQoi6EJ0QbgqxmXIwlhPHLTlxym5/3vMhbFCpCpkT7Ifq4yxYwniyAgFvku4mU8I9u32j2EG02I2N61VZWg6LlqO0cTjW8488YsOtDVs7d8G21i65aVD7aWqrg4EtdhGXyExFNQd1wXcC14gw4665SxN//Jaw5m64NxRxv3veOmbjPW6n5UyY2eB7YiEMCZLUNvDtnke8bOJZqiC2TqdnK51F1/DxxDOeaumgh/AuWrKyajDpzY4tmy0smbHbHEtl/vjP7H2/81qrHjlvy8yMpIhPtuTHt+d6UMzCctjg74dxzrjMwhjxyHYYcfObZg7HlUqw+gEZQfymJnVil+KB3fnpr7Rbv/arDulTiyuhl9piDoOgB1XmRi5jI6WshLAjmGy9HEOYUwr9xhZEA+GGNcW+6gUELcMqG0VlEIH+yUXsKmwFz3Si27cOjhmPtoyt3tnanY3kmOB50SFcb4rdb76gu77SEFlalFzmiGrsdjeKEyuRmTm7PkJCHVmIuKGgs1qBo+3UsOZZfcD3SEFyE7Xg/N2+ywDAinWVD/C5veBoPdjOeuhbl1dgyWMZwkYLmYPZMG5oHe9AgcDpDCM2c5fPHHkuO3wXjG/nNx6u3/iuNTpCxvDzGGYU3OAyCBeHmHWlSlE4awCH9w3fd+lL2MIdgb7n0gVkCLHO8ghkQPJlCPbyoh1fXLZ+v4tzK9tCpqX78Jqt4A5pmlhVQMyzqQtPiW9Egi7agl5qiznogu4SnHrqEu0ACU7N7lvsSoS0iOJBIe8i0Z7Zli7cJRL0EmJfIQNAYVhbuwiLK7GlpGt9PFOV567FdgjrnPXzo2ziEmyf8BEnKDOB59+b9fwMjxPPIqesWRpHLnPj+ubDgh4jjGlvgCePIb4QY8SJF3SKH0XXDSyDh9hP0JlvoR8jHvnIFHb63B4hg1BvDa3DrbN7c+jXEv8oAriD81kC0Ijw5RU0uOxsCy52Dfho9oLenM2cRJOJcALFLcisUNS5l87wjP59M0xVwTjjpC8Q8v6S+y6Y4RsFpa0FOYSrtIQN9cBGNraFJLHbgq4tRR3EFRtMZoxRi7F9gvvshOdwIUEXu2F6JsRNA1kKZ3myPpMJUQLB7kJUUqRUCS1J12p5iuQJrhrDupwgIZ/A8hpbVU7t9hPH7ES/bzGOnYxHbnSzKElx4dimNPeBT/ScIMySMX74dNx3s+C9Y4gR+5ezkXheMoMD+U4jZ10u9Sm1lPMSeR4IHHM5MeIJ+Z4IfgwzOQ1rZHpq60AQ9/J70Ms+LHPYoZYijmJk7OISjj6Ec3GBg8ZAyCGGJasqpkNX7M5Z0jjOW3NL1rnjTXHZ+XTIMM0yRT4Kr+T7ZTIrXXc+20XQdWY+53hhvLj3hWOcz0ZteK90ATI6MQ5IktD63dgqhDeEaKcI/wK2LcNKP44M3moS2RKCd9ep43bLyrLL9LEB36TKrOggVnFcgbg5rGIuxF5I0MVNg8LQh9UwKBLrZBBxGOtJwWE8A2O3JxpvQQobLYEBlsBCT2vLIWQlUn1X5wqRm442rUCizvpgFr1GndSCDhJvCONoMnb3acSc8tA4nkrRoEDdTBgON+odHrDPwU4QB+V4ahVcgMxInEGAc4QX1igbcrG1NuxJ4zjmJRxiohG5nEK3t89W4SFEkMO8st7Y2Eht5nOO8tEUDsewn3aJuKv7qVXsv43AjWfF+hQ9JhRsaMeqgS4uRcc+9IxH7oe3r78Xs9fn6sp7yM34bmssyuc+nkvBncI6p5tgnc3rOIY9R5GbprFlEOagB8sUGZwpMnnjnN/BFJa3ITPUsxNLSy4zwpb7/Oe6O+K8PIltiNi7NB67b0OItiBBFzcVN/52BQsR1p4f9MTVlePL5Bjl6xDrrXxkYwh2zlbgSO2hPc6K78UR9AyWOhJrCr91kNBDuMe0dKE0nW4f+/iJ46IOFkXPxJw+tnD9ZsH751MILqzdOOpalLDffTN5RsB6gpxdtELnOnApXII44mxyCRQPWRdY75Fz/LeXz6J6Nxodzw040UoMq57tE1LnWJLB4myY/66RXYmoYmaIk95wTjMGw9WCQH19xog+o63JJDVQgPfz/fLeIIvirk2H+2GZ1UEc9rWAeGd41oLVLghfFHcsQJgrZIAyBGyCuHOTt+C8prieH09u5Whk2dq6jS9ctHprYuGUDfvwzvHsLH4uyxrXYJE74lqIFsHUToibApNhGOWu/i+LaTklNoKIj/BVjpCwj7GcLA0sWehDnLvWhenVgTp0JqUlW5nVG2Nb7Pct7MTO+uIwsSOI/hDiz7p2toJuRAj3mhMVfvS0zllCcDPh87Oh1zSYjV0eRVbCgow5LnoCwQ0SN8tcmsN6zZFBocMJ/Wlgffjdae2KwANkCPZzdZMz2l4PIYb0uY2mbbeD+GUndGSs6jywIoPlX9TI9ITIXLDjFw5F3Pn+8pO4ti2Y6XTsO8/tTuCv4nYLOxcp5OxzP4YbpXScRQ/3ocWNXBt7PlQxMx2phUEXYU/xvB3ECbIqObaVsU03x65Ug6UHCxD71d7AjncX7HjSt2PIHB1HRmkRGUaOxsfSkBTPGE0rfEeJLaQ995xCtAV9zW3HWVE30Qy9AkzgoR3OAmRxORt41RBxFinTSqeFOMkym2ZYhlVFCx4y47qxpXQcvITHTKc2nkDgcb1Op2MJu6vh/HHG7AJpioYbGWlwAjNbvlkwDHGvY1XCIU4R3rywDFZ5jmW25i+Kwh3HULuShQpZALY3gJXJGed4AcYJbFv4fJ5H+zyb8eJ9bnezr8EUL4rSxhBDzpvP+EmRoWJXQY6wx8ZxrkGcO5fXaqz0pgiejfEay3pepK8Hhozwmjmvi+/UlwbMX5OZCs6gVuG5OQUoewFQhBO8e04As7K4agMOaoNtHHI225zAQodj635sY5yVsNCn+EY4z3sHmUfOAcDhagtO13sE8O/Q+6K9SNBbDBO/y2hU7WABi8wV41ZMqNm6mY2xWJzMFt3wYUXGrCSFNVbAwiqQKrEu1c3EBpXL2P2Kxcdxx4mdb9AVw0L3rYBZ3OwdxYDF8BSNGxGkxwfcv87x7GzljswIBDWGgCH4rkgYyupKHjgneoHnRRTAsR1BAMs2sozTnGJ7TbVnpmgfvykmhwjPfG7ngCyuGxvOD7kdYWE7hML1T2crd0ZME190TChcsTUyA5yznAP80Pk4vprzuHifc9zHa/vr09JmwzjfWI5tAVzbAR6IuKjpQg7rykaSmY2ykWupXrKFfpy4YnW+3wkyhyNklFj3XnWQ8eunbj4ADt6DXa5hIR6LIeKfQ8t8HDs32+7ha2TvBWZm+F65XDMCRCtxn7RoJzCy5jjoCVdTB0pH0WjEg4lUIyg+2Wdi3XRfg7jBNXXkzYNenrA1QrOzff46OI/nHoh0je9l9uyz8LrnnIXPPafLeDTOPzeLuun8M3Df9fu73f5sx6t3DC/ddpgfO7uv7d998/4bx/AxzN75MPt4cm72bhl/Pn7m44t+E1/X9syHmSbOIOgsZYHz3wnF/PJZ+0Sb8L8A0UL0wxXiaEMx9/j0QOlCe5GgCyHEEWJe5EW7kKALIcQRwBe/S9DbiwS9xahoTYijDdOA+XSAy+zBINqJ3myLUU5ciKPNXmKeJM34AqJ9SNBbzKO6rQkhjiwUdHZbO/4Pv1hFdy1Fgt5i+OMVQhxdKOIsqfPF7Jubm84X7USCLoQQR4T5InjRPiToQgjRcmilU8wl6O1Ggi6EEC1mvnGsBL3dSNCFEKLleFGXoLcbCboQQrSYeTFXH/R2o7crhBBHBFno7UaCLoQQh5E6dNOj0nGm3EaqKyxwillOlcvZ8GbT385mGtRQU+1Ggi6EEIcQTonqp4Vtph2mqpfYXmJbM7VsUFbWDROLqgRHxDYqitnZoo1I0IUQ4hBCy9zNAw9HwrqZ452WeTlL2TkvOq33kAeDOlCS32b0doUQouWwYZzviy7aiwRdCCFagLfU98Lvk6C3Gwm6EEK0HFrnlcFCj5Tktxm9XSGEOCLIQm83EnQhhDjEsNHbfjjLHBrONnElW8HLQm81ertCCHFIuaKY08kgP1JI0FuMiteEONr4NIB+kiSWFblbF+1Egi6EEC1id2t332WNKJPfbiToLcb/iIUQRxM3GQtE3A1CY2zpLtqMBL3FaGYlIY4Ou+vTaakHszTAW+nK5LcbpfgtJoqi2ZIQos3s1zjOibizzkEYqB96y9HbbTFZls2WhBBHkaqqnKOws8QujuPZHtFGJOgthj9kIcTRRsXsRwcJeovpdDqzJSFEG9lr/HZf/E4/CEIk8k3VW1WalSX+iNYiQW8x+vEK0X4o6l7YnYjDOR/rQYUF7OwmXZuOp8jk95oDRSuRoAshRFupYaFD05nUsw96MLPWRTuRoAshxCHHF7PvBa13X4+ugWXajQRdCCGOAuq21nr0doUQ4hBzJeuc0Dr3deyy0NuNBF0IIQ4pVxNzCrifca2Gha7RI9uN3q4QQrQQav389KlO3CHqor1I0IUQokXsNQe6E3cuqMi91UjQhRCipRRF4YZ75aiRHAp6aWlptke0EQm6EEK0GFrmJf6yuF1F7u1Ggi6EEG1lTsBZh65Gce1Gb1cIIQ4hHOJ1P+a7qflBZSjmmlK53UjQhRDiELOfsFPU5/udc1CZMJagtxkJuhBCtBQKOuvPKzha6Cpybzd6u0II0VKqmU8k6O1Hb7fVhK44LnJFcjuvmktXqn8TQhwOdv+Ofd05pZyjyEWw0DmFalRXODa0PN4pghftQ4LeYpg7j/En9tOi14ET9xDbJOpCHH5CNz0qM+78RYdWQq/pnJhzDPcit8gC6+LvZDKxeHW5OVG0Egl6y2l+8DvjOVPE+WOXmAtx+OHP2tvcbprUmfPb6LOVe4RMPOvTC7VybzUS9COEF3UhxNHAt3KnqHP5mV/4JUoFWowEXQghWgpFnGLurPaZuIv2IkFvMfwRz7dyFUIcLXZb6KLdSNBbjG/xSn9e2PWzFuKI4C10OC6LdiNBbzFs9+YbyZCdLi1CiKMArXIOKsPBZWShtx8Jesvxgu5FfTdq7S5E+9jrZ71fGiDagwS9xXDsZl/Uztz5vBNCtAffHXUelshNsqklaWpF6QejEG1Ggn4EoKi7PqrwlUsXoh3sFvC94FCvzMC7IV+RwRftRm+4xTgR30PAryEdEEIcEq5UbUYxZ4M4jeN+NNAbbjHzRev8ze9uFHctOXwhxOGFaUBVVRLzI4Lecouhdb6flS4xF6L98PefV2WTFqhsrvVI0FvMXrny3Va6EKK9eAvdF72LdiNBbzFpt3tFK10I0W58pn6++k20Fwl6i4n7A6fknGmJ06iymJ159DJEjh1+M0+6EOIww8y6z7izgRynUnWZePzKOXWqq16LYhzDX71oMxL0FnPL05+FnHliaYkf89bEBmlqGVS8TiIrJ5l1+YOXqAtxqGky6Y3fzI3O5RiiHlo5La0TdWyUTc3w+xftRoLeYp7yf311cHE0tqTXx1po4/HYDTYzyvHjjvCjV52aEIeWxgpv8D5tcIq6s9rxm+cyt1bYUMdK7tuO3nDLGSdmo05gRSdCLj1zdWpFUSC3HsNaL61UKZwQh5r5hq4sXudqU/TebPMkCRID0Wok6C1n8e6n2EPToVm/ZxZHVpeVJRH8FCIfIdcuQReiVezVJZVd1tKkO1sTbUWC3nLu+Ljn2QOTTZumkSXdnpXT3LpxAiGvLbMCufv5iVWFEIeJeevcW+bzlMix+xbuqerQW48EveXc8SVfFdjxZdusagsg5EFeWoIfeVmWzgkh2oErbp9zHtalU9g7nc5si2grEvQjwF0veqGtZ7mVyM73w55Fk0bUI2Tc9yqeE0IcDuqgctVm3lBngn6ZmGMHXYGNQRrPtoq2IkE/ArzkG78rGJWV5VVs/XRglteWBpHFev1CtICm2sxb5vxV+182xbzp0hZYGEnQ245S9CPC05/3Qru0NbHROLfF/rJFBV59UV2WmxdCHG58sbu5rmuhRUlqOavX8HPvLiw2B4nWIkE/Irz4u/+fIFhctjzt2ghCfunSuh1bPoYEQJ+AEIedsG4y577o3UMLfTiZWgBh7y0tzLaKtqLU/Ahxy3Oebw9MJraGn/3pO+60C+cvzfYIIQ47oTWi7tvF0BvnmaVLA2OB3LhQI9i2I0E/QjzjX35HMFpdso1+1zbxa6/CZnhIIcThg9b3lWCXtglEfPnYcducjp0T7eYqn4RoI7/6f/zd+jbk5p+ysGDVeMuiWn3RhThsNILe/HbjKrQYBnhahq6+fDM1yyP2Qw8tT1J7cDSyv/Pb/03pfcuReXYE+Qe//VtBtjCwh9YuIRev37gQh5GrNWilhd7t9+zhs2fsjqfdPdsq2oxS8yPMG774C+uVfGodDTAjxKGE/dAp7LTQExjr8ZyFPolZjx5ZNRjYi37ul5TWHwFkoR9hPuVXfi0YJqlNw8TyMLIiiKyE48hS/tNgA5vd7nKaY5vW8tfrmmLDG3E7NNe7Vn++db+/zvX6jxdMlB+L74tb5R9W/8ZgIzhWl9GxlTuhmPN3nOM3PY069sBoYs/7tE93+0T7eZyTJnEYueebv7X+wHvfY6eOHbNV5OaHl85bOR7bUr9vIbP/VW11XboxoQMOTgG/qio4swjrbhpWHMMJIOanZPVjSJO9kjCOJ+/Gkt8WqOsEohzhH+/i0jNcjz5DEkJ1a6x0Ol3nuyBWpfN5RMD9OL4M8RzYQnmvEV76fr25JK65a7tfJ5zs5tGZnL3x8eF9Nw43Ti7xL8AK44IZDfp8rhr76qKJI7993meIGANM2HdCfLnPdxTgOQMk8qELdLO9drmSHX+/86/mMwQBIwDh4ZPUeA76XOf2AOFz75fh3cO/lv3z1/P+9nmucAn+PuErS76c/feHIb9fXgTXRTxxndsZL9x+tfhhvF5pv/f3ug7/Eu7CrfcGL5DfC2dJJP73xW0c6bHMhtZNOxYHqU0yDuccWZYO7FIU2iNVYS/523/bTn75l/Dm4gigFy0cD/7QD9dv/6u/tHQysRMQ8gESjh4SjWI0ggXQJIoUcSRxTQKEBIaJDBMqJ444xglViIQmongwgQwsz/PmBuBRyRwF2PmP2nNNPtP3alZdQFmveW/4vK8LC+D9/TodQuW2Ez4HxZT+bvz5RVFsL3vm15kQMxz7sV8Gx+OeHW7+OOKP3euceZrszP7sdb6/F30vFPvBd34lCmSWeI/mW7j8Wemuej6n8r0Cu4WMXHYfZCSvRBxfeXQ0hpHX89f08eW3XS1+5sNyrfhzmKFzGRb6+1ym2+02cQiXIa4qOJ7PcFLQ+0lg0+nUQljjYX/RtmCiX+KFT99qC0+9257///vm5oHEkUAvW1zGH37zN9bTh8/a6Ti1cGPL+khpFpDbT5MYiUhtU+T6syqzAgkME6KBs4BhRWKdzidWPkGnBevxCde278QZFg6tsT0E+6p+QDGAoNOS420h6M6fAyHaDovHh9cljLi/s5Rn+PB7mDkh8+d7uO1qguXP231dwoxA4sLQsNexV7o+j8pxkSuHoMFf0/v+Xns91/XA6/Eau8Put80/y15cTXDJ7jDymle7rudq74f35zH+uPnnoLuaoO8O2254DX/M/LV3/L2vz98IybLMhSEKkBXF75Dft1vHdxnj1AgZ2tF0YlkCCx2W+iPT3EaDBXvxZ32W3fnFX3blwInWoRcu9uTPvv7r6s5w4iz2FFZBWGRITGgN1xYnocVp6vzNtUsuoQrh6M87cmULCglUleCSV04094VCzr46M0nzCaWHpQlJkly2ncsVHEPH4uE4oKDs3H/3NZjQ+2fxzK/zHldit4U5f30KelCVjypV4DHe+QzFXjAjwoT/SiHY6768D8NF/2oz7l1N0IgvGXFxgQwcfV9iwvfPcLrSlD38YppdcT99f33689uvFvfkauHnfr5jH9/z74FcLUNwtev7a5L56+68j+b83c9NeATvz3v474DrBX6PfG/NcmlLp07ZJfwG7h1u2InnPdde8W9etXMjcaTQixdX5C++41vrcDS0YDiyCJZAjIQkgghZjkSlym15qe/SJG8ZM6FiQuMTnDhsEiKf7O22oFnXvXvbtUIxK2bprU+Iuc35SPwJi9wp4D4BdcfB0qHFw/rnAI8S+RR0D/gMnvkE2YF7sD6d99yP+XN8GHYSc15/J+z+WO737lH3nMNZa3BXij+Kgb+WZ/5e88+3F/Pn7YW7DoUWSQlLQ3xbCq67+IHAu3eCXXv5CdtgXGG/93m9vbZfU/iuAJ/fx4+PF3+O334lrmW/v95eYWnq7B/9XISfJcPnMg2zcDET48NYQuRH2HUOv8v+XU+xl7zqhx59A3Gk0AcgrokP/+QP1ec+9GGbXLpoSVZYB0lsguTFsik+oqae2Yt204iuSeiSmaAzoXJ+4zmcGDnrGgKA5XkL5dp8JPIW4woULaxTSnA5NnZz6/B7vT6WmWjP9sN3BQJINSOcn2fYQLlwHhJK7uf1ZwLingX+7v3eL3nMFdid4M+vu+vHiVV7XJc+QnvZ/Xf7fIyIGQJ3tb3he+E9vdsN998QON8LzDx7bduL+TYWe+EtYC+8u/EZt/0orlJHT/x1eS8fZh9f1/IMV2L+esTHi3e1z5HOwe+b8Ixer2c5MtAses+K3F0njCPXEK7q9uyOFzzPbvmWb72xQIrWoA9BPCbe8/3/Tz185IzVF85ZWjTWuC9ep1XuG8YVswSbAkwoRMSts8jcuJ9+k4Bdnx/jHn0sscUwhYuJI7MIMx83m0ym3A0thjUeMRENkQ1phD3H/jyJrWBCzotCHCjk3qdwVng2L6B7CjpCwV374RP0efw2JtxVmiA7tHO9eZ/36yTpo7bP+17w9sNb4LznvGARv+1KXG0/LrJ9TYoN7+e+hdm2+fvtxdXq0Hl/f13iw+y/L8Yh42E/rlRlQfzz8bre8V4sYaK7WvivFj/z4afvw0/n6sXxAP5dEi/mhJ8ACSDgSSd1g8Tc+RVfc+UAiSONPg7xuJD90qvr8+fO2KWL67a1uW7TKawJWBRxnDqJpVnsu1cFTniZENK2Lpzwsuj9un2ePUWyF8ZOGCKIM+vMI4gkE3K2xF9aWnLrtHSYIKZfroZCQgghhBBCCCGEEEIIIYQQQgghhBBCCCGEEEIIIYQQQgghhBBCCCGEEEIIIYQQQgghhBBCCCGEEEIIIYQQQgghhBBCCCGEEEIIIYQQQgghhBBCCCGEEEIIIYQQQgghhBBCCCGEEEIIIYQQQgghhBBCCCGEEEIIIYQQQgghhBBCCCGEEEIIIYQQQgghhBBCCCGEEEIIIYQQQgghhBBCCCGEEEIIIYQQQgghhBBCCCGEEEIIIYQQQgghhBBCCCGEEEIIIYQQQgghhBBCCCGEEEIIIYQQQgghhBBCCCGEEEIIIYQQQgghhBBCCCGEEEIIIYQQQgghhBBCCCGEEEIIIYQQQgghhBBCCCGEEEIIIYQQQgghhBBCCCGEEEIIIYQQQgghhBBCCCGEEEIIIYQQQgghhBBCCCGEEEIIIYQQQgghhBBCCCGEEEIIIYQQQgghhBBCCCGEEEIIIYQQQgghhBBCCCGEEEIIIYQQQgghhBBCCCGEEEIIIYQQQgghhBBCCCGEEEIIIYQQQgghhBBCCCGEEEIIIYQQQgghhBBCCCGEEEIIIYQQQgghhBBCCCGEEEIIIYQQQgghhBBCCCGEEEIIIZ5IzP7/cnYPWvpw43EAAAAASUVORK5CYII=;" vertex="1" parent="1">
          <mxGeometry x="150" y="650" width="50" height="50" as="geometry" />
        </mxCell>
        <mxCell id="bzDGTtf_FaZqw25zYTY--54" value="&lt;font style=&quot;font-size: 9px;&quot;&gt;See dashboards for transactions categories, evaluation on predictions&lt;/font&gt;" style="text;html=1;align=center;verticalAlign=middle;whiteSpace=wrap;rounded=0;fontStyle=1" vertex="1" parent="1">
          <mxGeometry x="70" y="877.52" width="170" height="30" as="geometry" />
        </mxCell>
        <mxCell id="bzDGTtf_FaZqw25zYTY--55" value="" style="verticalLabelPosition=bottom;verticalAlign=top;html=1;shape=mxgraph.basic.x;fillColor=#f8cecc;strokeColor=#b85450;" vertex="1" parent="1">
          <mxGeometry x="107" y="761" width="20" height="20" as="geometry" />
        </mxCell>
        <mxCell id="bzDGTtf_FaZqw25zYTY--57" value="" style="html=1;points=[[0,0,0,0,5],[0,1,0,0,-5],[1,0,0,0,5],[1,1,0,0,-5]];perimeter=orthogonalPerimeter;outlineConnect=0;targetShapes=umlLifeline;portConstraint=eastwest;newEdgeStyle={&quot;curved&quot;:0,&quot;rounded&quot;:0};" vertex="1" parent="1">
          <mxGeometry x="97" y="755.5" width="1" height="31" as="geometry" />
        </mxCell>
        <mxCell id="bzDGTtf_FaZqw25zYTY--59" value="" style="verticalLabelPosition=bottom;verticalAlign=top;html=1;shape=mxgraph.basic.tick;fillColor=#d5e8d4;strokeColor=#82b366;" vertex="1" parent="1">
          <mxGeometry x="67" y="761" width="20" height="20" as="geometry" />
        </mxCell>
        <mxCell id="bzDGTtf_FaZqw25zYTY--60" value="&lt;font style=&quot;font-size: 9px;&quot;&gt;&lt;b&gt;Make feedback on categories detected to create a knowledge base&lt;/b&gt;&lt;/font&gt;" style="text;html=1;align=center;verticalAlign=middle;whiteSpace=wrap;rounded=0;" vertex="1" parent="1">
          <mxGeometry x="127" y="755.5" width="109.25" height="30" as="geometry" />
        </mxCell>
        <mxCell id="bzDGTtf_FaZqw25zYTY--61" value="&lt;div&gt;&lt;br&gt;&lt;/div&gt;&lt;div&gt;&lt;br&gt;&lt;/div&gt;Fedback" style="shape=note;size=20;whiteSpace=wrap;html=1;sketch=1;curveFitting=1;jiggle=2;fillColor=#F0F4FF;" vertex="1" parent="1">
          <mxGeometry x="335" y="821.52" width="50" height="60" as="geometry" />
        </mxCell>
        <mxCell id="bzDGTtf_FaZqw25zYTY--62" value="" style="shape=image;html=1;verticalAlign=top;verticalLabelPosition=bottom;labelBackgroundColor=#ffffff;imageAspect=0;aspect=fixed;image=https://cdn0.iconfinder.com/data/icons/business-startup-10/50/20-128.png" vertex="1" parent="1">
          <mxGeometry x="127" y="822.52" width="58" height="58" as="geometry" />
        </mxCell>
      </root>
    </mxGraphModel>
  </diagram>
</mxfile>
